<svg width="241" height="57" viewBox="0 0 241 57" fill="none" xmlns="http://www.w3.org/2000/svg">
<path d="M225.184 55.4322C227.233 55.3646 224.081 55.1811 226.523 55.3259C226.248 55.4418 225.854 55.5287 225.184 55.4322Z" fill="#31258D"/>
<path d="M233.162 53.327C234.491 52.2744 235.713 50.9321 236.648 49.358C237.594 47.784 238.224 45.9492 238.342 44.0275C238.451 40.1937 238.47 36.2923 238.244 32.7483C238.214 31.9178 238.657 32.9607 238.559 31.0873C238.263 27.6495 238.204 23.2266 238.283 18.6107C238.313 17.4615 238.332 16.293 238.362 15.1245C238.421 13.9657 238.382 12.7876 238.135 11.6481C237.682 9.35942 236.5 7.27354 234.984 5.69948C235.151 5.78639 235.299 5.88296 235.447 5.98918C234.895 5.35183 234.107 4.81105 233.28 4.34752C232.433 3.91296 231.566 3.53634 230.739 3.22733C230.749 3.15007 231.31 3.32389 230.965 3.08247C230.837 3.10179 230.581 3.04385 230.266 2.94728C229.941 2.87002 229.537 2.78311 229.133 2.6962C228.306 2.54169 227.43 2.46444 227.055 2.561C226.366 2.43546 226.435 2.2713 225.548 2.16507L224.564 2.42581C221.825 3.04385 217.906 2.37752 214.163 2.70586C214.34 2.64792 214.715 2.59963 214.419 2.54169C208.411 2.91831 200.896 2.85071 194.179 2.9859C194.445 2.88934 194.692 2.72517 194.298 2.61894C193.963 2.88934 191.894 2.96659 190.092 3.01488C189.284 2.73483 187.009 3.27561 184.892 3.1211L185.069 3.06316C183.503 3.35286 182.755 2.88934 181.484 3.24664L180.499 3.02453C179.81 3.42046 178.244 2.82174 176.954 3.02453L176.993 3.10179C175.781 3.19835 175.141 2.99556 174.019 3.06316L173.91 3.01488C171.271 3.1211 169.734 2.89899 169.793 3.20801C168.868 2.95693 172.354 3.09213 170.896 2.73483C162.21 3.0535 153.247 2.99556 144.501 2.99556C143.506 2.87002 142.876 2.8314 142.65 2.71551C141.773 2.77345 139.36 2.77345 138.562 2.92796C138.858 2.91831 138.001 2.77345 137.538 2.75414C135.942 2.63826 135.804 3.09213 134.051 2.95693C134.751 2.87002 134.977 2.77345 134.751 2.65757C133.263 2.89899 131.264 2.86037 129.501 2.93762C129.777 2.88934 130.2 2.85071 130.131 2.75414C128.201 3.02453 126.615 2.6962 124.931 2.87002L125.562 2.68654C122.843 2.47409 124.764 3.06316 122.41 2.92796C122.971 2.87002 122.774 2.80242 122.883 2.72517C120.686 3.0535 117.141 2.94728 114.954 3.0535C115.082 3.02453 115.053 2.97625 115.053 2.97625C112.669 3.01488 110.177 2.91831 107.558 3.0535C106.602 2.97625 107.873 2.61894 105.351 2.68654C105.44 3.04385 101.067 2.8314 102.554 3.23698C100.397 3.17904 96.9896 3.04385 95.5517 3.16938C96.5169 3.03419 94.4978 2.73483 96.2904 2.6962L94.941 2.48375C95.138 2.3389 96.3297 2.53203 95.9062 2.34855C95.01 2.35821 92.3902 2.50306 91.5924 2.44512C89.9279 2.66723 88.4013 3.07282 85.7125 3.1211C86.9732 2.9859 84.9936 2.72517 85.8504 2.66723L82.098 3.35286C81.2017 3.37218 81.901 3.07282 80.6108 3.15973C80.6797 3.2563 80.1183 3.31424 79.7145 3.39149C79.3796 3.35286 75.9916 3.4784 75.5976 3.13076C75.2037 2.99556 77.0553 3.0535 76.0704 2.92796C74.4158 2.92796 74.3468 3.0535 72.6922 3.0535L72.6626 3.00522C71.5694 2.95693 69.442 3.15973 70.6337 3.35286C71.3921 3.36252 70.3481 3.14041 71.4709 3.24664C70.7027 3.44943 68.7821 3.50737 67.1275 3.51703C67.6889 3.45909 67.62 3.36252 67.8465 3.26595C65.6206 3.546 63.2667 3.63291 60.7848 3.74879C60.7454 3.91296 61.7106 3.43978 62.075 3.53634C58.8938 3.30458 55.5057 3.86468 52.8563 3.52669C53.2897 3.49772 53.0927 3.76811 53.0632 3.71982C51.5267 3.70051 51.5957 3.45909 50.6009 3.546C50.5024 3.40115 49.3501 3.59429 48.316 3.63291C47.7841 3.73914 48.05 3.56531 48.9463 3.546C47.5182 3.67154 41.7762 3.88399 38.467 3.6812C38.5261 3.77777 36.4282 4.02884 35.6699 4.01919L35.9653 3.79708C35.2759 3.66188 33.4144 3.81639 33.2864 3.62326C31.6613 3.89365 39.5504 3.39149 37.3442 3.60394C36.7729 3.42046 34.2812 3.95159 34.7539 3.65223C33.2175 3.6812 31.7401 3.92262 30.2726 3.71982C30.6961 3.75845 31.5136 3.41081 30.2825 3.43012C28.1058 3.46875 29.662 3.53634 27.899 3.6136L26.7959 3.70051C26.7171 3.91296 24.8557 3.67154 25.6633 3.91296C25.3974 3.73914 22.5018 4.01919 22.7283 3.66188L23.0336 3.38183C22.098 3.40115 21.4972 3.6812 20.7585 3.80674C20.6403 3.77777 20.3842 3.71982 20.4335 3.6812C20.2857 4.1061 18.1879 3.64257 17.075 3.98056C16.0901 3.9033 14.8294 3.9033 13.7263 3.88399C12.7119 3.89365 11.8156 3.99987 11.3724 3.9709C10.0428 4.41512 8.95942 5.0235 7.62981 5.82501C7.84648 5.59325 8.22074 5.39046 8.25029 5.25526C7.78739 5.4484 7.53132 5.62222 7.30479 5.82501C7.07826 6.01815 6.87143 6.22094 6.56612 6.54928C6.62521 6.47202 6.18201 6.7231 5.69941 7.17697C5.43348 7.37977 5.16756 7.6405 4.92134 7.91089C4.65541 8.17163 4.43874 8.44202 4.26145 8.66412C3.66067 9.92917 4.16296 9.62981 4.20236 9.81329C3.70991 10.2575 3.44399 11.2135 3.2864 12.1792C3.24701 12.6717 3.16822 13.1642 3.16822 13.6374C3.15837 13.8692 3.13867 14.1009 3.10912 14.323C3.08942 14.5548 3.05988 14.7866 3.01063 14.999C2.92199 14.4486 2.8826 12.9614 2.70531 14.0913C2.24241 15.4046 3.02048 16.8048 2.8038 18.968L3.15837 18.4368C2.93184 19.4025 3.3652 21.6429 3.00078 21.4208C3.12882 22.1451 2.8826 23.9895 3.23716 23.7481C2.94169 27.3211 3.41444 32.4393 2.78411 34.6314C2.8432 35.1432 2.78411 36.4179 2.96139 36.1571C3.15837 35.3073 2.8235 34.9693 2.95154 34.6507C2.96139 35.1142 3.05988 35.2108 3.10912 35.2591C3.03033 36.3599 3.00078 37.229 2.71516 36.1765C2.49849 38.6486 3.3061 38.7259 3.17807 41.874C3.03033 41.7291 2.98109 41.9706 3.00078 42.888C3.07958 43.4963 3.19776 43.9695 3.3258 44.491C3.42429 45.3891 3.41444 45.6595 3.3258 45.7174C3.23716 45.7753 3.05988 45.6208 2.94169 45.6691C3.17807 46.6638 3.69021 47.8226 4.07432 48.1413C4.14327 48.5662 4.3107 48.9428 4.43874 49.358C4.291 48.9042 4.43874 49.078 4.65541 49.387C4.91149 49.6767 5.22665 50.1402 5.41378 50.2851C5.28575 50.1885 5.17741 50.063 5.05922 49.9471C5.06907 50.063 5.2759 50.3334 5.56152 50.6134C5.82744 50.9128 6.17216 51.2025 6.41838 51.386C6.39868 51.1928 5.57137 50.3237 5.2365 49.7733C5.42363 49.9568 5.66001 50.1789 5.91608 50.4106C6.16231 50.6617 6.44793 50.8838 6.7434 51.0576C6.38883 51.1156 7.89573 52.2261 8.60486 52.6027C9.41247 53.0469 9.6193 52.8731 9.86552 52.96C9.83598 53.0952 11.2641 53.4525 10.5353 53.4043C10.2299 53.327 9.89507 53.0759 9.38292 52.9504C9.62915 53.1339 9.73749 53.2304 9.92462 53.3463C10.1117 53.4525 10.3875 53.607 11.0376 53.6746C11.9929 53.7712 10.8997 53.2304 12.6232 53.6553C12.1505 53.6457 12.052 53.7229 11.6777 53.7519C12.2293 53.8774 12.7808 54.0126 13.3619 54.0609L13.4407 53.8485C13.6672 53.9161 13.5096 53.9257 13.618 53.9643C14.14 53.7519 16.4348 53.8967 16.8485 53.6457C17.7841 53.6264 18.8183 53.7905 19.7047 53.8195L19.5372 53.8388C20.6305 53.9643 22.0783 53.8774 22.9942 53.7326L22.945 53.7809C23.5359 53.8002 24.9443 53.7616 25.6928 53.636C27.1997 53.8002 26.1951 54.4472 27.8596 54.1768C29.3862 54.1671 30.2529 53.7809 29.6324 53.6457C32.3705 53.7905 35.4827 53.4429 38.0238 53.7712C38.4177 53.6843 38.1715 53.6264 38.9791 53.5781C43.0074 53.665 47.4788 53.327 50.6797 53.7422C49.5077 53.8292 50.6009 53.9547 50.6305 54.0802C51.5957 53.8871 51.7926 54.283 52.1374 53.945C52.0389 53.7519 52.1374 53.6553 51.0047 53.5781C53.4079 53.4718 57.052 53.4718 58.3915 53.6553C57.7217 53.5684 58.2437 53.5105 58.7657 53.4429C58.5884 53.7519 60.3613 53.8002 61.7007 53.694L61.8879 53.5008L62.7546 53.694C63.2667 53.636 63.3258 53.298 64.6554 53.4815C64.7244 53.5588 64.8032 53.6264 65.0494 53.6843C66.4381 53.5298 68.3882 53.2691 69.8951 53.4236L71.1262 53.7036C71.7664 53.6746 72.8498 53.5105 71.7171 53.4236C74.2779 53.5877 75.9325 53.607 76.75 53.8485C81.1722 53.2691 87.5838 53.2401 92.725 53.2884L92.5773 53.4332C93.9561 53.5684 93.2963 53.1821 94.2615 53.2884C93.8183 53.4236 95.3153 53.5781 94.2319 53.7422C96.2017 53.8871 96.7729 53.5008 98.0632 53.4332C98.2601 53.2497 97.029 53.5491 97.2753 53.3173C97.4919 53.2497 100.003 53.4622 100.319 53.1821C100.811 53.2884 100.427 53.5008 100.161 53.6167L101.372 53.4815C102.85 53.8098 98.0139 54.0706 99.5602 54.4762L100.673 54.4279C101.737 54.7176 97.7283 54.7562 100.525 54.8624C101.737 54.7272 102.771 54.312 101.697 54.1961C104.219 54.1189 102.869 53.5298 105.578 53.5491C106.317 53.7133 103.411 53.5877 103.933 53.8195C105.214 54.0416 106.494 53.694 107.636 53.7712C106.376 53.665 107.439 53.3849 108.257 53.327C109.636 53.4622 107.361 53.5974 109.311 53.6167C109.636 53.4525 111.428 53.3367 109.872 53.2208C110.581 52.8538 111.901 53.327 112.965 53.0373C113.605 53.298 110.955 53.636 113.103 53.7616C112.758 53.5105 115.752 53.4236 114.619 53.0566C115.466 53.1242 115.545 53.327 114.934 53.4815C116.136 53.636 117.85 53.0276 118.244 53.5201L118.657 53.2691C119.032 53.356 119.573 53.4139 120.184 53.5491C121.248 53.5491 123.592 53.2015 123.503 53.5877C123.848 53.5491 126.261 53.5684 125.325 53.298C123.818 53.1339 123.602 53.4912 122.764 53.1339C123.828 53.4236 124.931 53.0952 125.798 52.9987L125.936 53.1435C126.458 53.0856 127.64 53.1145 127.965 52.96C127.571 53.0469 127.778 53.1435 128.191 53.1821L128.733 52.96C130.831 52.8442 129.225 53.356 131.274 53.2884L129.718 53.4622C130.063 53.4236 130.752 53.636 131.737 53.5684C132.121 53.3656 132.83 53.1145 133.155 52.9504C134.307 52.8635 133.667 53.1821 134.81 52.9697L133.323 53.2208C133.096 53.2884 134.327 53.5588 135.864 53.5588C136.848 53.4912 138.375 53.1918 136.819 53.0759C137.597 53.0759 138.671 53.2015 138.06 53.3463C139.813 53.2787 137.833 53.1242 139.34 52.9987C139.961 53.1339 141.881 53.3367 143.043 53.5298L141.468 53.8774H142.521C141.162 54.1575 143.211 54.0899 142.443 54.3796C143.162 54.4279 144.028 54.3216 144.718 54.254C142.62 53.7905 147.062 53.6167 146.451 53.1918C149.317 53.0759 148.244 54.2251 151.238 53.5588C150.745 53.4525 152.164 53.1242 150.351 53.2497C152.134 53.298 151.563 52.8248 153.671 52.9987C152.114 53.1725 155.345 53.4332 153.089 53.6843C153.237 53.5394 151.839 53.5781 151.484 53.6167C152.223 53.7809 151.336 54.0416 153.158 54.0416C154.271 54.003 155.798 53.9933 155.581 53.7712C155.532 53.5298 153.877 53.8002 154.596 53.5491C156.812 53.4622 157.187 53.8388 158.103 53.4043C156.704 53.4332 156.349 53.1821 156.379 53.018L158.014 52.9118L157.699 53.0759C160.309 53.1918 158.467 52.7862 161.008 52.8248L162.2 53.1435C161.599 53.4236 158.516 53.018 158.969 53.4718C160.614 53.4912 161.166 53.2594 162.712 53.3753C162.367 53.4042 161.894 53.4429 161.55 53.4622C162.141 53.4815 162.732 54.0706 165.076 53.7229C166.287 53.5877 165.401 53.5588 165.43 53.3946C168.07 53.3463 168.858 53.1725 170.562 53.1435C170.207 53.4718 173.565 53.1725 171.694 53.5105C170.827 53.3173 167.006 53.3367 166.07 53.6457C167.036 54.0319 163.992 53.5877 163.431 53.9837C165.548 53.9933 165.45 54.3796 165.795 54.6307C166.386 54.65 166.957 54.5438 167.302 54.5051C167.548 54.2734 166.78 54.2734 166.74 54.0319C169.104 54.0995 171.379 53.9643 172.689 53.7326C173.477 53.8485 173.231 54.0899 172.295 54.1092C175.112 54.0416 178.116 54.0706 180.785 54.1382C179.061 53.7519 183.769 54.0513 182.587 53.7229C181.159 53.636 179.928 53.3656 180.716 53.1918C181.612 53.2208 180.686 53.356 181.061 53.4429C182.203 53.2304 182.833 53.7809 183.956 53.4525C181.386 53.5781 183.454 53.9257 182.981 54.2251C184.833 54.0513 182.902 54.4375 184.734 54.4375C186.586 54.2734 188.851 54.1382 190.91 54.0706C193.49 54.3603 197.439 54.0802 199.744 54.0609C200.946 54.2154 200.128 54.5534 201.438 54.6114C202.975 54.6017 200.296 54.2444 202.571 54.3989L202.354 54.4665C203.043 54.3892 206.52 54.6983 207.19 54.2058L206.491 54.5727C206.914 54.6017 207.308 54.5244 207.663 54.4858C207.682 54.6017 208.175 54.7176 207.485 54.7948C208.884 55.0459 210.43 54.7562 211.957 54.7466L210.972 54.5244C213.582 54.3506 215.335 54.5727 217.856 54.4955L217.778 54.7079L219.275 54.5824C218.91 54.7852 220.289 54.9204 221.077 54.7466L217.177 55.268C216.093 55.1425 218.359 55.0073 217.679 54.7948C217.098 54.6114 214.764 54.6693 214.39 54.8721C215.286 54.8914 215.325 54.8528 216.024 54.7755C216.32 55.0749 214.961 55.0652 214.291 55.2584C214.764 55.2487 215.424 55.3356 215.522 55.239C214.606 55.3839 213.671 55.4032 212.144 55.4129C213.178 55.297 211.583 55.2294 211.977 55.1425C211.858 55.4032 210.391 55.4901 208.5 55.4129C207.151 55.1135 204.944 55.606 202.748 55.5288C203.634 55.2584 204.777 55.0459 206.107 54.9397C204.728 54.8045 204.57 54.9493 203.191 54.8141C202.521 55.0169 202.049 55.3163 200.246 55.4322L200.148 55.239C198.513 55.3356 198.513 55.6253 196.445 55.577C192.889 55.4805 189.235 55.4805 186.527 55.4515L186.428 55.2584C184.921 55.6736 181.395 55.4129 179.367 55.5963C175.91 55.4032 171.862 55.7798 170.089 55.4418C163.992 55.5963 158.664 55.7412 152.341 55.664L153.405 55.3742C152.272 55.5867 152.666 55.2101 151.563 55.2487C152.833 55.4805 150.026 55.5481 149.238 55.7219C146.422 55.4998 142.817 55.7412 140.325 55.944L140.227 55.7509C137.705 56.1178 134.701 55.7991 131.56 55.7315C131.195 55.6543 130.634 55.4708 129.698 55.4901C127.994 55.8088 127.108 55.7798 124.606 55.9826C122.784 55.9826 119.82 55.9054 117.968 55.7798C111.103 56.224 104.091 55.944 96.9601 56.2047L96.4479 55.973C89.5339 56.4655 81.0244 56.0213 75.1249 56.2723L75.6961 55.8764C73.8445 55.7509 71.4808 55.9826 71.9535 56.2627C70.1019 56.1468 67.3245 56.4558 66.1426 56.1275C64.2418 56.0502 63.8183 56.311 62.2424 56.3592C58.4407 56.2144 57.0323 56.2434 53.4571 56.3206L54.3435 56.3496C54.7375 56.2627 54.767 56.0985 53.8806 56.0695C52.551 56.1758 48.966 55.9633 50.2956 56.4365C46.4742 56.1661 41.3823 56.6586 37.6594 56.2916C37.9745 56.4172 37.0389 56.4462 36.6449 56.5331C33.2963 56.5427 29.7703 56.282 27.0914 56.4944C26.5596 56.4268 27.9384 56.2723 26.5792 56.2627C25.7716 56.311 26.5595 56.4268 25.5648 56.5041C22.8465 56.62 20.0986 56.562 17.4098 56.4751C16.7401 56.4558 16.0704 56.4365 15.4105 56.4075L14.4158 56.3786C14.1006 56.3689 13.7559 56.3592 13.3718 56.3303C11.9043 56.2627 10.486 55.944 9.18595 55.4612C8.01392 55.0652 6.89113 54.4955 5.88654 53.7616C4.86224 53.0566 3.94629 52.1778 3.18791 51.1928C1.62193 49.2422 0.676424 46.8086 0.459746 44.3365L0.410502 43.4094C0.400653 43.1004 0.410502 42.859 0.400653 42.5789L0.400653 40.9566C0.400653 39.875 0.400653 38.8031 0.400653 37.7312C0.400653 35.597 0.390804 33.4822 0.390804 31.4253L0.489293 31.5219C0.124881 28.76 0.863555 25.0421 0.312012 22.8404C0.400653 22.1837 0.351408 20.3489 0.538538 20.8317C0.410502 19.7309 0.469595 18.1954 0.51884 16.5248C0.538538 15.6846 0.558236 14.8059 0.577934 13.9368C0.607481 12.9807 0.696122 12.0247 0.853706 11.1363C0.765065 11.455 0.725669 11.6384 0.71582 12.0344C1.13933 10.2672 1.78936 8.66412 2.72501 7.20594C3.67051 5.75742 4.91149 4.42477 6.58581 3.44943C6.2017 3.75845 5.66001 4.21232 5.62061 4.34752C5.94563 4.16404 6.2608 3.92262 6.58581 3.6812C6.92068 3.43978 7.26539 3.20801 7.59041 2.97625C7.93512 2.77345 8.26014 2.58997 8.56546 2.46444C8.87078 2.34855 9.16625 2.30993 9.39277 2.3389C10.1807 2.04919 9.89507 1.914 9.39277 2.10713C10.3974 1.75949 11.4512 1.57601 12.5247 1.46012C13.0467 1.44081 13.6377 1.39253 14.1006 1.40218H15.5582C17.5083 1.38287 19.4683 1.36356 21.4479 1.34424C25.3974 1.27664 29.3862 1.19939 33.3258 1.13179C38.9693 1.40218 33.6705 1.89468 38.1223 1.55669C38.4867 1.6436 38.3882 1.38287 38.4473 1.47944C40.1708 1.3539 41.1262 1.99125 42.3278 1.74983C41.8353 1.46978 43.1255 1.59532 43.1551 1.4215C46.6022 1.60498 47.3015 1.85605 50.0198 1.6436L49.813 1.78846C53.0041 1.37321 56.7073 1.59532 59.4059 1.11248C77.0159 0.977282 93.8971 0.842087 111.074 0.706891C128.043 0.793803 144.669 0.581352 161.904 0.83243C165.942 1.2187 166.248 1.20905 170.68 1.05454C170.502 1.11248 170.227 1.13179 170.522 1.18973C170.749 0.871057 173.644 1.16076 174.068 0.8614C180.44 0.919341 186.31 0.83243 192.869 0.83243C191.835 0.871057 191.313 1.12213 192.544 1.10282L193.835 0.900028L194.041 0.986939C194.879 0.938655 195.804 0.784146 194.938 0.67792C203.172 0.542725 211.346 0.629636 219.472 0.745518C221.5 0.774489 223.529 0.803459 225.558 0.83243C226.494 0.851744 227.784 0.851744 228.917 1.09316C229.498 1.17042 230.059 1.36356 230.63 1.50841C231.172 1.72086 231.743 1.88503 232.256 2.15542C236.53 4.08678 239.544 8.26819 240.085 12.8166C240.125 13.3477 240.135 13.9561 240.145 14.4969C240.135 15.0087 240.135 15.5398 240.125 16.0902C240.125 17.1815 240.135 18.3306 240.135 19.4894C240.174 21.8071 240.204 24.1633 240.233 26.2009C240.135 29.2235 240.036 32.1785 239.938 35.0949C239.859 38.0306 239.78 40.9276 239.701 43.8343C239.534 47.0501 238.096 50.1789 235.722 52.4579C233.368 54.7465 230.069 56.2047 226.553 56.2723C226.553 56.2723 226.671 56.2144 226.927 56.1275C227.183 56.0213 227.587 55.9343 228.129 55.7412C229.202 55.3936 230.965 54.8045 233.162 53.327Z" fill="#31258D"/>
<path d="M222.722 55.4611C222.278 55.3066 220.85 55.2197 221.993 55.0073C222.131 55.1618 222.869 55.3259 222.722 55.4611Z" fill="#31258D"/>
<path d="M184.419 53.8388C184.37 53.8871 183.877 53.7712 183.749 53.7519C184.222 53.7423 184.665 53.6071 185.039 53.694C184.557 53.694 184.636 53.7712 184.419 53.8388Z" fill="#31258D"/>
<path d="M174.619 53.7423C174.767 53.5974 176.865 53.4912 178.096 53.4719L174.619 53.7423Z" fill="#31258D"/>
<path d="M165.489 53.1629C164.701 53.047 164.918 52.9794 165.982 52.9794C166.061 53.0566 165.716 53.0953 165.489 53.1629Z" fill="#31258D"/>
<path d="M164.849 53.4815C164.091 53.4815 163.717 53.4042 163.342 53.3173C163.372 53.4429 165.095 53.2497 164.849 53.4815Z" fill="#31258D"/>
<path d="M145.033 53.0759C144.56 53.0856 143.526 53.2015 143.083 53.047C143.585 53.1532 145.397 52.8635 145.033 53.0759Z" fill="#31258D"/>
<path d="M135.824 53.2883C135.529 53.2787 135.401 53.2497 135.056 53.2883C134.514 53.2207 135.086 53.1242 135.548 53.1049L135.824 53.2883Z" fill="#31258D"/>
<path d="M3.05002 16.8242L3.11896 17.7995L2.98108 17.6546L3.05002 16.8242Z" fill="#31258D"/>
<path d="M66.1624 3.81641C67.1571 3.7295 66.8518 3.95161 67.0192 3.97092C66.123 3.98058 67.3541 3.7971 66.1624 3.81641Z" fill="#31258D"/>
<path d="M105.765 3.11147L105.47 3.12113L105.568 2.83142L105.765 3.11147Z" fill="#31258D"/>
</svg>
