<svg width="214" height="394" viewBox="0 0 214 394" fill="none" xmlns="http://www.w3.org/2000/svg">
<g opacity="0.92">
<path d="M18.5772 392.514C18.6408 394.794 18.8043 391.283 18.6771 394.001C18.5681 393.691 18.4864 393.253 18.5772 392.514Z" fill="#31258D"/>
<path d="M211.91 30.3677C211.219 23.0289 211.919 13.3653 211.483 5.32451C211.455 4.35816 211.855 5.61625 211.764 3.3918C211.737 2.92686 211.71 2.43457 211.682 1.88757C210.683 1.92404 209.62 1.96962 208.512 2.00609C207.44 2.02432 206.332 2.05167 205.187 2.0699C202.898 2.09725 200.472 2.07902 198.011 2.04255C193.087 1.96962 188.018 1.79641 183.557 1.60496L184.13 1.49556C182.331 1.41351 180.124 1.76906 178.216 1.72347C178.198 1.65054 178.825 1.62319 178.379 1.52291C177.898 1.73259 174.927 1.62319 174.119 1.77817C173.365 1.69612 173.438 1.52291 172.466 1.43174L171.375 1.67789C168.341 2.25223 163.999 1.64142 159.857 1.93315C160.056 1.87846 160.465 1.83287 160.138 1.77817C153.488 2.13372 145.158 2.06079 137.718 2.19753C138.018 2.11549 138.29 1.95139 137.854 1.86022C137.491 2.11549 135.193 2.1793 133.194 2.234C132.295 1.96962 129.778 2.47103 127.435 2.32517L127.634 2.27047C125.908 2.54396 125.073 2.11549 123.665 2.44368L122.565 2.234C121.802 2.60778 120.067 2.04255 118.632 2.234L118.677 2.30693C117.333 2.3981 116.633 2.21577 115.38 2.27047L115.262 2.22488C112.337 2.32517 110.638 2.11549 110.701 2.40722C109.675 2.1793 113.536 2.29782 111.928 1.9605C102.298 2.26135 92.3783 2.19753 82.6944 2.20665C81.5952 2.08814 80.8957 2.05167 80.6505 1.94227C79.6875 1.99697 77.0076 1.99697 76.1265 2.14284C76.4535 2.13372 75.4996 1.99697 74.9909 1.97874C73.2286 1.86934 73.0651 2.29782 71.1301 2.17019C71.9023 2.09725 72.1566 1.99697 71.9023 1.88757C70.2489 2.11549 68.0414 2.07902 66.0883 2.15195C66.3881 2.10637 66.8605 2.0699 66.7878 1.98785C64.653 2.24312 62.8906 1.93315 61.0284 2.09725L61.7369 1.93315C58.73 1.73259 60.8467 2.27958 58.2395 2.16107C58.8663 2.10637 58.6483 2.04255 58.7573 1.97874C56.3318 2.27958 52.3983 2.1793 49.9728 2.2887C50.1181 2.26135 50.0818 2.21577 50.0818 2.21577C47.4382 2.25223 44.6857 2.16107 41.7787 2.2887C40.7249 2.21577 42.1239 1.87846 39.3259 1.94227C39.4259 2.27958 34.5839 2.07902 36.2282 2.46192C33.839 2.40722 30.069 2.27958 28.4702 2.3981C29.5422 2.27047 27.3074 1.98785 29.2878 1.9605L27.7889 1.75994C28.0069 1.62319 29.3332 1.80552 28.8608 1.63231C27.8616 1.64142 24.9637 1.77817 24.0825 1.72347C23.3285 1.80552 22.6017 1.92404 21.8023 2.03344C20.9575 2.14284 20.1853 2.24312 19.3586 2.30693C19.3859 2.69895 19.4041 3.12742 19.4132 3.58325C19.3496 2.99068 19.2587 3.07272 19.177 3.29152C19.0952 3.5012 19.0225 3.82028 18.9953 3.31887L19.6403 7.52161C19.6584 8.51531 19.3768 7.7404 19.4677 9.18082C19.5585 9.10789 19.613 9.72781 19.6857 10.1745C19.6493 10.5483 19.7674 14.3134 19.4404 14.751C19.3132 15.1886 19.3677 13.1283 19.2496 14.2314C19.2496 16.0729 19.3677 16.155 19.3677 17.9874L19.3223 18.0239C19.2769 19.2364 19.4586 21.6067 19.6403 20.2848C19.6493 19.437 19.4404 20.6039 19.5403 19.3549C19.7311 20.2119 19.7856 22.3451 19.7856 24.1867C19.7311 23.5576 19.6403 23.6397 19.5494 23.3844C19.8129 25.855 19.8946 28.4715 19.9945 31.2338C20.149 31.2794 19.7129 30.2036 19.7947 29.8025C19.5767 33.3397 20.1036 37.1048 19.7856 40.0495C19.7584 39.5663 20.0036 39.7851 19.9673 39.8216C19.9491 41.5264 19.722 41.4534 19.8038 42.5565C19.6675 42.666 19.8492 43.9514 19.8855 45.091C19.9855 45.6835 19.8219 45.3918 19.8038 44.389C19.9219 45.9844 20.1217 52.3569 19.931 56.0308C20.0218 55.9579 20.258 58.2917 20.2489 59.1396L20.04 58.7931C19.9128 59.5681 20.0581 61.6284 19.8855 61.7651C20.1399 63.5702 19.6766 54.8092 19.8674 57.2524C19.6948 57.8815 20.1944 60.6529 19.9128 60.1333C19.9219 61.8381 20.149 63.4791 19.9582 65.1018C19.9945 64.6277 19.6766 63.7252 19.6857 65.0927C19.722 67.5086 19.7856 65.7764 19.8492 67.7365L19.931 68.9672C20.1308 69.0493 19.9037 71.1279 20.1308 70.2253C19.9673 70.5262 20.2307 73.7352 19.9037 73.489L19.6403 73.1517C19.6584 74.191 19.9128 74.8565 20.0309 75.6861C20.0036 75.8229 19.9491 76.0964 19.9128 76.0417C20.3125 76.2058 19.8765 78.5396 20.1853 79.7795C20.0491 81.9674 20.1762 85.3497 19.9219 86.3799C20.04 88.0664 20.1853 89.598 20.1036 91.5216C20.0672 91.1387 20.0581 90.6099 19.9673 90.5097C19.8492 91.7131 19.9582 92.0139 20.0218 93.117C19.9582 92.8709 19.7856 95.5238 19.6493 96.873C19.7674 98.5414 19.9855 97.9761 20.1217 98.1402C19.722 99.6718 20.3761 102.863 20.0218 104.777C19.9673 104.194 19.831 102.334 19.7311 103.729C19.3405 105.26 20.0218 106.81 19.831 109.281L20.1581 108.679C19.9582 109.773 20.3488 112.307 20.0127 112.061C20.1308 112.891 19.9037 114.969 20.2217 114.696C19.9491 118.744 20.3852 124.551 19.8129 127.04C19.8674 127.623 19.8129 129.073 19.9764 128.772C20.1581 127.806 19.8492 127.423 19.9673 127.067C19.9764 127.587 20.0672 127.705 20.1126 127.76C20.04 129.018 20.0127 130.012 19.7493 128.817C19.5494 131.616 20.2943 131.707 20.1671 135.272C20.0309 135.108 19.9855 135.381 20.0036 136.421L20.2307 138.399C20.1762 140.705 19.931 139.712 19.7038 139.766C19.7402 140.997 19.7311 142.511 19.9037 143.067L19.6221 144.562C19.831 143.468 19.7584 145.574 19.8129 146.157L19.7584 145.574C19.6675 145.802 19.722 147.224 19.7493 147.944C19.8855 147.78 19.9491 146.321 19.9855 145.528C20.0854 146.157 20.0581 147.142 20.1762 147.971C19.9582 147.698 20.0218 149.977 19.9945 150.962C19.9491 152.083 20.1944 152.229 20.1853 152.557C20.0672 152.584 20.1671 154.389 20.0036 153.514C19.9673 153.131 20.1126 152.639 20.0127 152.001C19.931 152.739 19.7311 152.657 19.8765 154.189C19.9855 155.347 20.3125 153.888 20.1762 156.085C20.1217 155.511 20.0309 155.401 19.9582 154.955L19.8401 157.015L20.04 157.106C19.9855 157.38 19.9764 157.188 19.9491 157.325C20.1581 157.936 20.0127 160.461 20.2489 160.926C20.2671 161.965 20.1126 163.114 20.0854 164.099L20.0672 163.907C19.9491 165.12 20.0309 166.724 20.1581 167.745L20.1126 167.69C20.0945 168.347 20.1308 169.915 20.2489 170.745C20.0945 172.413 19.4949 171.31 19.7402 173.151C19.7493 174.847 20.1036 175.813 20.2398 175.13C20.1036 178.175 20.4306 181.639 20.1217 184.465C20.2035 184.903 20.258 184.629 20.3034 185.532C20.2217 190.008 20.5396 194.976 20.149 198.541C20.0672 197.246 19.9491 198.45 19.831 198.477C20.0127 199.544 19.6403 199.763 19.9491 200.145C20.1308 200.036 20.2217 200.145 20.2943 198.887C20.3943 201.559 20.3943 205.615 20.2217 207.092C20.3034 206.354 20.3579 206.928 20.4124 207.512C20.1217 207.32 20.0763 209.289 20.1853 210.775L20.3579 210.985L20.1762 211.951C20.2307 212.526 20.5487 212.58 20.3761 214.057C20.3125 214.13 20.2398 214.221 20.1853 214.486C20.3307 216.026 20.5759 218.196 20.4215 219.874L20.1671 221.241C20.1944 221.952 20.3488 223.156 20.4215 221.898C20.2671 224.751 20.2489 226.593 20.0218 227.495C20.5669 232.409 20.585 239.538 20.5487 245.254L20.4124 245.09C20.2852 246.622 20.6395 245.883 20.5487 246.959C20.4215 246.458 20.2762 248.126 20.1217 246.922C19.9855 249.12 20.3488 249.749 20.4124 251.18C20.585 251.399 20.3034 250.031 20.5214 250.305C20.585 250.551 20.3852 253.341 20.6486 253.687C20.5487 254.234 20.3488 253.805 20.2489 253.514L20.3761 254.854C20.0672 256.495 19.831 251.116 19.4495 252.839L19.4949 254.079C19.2224 255.255 19.186 250.806 19.0952 253.915C19.2224 255.264 19.6039 256.413 19.722 255.219C19.7947 258.017 20.3488 256.513 20.3216 259.531C20.1671 260.351 20.2852 257.115 20.0672 257.698C19.8583 259.12 20.1853 260.552 20.1126 261.81C20.2126 260.406 20.476 261.591 20.5214 262.503C20.3943 264.034 20.2762 261.509 20.2489 263.679C20.4033 264.034 20.5124 266.031 20.6214 264.308C20.9666 265.092 20.5305 266.569 20.794 267.745C20.5487 268.456 20.2398 265.511 20.1126 267.891C20.3488 267.517 20.4306 270.835 20.7758 269.577C20.7122 270.516 20.5214 270.607 20.3852 269.933C20.2398 271.273 20.8121 273.178 20.3488 273.616L20.585 274.072C20.5033 274.491 20.4488 275.093 20.3216 275.767C20.3216 276.943 20.6395 279.56 20.2852 279.45C20.3216 279.824 20.3034 282.514 20.5578 281.474C20.7122 279.806 20.3761 279.551 20.7122 278.621C20.4397 279.797 20.7485 281.028 20.8394 281.994L20.7031 282.149C20.7576 282.723 20.7304 284.045 20.8757 284.41C20.794 283.972 20.7031 284.2 20.6668 284.656L20.8757 285.258C20.9847 287.591 20.5033 285.805 20.5669 288.084L20.4033 286.361C20.4397 286.735 20.2398 287.509 20.3034 288.603C20.4942 289.023 20.7304 289.816 20.8757 290.181C20.9575 291.466 20.6577 290.755 20.8576 292.013L20.6214 290.363C20.5578 290.117 20.3034 291.475 20.3034 293.189C20.367 294.283 20.6486 295.979 20.7576 294.256C20.7576 295.113 20.6395 296.316 20.5033 295.632C20.5669 297.574 20.7122 295.377 20.8303 297.054C20.7031 297.738 20.5214 299.881 20.3307 301.166L20.0127 299.416V300.583C19.7584 299.069 19.8129 301.348 19.5403 300.501C19.4949 301.294 19.5948 302.26 19.6584 303.026C20.0945 300.701 20.258 305.633 20.6577 304.959C20.7667 308.149 19.6857 306.946 20.3125 310.273C20.4124 309.727 20.7213 311.295 20.6032 309.289C20.5578 311.267 21.0029 310.638 20.8394 312.972C20.6759 311.24 20.4397 314.832 20.1944 312.325C20.3307 312.489 20.2943 310.93 20.258 310.547C20.1036 311.367 19.8583 310.383 19.8583 312.407C19.8946 313.647 19.9037 315.342 20.1126 315.096C20.3398 315.041 20.0854 313.2 20.3216 314.002C20.4033 316.473 20.0581 316.883 20.4578 317.904C20.4306 316.345 20.6577 315.953 20.8212 315.98L20.9121 317.795L20.7576 317.439C20.6486 320.347 21.0302 318.296 20.9938 321.113L20.694 322.435C20.4397 321.76 20.8121 318.342 20.3852 318.843C20.367 320.675 20.585 321.277 20.476 323.009C20.4488 322.626 20.4215 322.098 20.3943 321.724C20.3761 322.38 19.8219 323.037 20.149 325.644C20.2762 326.993 20.2943 326 20.4578 326.036C20.5033 328.972 20.6668 329.847 20.694 331.743C20.3852 331.351 20.6668 335.089 20.3488 333.001C20.5305 332.035 20.5124 327.786 20.2217 326.747C19.8583 327.814 20.2762 324.441 19.9037 323.812C19.8946 326.173 19.5403 326.054 19.3041 326.437C19.286 327.094 19.3859 327.723 19.4222 328.115C19.6403 328.388 19.6403 327.54 19.8674 327.486C19.8038 330.111 19.931 332.646 20.149 334.095C20.04 334.97 19.8219 334.697 19.7947 333.657C19.8583 336.784 19.831 340.13 19.7674 343.102C20.1308 341.188 19.8492 346.421 20.149 345.108C20.2307 343.512 20.4851 342.145 20.6486 343.02C20.6214 344.014 20.4942 342.993 20.4124 343.403C20.6123 344.67 20.0945 345.372 20.4033 346.612C20.2852 343.759 19.9673 346.056 19.6857 345.527C19.8401 347.588 19.4858 345.436 19.4858 347.478C19.6403 349.539 19.7674 352.055 19.831 354.343C19.5676 357.206 19.8219 361.6 19.8401 364.161C19.6948 365.502 19.3768 364.59 19.3223 366.049C19.3314 367.753 19.6675 364.781 19.5222 367.307L19.4586 367.061C19.5312 367.826 19.2405 371.692 19.7038 372.439L19.3586 371.655C19.3314 372.129 19.4041 372.567 19.4404 372.95C19.3314 372.968 19.2224 373.515 19.1497 372.749C18.9135 374.308 19.186 376.022 19.1951 377.718L19.395 376.624C19.5585 379.523 19.3496 381.465 19.4222 384.273L19.2224 384.191L19.3405 385.859C19.1497 385.449 19.0225 386.98 19.186 387.865L18.6955 383.525C18.8136 382.322 18.9408 384.838 19.1315 384.081C19.3041 383.443 19.2496 380.845 19.0589 380.425C19.0407 381.419 19.077 381.465 19.1497 382.24C18.8681 382.568 18.8863 381.064 18.6955 380.316C18.7046 380.836 18.6228 381.574 18.7137 381.693C18.5774 380.672 18.5592 379.641 18.5501 377.937C18.6592 379.094 18.7227 377.308 18.8045 377.745C18.5592 377.608 18.4866 375.986 18.5501 373.88C18.8318 372.375 18.3685 369.923 18.4502 367.489C18.6955 368.474 18.8953 369.741 18.9953 371.227C19.1225 369.695 18.9862 369.522 19.1134 367.99C18.9317 367.252 18.641 366.723 18.532 364.718L18.7137 364.608C18.6228 362.794 18.3503 362.794 18.4048 360.487C18.4956 356.54 18.4956 352.474 18.5138 349.456L18.6955 349.338C18.3049 347.661 18.5501 343.75 18.3775 341.489C18.5501 337.651 18.2049 333.147 18.5138 331.178C18.3775 324.395 18.2322 318.469 18.3049 311.45L18.5683 312.626C18.3685 311.367 18.7227 311.805 18.6864 310.574C18.4775 311.987 18.4139 308.86 18.2504 307.994C18.4593 304.867 18.2322 300.856 18.0414 298.085L18.2231 297.975C17.8779 295.176 18.1777 291.831 18.2322 288.339C18.3049 287.938 18.4775 287.309 18.4593 286.27C18.1595 284.373 18.1868 283.389 17.996 280.608C17.996 278.584 18.0687 275.293 18.1868 273.224C17.7689 265.593 18.0414 257.799 17.7871 249.876L18.0051 249.302C17.5418 241.617 17.9597 232.163 17.7235 225.599L18.0868 226.237C18.1959 224.186 17.9869 221.551 17.7326 222.071C17.8416 220.01 17.5509 216.92 17.8597 215.616C17.9233 213.51 17.6871 213.036 17.6417 211.286C17.778 207.065 17.7507 205.497 17.678 201.522L17.6508 202.507C17.7326 202.944 17.887 202.981 17.9142 201.987C17.8143 200.501 18.0142 196.526 17.5781 198.003C17.8325 193.755 17.3692 188.093 17.7144 183.964C17.5963 184.319 17.569 183.271 17.4873 182.833C17.4782 179.104 17.7235 175.184 17.5236 172.212C17.5872 171.62 17.7235 173.16 17.7416 171.638C17.6962 170.735 17.5872 171.62 17.5145 170.507C17.2874 164.472 17.7416 158.282 17.6871 152.785C17.46 143.021 17.569 132.838 17.5327 123.484L17.6235 123.594C17.2874 120.458 17.9687 116.246 17.46 113.748C17.5418 113.009 17.4964 110.922 17.669 111.469C17.4328 108.971 17.8961 104.485 17.5872 100.875C17.5781 101.203 17.5963 101.395 17.6326 101.778C17.8234 98.1402 17.56 94.9221 17.7326 91.084C17.7689 91.476 17.7961 92.178 17.887 92.2965C18.0596 90.8105 17.5145 88.7775 17.9415 87.9661C17.9415 87.1183 17.7326 87.3645 17.7416 87.8841C17.9052 79.4695 17.6326 70.4806 17.5418 61.7287C17.7961 55.4474 18.2594 61.3458 17.9415 56.3955C18.0233 55.9944 17.778 56.1038 17.8688 56.0308C17.7507 54.1164 18.3412 53.0497 18.1232 51.7187C17.8597 52.2657 17.9778 50.8344 17.8234 50.7979C17.996 46.9599 18.2322 46.1941 18.0323 43.1582L18.1686 43.3862C17.778 39.8398 17.9869 35.7282 17.5418 32.7289C17.4691 21.7252 17.3964 10.9585 17.3238 0.264824C26.7805 0.191891 36.1919 0.137192 45.685 0.0824924C64.4895 0.164541 82.8943 -0.0360228 101.989 0.201008C106.459 0.56567 106.795 0.556554 111.71 0.410689C111.51 0.465388 111.201 0.483621 111.528 0.53832C111.773 0.246591 114.989 0.510971 115.462 0.228357C122.52 0.283057 129.024 0.201008 136.283 0.201008C135.138 0.228357 134.557 0.474505 135.919 0.456271L137.346 0.264824L137.582 0.346873C138.517 0.30129 139.535 0.155425 138.572 0.0642593C156.813 -0.191004 174.764 0.401572 192.633 0.32864C196.875 0.456271 202.916 0.337756 207.531 0.27394C208.221 0.292173 208.903 0.310406 209.584 0.32864C210.801 0.346873 212 0.365106 213.181 0.383339C213.163 1.67789 213.136 2.97244 213.118 4.25788C213.1 5.01455 213.081 5.76211 213.063 6.50967C213.027 8.00478 212.991 9.49078 212.954 10.9768C212.9 13.9397 212.854 16.8752 212.8 19.829C212.727 25.7274 212.736 31.6714 212.863 37.9345C212.854 37.9345 212.091 36.1203 211.91 30.3677Z" fill="#31258D"/>
<path d="M18.5409 389.771C18.6862 389.287 18.768 387.691 18.9678 388.959C18.8316 389.114 18.6771 389.944 18.5409 389.771Z" fill="#31258D"/>
<path d="M20.0672 347.187C20.0218 347.132 20.1308 346.585 20.149 346.448C20.1581 346.977 20.2852 347.47 20.2035 347.88C20.1944 347.351 20.1308 347.433 20.0672 347.187Z" fill="#31258D"/>
<path d="M20.1581 336.301C20.2943 336.465 20.3943 338.79 20.4124 340.167L20.1581 336.301Z" fill="#31258D"/>
<path d="M20.694 326.155C20.8031 325.279 20.8666 325.516 20.8666 326.702C20.794 326.784 20.7576 326.401 20.694 326.155Z" fill="#31258D"/>
<path d="M20.3943 325.435C20.3943 324.587 20.4669 324.176 20.5396 323.766C20.4306 323.793 20.6123 325.718 20.3943 325.435Z" fill="#31258D"/>
<path d="M20.7758 303.409C20.7667 302.88 20.6577 301.731 20.8031 301.239C20.7031 301.795 20.9757 303.819 20.7758 303.409Z" fill="#31258D"/>
<path d="M20.5759 293.171C20.585 292.843 20.6123 292.706 20.5759 292.323C20.6395 291.721 20.7304 292.36 20.7485 292.87L20.5759 293.171Z" fill="#31258D"/>
<path d="M20.049 106.847L20.1126 107.959L19.9855 107.795L20.049 106.847Z" fill="#31258D"/>
<path d="M20.0491 25.2083C19.9673 24.1045 20.1762 24.442 20.1944 24.2505C20.2035 25.2447 20.0218 23.8856 20.0491 25.2083Z" fill="#31258D"/>
<path d="M39.7983 2.31619L39.4622 2.32532L39.5803 2.05167L39.7983 2.31619Z" fill="#31258D"/>
<path d="M18.5956 37.7339C18.6137 38.044 18.8408 37.6062 18.6773 37.9346C18.5774 37.8981 18.4956 37.8251 18.5956 37.7339Z" fill="#31258D"/>
<path d="M54.197 2.16107C54.2151 3.07272 53.1614 3.10007 52.9706 3.86586C52.9342 3.9388 52.7344 3.57413 52.6617 3.75646C52.5527 4.58607 51.5989 5.02367 50.7449 5.25158L50.7086 5.14218C50.5451 5.18777 50.6541 5.57066 50.4997 5.63448C50.4542 5.57978 50.4724 5.52508 50.3725 5.4795C50.4906 5.66183 50.2271 5.74388 50.2907 5.90797C50.1908 5.88974 50.0818 5.76211 49.9546 5.74388L50.0545 5.98091C50.2635 6.57348 49.5821 6.3638 49.5367 6.81051C49.5095 6.75581 49.5095 6.70111 49.4459 6.68288C49.2914 7.32104 48.7464 7.73129 48.383 8.24181C48.3467 8.15976 48.2558 8.03213 48.165 7.98655C48.3194 8.19623 48.2195 8.36945 48.1377 8.51531C47.9015 8.36945 48.0923 8.87997 47.8561 8.90732L47.8289 8.85262C47.9106 9.15347 47.5654 8.87997 47.7108 9.19905L47.5018 9.10789C47.7108 9.42697 47.2202 9.10789 47.2656 9.32668L47.3201 9.38138C47.302 9.52725 47.1294 9.42697 47.1021 9.54548L47.0658 9.51813C46.9568 9.75516 46.7115 9.70046 46.9114 9.90103C46.6933 9.79163 47.0113 9.664 46.6842 9.50902C46.3027 10.2657 45.6759 10.7762 45.0945 11.3232C44.9491 11.2959 44.8856 11.3141 44.7947 11.2503C44.7765 11.3506 44.613 11.4964 44.6584 11.6514C44.6766 11.6332 44.5222 11.5785 44.4768 11.5967C44.2951 11.6149 44.5767 11.934 44.3768 11.9523C44.3677 11.852 44.3223 11.7699 44.2315 11.7061C44.286 11.9614 44.1316 12.0617 44.0589 12.2258C44.0407 12.1711 44.0498 12.1255 43.9862 12.0617C44.0316 12.3716 43.7137 12.244 43.7137 12.4628L43.641 12.2987C43.3231 12.3169 43.8227 12.6086 43.5865 12.6633C43.5865 12.5904 43.532 12.5539 43.4866 12.4992C43.5502 12.8548 43.2413 13.0098 43.1686 13.2195C43.1595 13.1921 43.1323 13.1648 43.1323 13.1648C42.996 13.338 42.7689 13.4291 42.6872 13.6844C42.5691 13.6935 42.4328 13.3653 42.3056 13.5659C42.5418 13.8029 42.1148 13.9305 42.4691 14.122C42.2874 14.2132 41.9786 14.3408 41.9604 14.514C41.9332 14.359 41.6152 14.277 41.706 14.1493L41.4789 14.0855C41.3972 13.9761 41.6061 14.0308 41.4608 13.9305C41.4063 13.9944 41.3245 14.2587 41.2337 14.2679C41.2609 14.5231 41.4244 14.8969 41.2791 15.0975C41.27 14.9243 40.9793 14.8696 40.9975 14.7784L41.1882 15.4804C41.1428 15.5442 40.9975 15.298 40.9702 15.4439C41.0338 15.5077 41.0338 15.5806 41.0611 15.6536C41.0156 15.6445 40.8703 15.9453 40.625 15.7356C40.5069 15.6627 40.6704 15.5898 40.5251 15.5715C40.4161 15.6809 40.4887 15.763 40.3888 15.8724L40.3525 15.845C40.2435 15.8815 40.2344 16.1459 40.4433 16.2097C40.4978 16.1732 40.2889 16.0821 40.4252 16.0821C40.5069 16.2735 40.4161 16.4285 40.3071 16.5379C40.3071 16.465 40.2435 16.4011 40.1981 16.3191C40.2253 16.6473 40.1254 16.857 40.0436 17.0849C40.1526 17.2034 39.9074 16.8205 39.9891 16.857C39.6257 16.9025 39.7711 17.4951 39.3714 17.4313C39.3805 17.3857 39.544 17.5772 39.5076 17.5498C39.3895 17.6319 39.2442 17.4587 39.2351 17.5863C39.1352 17.4951 39.1806 17.6957 39.1443 17.7869C39.1715 17.8871 39.0807 17.7595 39.1352 17.6866C39.117 17.8598 38.8808 18.3703 38.5265 18.4341C38.5901 18.4979 38.6174 18.7988 38.5629 18.8353L38.4448 18.662C38.3176 18.6165 38.2903 18.8353 38.1632 18.7167C38.2268 18.9994 38.4266 18.1698 38.4175 18.4432C38.2631 18.3521 38.4448 18.8717 38.2813 18.6438C38.1813 18.7441 38.2449 19.0085 38.0178 18.9538C38.0723 18.9538 37.8997 18.6712 37.827 18.7532C37.709 18.9173 37.8543 18.8626 37.7816 19.0267L37.7635 19.1543C37.8997 19.3002 37.6181 19.2546 37.827 19.3731C37.6908 19.2729 37.6908 19.6466 37.4728 19.3914L37.3092 19.1817C37.2638 19.2546 37.4001 19.4825 37.4273 19.6102C37.4001 19.6011 37.3456 19.5737 37.3274 19.5464C37.5909 19.8472 37.1548 19.6649 37.3002 19.9566C37.073 19.9839 36.964 20.2666 36.7278 20.1389C36.7097 20.3213 36.7188 20.5127 36.5462 20.5583C36.5462 20.5127 36.5643 20.4671 36.5098 20.4033C36.3554 20.3851 36.4099 20.4762 36.3917 20.5856C36.3645 20.5309 36.0919 20.5492 35.9103 20.5218C35.8921 20.7042 36.0738 20.8318 36.1555 20.9321C35.7922 20.7315 36.0556 21.3879 35.6922 21.2329C35.6922 21.16 35.7013 20.9503 35.5469 20.9594C35.1835 20.7589 35.5651 21.3423 35.2925 21.3514L35.556 21.552C35.347 21.4699 35.4742 21.8984 35.2562 21.6432C35.2925 21.7799 35.0109 21.7343 35.2471 21.944C34.8201 21.9805 34.7838 22.6186 34.2387 22.3451C34.2387 22.4181 34.1207 22.4637 34.2478 22.5639C34.4295 22.6369 34.2387 22.3907 34.3478 22.4637C34.3205 22.5001 34.375 22.573 34.4023 22.6004C34.2751 22.6186 34.2024 22.6551 34.0843 22.3998C33.7845 22.4181 34.2933 22.9559 33.9935 23.0745C33.9117 22.9742 33.8572 22.9468 33.8118 23.0198L33.8572 23.2933C33.6846 23.3844 33.5665 23.1474 33.4121 22.9924C33.3667 23.0927 33.2667 23.1656 33.3576 23.3206L33.076 23.2021C33.2849 23.2841 33.1123 23.3571 33.1123 23.43L33.1032 23.3571C33.0215 23.3024 32.9851 23.43 32.9579 23.4847C33.0669 23.5759 33.185 23.5303 33.2667 23.5121C33.3031 23.6215 33.2213 23.6579 33.2576 23.7856C33.1214 23.6123 33.0305 23.7856 32.9579 23.8311C32.8579 23.8585 33.0215 24.0499 32.9942 24.059C32.9124 23.977 32.8761 24.1502 32.8125 23.9861C32.8125 23.9405 32.9397 24.0135 32.9124 23.9041C32.8125 23.8858 32.6762 23.74 32.6853 23.9314C32.6944 24.0773 33.0033 24.2231 32.7762 24.2505C32.7762 24.1776 32.7126 24.1046 32.6853 24.0226L32.4855 24.059L32.6217 24.2049C32.5672 24.1867 32.5672 24.1593 32.54 24.1502C32.649 24.3325 32.4037 24.3781 32.54 24.5696C32.4946 24.6425 32.3129 24.5969 32.2402 24.6334V24.606C32.0858 24.5878 32.0494 24.7428 32.0858 24.8978L32.0585 24.8613C32.0131 24.8887 31.9404 24.9981 31.9768 25.1348C31.7769 25.1257 31.4135 24.6243 31.4862 24.9069C31.3954 25.0072 31.5861 25.3263 31.7224 25.3718C31.4499 25.4539 31.4771 25.8824 31.0956 25.8185C31.1228 25.9006 31.1773 25.9188 31.1592 26.01C30.8412 26.2106 30.7776 26.7211 30.2962 26.6482C30.3143 26.5114 30.1599 26.5023 30.0781 26.4202C30.1417 26.6117 29.8692 26.3655 30.069 26.6026C30.2053 26.7211 30.2598 26.794 30.387 26.7758C30.3052 26.9946 30.0691 27.2316 29.8601 27.1951C29.96 27.2134 29.9691 27.2863 29.9691 27.3592C29.7784 27.1404 29.633 27.2225 29.6148 27.3866L29.7238 27.5233L29.5422 27.4504C29.5512 27.5233 29.7693 27.7513 29.5603 27.7148C29.5058 27.6692 29.4513 27.6236 29.4059 27.6054C29.415 27.7968 29.4695 28.0977 29.2605 28.0886L28.9971 27.9883C28.9789 28.0521 29.0153 28.2253 29.1425 28.2071C28.8699 28.2618 28.7518 28.353 28.5429 28.2527C28.6428 28.9182 28.2522 29.3467 27.8979 29.6566L27.8161 29.5563C27.6435 29.5563 27.9342 29.766 27.8071 29.766C27.7435 29.6475 27.5436 29.6384 27.5073 29.4652C27.2802 29.4925 27.5073 29.7934 27.4709 29.9119C27.58 30.0486 27.4528 29.766 27.5981 29.9392C27.6254 29.9939 27.3256 30.0213 27.4982 30.2218C27.3892 30.1854 27.2802 30.0213 27.2166 29.9301L27.2347 30.0942C26.9259 29.9757 27.0531 29.4925 26.6897 29.3284L26.6443 29.4287C26.3808 29.3011 26.6079 29.0185 26.3627 29.137C26.3808 29.3102 26.5807 29.6384 26.7351 29.6475C26.6261 29.8663 27.1076 30.158 26.9168 30.3221C26.7624 30.2583 27.0258 30.158 26.8441 30.0395C26.6079 29.9757 26.7624 30.2857 26.6443 30.313C26.7987 30.3039 26.9168 30.5592 26.8986 30.6412C26.726 30.6412 26.7805 30.4133 26.6352 30.5136C26.726 30.6412 26.6897 30.8327 26.8623 30.8053C27.0621 31.0879 26.6624 30.8691 26.7896 31.1244C26.5807 30.9968 26.5171 30.6047 26.29 30.6594C26.4807 30.7962 26.3536 31.0515 26.6715 31.2156C26.5716 31.2247 26.4353 31.097 26.3717 30.9603C26.1901 30.9421 26.4898 31.4435 26.1355 31.1517L26.2809 31.3432C26.1991 31.3158 26.1265 31.3067 25.9993 31.2611C25.9266 31.3249 26.0174 31.7078 25.7631 31.4526C25.7722 31.4982 25.6087 31.644 25.8448 31.7625C26.0447 31.7717 25.8176 31.5255 26.1174 31.6987C25.8539 31.5802 26.0084 31.8628 26.0175 31.9813L25.9084 31.8902C25.9175 31.9631 25.8176 32.0178 25.9084 32.1454C25.8721 32.0634 25.7903 32.0087 25.7449 32.0178L25.863 32.2001C25.8085 32.4098 25.5632 31.9722 25.4815 32.1546L25.4633 31.9358C25.4633 31.9813 25.2816 31.8902 25.2725 31.9996C25.3815 32.1637 25.5178 32.3642 25.5996 32.4919C25.5905 32.6286 25.4088 32.3734 25.4815 32.583L25.4088 32.3278C25.3725 32.2731 25.1181 32.1728 25.0273 32.2822C25.0182 32.3916 25.1272 32.6833 25.2998 32.656C25.2544 32.7107 25.0999 32.7016 25.0363 32.5648C24.9728 32.7289 25.1999 32.6924 25.1999 32.8748C25.0727 32.8292 24.8183 32.8292 24.6094 32.7745L24.4731 32.4463L24.4095 32.5101C24.3005 32.2457 24.2188 32.4189 24.0734 32.1819C24.0007 32.2001 24.0098 32.3187 24.0189 32.4189C24.464 32.583 24.3096 32.9842 24.6366 33.2121C24.5458 33.4765 23.819 32.6651 24.0916 33.2941C24.2006 33.3306 24.3369 33.6314 24.3641 33.4309C24.2188 33.522 24.5821 33.7864 24.3369 33.8047C24.3096 33.5859 23.9371 33.6406 23.9008 33.3306C23.9917 33.4309 24.0552 33.3124 24.0462 33.2668C23.8917 33.2121 23.7645 32.9842 23.6464 33.1027C23.6101 33.203 23.5193 33.3124 23.6828 33.4309C23.8554 33.5859 23.7645 33.3032 23.8917 33.5038C23.819 33.7044 23.5374 33.4947 23.7827 33.832C23.8463 33.7135 24.0371 33.8502 24.1552 33.9596L24.1279 34.1329L24.0371 34.0052C23.8009 34.1055 24.1915 34.2423 24.0098 34.379L23.7191 34.2514C23.5647 34.0417 24.028 34.0873 23.6919 33.832C23.5829 33.9323 23.701 34.1055 23.5284 34.142C23.5193 34.0964 23.5465 34.0599 23.5374 34.0052C23.492 34.0326 23.0469 33.6953 23.1468 34.0782C23.165 34.2422 23.2377 34.1967 23.3557 34.3061C23.2377 34.5157 23.3103 34.6707 23.2286 34.8075C23.0196 34.5796 23.0287 34.9898 22.9015 34.6525C23.0832 34.7163 23.3012 34.4519 23.1377 34.1875C22.8107 34.0052 23.3012 34.0782 23.0651 33.7955C22.9288 33.9323 22.6744 33.6861 22.4746 33.5494C22.4292 33.5767 22.4655 33.6861 22.4746 33.7317C22.6199 33.8958 22.6653 33.8411 22.8379 33.987C22.6563 34.1055 22.6108 34.3425 22.6926 34.5704C22.5654 34.5522 22.411 34.3881 22.4564 34.3152C22.3383 34.5522 22.1385 34.7345 21.9295 34.8713C22.302 34.9898 21.8205 35.1266 22.1203 35.2451C22.2656 35.1995 22.5291 35.2815 22.6018 35.4456C22.5291 35.4912 22.4837 35.3362 22.4019 35.318C22.4837 35.5186 22.0567 35.236 22.2293 35.5095C22.2838 35.2633 21.9204 35.1904 21.7387 34.9716C21.7478 35.1995 21.5934 34.8348 21.4844 34.9625C21.4935 35.1904 21.4571 35.4274 21.3935 35.6097C21.0393 35.6189 21.0211 36.0564 20.903 36.2297C20.7213 36.2297 20.5214 35.9744 20.4033 36.0291C20.3216 36.1385 20.7395 36.1567 20.5033 36.2297L20.4669 36.175C20.4942 36.2661 20.0672 36.3482 20.4033 36.6673L20.1581 36.412C20.1127 36.4211 20.1581 36.5032 20.1672 36.5487C20.0763 36.4849 19.9673 36.4576 19.94 36.3664C19.6766 36.3299 19.8129 36.6034 19.7493 36.722L19.9673 36.7675C19.9764 37.0502 19.722 37.0684 19.6766 37.2872L19.504 37.1869C19.5222 37.2416 19.5222 37.3054 19.5494 37.3601C19.395 37.2416 19.2224 37.2963 19.3405 37.433C19.2406 37.2598 19.1497 37.0684 19.077 36.8861C19.2315 36.8587 19.2315 37.1049 19.4313 37.1413C19.6039 37.1778 19.6584 36.9772 19.5222 36.8496C19.4586 36.9043 19.4949 36.9316 19.5222 37.0228C19.2678 36.9043 19.3405 36.7949 19.2224 36.649C19.2042 36.6946 19.1043 36.7037 19.1679 36.7584C19.0952 36.6126 19.1315 36.5214 19.2042 36.3938C19.2406 36.5396 19.3768 36.4485 19.4222 36.5214C19.2224 36.3755 19.2406 36.2114 19.4041 36.1111C19.7039 36.175 19.4495 35.7282 19.6403 35.6097C19.7856 35.8285 19.8855 36.0291 19.8946 36.1841C20.0672 36.1567 19.9764 36.0656 20.149 36.0382C20.04 35.8741 19.8401 35.6735 19.8492 35.4639L20.0036 35.5733C20.0218 35.4001 19.8129 35.2268 19.9673 35.1083C20.2398 34.8986 20.4579 34.6434 20.6395 34.4702L20.7849 34.5796C20.576 34.224 20.9757 34.1329 20.9666 33.8776C21.3118 33.75 21.2936 33.2394 21.6297 33.3306C21.8932 32.8201 22.1203 32.3642 22.5654 31.9813L22.6926 32.2366C22.6199 32.0269 22.847 32.2913 22.8924 32.191C22.6563 32.1363 22.7834 31.8993 22.7108 31.7352C23.0378 31.6896 23.1014 31.2885 23.1196 30.9968L23.2558 31.1153C23.165 30.7141 23.5738 30.7141 23.81 30.55C23.8917 30.5774 24.0462 30.6594 24.0916 30.5865C23.9826 30.2674 24.0552 30.2218 24.0825 29.9301C24.2006 29.8116 24.4368 29.6657 24.6366 29.6202C24.7729 28.8817 25.4088 28.5991 25.6904 27.9609L25.8812 28.0795C25.9993 27.3045 26.8441 27.0402 27.0531 26.4932L27.2802 26.794C27.48 26.7576 27.48 26.4476 27.2711 26.3017C27.4709 26.2653 27.4437 25.8732 27.7344 26.01C27.907 25.9371 27.7616 25.7365 27.8343 25.5997C28.1795 25.4539 28.2431 25.3445 28.4339 25.0619L28.3612 25.0983C28.3885 25.1804 28.4975 25.2989 28.5701 25.2533C28.5883 25.0983 28.9608 25.0072 28.5611 24.7793C28.988 24.7154 28.9971 24.059 29.4786 24.059C29.3696 23.9952 29.415 23.9132 29.3877 23.8311C29.6058 23.6123 30.0055 23.5576 30.0327 23.2477C30.1054 23.2568 30.1236 23.4482 30.2144 23.3662C30.2326 23.2841 30.1054 23.2568 30.1236 23.1383C30.3234 22.6277 31.0047 22.6004 31.2863 22.2449C31.6951 21.5155 32.3765 21.0232 32.9034 20.458L32.9579 20.5309C32.9124 20.1116 33.6301 20.3577 33.4302 19.8472C33.5302 19.8654 33.621 19.7104 33.7119 19.8654C33.6937 19.5555 34.2751 19.6284 34.2842 19.209C34.2569 19.2182 34.2569 19.2455 34.266 19.2911C34.6112 19.2273 34.6203 18.8444 34.9746 18.7532C34.9746 18.7988 34.9564 18.8626 35.0109 18.9355C35.2108 18.972 34.9655 18.4706 35.3016 18.7259C35.347 18.6712 35.1926 18.5344 35.1653 18.58C35.774 18.2244 36.1192 17.5134 36.5734 16.9481C37.1185 16.7749 37.0912 17.4495 37.1639 16.939C37.2457 16.9755 37.073 16.8023 37.1366 16.8661C37.173 16.6746 37.6363 17.0393 37.5636 16.8023C37.3547 16.6473 37.5182 16.6473 37.4092 16.5288C37.7544 16.4376 37.9633 16.5652 38.0087 16.2462L38.0905 16.3556C38.036 15.8724 38.4266 15.7903 38.2903 15.298C39.3986 14.1311 40.3525 12.8913 41.4517 11.7882C42.6417 10.7945 43.6047 9.6093 44.9219 8.70676C45.4397 8.72499 45.4488 8.69764 45.6486 8.31475C45.6759 8.36945 45.6668 8.3968 45.7213 8.41503C45.5396 8.18711 45.9121 8.20535 45.7486 7.96832C46.2119 7.61277 46.548 7.19341 46.984 6.78316C46.9386 6.87433 47.0658 7.08401 47.1385 6.99284L47.093 6.77405L47.1657 6.81963C47.193 6.73758 47.1566 6.57348 47.0295 6.55525C47.9561 5.34275 49.4459 4.77752 50.4815 3.72912C50.8176 3.58325 51.1083 3.16389 51.3536 2.86304C52.4528 2.3981 53.4066 1.94227 54.0698 0.966797C54.0244 1.03973 54.4241 1.70524 54.197 2.16107Z" fill="#31258D"/>
<path d="M18.6591 37.4148C18.8136 37.4057 18.9498 37.3236 19.077 37.4969C18.9498 37.4604 18.7772 37.4787 18.6591 37.4148Z" fill="#31258D"/>
<path d="M21.9205 35.4093C21.893 35.3817 21.9938 35.4093 22.0212 35.4184C22.0029 35.4551 22.0762 35.5651 21.9938 35.5468C22.0121 35.5101 21.948 35.4643 21.9205 35.4093Z" fill="#31258D"/>
<path d="M22.5563 34.8075C22.6472 34.9078 22.6018 35.1176 22.5382 35.2088L22.5563 34.8075Z" fill="#31258D"/>
<path d="M23.5011 34.5522C23.6283 34.5705 23.6646 34.6343 23.601 34.6982C23.5374 34.6617 23.5374 34.6161 23.5011 34.5522Z" fill="#31258D"/>
<path d="M23.3194 34.3152C23.3648 34.2605 23.4466 34.2878 23.5193 34.3152C23.4284 34.2422 23.4648 34.4794 23.3194 34.3152Z" fill="#31258D"/>
<path d="M24.8002 33.2577C24.8183 33.2212 24.8092 33.0753 24.9364 33.1483C24.8274 33.1118 24.9183 33.4128 24.8002 33.2577Z" fill="#31258D"/>
<path d="M25.218 32.5192C25.2453 32.5101 25.2635 32.5101 25.2635 32.4645C25.3452 32.4736 25.3725 32.574 25.3543 32.6105L25.218 32.5192Z" fill="#31258D"/>
<path d="M35.5939 21.397L35.5755 21.5079L35.4924 21.4062L35.5939 21.397Z" fill="#31258D"/>
<path d="M40.4161 16.7749C40.4252 16.6564 40.5433 16.8205 40.5705 16.8297C40.516 16.8935 40.4797 16.6928 40.4161 16.7749Z" fill="#31258D"/>
<path d="M42.5872 13.8304L42.569 13.8486L42.3874 13.6479L42.5872 13.8304Z" fill="#31258D"/>
<path d="M0.100763 388.503C-0.0458013 388.558 0.164885 388.742 0 388.604C0.0274808 388.494 0.0549616 388.411 0.100763 388.503Z" fill="#31258D"/>
<path d="M38.5901 390.454C38.0996 391.128 37.5182 390.399 36.9913 390.818C36.9277 390.846 37.0276 390.435 36.8823 390.527C36.3645 391.046 35.6105 390.682 35.0291 390.244L35.0745 390.135C34.9655 390.053 34.811 390.399 34.693 390.344C34.693 390.271 34.7384 390.244 34.7111 390.144C34.6748 390.353 34.4931 390.235 34.4295 390.39C34.3841 390.299 34.4023 390.135 34.3387 390.034L34.2569 390.271C34.0389 390.846 33.7936 390.208 33.5211 390.499C33.5392 390.445 33.5665 390.399 33.5483 390.344C33.1123 390.682 32.5854 390.59 32.113 390.7C32.1312 390.618 32.1584 390.454 32.1403 390.362C32.1039 390.618 31.9586 390.682 31.8314 390.718C31.786 390.454 31.6043 390.946 31.468 390.8L31.4862 390.745C31.3681 391.019 31.3318 390.581 31.2318 390.909L31.1682 390.7C31.1047 391.074 31.0229 390.499 30.923 390.682V390.755C30.8321 390.846 30.7958 390.654 30.714 390.709L30.7049 390.663C30.5142 390.754 30.4142 390.545 30.4052 390.827C30.3507 390.59 30.5868 390.727 30.5051 390.39C29.8874 390.663 29.2605 390.572 28.6519 390.554C28.5883 390.435 28.5429 390.399 28.5338 390.29C28.4702 390.344 28.2976 390.335 28.2431 390.481C28.2613 390.472 28.2068 390.326 28.1795 390.317C28.0705 390.198 28.0432 390.636 27.9251 390.499C27.9797 390.426 27.9978 390.326 27.9887 390.226C27.8706 390.445 27.7344 390.408 27.6072 390.472C27.6254 390.426 27.6617 390.399 27.6617 390.308C27.5164 390.563 27.4164 390.244 27.2892 390.399L27.3437 390.235C27.1621 390.025 27.2711 390.581 27.1166 390.454C27.1621 390.399 27.1439 390.335 27.1621 390.271C26.9985 390.572 26.7533 390.454 26.5898 390.554C26.5988 390.527 26.5988 390.481 26.5988 390.481C26.4262 390.508 26.2627 390.408 26.0719 390.536C26.0084 390.454 26.1083 390.125 25.9357 390.18C25.9266 390.517 25.6268 390.308 25.7177 390.691C25.5723 390.627 25.3361 390.49 25.2271 390.6C25.2998 390.472 25.1726 390.18 25.2998 390.162L25.218 389.952C25.2362 389.815 25.3089 390.007 25.2907 389.825C25.2271 389.834 25.0363 389.961 24.9818 389.907C24.8547 390.107 24.7275 390.49 24.5367 390.527C24.6275 390.399 24.5004 390.153 24.564 390.098L24.2733 390.736C24.2097 390.745 24.2733 390.472 24.1733 390.554C24.1733 390.645 24.1279 390.7 24.1007 390.764C24.0825 390.727 23.8372 390.837 23.8281 390.499C23.81 390.362 23.9371 390.435 23.8735 390.308C23.7554 390.308 23.7464 390.417 23.6283 390.417V390.372C23.5556 390.317 23.3921 390.499 23.4738 390.691C23.5283 390.7 23.4648 390.49 23.5374 390.59C23.4738 390.782 23.3376 390.827 23.2195 390.827C23.2649 390.773 23.2649 390.691 23.2831 390.59C23.1195 390.846 22.9469 390.919 22.7653 391.019C22.7562 391.174 22.847 390.736 22.8652 390.818C22.6562 390.59 22.3928 391.11 22.2202 390.782C22.2475 390.755 22.2293 391.01 22.2293 390.964C22.1203 390.937 22.1384 390.709 22.0658 390.791C22.0658 390.654 21.9749 390.827 21.9023 390.864C21.8568 390.964 21.8841 390.8 21.9477 390.782C21.8387 390.891 21.4299 391.083 21.2118 390.873C21.2118 390.964 21.0574 391.192 21.0029 391.183L21.0302 390.973C20.9847 390.846 20.8485 390.982 20.8485 390.8C20.7213 391.046 21.2936 390.609 21.1301 390.791C21.1028 390.618 20.903 391.11 20.9484 390.827C20.8394 390.827 20.7304 391.055 20.6304 390.864C20.6577 390.9 20.7304 390.581 20.6395 390.59C20.4851 390.618 20.5941 390.691 20.4669 390.755L20.3852 390.837C20.367 391.037 20.2489 390.8 20.2943 391.028C20.2852 390.864 20.0672 391.119 20.1036 390.782L20.1399 390.517C20.0763 390.536 20.0218 390.791 19.9582 390.909C19.9491 390.882 19.94 390.827 19.94 390.791C19.9128 391.192 19.7856 390.754 19.6948 391.055C19.5676 390.909 19.3496 391.028 19.2951 390.773C19.186 390.891 19.077 391.028 18.9589 390.937C18.9862 390.9 19.0225 390.891 19.0316 390.8C18.9589 390.682 18.9408 390.782 18.8681 390.846C18.8863 390.782 18.7318 390.6 18.6501 390.454C18.5411 390.572 18.5683 390.791 18.5501 390.928C18.4684 390.527 18.2413 391.174 18.1413 390.8C18.1777 390.745 18.3049 390.609 18.2231 390.508C18.1413 390.107 18.0142 390.791 17.8688 390.6L17.8961 390.937C17.8325 390.727 17.6599 391.119 17.6871 390.782C17.6326 390.9 17.5054 390.663 17.5145 390.992C17.2693 390.709 16.8877 391.128 16.7605 390.545C16.7242 390.6 16.6334 390.536 16.6424 390.709C16.6969 390.891 16.7333 390.581 16.7515 390.709C16.7151 390.718 16.706 390.809 16.706 390.846C16.6334 390.764 16.5698 390.745 16.6606 390.472C16.4971 390.262 16.4517 391.01 16.2336 390.873C16.2518 390.736 16.2336 390.691 16.1701 390.709L16.0338 390.937C15.8884 390.873 15.9611 390.627 15.9702 390.399C15.8884 390.435 15.7976 390.417 15.7522 390.59L15.6704 390.299C15.7249 390.508 15.5977 390.435 15.5614 390.49L15.5977 390.435C15.5887 390.335 15.4978 390.39 15.4524 390.417C15.4524 390.554 15.5432 390.618 15.5977 390.663C15.5523 390.764 15.4887 390.736 15.4342 390.846C15.4615 390.627 15.3161 390.682 15.2525 390.654C15.1799 390.6 15.1617 390.855 15.1435 390.846C15.1435 390.727 15.0254 390.818 15.089 390.663C15.1163 390.627 15.1344 390.782 15.1799 390.682C15.1344 390.59 15.1526 390.39 15.0527 390.536C14.9709 390.645 15.0527 390.973 14.9164 390.827C14.9528 390.773 14.9618 390.682 14.9982 390.609L14.871 390.49L14.8528 390.691C14.8347 390.636 14.8528 390.618 14.8437 390.59C14.7983 390.8 14.6439 390.645 14.5985 390.882C14.5349 390.9 14.4713 390.736 14.4077 390.709L14.4168 390.691C14.3441 390.572 14.2442 390.645 14.1715 390.773L14.1806 390.727C14.1443 390.709 14.0443 390.736 13.9807 390.855C13.8808 390.7 13.9807 390.089 13.8536 390.335C13.7445 390.335 13.6719 390.7 13.7082 390.827C13.5265 390.682 13.2903 391.001 13.1268 390.682C13.0996 390.764 13.1086 390.818 13.0541 390.864C12.7725 390.773 12.4455 391.074 12.2456 390.663C12.3274 390.581 12.2638 390.463 12.2638 390.344C12.1911 390.527 12.1911 390.153 12.1548 390.463C12.1548 390.645 12.1457 390.736 12.2184 390.809C12.0458 390.9 11.7914 390.891 11.7097 390.709C11.7551 390.8 11.7097 390.855 11.6733 390.9C11.7006 390.609 11.5734 390.563 11.4826 390.654L11.4644 390.837L11.4099 390.654C11.3735 390.709 11.3554 391.028 11.2645 390.846C11.2645 390.773 11.2645 390.709 11.2464 390.654C11.1464 390.791 10.992 391.037 10.8921 390.882L10.8194 390.618C10.774 390.645 10.6922 390.8 10.7649 390.873C10.5923 390.709 10.4742 390.682 10.4288 390.454C10.0927 390.992 9.64753 390.992 9.28415 390.928L9.30232 390.791C9.21148 390.663 9.23873 391.019 9.17514 390.928C9.21148 390.8 9.11155 390.645 9.19331 390.499C9.06613 390.353 9.00254 390.718 8.9117 390.782C8.89353 390.955 8.99346 390.672 8.95712 390.891C8.93895 390.955 8.77543 390.745 8.7391 391.01C8.71184 390.9 8.74818 390.709 8.76635 390.609L8.67551 390.736C8.58466 390.426 8.93895 390.198 8.84811 389.806L8.76635 389.843C8.70276 389.56 8.98437 389.542 8.7936 389.433C8.70276 389.56 8.61192 389.943 8.68459 390.062C8.5029 390.125 8.57558 390.691 8.38481 390.663C8.33939 390.508 8.53924 390.636 8.51199 390.417C8.43023 390.198 8.3303 390.527 8.24854 390.454C8.3303 390.554 8.24854 390.818 8.18495 390.864C8.09411 390.736 8.25763 390.618 8.12136 390.581C8.09411 390.736 7.95785 390.846 8.06686 390.955C8.00327 391.301 7.93059 390.855 7.83975 391.119C7.80341 390.873 8.00327 390.563 7.85792 390.435C7.867 390.672 7.65806 390.745 7.72165 391.101C7.66715 391.028 7.66715 390.846 7.72165 390.7C7.63989 390.554 7.49455 391.119 7.49455 390.654L7.45821 390.891C7.44004 390.809 7.4037 390.755 7.36737 390.618C7.29469 390.609 7.11301 390.928 7.14026 390.572C7.11301 390.609 6.94949 390.581 7.00399 390.837C7.10392 390.992 7.13117 390.654 7.1766 391.001C7.11301 390.718 7.02216 391.028 6.95857 391.119V390.982C6.92224 391.037 6.84048 391.001 6.80414 391.156C6.83139 391.074 6.82231 390.982 6.79505 390.946L6.74963 391.156C6.5952 391.256 6.73146 390.782 6.58612 390.837L6.70421 390.672C6.67696 390.709 6.64062 390.508 6.56795 390.572C6.53161 390.764 6.46802 391.001 6.44077 391.147C6.35901 391.229 6.41351 390.928 6.32267 391.119L6.44077 390.891C6.45894 390.827 6.38626 390.563 6.27725 390.563C6.20458 390.627 6.08648 390.9 6.18641 391.019C6.1319 391.019 6.05923 390.9 6.11373 390.755C5.98655 390.818 6.12282 390.964 6.00472 391.083C5.96838 390.955 5.8412 390.764 5.76853 390.563L5.89571 390.244L5.82303 390.235C5.93205 389.98 5.7867 390.034 5.85029 389.761C5.80487 389.715 5.74128 389.806 5.68677 389.879C5.81395 390.326 5.496 390.472 5.51417 390.882C5.30523 390.982 5.43241 389.898 5.19622 390.517C5.22347 390.627 5.11446 390.928 5.24164 390.818C5.12354 390.764 5.14171 391.219 4.99636 391.046C5.11446 390.882 4.89644 390.636 5.06904 390.399C5.05087 390.536 5.1508 390.508 5.17805 390.463C5.13263 390.308 5.2053 390.062 5.07812 390.053C4.99636 390.089 4.88735 390.089 4.89644 390.299C4.88735 390.527 5.01453 390.28 4.96003 390.508C4.80559 390.581 4.78742 390.226 4.70566 390.636C4.80559 390.609 4.81468 390.846 4.80559 391.001L4.6875 391.092L4.71475 390.937C4.53306 390.818 4.65116 391.21 4.46947 391.165L4.3968 390.855C4.4513 390.6 4.65116 390.982 4.63299 390.554C4.51489 390.527 4.46947 390.745 4.36955 390.627C4.3968 390.59 4.43314 390.581 4.4513 390.545C4.41497 390.527 4.3968 389.961 4.21511 390.29C4.12427 390.417 4.18786 390.435 4.17878 390.6C3.988 390.636 3.9335 390.8 3.80632 390.818C3.84266 390.508 3.59738 390.782 3.74273 390.472C3.79723 390.654 4.06068 390.654 4.14244 390.362C4.08793 389.989 4.28779 390.417 4.34229 390.053C4.19694 390.034 4.21511 389.679 4.20603 389.442C4.16969 389.423 4.12427 389.524 4.09702 389.56C4.06976 389.779 4.12427 389.779 4.11519 390.007C3.95167 389.943 3.78815 390.053 3.68822 390.271C3.63372 390.162 3.67005 389.934 3.73364 389.916C3.53379 389.97 3.32485 389.934 3.14316 389.852C3.24309 390.217 2.93423 389.925 2.99782 390.235C3.09774 390.317 3.17042 390.581 3.10683 390.745C3.04324 390.718 3.11591 390.59 3.09774 390.508C3.0069 390.7 2.98873 390.18 2.89789 390.49C3.07957 390.381 2.95239 390.053 2.99782 389.761C2.86155 389.916 3.01598 389.56 2.8888 389.551C2.75254 389.706 2.58902 389.825 2.44367 389.879C2.28016 389.597 1.98946 389.852 1.82594 389.852C1.74418 389.706 1.81686 389.387 1.7351 389.323C1.62609 389.323 1.79869 389.679 1.64425 389.524L1.66242 389.46C1.60792 389.533 1.38081 389.232 1.31722 389.688L1.38081 389.341C1.35356 389.305 1.31722 389.387 1.29905 389.423C1.29905 389.314 1.2718 389.205 1.3263 389.132C1.23546 388.886 1.11736 389.159 1.00835 389.168L1.06286 389.378C0.872089 389.533 0.763077 389.323 0.581391 389.387L0.599559 389.186L0.490548 389.305C0.526885 389.114 0.436042 388.977 0.372452 389.141L0.672234 388.658C0.744908 388.776 0.581391 388.895 0.617728 389.095C0.654065 389.268 0.817583 389.223 0.85392 389.031C0.79033 389.004 0.79033 389.05 0.735824 389.123C0.72674 388.84 0.826667 388.858 0.881173 388.667C0.844836 388.676 0.808498 388.585 0.79033 388.676C0.863004 388.539 0.926594 388.521 1.03561 388.521C0.953847 388.63 1.06286 388.694 1.03561 388.776C1.05377 388.53 1.16279 388.457 1.28997 388.53C1.37173 388.822 1.54433 388.357 1.69876 388.448C1.62609 388.694 1.53524 388.895 1.43532 388.986C1.52616 389.114 1.54433 388.986 1.63517 389.114C1.68968 388.931 1.7351 388.639 1.87136 388.539V388.721C1.98946 388.63 1.99854 388.357 2.14389 388.421C2.38917 388.521 2.64353 388.539 2.8343 388.567V388.749C2.96148 388.357 3.18859 388.621 3.34302 388.448C3.57921 388.639 3.87899 388.293 3.988 388.621C4.42405 388.503 4.79651 388.375 5.24164 388.466L5.1508 388.731C5.24164 388.539 5.19622 388.886 5.27798 388.849C5.19622 388.63 5.39607 388.576 5.45966 388.412C5.65043 388.63 5.91388 388.412 6.09556 388.229V388.412C6.28633 388.074 6.48619 388.384 6.70421 388.457C6.72238 388.539 6.75872 388.712 6.82231 388.694C6.95857 388.402 7.01308 388.43 7.20385 388.247C7.33103 388.257 7.53088 388.339 7.65806 388.457C8.1577 388.056 8.63917 388.348 9.14789 388.12L9.17514 388.339C9.68386 387.901 10.2562 388.348 10.6831 388.129L10.6286 388.503C10.7558 388.621 10.9284 388.421 10.9102 388.156C11.0374 388.275 11.2464 387.992 11.31 388.302C11.4371 388.375 11.4826 388.138 11.5916 388.092C11.855 388.247 11.9549 388.22 12.2002 388.156L12.1366 388.129C12.1094 388.211 12.0912 388.366 12.1548 388.393C12.2547 388.293 12.4909 388.512 12.4182 388.065C12.6726 388.329 13.0541 387.883 13.2994 388.247C13.2812 388.129 13.3539 388.102 13.3812 388.029C13.6174 388.038 13.8536 388.293 14.0443 388.092C14.0807 388.156 13.9717 388.293 14.0716 388.311C14.1261 388.266 14.0807 388.156 14.1533 388.092C14.544 387.883 14.9073 388.357 15.2616 388.32C15.8884 388.12 16.5243 388.266 17.1148 388.247L17.1057 388.339C17.3147 388.01 17.5509 388.712 17.7326 388.202C17.778 388.293 17.9052 388.247 17.8688 388.421C18.0323 388.184 18.2958 388.667 18.5411 388.375C18.5229 388.366 18.5047 388.384 18.4775 388.421C18.6955 388.63 18.9135 388.366 19.1497 388.557C19.1225 388.594 19.077 388.621 19.0679 388.712C19.1497 388.886 19.3041 388.348 19.3405 388.776C19.395 388.776 19.3859 388.567 19.3586 388.576C19.8765 388.767 20.4578 388.521 21.012 388.448C21.3935 388.722 21.0029 389.168 21.3299 388.867C21.3481 388.949 21.3572 388.703 21.3572 388.794C21.4844 388.676 21.5207 389.278 21.6206 389.059C21.6025 388.794 21.6842 388.913 21.6933 388.758C21.9295 388.94 21.9658 389.177 22.1657 388.986L22.1475 389.123C22.3928 388.74 22.6381 388.968 22.847 388.521C24.0825 388.494 25.2725 388.302 26.4807 388.302C27.6617 388.448 28.8336 388.293 30.0327 388.594C30.2961 388.968 30.3234 388.959 30.6323 388.831C30.6141 388.886 30.5959 388.904 30.6141 388.959C30.6414 388.658 30.8321 388.94 30.8775 388.658C31.3227 388.731 31.7315 388.676 32.1948 388.694C32.1221 388.722 32.0767 388.968 32.1584 388.949L32.2584 388.767L32.2674 388.849C32.331 388.804 32.4037 388.667 32.3401 388.567C33.5029 388.366 34.6112 389.013 35.7376 388.995C36.0011 389.132 36.3826 389.031 36.6824 388.986C37.5273 389.423 38.2903 389.779 39.1806 389.542C39.1079 389.524 38.9535 390.29 38.5901 390.454Z" fill="#31258D"/>
<path d="M0.272524 388.476C0.299777 388.631 0.390619 388.713 0.299777 388.913C0.299777 388.767 0.254356 388.612 0.272524 388.476Z" fill="#31258D"/>
<path d="M2.88011 390.144C2.88927 390.098 2.91675 390.208 2.92591 390.235C2.88927 390.245 2.85263 390.373 2.8343 390.29C2.86179 390.272 2.86179 390.199 2.88011 390.144Z" fill="#31258D"/>
<path d="M3.56105 390.262C3.54288 390.399 3.39753 390.49 3.30669 390.508L3.56105 390.262Z" fill="#31258D"/>
<path d="M4.17916 390.837C4.23412 390.956 4.2158 391.011 4.13336 391.011C4.13336 390.937 4.16084 390.901 4.17916 390.837Z" fill="#31258D"/>
<path d="M4.23332 390.536C4.28828 390.536 4.3066 390.618 4.33409 390.692C4.33409 390.582 4.20584 390.765 4.23332 390.536Z" fill="#31258D"/>
<path d="M5.60501 390.992C5.64135 390.982 5.71402 390.873 5.74127 391.028C5.70494 390.919 5.56867 391.183 5.60501 390.992Z" fill="#31258D"/>
<path d="M6.25 390.818C6.26832 390.827 6.27748 390.855 6.30496 390.818C6.3416 390.883 6.2958 390.974 6.25916 390.993L6.25 390.818Z" fill="#31258D"/>
<path d="M17.9972 390.838L17.9233 390.893L17.9418 390.764L17.9972 390.838Z" fill="#31258D"/>
<path d="M23.1286 391.065C23.2019 390.982 23.1744 391.193 23.1836 391.211C23.1195 391.22 23.2202 391.046 23.1286 391.065Z" fill="#31258D"/>
<path d="M25.9266 390.527L25.9084 390.536L25.9266 390.262V390.527Z" fill="#31258D"/>
</g>
</svg>
