<svg width="32" height="32" viewBox="0 0 32 32" fill="none" xmlns="http://www.w3.org/2000/svg">
<path d="M26.1169 31.1015C26.5145 31.0925 25.9 31.0743 26.379 31.0925C26.3248 31.1015 26.2525 31.1106 26.1169 31.1015Z" fill="#707070"/>
<path d="M27.6984 30.8383C28.2948 30.5752 28.9184 30.1123 29.3612 29.4861C29.804 28.8599 30.039 28.0613 29.9757 27.3534C29.9667 27.19 30.057 27.3988 30.039 27.0176C29.9215 25.6381 29.9305 23.4691 30.1926 21.7901L30.2468 21.89C30.301 21.5723 30.1203 21.1821 30.1474 20.8372C30.1926 20.8372 30.2016 20.9461 30.2649 20.8644C30.1474 20.7828 30.2197 20.2473 30.1293 20.1112C30.1836 19.975 30.292 19.9932 30.3553 19.8208L30.2016 19.6302C29.8221 19.0947 30.2468 18.3233 30.039 17.5882C30.0842 17.6245 30.1113 17.6971 30.1565 17.6336C29.8944 16.4538 29.9305 14.9745 29.804 13.6495C29.8853 13.7039 30.0299 13.7493 30.1203 13.6767C29.8853 13.6132 29.8221 13.2048 29.7679 12.8508C30.0209 12.6875 29.5329 12.2428 29.6685 11.8253L29.7227 11.8616C29.4516 11.553 29.8763 11.4078 29.551 11.1537L29.7588 10.9631C29.3883 10.827 29.9486 10.5184 29.7588 10.2643L29.6775 10.2734C29.5871 10.0374 29.7769 9.91038 29.7046 9.68349L29.7498 9.66534C29.6504 9.14804 29.8582 8.83948 29.56 8.85763C29.795 8.67612 29.6685 9.35678 30.0209 9.07544C29.8673 8.22235 29.804 7.35111 29.7769 6.47986C29.7588 6.04424 29.7769 5.59955 29.7317 5.2093C29.6775 4.80998 29.56 4.41066 29.3702 4.05672C29.3883 3.83891 29.3522 3.71185 29.4335 3.61203C29.2889 3.50312 28.9907 3.13103 28.7648 3.14918C28.8099 3.18548 28.7919 2.95859 28.7376 2.88599C28.5569 2.59558 28.2768 2.94952 28.0779 2.66818C28.2316 2.6591 28.3219 2.60465 28.3491 2.4776C27.9785 2.5139 27.6532 2.34146 27.3098 2.32331C27.3731 2.28701 27.4634 2.27794 27.4815 2.17811C27.0568 2.34146 26.8218 1.96029 26.4784 2.13273L26.6049 1.9603C26.0627 1.72433 26.4422 2.32331 25.9814 2.19626C26.0898 2.1418 26.0537 2.0692 26.0717 1.9966C25.638 2.32331 24.9511 2.21441 24.5174 2.31424C24.5445 2.28701 24.5354 2.24163 24.5354 2.24163C24.0655 2.27794 23.5775 2.17811 23.0714 2.31424C22.8817 2.24163 23.1347 1.89677 22.6377 1.9603C22.6557 2.30516 21.7972 2.09643 22.0864 2.48667C21.6617 2.42314 20.9929 2.29609 20.7128 2.41407C20.9026 2.28701 20.5049 2.00567 20.8574 1.97845L20.5953 1.77879C20.6315 1.64265 20.8664 1.82416 20.7851 1.65173C20.6043 1.66988 20.0983 1.79694 19.9356 1.74248C19.6103 1.94214 19.3121 2.31424 18.7879 2.35054C19.0319 2.22348 18.6433 1.9966 18.815 1.94214L18.083 2.5502C17.9113 2.55927 18.0469 2.29609 17.7938 2.37777C17.8029 2.45944 17.6944 2.5139 17.6221 2.57743C17.5589 2.54112 16.8901 2.65003 16.8178 2.34146C16.7365 2.22348 17.107 2.27794 16.9082 2.16903C16.5829 2.16903 16.5738 2.27794 16.2485 2.27794L16.2395 2.24163C16.0226 2.19626 15.6069 2.36869 15.8419 2.53205C15.9864 2.54112 15.7876 2.35054 16.0045 2.44129C15.8509 2.61373 15.4804 2.6591 15.155 2.6591C15.2635 2.61373 15.2544 2.53205 15.2996 2.45037C14.8659 2.67725 14.405 2.74078 13.917 2.83154C13.9079 2.96767 14.0977 2.5865 14.17 2.6591C13.5465 2.45944 12.8868 2.89507 12.3626 2.6228C12.4439 2.60465 12.4078 2.81339 12.3988 2.76801C12.1005 2.74078 12.1096 2.55927 11.9198 2.6228C11.9017 2.5139 11.6758 2.65003 11.477 2.67725C11.3776 2.74986 11.4228 2.6228 11.6035 2.61373C11.3234 2.70448 10.2028 2.82246 9.5521 2.6591C9.53403 2.72263 9.11833 2.88599 8.97374 2.86784L9.02796 2.72263C8.8924 2.63188 8.53092 2.71356 8.50381 2.5865C8.18752 2.75893 9.73284 2.46852 9.29907 2.59558C9.19062 2.46852 8.70263 2.81339 8.793 2.61373C8.49477 2.61373 8.20559 2.75893 7.91641 2.61373C7.99774 2.64095 8.16041 2.42314 7.91641 2.43222C7.49167 2.45037 7.79893 2.50482 7.45552 2.54112L7.23863 2.5865C7.22056 2.71356 6.85908 2.5502 7.01271 2.70448C6.96752 2.59558 6.39819 2.74078 6.44338 2.53205L6.50664 2.36869C6.31686 2.38684 6.19938 2.54112 6.05479 2.60465C6.02768 2.5865 5.98249 2.5502 5.99153 2.52297C5.96442 2.76801 5.54871 2.49575 5.33183 2.66818C5.14205 2.61373 4.88901 2.60465 4.68116 2.5865C4.50042 2.57743 4.32872 2.55927 4.23835 2.5139C3.98531 2.59558 3.79554 2.72263 3.49732 2.76801C3.5425 2.73171 3.62384 2.70448 3.62384 2.6591C3.42502 2.6591 3.39791 2.73171 3.26235 2.83154C3.28043 2.78616 2.87376 2.89507 2.65688 2.98582C2.4671 3.18548 2.62073 3.21271 2.62977 3.26716C2.30443 3.28531 2.18695 3.83891 1.90681 4.01134C1.93392 3.92059 2.06043 3.64833 1.89777 3.80261C1.62666 3.93874 1.7351 4.29268 1.52725 4.62847L1.68088 4.5831C1.53629 4.71923 1.59051 5.1367 1.48207 5.07317C1.4911 5.2093 1.38266 5.52694 1.50014 5.49064C1.37362 6.1713 1.50918 7.22405 1.3194 7.65967C1.33748 7.7595 1.3194 8.02269 1.36459 7.96824C1.42785 7.7958 1.32844 7.73228 1.36459 7.66875C1.36459 7.7595 1.3917 7.77765 1.40977 7.78673C1.38266 8.01361 1.37362 8.18605 1.29229 7.97731C1.22903 8.47646 1.45496 8.48554 1.40977 9.12082C1.37362 9.09359 1.35555 9.13897 1.35555 9.32048L1.41881 9.67442C1.40073 10.0828 1.32844 9.91038 1.25614 9.91946C1.26518 10.1373 1.26518 10.4005 1.31036 10.5003L1.22903 10.7635C1.29229 10.5729 1.26518 10.945 1.28325 11.0448L1.26518 10.945C1.23807 10.9813 1.25614 11.2354 1.26518 11.3625C1.31036 11.3352 1.3194 11.072 1.33748 10.9359C1.36459 11.0448 1.36459 11.2172 1.3917 11.3715C1.32844 11.3261 1.34651 11.7255 1.33748 11.8979C1.32844 12.0976 1.40073 12.1248 1.40073 12.1792C1.36459 12.1883 1.40073 12.506 1.34651 12.3517C1.33748 12.2881 1.38266 12.1974 1.34651 12.0885C1.3194 12.2155 1.25614 12.2065 1.31036 12.4787C1.34651 12.6875 1.44592 12.4243 1.40073 12.8145C1.38266 12.7147 1.35555 12.6965 1.32844 12.6149L1.29229 12.9779L1.35555 12.996C1.33748 13.0414 1.33748 13.0142 1.32844 13.0323C1.3917 13.1412 1.35555 13.5859 1.43688 13.6676C1.44592 13.8491 1.40073 14.0579 1.3917 14.2303L1.38266 14.194C1.34651 14.4118 1.37362 14.6931 1.42785 14.8746L1.40977 14.8656C1.40977 14.9836 1.42785 15.2558 1.47303 15.4101C1.42785 15.7096 1.20192 15.5099 1.30133 15.8366C1.31036 16.1361 1.45496 16.3086 1.50014 16.1906C1.46399 16.726 1.62666 17.3432 1.51822 17.8423C1.55436 17.924 1.57244 17.8695 1.60859 18.0329C1.59955 18.8225 1.81644 19.7028 1.64473 20.3381C1.59051 20.1112 1.53629 20.3199 1.47303 20.329C1.58147 20.5196 1.37362 20.5559 1.55436 20.6285C1.65377 20.6103 1.70799 20.6285 1.7351 20.4016C1.81644 20.8735 1.86162 21.5905 1.77125 21.8537C1.81644 21.7266 1.85258 21.8264 1.89777 21.9263C1.71703 21.89 1.70799 22.2439 1.78932 22.5071L1.90681 22.5434L1.79836 22.6886C1.84355 22.7884 2.0514 22.7975 1.95199 23.0607C1.90681 23.0698 1.86162 23.0879 1.83451 23.1333C1.94295 23.4056 2.14177 23.7867 2.0514 24.0862L1.87969 24.3313C1.90681 24.4583 2.03332 24.667 2.06947 24.4492C1.9791 24.9575 1.9791 25.2751 1.81644 25.4385C2.04236 25.8741 2.17792 26.4095 2.25925 26.9541L2.30443 27.3715L2.34962 27.6619C2.38577 27.8344 2.42191 27.9977 2.47614 28.152L2.35866 28.1702C2.33154 28.3789 2.58458 28.1883 2.55747 28.3244C2.43095 28.3154 2.41288 28.5513 2.21406 28.4697C2.24117 28.7873 2.56651 28.6965 2.70206 28.8054C2.83762 28.7419 2.5394 28.751 2.72014 28.6693C2.76532 28.6602 2.83762 29.0233 3.04547 28.8871C3.01836 28.996 2.86473 29.0777 2.76532 29.114L2.96413 29.1594C2.92799 29.5224 2.26829 29.1231 2.15984 29.5133L2.32251 29.6313C2.27732 29.949 1.74414 29.4044 2.04236 29.8582C2.28636 29.9671 2.65688 29.8128 2.58458 29.6222C2.93702 29.8491 3.09065 29.3227 3.37984 29.5496C3.38887 29.7311 3.10873 29.4135 3.0545 29.6041C3.09969 29.8763 3.42502 29.7221 3.53346 29.8491C3.40695 29.6948 3.65998 29.5406 3.75939 29.5496C3.88591 29.7221 3.55154 29.7221 3.79554 29.831C3.88591 29.7221 4.12087 29.6948 3.97628 29.5406C4.13894 29.2683 4.18413 29.6948 4.35583 29.477C4.41005 29.7039 4.00339 29.9399 4.28354 30.0851C4.2745 29.8764 4.66309 29.84 4.53657 29.5133C4.62694 29.5769 4.64502 29.7493 4.55465 29.8673C4.6179 29.9399 4.74442 29.8491 4.87998 29.7856C5.00649 29.7311 5.1059 29.7039 5.14205 29.9126L5.22338 29.6948C5.29568 29.7674 5.40412 29.8219 5.5216 29.9399C5.72945 29.949 6.19034 29.6676 6.17227 29.9853C6.23553 29.949 6.71449 29.9762 6.53375 29.7584C6.23553 29.6132 6.19938 29.9126 6.02768 29.6041C6.23553 29.8491 6.45241 29.5859 6.62412 29.5133L6.65123 29.6404C6.75064 29.595 6.9856 29.6313 7.04886 29.5043C6.96752 29.5678 7.01271 29.6585 7.09404 29.6858L7.20248 29.5043C7.61819 29.4317 7.30189 29.831 7.69952 29.7947L7.41034 29.9036C7.47359 29.8764 7.60915 30.0488 7.80796 30.0034C7.88026 29.84 8.02485 29.6495 8.08811 29.5315C8.31403 29.477 8.18752 29.7221 8.41344 29.5678L8.12426 29.7493C8.07907 29.8037 8.32307 30.0216 8.62129 30.0306C8.81107 29.9853 9.10929 29.7674 8.81107 29.6676C8.9647 29.6767 9.17255 29.7856 9.05507 29.8854C9.39847 29.8491 9.00988 29.713 9.3081 29.6404C9.42559 29.7493 9.80514 29.9217 10.0311 30.076L9.72381 30.312L9.93166 30.321C9.66958 30.5116 10.0672 30.4753 9.91358 30.6841C10.0491 30.7204 10.2208 30.6478 10.3564 30.6024C9.94973 30.2484 10.8173 30.1668 10.6998 29.8673C11.2601 29.84 11.0522 30.5933 11.6396 30.1849C11.5402 30.1032 11.8204 29.9127 11.4679 29.9671C11.8204 30.0216 11.7029 29.7039 12.1186 29.8582C11.8114 29.9399 12.4439 30.1577 12.0011 30.2847C12.0282 30.194 11.7571 30.2031 11.6848 30.2212C11.8294 30.3392 11.6577 30.5026 12.0102 30.5116C12.2271 30.4935 12.5253 30.5026 12.4801 30.3664C12.4711 30.2121 12.1457 30.3664 12.2903 30.2212C12.7241 30.2031 12.7964 30.4209 12.9771 30.1849C12.706 30.1849 12.6337 30.0306 12.6428 29.9308L12.9591 29.9036L12.8958 29.9943C13.4109 30.1123 13.0494 29.84 13.5465 29.9217L13.7814 30.1214C13.6639 30.2666 13.0585 29.9853 13.1488 30.2484C13.4742 30.2847 13.5826 30.1668 13.8808 30.2575C13.8085 30.2757 13.7182 30.2666 13.6549 30.2847C13.7724 30.3029 13.8899 30.6296 14.3417 30.4753C14.5767 30.4209 14.405 30.4027 14.414 30.312C14.9291 30.3301 15.0827 30.2666 15.4171 30.2847C15.3448 30.43 16.0045 30.3483 15.634 30.4663C15.4623 30.3664 14.7122 30.3029 14.5315 30.4481C14.7213 30.6568 14.1248 30.3936 14.0164 30.5933C14.4321 30.6205 14.414 30.8111 14.4773 30.9382C14.5947 30.9473 14.7032 30.9019 14.7755 30.8837C14.8207 30.7748 14.6761 30.7657 14.667 30.6478C15.1279 30.7022 15.5798 30.6568 15.8328 30.5752C15.9864 30.6387 15.9413 30.7294 15.7515 30.7294C16.3027 30.7204 16.8901 30.7657 17.4143 30.8111C17.0799 30.6659 18.0017 30.8111 17.7667 30.6931C17.4866 30.6478 17.2426 30.5298 17.3962 30.4844C17.5679 30.5116 17.3872 30.5389 17.4595 30.5752C17.6854 30.5207 17.8029 30.7113 18.0288 30.6205C17.5227 30.6205 17.9294 30.7657 17.839 30.8565C18.2005 30.8111 17.821 30.92 18.1824 30.9291C18.5439 30.8837 18.9867 30.8656 19.3934 30.8656C19.8995 30.9473 20.6766 30.9019 21.1285 30.92C21.3635 30.9563 21.2008 31.0108 21.4629 31.0199C21.7611 31.0199 21.2369 30.9563 21.6888 30.9836L21.6436 30.9926C21.7792 30.9836 22.4569 31.0289 22.5925 30.9654L22.4569 31.0108C22.5383 31.0199 22.6196 31.0017 22.6829 31.0017C22.6829 31.0199 22.7823 31.0289 22.6467 31.038C22.9178 31.0743 23.2251 31.0289 23.5233 31.0289L23.3335 31.0017C23.8486 30.9836 24.183 31.0108 24.68 31.0017L24.662 31.0199L24.9602 31.0108C24.8879 31.0289 25.159 31.0471 25.3126 31.0289L24.5445 31.0834C24.3276 31.0743 24.7794 31.0562 24.6439 31.038C24.5264 31.0199 24.0746 31.0199 24.0023 31.0471C24.174 31.0471 24.183 31.0471 24.3186 31.038C24.3728 31.0652 24.1107 31.0652 23.9751 31.0925C24.0655 31.0925 24.2011 31.1015 24.2191 31.0925C24.0384 31.1106 23.8577 31.1106 23.5594 31.1197C23.7673 31.1015 23.451 31.1015 23.5233 31.0925C23.4962 31.1197 23.216 31.1378 22.8455 31.1288C22.5835 31.0925 22.1497 31.1651 21.7159 31.1651C21.8876 31.1197 22.1135 31.0834 22.3756 31.0743C22.1045 31.0562 22.0774 31.0743 21.8063 31.0562C21.6797 31.0834 21.5803 31.1378 21.2279 31.1651L21.2098 31.1288C20.8935 31.1469 20.8935 31.2014 20.4869 31.2014C19.782 31.2104 19.0771 31.2195 18.5439 31.2286L18.5258 31.1741C18.2276 31.3012 17.5408 31.2467 17.1432 31.3284C16.4654 31.283 15.6701 31.4646 15.3267 31.3375C14.1339 31.4373 13.0856 31.5916 11.8475 31.5916L12.0554 31.401C11.8294 31.5372 11.9108 31.3012 11.6939 31.3284C11.9469 31.4736 11.3956 31.5281 11.242 31.6551C10.6908 31.5281 9.98588 31.7096 9.49788 31.882L9.47981 31.7368C8.98277 32.0272 8.39537 31.8094 7.78085 31.7731C7.70856 31.7096 7.60011 31.5644 7.41937 31.5825C7.085 31.8457 6.9133 31.8276 6.4253 32C6.06382 32.0091 5.48546 31.9455 5.12398 31.8457C4.94324 31.8911 4.80768 31.9365 4.59079 31.9546C4.38294 31.9818 4.16605 31.9819 3.94917 31.9637C3.51539 31.9274 3.09065 31.8094 2.69302 31.6098C1.88873 31.2286 1.21999 30.6205 0.668738 29.8854L0.768145 29.6767C0.478961 29.35 0.253036 28.9325 0.135555 28.4606C0.081333 28.2337 0.036148 27.9887 0.027111 27.7527L0 27.3988L0.018074 27.1265C0.063259 26.3914 0.126518 25.6835 0.072296 25.1027L0.343406 25.2116C0.442813 24.8486 0.307258 24.3857 0.108444 24.4765C0.207851 24.1134 0.036148 23.5689 0.262073 23.333C0.325332 22.9609 0.171703 22.8792 0.162666 22.5706C0.298221 21.8264 0.289184 21.5451 0.298221 20.8463L0.27111 21.0096C0.316295 21.0913 0.406665 21.0913 0.424739 20.9189C0.379554 20.6557 0.533183 19.9569 0.280147 20.211C0.460887 19.4577 0.298221 18.4594 0.497035 17.7243C0.442813 17.7879 0.442813 17.6064 0.415702 17.5247C0.45185 16.8622 0.578368 16.1724 0.524146 15.6461C0.551257 15.5372 0.596442 15.8094 0.605479 15.5462C0.596442 15.3829 0.551257 15.5462 0.533183 15.3466C0.497035 14.2757 0.677775 13.1866 0.668738 12.2065C0.641627 10.464 0.605479 8.67612 0.578368 7.02439L0.605479 7.04254C0.478961 6.47079 0.668738 5.80828 0.506072 5.25468C0.54222 5.10947 0.587405 4.68293 0.63259 4.80091C0.623553 4.26546 1.11155 3.46682 1.50014 2.83154C1.45496 2.88599 1.42785 2.91322 1.40073 2.9949C1.90681 2.46852 2.36769 1.92399 3.13584 1.66081C3.06354 1.70618 2.94606 1.78786 2.93702 1.84231C3.22621 1.76971 3.55154 1.37039 3.77746 1.54282C3.94917 1.49745 3.87687 1.39762 3.76843 1.43392C4.18413 1.34317 4.6902 1.31594 5.03361 1.29779C5.4222 1.27964 5.80175 1.24334 6.19034 1.20703C6.96752 1.11628 7.7447 1.0346 8.51285 0.943846C9.61536 1.0709 8.57611 1.45207 9.4527 1.18888C9.52499 1.24334 9.50692 1.06183 9.51595 1.13443C9.85032 1.02552 10.0401 1.47022 10.2751 1.29779C10.1757 1.09813 10.4287 1.17981 10.4377 1.05275C11.1155 1.15258 11.2511 1.34317 11.7842 1.17073L11.7481 1.27964C12.3716 0.943846 13.0946 1.08905 13.6278 0.689733C17.0799 0.5173 20.3875 0.190584 23.7492 0.0363018C24.5806 0.0272263 25.403 0.0181509 26.2344 0H26.388L26.632 0.00907544C26.7947 0.0181509 26.9574 0.0181509 27.111 0.0453772C27.4363 0.081679 27.7436 0.154282 28.0599 0.235961C28.6834 0.426546 29.2618 0.71696 29.7769 1.1072C30.8162 1.86954 31.5843 3.02212 31.8644 4.30176C32.0181 4.90074 32.009 5.7266 31.9729 6.03517C31.9458 6.45264 31.9187 6.87918 31.8825 7.30573C31.4849 8.10437 31.503 8.15882 31.6295 9.03006C31.5662 8.99376 31.5572 8.93931 31.503 9.00284C31.8102 9.04821 31.521 9.61997 31.8102 9.70164C31.7199 10.9541 31.765 12.1066 31.6927 13.3953C31.6747 13.1957 31.4487 13.0868 31.4578 13.3318L31.6204 13.5859L31.5391 13.6313C31.5753 13.7947 31.6927 13.9762 31.7921 13.8037C31.8102 15.4192 31.5572 17.0346 31.3132 18.6319C31.0602 20.2292 30.8252 21.8174 30.6896 23.4056C30.5631 24.1588 30.5179 25.2297 30.4637 26.0465C30.3824 26.6636 30.3462 27.2172 30.2559 27.8616C30.1384 28.4878 29.8853 29.0596 29.5239 29.5496C28.8009 30.5298 27.6532 31.1741 26.37 31.1832C26.37 31.1469 26.7314 31.2014 27.6984 30.8383Z" fill="#707070"/>
<path d="M25.638 31.1106C25.5476 31.0925 25.2674 31.0925 25.4934 31.0652C25.5205 31.0743 25.6651 31.0925 25.638 31.1106Z" fill="#707070"/>
<path d="M18.1282 30.7294C18.1192 30.7476 18.0198 30.7022 18.0017 30.6931C18.0921 30.6931 18.1824 30.6568 18.2547 30.6931C18.1553 30.6841 18.1734 30.7113 18.1282 30.7294Z" fill="#707070"/>
<path d="M16.2124 30.5752C16.2395 30.5207 16.6552 30.5026 16.8901 30.5207L16.2124 30.5752Z" fill="#707070"/>
<path d="M14.423 30.1668C14.2694 30.0942 14.3146 30.0579 14.5224 30.0851C14.5405 30.1305 14.4682 30.1395 14.423 30.1668Z" fill="#707070"/>
<path d="M14.2965 30.321C14.1519 30.312 14.0706 30.2575 13.9983 30.2121C14.0073 30.2757 14.3507 30.2031 14.2965 30.321Z" fill="#707070"/>
<path d="M10.4197 29.7493C10.3293 29.7493 10.1214 29.8219 10.0401 29.7039C10.1305 29.7856 10.4919 29.6132 10.4197 29.7493Z" fill="#707070"/>
<path d="M8.61225 29.7947C8.55803 29.7856 8.53092 29.7674 8.45863 29.7947C8.35018 29.7402 8.46766 29.6676 8.55803 29.6585L8.61225 29.7947Z" fill="#707070"/>
<path d="M1.77125 4.30176C1.74414 4.35621 1.72606 4.41974 1.71703 4.47419L1.68088 4.42881C1.70799 4.38344 1.7351 4.34714 1.77125 4.30176Z" fill="#707070"/>
<path d="M14.9472 2.89507C15.146 2.82246 15.0827 3.00397 15.1189 3.02212C14.9382 3.0312 15.1822 2.87691 14.9472 2.89507Z" fill="#707070"/>
<path d="M22.71 2.35054H22.6467L22.6648 2.07828L22.71 2.35054Z" fill="#707070"/>
</svg>
