<svg xmlns="http://www.w3.org/2000/svg" xmlns:xlink="http://www.w3.org/1999/xlink" width="77" height="238" viewBox="0 0 77 238" fill="none">



<g clip-path="url(#clip0_0_1)">
<g xmlns="http://www.w3.org/2000/svg" clip-path="url(#clip1_0_1)">

<path d="M37.9288 0.6988C39.5506 0.0988237 41.7929 0.381166 43.6263 0.232936C43.8449 0.225878 43.5628 0.430575 44.0494 0.4094C45.8404 0.21176 48.6538 0.790561 50.6564 1.62347L50.5154 1.64465C50.8962 1.79287 51.4391 1.74346 51.841 1.91287C51.834 1.94816 51.6929 1.91993 51.7705 2.00463C51.9115 1.92699 52.5391 2.18815 52.7365 2.18109C52.8846 2.27991 52.8353 2.36462 53.0256 2.49167L53.3077 2.44932C54.0763 2.39991 54.859 3.11282 55.7756 3.38105C55.7192 3.38811 55.6276 3.37399 55.6769 3.43046C57.1365 3.92456 58.7583 4.97628 60.1263 6.01388C60.0417 6.00683 59.943 6.03506 59.9853 6.14094C60.1333 6.09153 60.5846 6.38093 60.9301 6.67739C60.9795 6.92444 61.6141 7.10796 61.9244 7.56676L61.868 7.55971C62.2558 7.74323 62.2205 8.03969 62.566 8.16674L62.6436 8.43497C62.9115 8.43497 62.9468 8.93612 63.2218 9.14082L63.25 9.10553C63.4827 9.32434 63.4968 9.51492 63.7013 9.72668L63.6942 9.76197C64.1173 10.2984 64.2372 10.6866 64.3641 10.5878C64.3853 10.856 63.9481 10.0725 63.9974 10.4819C65.3513 12.2466 66.1904 14.4559 66.5641 16.6652C66.55 16.9264 66.5571 17.0887 66.5006 17.1523C66.5571 17.3711 66.6135 17.9781 66.7192 18.1758C66.7051 18.1052 66.6558 18.324 66.6558 18.444C66.6276 18.8534 66.9026 18.8746 66.825 19.3263C66.7827 19.1498 66.7263 19.0934 66.6699 19.1569C66.7968 19.531 66.7827 20.0392 66.825 20.491C66.7968 20.4204 66.7827 20.3145 66.7333 20.3286C66.8814 20.8227 66.7192 21.225 66.7545 21.6556L66.6769 21.4862C66.5077 22.1638 66.8532 21.705 66.7333 22.2979C66.7192 22.1497 66.6769 22.1991 66.6417 22.1709C66.6981 22.4532 66.6981 22.8273 66.6769 23.1944C66.6276 23.5544 66.5641 23.9214 66.543 24.2038C66.5359 24.1685 66.5077 24.1755 66.5077 24.1755C66.4654 24.479 66.4019 24.7826 66.3455 25.1002C66.2891 25.4108 66.1833 25.7284 66.141 26.0602C66.0353 26.286 65.9436 25.926 65.8096 26.5542C66 26.5825 65.584 27.6271 65.8942 27.3236C65.6756 27.8389 65.3019 28.6295 65.2314 28.9965C65.2526 28.7353 64.9282 29.1589 65.0692 28.7283L64.8436 29.0106C64.7942 28.933 64.9917 28.693 64.8647 28.7565C64.8083 28.9824 64.5827 29.6035 64.4699 29.7729C64.3853 30.1965 64.4346 30.6553 64.1244 31.2764C64.2231 30.9658 63.8494 31.3399 63.934 31.1352L63.7577 32.1376C63.6519 32.3423 63.6096 32.1093 63.4827 32.4199C63.5321 32.427 63.4827 32.5681 63.4686 32.6811C63.4263 32.7587 62.9821 33.514 62.7705 33.4857C62.6506 33.5281 62.9538 33.161 62.7564 33.3305C62.5167 33.6763 62.5519 33.7257 62.3122 34.0787L62.291 34.0716C62.1077 34.2834 61.875 34.7916 62.1288 34.608C62.2487 34.4528 62.0019 34.601 62.2064 34.3963C62.1853 34.6292 61.8891 35.0316 61.6071 35.3563C61.6776 35.2292 61.6282 35.208 61.6282 35.1304C61.3603 35.6457 61.0218 36.175 60.6058 36.6691C60.6622 36.7327 60.6622 36.3939 60.7609 36.3586C60.084 36.8456 59.675 37.6926 59.0333 38.0103C59.1109 37.9256 59.1603 38.0667 59.1391 38.0526C58.8218 38.2926 58.7583 38.1867 58.5821 38.3844C58.5186 38.342 58.3423 38.6102 58.1519 38.7938C58.0744 38.9208 58.0744 38.8079 58.2506 38.6597C58.1167 38.7938 57.8064 39.1538 57.3763 39.4573C56.9532 39.7678 56.4596 40.0925 56.0718 40.2831C56.0929 40.2972 56.0013 40.4102 55.8885 40.5302C55.7686 40.6431 55.6205 40.756 55.5288 40.7984L55.5429 40.6643C55.3526 40.6925 54.9577 40.9819 54.8872 40.9113C54.584 41.236 56.2622 40.0431 55.8109 40.4102C55.6346 40.3961 55.1974 40.9396 55.2327 40.749C54.8872 40.9396 54.5981 41.236 54.2173 41.3137C54.3231 41.2784 54.4288 41.0243 54.1539 41.1796C53.6673 41.4548 54.041 41.3137 53.6391 41.5254L53.3923 41.6737C53.4205 41.7866 52.9199 41.8501 53.1596 41.8854C53.0609 41.8289 52.4122 42.2454 52.4051 42.0548L52.4263 41.8925C52.2077 41.9913 52.109 42.1889 51.9538 42.316C51.9186 42.316 51.8481 42.3089 51.8551 42.2807C51.8904 42.4995 51.291 42.4289 51.0583 42.6689C50.5436 42.7324 49.8032 43.043 49.5282 42.9442C49.1545 43.0783 48.816 43.2265 48.3647 43.2618C48.4494 43.2265 48.5692 43.1983 48.5833 43.1418C48.2942 43.1277 48.2378 43.1983 47.991 43.283C48.0404 43.2407 47.4199 43.2618 47.0955 43.1912C46.7147 43.2901 46.8628 43.3959 46.8276 43.4736C46.4538 43.2759 45.7346 43.7277 45.2692 43.5371C45.4032 43.523 45.8333 43.3889 45.509 43.3677C45.1494 43.163 44.7968 43.5301 44.2186 43.4242L44.3596 43.6077C44.1058 43.4948 43.5064 43.7065 43.5699 43.523C43.3724 43.6006 42.8929 43.4242 42.9494 43.6077C42.484 43.4877 41.9058 43.4524 41.3769 43.403C40.8481 43.3395 40.3756 43.2054 40.1218 43.0007C39.9808 43.0077 39.6564 42.9089 39.7058 43.0148C39.9103 43.1559 40.0301 43.0007 40.1006 43.0854C39.9808 43.0712 39.9455 43.1136 39.9244 43.1348C39.6423 43.036 39.4167 42.9865 39.7199 42.8877C39.1064 42.6689 38.9936 43.0501 38.2038 42.7536C38.2603 42.6901 38.2038 42.6477 37.9712 42.5913L37.4917 42.5842C36.9769 42.4077 37.2449 42.3442 37.2731 42.2172C36.991 42.1607 36.6737 42.0125 36.5186 42.0619L36.2506 41.7936C36.4481 41.9913 36.0038 41.7795 35.8699 41.7584L36.0038 41.7795C35.9756 41.7089 35.6513 41.6242 35.4891 41.5819C35.4962 41.6666 35.7994 41.8148 35.9686 41.9066C35.8135 41.9066 35.6019 41.8148 35.3974 41.8007C35.5032 41.716 34.9885 41.5537 34.7981 41.4266C34.5724 41.2854 34.4878 41.3984 34.4173 41.3631C34.4385 41.2995 34.0365 41.1654 34.2551 41.1725C34.3468 41.1937 34.4103 41.3207 34.5724 41.3348C34.4385 41.2148 34.5019 41.1231 34.1423 41.0454C33.8744 40.9819 34.1 41.2925 33.6699 40.996C33.8038 41.0313 33.8532 40.996 33.966 41.0031L33.5641 40.7349L33.4936 40.8266C33.4513 40.7702 33.4936 40.7843 33.4724 40.756C33.2821 40.8125 32.8167 40.4243 32.6545 40.4878C32.4359 40.3749 32.2526 40.1561 32.0622 40.029L32.1045 40.0431C31.9 39.8384 31.5404 39.6973 31.3077 39.6126L31.3288 39.5984C31.209 39.4996 30.8987 39.302 30.7083 39.2385C30.4404 38.942 30.8494 38.822 30.4192 38.6808C30.1019 38.455 29.7917 38.4761 29.8763 38.6244C29.3686 38.1232 28.6423 37.6997 28.2545 37.135C28.1487 37.0997 28.1769 37.1632 28.0077 37.0291C27.6622 36.6268 27.2532 36.2456 26.8795 35.8645C26.5128 35.4763 26.2308 35.0457 26.0545 34.6575C26.2801 34.8692 26.1532 34.6081 26.2026 34.5657C25.9699 34.4245 26.1038 34.2692 25.9064 34.2975C25.8429 34.3751 25.7865 34.3822 25.9346 34.6433C25.4763 34.1987 24.9897 33.3516 24.884 33.0058C24.9333 33.1822 24.8417 33.0834 24.7429 32.9775C24.9051 32.9352 24.6795 32.5328 24.4538 32.2505H24.3481L24.341 31.9964C24.2564 31.8905 24.0942 31.954 24.0237 31.594C24.0519 31.5588 24.0731 31.5235 24.0731 31.4529C23.8545 31.1564 23.4808 30.747 23.4173 30.3447L23.4455 29.9847C23.375 29.8294 23.1987 29.5894 23.2622 29.8859C23.1212 29.2153 22.9872 28.7989 23.0365 28.5589C22.7474 28.0436 22.5288 27.3519 22.3314 26.6319C22.1481 25.9119 22.134 25.1355 22.0635 24.4508L22.141 24.4861C22.1763 24.1191 21.9929 24.3026 22.0212 24.0485C22.0917 24.1614 22.1692 23.7661 22.2609 24.0485C22.3455 23.5332 22.1481 23.385 22.1199 23.0391C22.0282 22.9897 22.1763 23.3144 22.0564 23.2438C22.0212 23.1873 22.1481 22.5238 22.007 22.4321C22.0705 22.305 22.1692 22.4109 22.2256 22.4815L22.1622 22.1568C22.3385 21.7827 22.4442 23.0532 22.6628 22.6579L22.6487 22.3685C22.8109 22.1074 22.8038 23.1309 22.8744 22.4179C22.8109 22.1074 22.6064 21.825 22.5359 22.1003C22.5147 21.4439 22.2115 21.7686 22.3032 21.0627C22.416 20.8792 22.2468 21.6274 22.3808 21.5074C22.5429 21.1898 22.409 20.8368 22.4865 20.5474C22.3878 20.8651 22.2821 20.5686 22.2821 20.3498C22.4019 19.9969 22.3878 20.6039 22.4724 20.0957C22.4019 19.9969 22.4019 19.5169 22.2891 19.9122C22.1269 19.6933 22.409 19.3828 22.3455 19.0863C22.5147 18.9522 22.5218 19.6651 22.7192 19.1287C22.5712 19.1922 22.7192 18.4157 22.4583 18.6628C22.55 18.451 22.6558 18.4581 22.691 18.6275C22.8462 18.3381 22.6487 17.8228 22.9237 17.7875L22.825 17.6464C22.8885 17.5617 22.959 17.4346 23.0647 17.2934C23.1423 17.0252 23.1987 16.3899 23.3679 16.4817C23.382 16.3899 23.6006 15.797 23.3891 15.9805C23.1776 16.3264 23.3256 16.4394 23.0788 16.5876C23.3186 16.3758 23.2551 16.0441 23.2904 15.8041L23.375 15.797C23.3962 15.6559 23.516 15.3665 23.4667 15.2535C23.4737 15.3665 23.5372 15.3382 23.5936 15.2394L23.5372 15.0629C23.6923 14.5194 23.7769 15.0206 23.9673 14.5194L23.8756 14.9218C23.8968 14.83 24.0731 14.71 24.1506 14.463C24.0942 14.3289 24.059 14.103 24.0237 13.99C24.1154 13.6936 24.1929 13.9195 24.2212 13.6018L24.1647 14.0112C24.1718 14.0818 24.4397 13.8489 24.609 13.4818C24.6865 13.2348 24.7288 12.7971 24.4962 13.143C24.5808 12.9595 24.7641 12.7336 24.7641 12.9171C24.9545 12.4936 24.6231 12.9101 24.7712 12.536C24.9192 12.4301 25.2718 12.0489 25.5186 11.8442L25.4551 12.2889L25.5962 12.056C25.5327 12.4301 25.7795 11.9642 25.8077 12.2042C25.9205 12.0631 25.9981 11.8442 26.0545 11.6678C25.5679 12.0066 26.0968 10.969 25.8288 10.9831C26.1885 10.3055 26.541 10.9055 26.7173 10.0725C26.5904 10.1431 26.682 9.74785 26.4494 10.1643C26.7526 9.80432 26.4635 9.77609 26.8724 9.38787C26.6962 9.76903 27.3167 9.17611 27.0628 9.72668C27.0276 9.64903 26.8231 9.95255 26.7808 10.0373C26.9641 9.93138 26.9359 10.1996 27.2179 9.8255C27.3731 9.58551 27.6128 9.26081 27.4859 9.23964C27.3801 9.16905 27.2321 9.59962 27.2391 9.37375C27.5494 8.87965 27.7609 8.92906 27.7609 8.61143C27.5212 8.88671 27.3731 8.88671 27.3096 8.83024C27.3801 8.70319 27.4647 8.59025 27.5494 8.47026L27.5564 8.58319C28.0712 8.11733 27.5776 8.33615 28.05 7.85616L28.3885 7.73617C28.3885 7.94793 27.6833 8.40673 27.9372 8.47732C28.2333 8.16674 28.2474 7.98322 28.5647 7.72205C28.5154 7.7997 28.4378 7.89852 28.3955 7.97616C28.5083 7.86322 28.8327 7.9691 29.1218 7.3903C29.284 7.10796 29.1218 7.27031 29.0654 7.19972C29.5308 6.68445 29.6506 6.50798 29.9679 6.19035C30.0103 6.38093 30.5673 5.67507 30.3135 6.13388C30.0808 6.21152 29.3263 6.88208 29.2699 7.17149C29.5801 7.12913 28.8821 7.55265 28.9314 7.7997C29.3051 7.39736 29.4321 7.55971 29.5801 7.58794C29.6859 7.48206 29.7635 7.34795 29.8128 7.27031C29.7776 7.13619 29.6295 7.2703 29.5308 7.19266C30.0103 6.8115 30.4051 6.36681 30.5814 6.04918C30.7718 5.95742 30.807 6.09153 30.6308 6.26093C30.8987 6.01388 31.1596 5.7386 31.4628 5.51979C31.766 5.30803 32.0692 5.09627 32.3654 4.91275C31.8859 5.01157 32.9647 4.41865 32.6192 4.46806C32.2949 4.65159 31.9494 4.72217 32.0622 4.53159C32.2596 4.40454 32.1045 4.60923 32.2103 4.581C32.3865 4.31277 32.6827 4.45395 32.8237 4.13631C32.316 4.581 32.859 4.41159 32.8449 4.61629C33.1833 4.26337 32.8942 4.72217 33.275 4.44689C33.6135 4.10102 34.1 3.76927 34.5372 3.46575C34.8615 3.35987 35.2282 3.15517 35.5737 2.9293C35.9404 2.73872 36.2929 2.54108 36.5609 2.41403C36.8782 2.35756 36.7583 2.60461 37.0756 2.49873C37.4353 2.33638 36.7301 2.44226 37.2942 2.27991L37.259 2.33638C37.4071 2.22345 38.2744 2.00463 38.359 1.74346L38.2532 1.9764C38.359 1.95522 38.4436 1.88464 38.5212 1.83523C38.5494 1.89169 38.6833 1.90581 38.5353 1.99757C38.916 2.01169 39.2404 1.74346 39.607 1.61641L39.3321 1.58818C39.9455 1.31289 40.3897 1.22113 41.0173 1.06584L41.0244 1.17878L41.384 1.03055C41.3205 1.15761 41.6731 1.15055 41.8564 1.01643L40.9538 1.4823C40.6718 1.47524 41.2147 1.29172 41.0173 1.22113C40.9327 1.1929 40.7494 1.21407 40.5731 1.26348C40.4038 1.32701 40.2487 1.41171 40.2205 1.4823C40.4391 1.42583 40.4462 1.39054 40.6013 1.30583C40.7141 1.42583 40.3827 1.53171 40.2487 1.687C40.3615 1.64465 40.5308 1.63759 40.5449 1.58112C40.3474 1.72935 40.1288 1.81405 39.7622 1.93405C39.9949 1.79287 39.6 1.88464 39.6776 1.81405C39.6917 1.95522 39.3532 2.11051 38.8878 2.22345C38.6974 2.20227 38.4929 2.29403 38.2744 2.41403C38.0558 2.53402 37.8301 2.71049 37.5692 2.80225C37.7244 2.59049 37.9359 2.3505 38.2321 2.18109C37.8795 2.23756 37.8795 2.33638 37.5269 2.41403C37.4141 2.57637 37.3647 2.77401 36.9769 3.014L36.9135 2.9293C36.5609 3.14812 36.6244 3.28223 36.1378 3.46575C35.3199 3.82574 34.5442 4.31983 33.9449 4.63747L33.8673 4.56688C33.6558 4.94099 32.8801 5.3645 32.5205 5.7386C31.7308 6.14094 31.1314 7.00208 30.6801 7.15737C30.4122 7.43265 30.1301 7.67264 29.8974 7.95498C29.6577 8.23733 29.425 8.50555 29.1923 8.78789C28.9526 9.05612 28.7128 9.3314 28.466 9.60668C28.2474 9.90314 28.0147 10.2067 27.7679 10.5172L27.8103 10.2137C27.7256 10.5102 27.634 10.3125 27.4788 10.5455C27.7679 10.3619 27.366 10.9478 27.3237 11.1525C26.8019 11.6466 26.4776 12.5219 26.2308 13.0865L26.1321 13.0583C25.9558 13.6795 25.5397 14.2936 25.1519 14.9853C25.0744 15.0488 24.9263 15.1406 24.8346 15.3523C24.8346 15.8111 24.75 16.0229 24.6372 16.637C24.475 17.0605 24.1859 17.7381 24.0378 18.1758C23.9885 18.6063 23.9179 19.0298 23.8333 19.4463C23.7417 19.8627 23.7276 20.3004 23.6641 20.7239C23.6218 21.1545 23.5301 21.578 23.5231 22.0156C23.5231 22.4532 23.5301 22.8909 23.5513 23.3285L23.4314 23.4555C23.4596 23.8861 23.5513 24.3237 23.6077 24.7826C23.6571 25.2343 23.7064 25.6931 23.7558 26.1519C23.8474 26.5966 23.9391 27.0342 24.0237 27.4507C24.0731 27.6554 24.1154 27.8601 24.1647 28.0507C24.2212 28.2412 24.3058 28.4106 24.3763 28.5801L24.1365 28.5095C24.2282 28.9612 24.5314 29.4765 24.6231 29.3141C24.6724 29.533 24.7712 29.8012 24.891 30.0341C25.0179 30.267 25.1167 30.4859 25.1026 30.6482C25.2718 31.0858 25.434 31.1211 25.6173 31.4529C26.0122 32.2928 26.2167 32.5752 26.7173 33.2881C26.675 33.2316 26.6397 33.1681 26.6045 33.1046C26.5199 33.0481 26.4423 33.0905 26.5481 33.281C26.7949 33.5069 27.2391 34.2692 27.2391 33.8669C27.6692 34.728 28.734 35.441 29.2346 36.2245C29.2205 36.1256 29.4038 36.2668 29.5096 36.295C30.1231 36.8315 30.6801 37.5232 31.3006 37.7915C31.3853 37.8973 31.0679 37.7632 31.3288 37.9609C31.5051 38.0597 31.3853 37.8903 31.6038 38.0032C32.1609 38.3632 32.732 38.7161 33.275 39.0973C33.8038 39.4926 34.375 39.8031 34.9321 40.0572C36.9346 40.8549 39.0712 41.6031 41.1231 41.8784L41.0949 41.9207C41.8 41.8501 42.6885 42.2807 43.2596 42.0689C43.4218 42.1395 43.8801 42.0972 43.7532 42.196C44.3032 42.0478 45.3045 42.3795 46.0872 42.1042C46.0167 42.1042 45.9744 42.1183 45.8897 42.1466C46.7006 42.1748 47.3987 42.0125 48.2378 41.9207C48.1532 41.956 48.0051 41.9983 47.991 42.0548C48.3295 42.083 48.7173 41.7089 48.943 41.9066C49.1263 41.8713 49.0487 41.7654 48.9359 41.7936C49.4013 41.7513 49.8526 41.6101 50.3179 41.476C50.7763 41.3278 51.2487 41.2148 51.6929 41.0172C52.5814 40.6219 53.4769 40.2337 54.3019 39.7255C55.5853 39.1961 54.584 40.0502 55.4442 39.3514C55.5429 39.3373 55.4513 39.2385 55.4865 39.2737C55.8038 38.9843 56.1846 39.1255 56.3609 38.8644C56.1776 38.8149 56.4808 38.6879 56.4385 38.6102C57.2141 38.2361 57.3904 38.1797 57.8628 37.6785L57.8699 37.7703C58.1026 37.4315 58.441 37.1703 58.709 36.8527C58.984 36.5421 59.2449 36.2456 59.393 35.928C60.8808 34.3681 62.1359 32.6458 63.0808 30.7753C64.0256 28.9047 64.7167 26.9425 65.1821 24.9025C66.0423 20.8862 65.8731 16.6582 64.2372 12.8889C63.9904 11.9289 63.941 11.8584 63.3135 10.9902C63.3628 11.0113 63.4051 11.0607 63.391 10.9831C63.2218 11.0255 62.9609 10.3619 62.7705 10.369C61.8962 9.10553 60.8808 8.09616 59.668 7.07267C59.8724 7.2209 60.0628 7.19972 59.8231 7.0162L59.5128 6.8962L59.5058 6.82562C59.3295 6.71268 59.1109 6.63504 59.2378 6.8115C56.0506 4.45395 52.4263 2.60461 48.4987 1.82817C47.5891 1.567 46.2353 1.42583 45.2128 1.35524C42.2019 0.854088 39.3673 0.783503 36.3141 1.46818C36.3141 1.46818 36.3987 1.34819 36.6385 1.1929C36.8853 1.03761 37.2801 0.818795 37.9288 0.6988Z" fill="#31258D"/>











<path d="M44.8391 136.23C44.4583 135.143 44.8462 133.71 44.5994 132.517C44.5853 132.376 44.8109 132.552 44.7545 132.235C44.4583 131.077 44.6346 129.256 44.8603 127.851L44.9167 127.936C44.959 127.668 44.7615 127.343 44.7897 127.054C44.832 127.054 44.8461 127.146 44.8955 127.082C44.7756 127.011 44.8391 126.567 44.7545 126.447C44.8038 126.334 44.8955 126.348 44.9449 126.2L44.8109 126.037C44.4936 125.586 44.832 124.936 44.6699 124.322C44.6981 124.35 44.7263 124.414 44.7545 124.365C44.557 123.376 44.5994 122.134 44.5218 121.026C44.5712 121.068 44.6558 121.111 44.7122 121.047C44.5712 120.991 44.5359 120.652 44.5077 120.355C44.6558 120.221 44.3737 119.847 44.4583 119.501L44.4936 119.529C44.3385 119.275 44.5782 119.148 44.4019 118.936L44.5147 118.774C44.3103 118.661 44.6205 118.4 44.5147 118.188L44.4724 118.195C44.4231 117.998 44.5218 117.892 44.4936 117.701L44.5147 117.68C44.4583 117.242 44.5782 116.988 44.416 117.002C44.5429 116.847 44.4724 117.426 44.6628 117.186C44.5006 115.753 44.5288 114.278 44.5288 112.838C44.5923 112.676 44.6135 112.57 44.6699 112.534C44.6346 112.393 44.6417 111.991 44.557 111.864C44.557 111.913 44.6417 111.772 44.6487 111.694C44.7122 111.433 44.4724 111.405 44.5429 111.123C44.5853 111.236 44.6346 111.278 44.6981 111.236C44.5712 110.989 44.5923 110.664 44.55 110.367C44.5782 110.41 44.5923 110.48 44.6417 110.473C44.5006 110.156 44.6699 109.894 44.5853 109.612L44.6769 109.718C44.7897 109.273 44.4865 109.584 44.55 109.196C44.5782 109.287 44.6135 109.259 44.6558 109.273C44.4865 108.913 44.5429 108.327 44.4865 107.968C44.5006 107.989 44.5218 107.982 44.5218 107.982C44.5006 107.586 44.55 107.177 44.4795 106.746C44.5218 106.591 44.7051 106.796 44.6699 106.379C44.4865 106.393 44.5923 105.673 44.3808 105.921C44.409 105.568 44.4795 105.003 44.416 104.77C44.4865 104.932 44.6417 104.594 44.6558 104.89L44.7686 104.664C44.8462 104.699 44.7404 104.897 44.8391 104.826C44.832 104.678 44.7615 104.248 44.7897 104.114C44.6769 103.838 44.4654 103.591 44.4372 103.147C44.5077 103.358 44.6417 103.027 44.6769 103.168L44.3244 102.547C44.3173 102.398 44.4724 102.511 44.4231 102.299C44.3737 102.314 44.3455 102.215 44.3032 102.151C44.3244 102.095 44.2538 101.537 44.4372 101.474C44.5077 101.41 44.4724 101.714 44.5429 101.551C44.5429 101.276 44.4795 101.269 44.4724 100.994L44.4936 100.987C44.5218 100.803 44.416 100.457 44.3173 100.655C44.3103 100.782 44.4301 100.605 44.3737 100.796C44.2679 100.669 44.2397 100.351 44.2327 100.076C44.2609 100.168 44.3103 100.161 44.3596 100.196C44.2186 99.829 44.1692 99.4408 44.1128 99.0314C44.0282 99.0243 44.2679 99.1867 44.2256 99.2431C44.3455 98.7208 44.0564 98.1632 44.2327 97.7255C44.2468 97.7961 44.1128 97.7608 44.134 97.7608C44.1481 97.5067 44.2679 97.5209 44.2256 97.3514C44.3032 97.3373 44.2045 97.1468 44.1763 96.9773C44.1199 96.8926 44.2115 96.935 44.2186 97.0832C44.1551 96.8503 44.0423 95.9044 44.1481 95.3539C44.0987 95.3609 43.9718 95.0151 43.9718 94.8951L44.0846 94.9445C44.1551 94.8315 44.0776 94.521 44.1692 94.4998C44.0282 94.2316 44.2891 95.5303 44.1833 95.1704C44.282 95.0786 44 94.6621 44.1551 94.7468C44.1481 94.4927 44.0212 94.2528 44.1269 94.0128C44.1058 94.0833 44.282 94.2175 44.275 94.0128C44.2538 93.6528 44.2186 93.9139 44.1833 93.6175L44.134 93.434C44.0212 93.4198 44.1481 93.1163 44.0212 93.2434C44.1128 93.201 43.9647 92.721 44.1481 92.7563L44.2962 92.8057C44.282 92.6505 44.141 92.5516 44.0776 92.4316C44.0917 92.4105 44.1199 92.3681 44.141 92.3752C43.9154 92.3469 44.1622 92.0081 43.9859 91.8246C44.0635 91.4999 43.9929 90.9988 44.134 90.8435C44.0635 90.5964 43.9859 90.3635 44.0353 90.0812C44.0564 90.1376 44.0635 90.2153 44.1128 90.2294C44.1763 90.0529 44.1199 90.0035 44.0846 89.8412C44.1199 89.8764 44.2115 89.4812 44.2962 89.2835C44.2327 89.0365 44.1128 89.1212 44.0353 89.093C44.2538 88.8671 43.8942 88.3942 44.0917 88.1118C44.1199 88.1965 44.1974 88.4718 44.2538 88.2671C44.4724 88.0412 44.0917 87.8083 44.1974 87.4412L44.0141 87.533C44.1269 87.3707 43.9083 86.9966 44.0917 87.0319C44.0282 86.9119 44.1551 86.6013 43.9718 86.6436C44.1199 86.0437 43.8801 85.1825 44.1974 84.8155C44.1692 84.7308 44.1974 84.512 44.1058 84.5614C44.007 84.7025 44.1763 84.759 44.1058 84.8155C44.0987 84.7378 44.0494 84.7237 44.0282 84.7167C44.0705 84.5331 44.0846 84.3849 44.2327 84.5614C44.3455 84.1449 43.9295 84.1308 44 83.6014C44.0705 83.6226 44.0987 83.5873 44.0917 83.432L43.9647 83.1355C43.9929 82.7967 44.134 82.9379 44.2538 82.9308C44.2327 82.7473 44.2397 82.5214 44.1481 82.4438L44.3032 82.225C44.1904 82.3873 44.2256 82.0768 44.1974 81.9921L44.2256 82.0768C44.275 82.0415 44.2468 81.8297 44.2327 81.7238C44.1551 81.7521 44.1269 81.9638 44.0987 82.0838C44.0423 81.9921 44.0564 81.8438 43.9929 81.7238C44.1128 81.7662 44.0776 81.4274 44.0917 81.2791C44.1199 81.1097 43.9788 81.0886 43.9859 81.0392C44.0494 81.0321 44 80.7639 44.0846 80.898C44.1058 80.9544 44.0211 81.025 44.0776 81.1239C44.1269 81.0109 44.2327 81.025 44.1551 80.7992C44.0917 80.6298 43.9154 80.8415 43.9929 80.5168C44.0212 80.6015 44.0705 80.6156 44.1128 80.6862L44.1763 80.3827L44.0635 80.3686C44.0917 80.3262 44.0987 80.3545 44.1128 80.3333C43.9929 80.2415 44.0776 79.8674 43.9436 79.7968C43.9295 79.6416 44.0212 79.4722 44.0353 79.3239L44.0423 79.3522C44.1058 79.1757 44.0635 78.9357 43.9929 78.7804L44.0141 78.7875C44.0211 78.6887 44.007 78.4557 43.9365 78.3357C44.0212 78.0887 44.3596 78.251 44.2186 77.9757C44.2115 77.7216 44.0141 77.5805 43.9436 77.6863C44.0212 77.2346 43.8378 76.7193 44.007 76.3029C43.9647 76.2393 43.9365 76.2817 43.9083 76.1476C43.9506 75.4841 43.7744 74.75 43.9929 74.2206C44.0423 74.4112 44.1058 74.2347 44.1692 74.2277C44.0705 74.0724 44.275 74.0371 44.0987 73.9806C44 73.9947 43.9506 73.9806 43.9083 74.1641C43.8519 73.7689 43.8519 73.1689 43.9506 72.9501C43.9013 73.063 43.8731 72.9783 43.8449 72.8865C44.007 72.9148 44.0282 72.6254 43.9718 72.3995L43.8731 72.3713L43.9718 72.2301C43.9436 72.1454 43.7673 72.1383 43.859 71.9195C43.8942 71.9054 43.9365 71.8983 43.9647 71.856C43.8872 71.6301 43.7462 71.3054 43.8308 71.0584L43.9718 70.8537C43.9577 70.7478 43.8731 70.5713 43.8308 70.7549C43.9154 70.3313 43.9295 70.0561 44.0494 69.9219C43.7462 69.1949 43.7391 68.1361 43.7603 67.2891L43.8308 67.3173C43.9013 67.0915 43.7038 67.1973 43.7532 67.0421C43.8237 67.1126 43.9013 66.8656 43.9929 67.0491C44.0705 66.7244 43.866 66.6327 43.8308 66.4209C43.732 66.3856 43.8942 66.5903 43.7673 66.548C43.732 66.5127 43.8449 66.0962 43.6968 66.0468C43.7532 65.9621 43.859 66.0256 43.9224 66.075L43.8519 65.8774C44.0211 65.6374 44.1551 66.435 44.3667 66.1739L44.3455 65.9903C44.5006 65.8139 44.5147 66.4774 44.5712 66.0186C44.5006 65.8209 44.2891 65.6445 44.2256 65.828C44.1833 65.4115 43.8801 65.6374 43.8942 65.1857C43.9788 65.0657 43.9154 65.5456 44.0353 65.4609C44.1551 65.2492 43.9718 65.0374 44.0141 64.8539C43.9577 65.0586 43.8096 64.8892 43.7885 64.748C43.859 64.5222 43.9295 64.8963 43.9436 64.5716C43.859 64.5151 43.7955 64.2257 43.7391 64.4798C43.5487 64.3669 43.7885 64.1481 43.6474 63.9716C43.7814 63.8657 43.9577 64.3033 44.0212 63.9504C43.8942 64.0069 43.8449 63.5128 43.6545 63.7034C43.6897 63.5622 43.7955 63.5481 43.8731 63.654C43.9506 63.4563 43.6404 63.174 43.8942 63.1105L43.7603 63.0399C43.8026 62.9763 43.8378 62.8916 43.9083 62.7858C43.9083 62.6093 43.732 62.2211 43.9295 62.2422C43.9083 62.1858 43.9154 61.7905 43.7814 61.9387C43.6968 62.1858 43.8801 62.2211 43.6968 62.3622C43.8519 62.1858 43.6756 62.0023 43.6263 61.8611L43.7038 61.8399C43.6756 61.7552 43.6897 61.5576 43.6051 61.5082C43.6474 61.5717 43.7038 61.5364 43.7179 61.4729L43.5981 61.3811C43.5417 61.0352 43.8026 61.2964 43.7673 60.9647L43.859 61.2188C43.8378 61.1623 43.9506 61.0494 43.9154 60.887C43.8096 60.8235 43.6827 60.7035 43.5981 60.6541C43.5487 60.4635 43.7179 60.5694 43.6122 60.3788L43.7391 60.6258C43.7744 60.6611 43.9154 60.4635 43.9154 60.2094C43.8801 60.047 43.725 59.7929 43.6686 60.0541C43.6686 59.927 43.732 59.7506 43.8096 59.8494C43.7744 59.56 43.6968 59.8847 43.6263 59.6376C43.6968 59.5388 43.7955 59.2212 43.9013 59.0306L44.0776 59.2918V59.1224C44.2186 59.3482 44.1904 59.0094 44.3385 59.1365C44.3596 59.0165 44.3103 58.8753 44.2679 58.7624C44.0282 59.1083 43.9365 58.3742 43.7179 58.473C43.6545 58.0001 44.2538 58.1765 43.9083 57.6824C43.8519 57.7601 43.6827 57.5271 43.7462 57.8307C43.7673 57.5342 43.5276 57.633 43.6192 57.2872C43.7109 57.5413 43.8449 57.0119 43.9718 57.386C43.9013 57.3577 43.9154 57.5907 43.9365 57.6471C44.0212 57.5271 44.1551 57.6754 44.1551 57.3719C44.134 57.1883 44.1269 56.9342 44.0141 56.9695C43.8872 56.9766 44.0282 57.2519 43.9013 57.1319C43.859 56.7648 44.0494 56.7083 43.8237 56.5531C43.8378 56.786 43.7109 56.8425 43.6263 56.8354L43.5769 56.5672L43.7179 56.5954C43.7814 56.1648 43.5628 56.4684 43.591 56.0519L43.7603 55.8543C43.9013 55.9531 43.6968 56.4613 43.9295 56.3907C43.9365 56.1225 43.8237 56.0307 43.8801 55.7766C43.9013 55.8331 43.9083 55.9107 43.9295 55.9672C43.9365 55.8684 44.2468 55.7696 44.0635 55.3884C43.9929 55.1908 43.9788 55.339 43.8942 55.3319C43.866 54.8943 43.7814 54.7672 43.7673 54.4849C43.9365 54.5414 43.7814 53.9908 43.9577 54.3014C43.859 54.4426 43.866 55.0708 44.0282 55.2261C44.2327 55.0708 44 55.5649 44.2045 55.6637C44.2115 55.3108 44.409 55.3319 44.5359 55.2755C44.5429 55.1766 44.4936 55.0849 44.4724 55.0284C44.3526 54.9861 44.3526 55.1131 44.2256 55.1202C44.2609 54.732 44.1904 54.3579 44.0705 54.139C44.134 54.012 44.2538 54.0473 44.2679 54.2026C44.2327 53.7367 44.2468 53.2426 44.282 52.805C44.0846 53.0873 44.2327 52.3109 44.0705 52.5085C44.0282 52.7414 43.8872 52.9461 43.7955 52.8191C43.8096 52.6709 43.8801 52.8261 43.9224 52.7626C43.8167 52.572 44.0987 52.4732 43.9224 52.2826C43.9859 52.7062 44.1622 52.3673 44.3244 52.445C44.2256 52.1274 44.4231 52.445 44.4231 52.1415C44.3385 51.838 44.2679 51.4638 44.2327 51.125C44.3808 50.7015 44.2327 50.0451 44.2327 49.671C44.3103 49.4733 44.4865 49.6075 44.5218 49.3886C44.5147 49.1345 44.3314 49.5792 44.409 49.2051L44.4442 49.2404C44.4019 49.1275 44.5641 48.5557 44.3103 48.4428L44.5006 48.5557C44.5147 48.4851 44.4724 48.4216 44.4513 48.3651C44.5147 48.3651 44.5712 48.2804 44.6135 48.3934C44.7474 48.1604 44.5923 47.9063 44.5853 47.6593L44.4724 47.8216C44.3808 47.3911 44.4936 47.1017 44.4583 46.6852L44.5712 46.6993L44.5077 46.4523C44.6135 46.5158 44.684 46.2829 44.5923 46.1558L44.8603 46.7982C44.7968 46.9746 44.7263 46.6005 44.6205 46.7134C44.5288 46.8052 44.557 47.1934 44.6628 47.257C44.6769 47.1087 44.6487 47.1017 44.6135 46.9887C44.7686 46.9393 44.7615 47.1652 44.8673 47.2711C44.8603 47.1934 44.9096 47.0805 44.8603 47.0664C44.9378 47.2146 44.9449 47.3699 44.9519 47.624C44.8885 47.4546 44.8532 47.7158 44.8109 47.6522C44.9449 47.6734 44.9872 47.9134 44.9519 48.224C44.7968 48.4499 45.0506 48.8098 45.0083 49.1698C44.8673 49.0216 44.7615 48.8381 44.7051 48.6122C44.6346 48.8381 44.7122 48.8663 44.6417 49.0922C44.7474 49.2051 44.9026 49.2828 44.966 49.5792L44.8673 49.5933C44.9167 49.8616 45.0718 49.8616 45.0436 50.2074C44.9942 50.7933 44.9942 51.3933 44.9801 51.845L44.8814 51.8591C45.1 52.1062 44.959 52.685 45.0577 53.0238C44.959 53.5955 45.1564 54.259 44.9801 54.5555C45.0577 55.5578 45.1353 56.4401 45.1 57.4777L44.9519 57.3013C45.0577 57.4848 44.8673 57.4213 44.8885 57.6048C45.0083 57.393 45.0436 57.8589 45.1282 57.9859C45.0154 58.4518 45.1353 59.0447 45.241 59.4541L45.1423 59.4682C45.3327 59.8847 45.1635 60.3788 45.1353 60.8941C45.0929 60.9505 45.0013 61.0494 45.0083 61.2046C45.1705 61.487 45.1635 61.6352 45.2622 62.0446C45.2622 62.3481 45.2199 62.8352 45.1564 63.1387C45.3891 64.268 45.241 65.4257 45.375 66.6044L45.2551 66.6891C45.509 67.8326 45.2763 69.2302 45.4103 70.2043L45.2058 70.1125C45.1423 70.416 45.2622 70.8113 45.4032 70.7337C45.3397 71.0372 45.5019 71.496 45.3327 71.6936C45.2974 72.0042 45.4244 72.0748 45.4526 72.336C45.375 72.9642 45.3962 73.1971 45.4314 73.783L45.4455 73.6347C45.4032 73.5712 45.3115 73.5642 45.3045 73.7124C45.3609 73.9312 45.2481 74.5241 45.4949 74.3053C45.3538 74.9335 45.6077 75.7735 45.4173 76.3876C45.4808 76.3382 45.4949 76.4934 45.5442 76.557C45.5442 77.1075 45.4103 77.6934 45.5231 78.131C45.4878 78.2157 45.4103 77.9899 45.4032 78.2157C45.4314 78.3498 45.4878 78.2157 45.5301 78.3851C45.657 79.2816 45.4032 80.1992 45.4314 81.0109C45.5583 82.4579 45.4949 83.9684 45.516 85.359L45.4667 85.3449C45.65 85.8107 45.2763 86.4319 45.5583 86.806C45.509 86.9189 45.5372 87.2224 45.4455 87.1448C45.5795 87.5118 45.3186 88.1824 45.4878 88.7118C45.4949 88.6624 45.4808 88.6341 45.4596 88.5777C45.3538 89.1141 45.5019 89.5941 45.4032 90.1658C45.382 90.1094 45.3679 90.0035 45.3186 89.9894C45.2269 90.2082 45.5231 90.5117 45.2904 90.6317C45.2904 90.7588 45.4103 90.7235 45.4032 90.6458C45.3115 91.8952 45.4596 93.2293 45.516 94.528C45.375 95.4598 45.1211 94.5845 45.2974 95.3186C45.2551 95.375 45.3891 95.3609 45.3397 95.3751C45.4032 95.6574 45.0788 95.8197 45.1987 96.0174C45.3397 95.9327 45.2763 96.1515 45.3679 96.1515C45.2763 96.7232 45.1423 96.8362 45.2551 97.2809L45.1776 97.2456C45.3891 97.775 45.2763 98.382 45.5231 98.8267C45.5654 101.728 45.7064 104.516 45.7346 107.346C45.6853 110.142 45.7981 112.887 45.6641 115.725C45.4667 116.388 45.4667 116.438 45.5513 117.172C45.516 117.144 45.509 117.094 45.4808 117.144C45.6429 117.179 45.4949 117.659 45.65 117.729C45.6218 118.781 45.6641 119.748 45.6641 120.828C45.65 120.659 45.516 120.574 45.5231 120.772L45.6288 120.983L45.5865 121.019C45.6077 121.16 45.6923 121.308 45.7417 121.167C45.8827 123.885 45.5513 126.553 45.5936 129.214C45.5231 129.842 45.5865 130.745 45.6218 131.43C45.4032 133.463 45.2269 135.298 45.382 137.366C45.3609 137.352 44.9378 137.084 44.8391 136.23Z" fill="#31258D"/>











<path d="M43.8872 52.8614C43.718 53.7226 42.6673 53.9132 42.3218 54.6684C42.2724 54.7461 42.1455 54.4284 42.0397 54.619C41.7577 55.4166 40.7141 55.9884 39.8256 56.3342L39.8115 56.2354C39.6423 56.299 39.6635 56.6448 39.5013 56.7366C39.466 56.6942 39.4942 56.6378 39.4096 56.6095C39.4872 56.7648 39.2122 56.8848 39.2333 57.026C39.1346 57.026 39.0571 56.9201 38.9372 56.9272L38.9795 57.1389C39.0571 57.6683 38.4295 57.5766 38.2885 58.0071C38.2744 57.9648 38.2814 57.9083 38.2321 57.9012C37.9359 58.5224 37.3013 59.0024 36.8359 59.5388C36.8148 59.4682 36.7513 59.3624 36.6737 59.3271C36.7795 59.5035 36.6455 59.68 36.5327 59.8353C36.3353 59.7365 36.4128 60.1882 36.166 60.2517L36.1519 60.2023C36.166 60.4706 35.884 60.2659 35.9545 60.5482L35.7712 60.4917C35.9051 60.76 35.4962 60.5341 35.4891 60.7317L35.5314 60.7741C35.4821 60.9082 35.334 60.8447 35.2776 60.9576L35.2494 60.9364C35.0872 61.1764 34.8615 61.1623 35.0167 61.3246C34.8263 61.2541 35.1647 61.0847 34.8756 60.9858C34.3398 61.7623 33.5994 62.3411 32.9083 62.9481C32.7673 62.9481 32.7039 62.9693 32.6263 62.9199C32.584 63.0116 32.3936 63.181 32.4077 63.3222C32.4289 63.301 32.2878 63.2728 32.2455 63.294C32.0622 63.3363 32.2737 63.6045 32.0622 63.6469C32.0763 63.5551 32.0481 63.4846 31.9776 63.4351C31.9776 63.6681 31.8013 63.7881 31.6955 63.9504C31.6955 63.901 31.7096 63.8587 31.6603 63.8092C31.6391 64.0916 31.35 64.021 31.3006 64.2328L31.2654 64.0916C30.9481 64.1622 31.3782 64.3528 31.1314 64.4445C31.1526 64.3739 31.1032 64.3528 31.075 64.3033C31.0539 64.6351 30.7224 64.8186 30.6026 65.0304C30.6026 65.0092 30.5744 64.981 30.5744 64.981C30.4051 65.1645 30.1583 65.2845 30.0173 65.5457C29.9045 65.5668 29.834 65.2845 29.6648 65.4962C29.841 65.6868 29.3968 65.8703 29.7071 65.9974C29.5096 66.1103 29.1712 66.2727 29.1148 66.4421C29.1289 66.3009 28.8186 66.2727 28.9526 66.1315L28.741 66.1033C28.6846 66.0115 28.875 66.0327 28.7551 65.9621C28.6917 66.0327 28.5506 66.2939 28.459 66.315C28.4308 66.548 28.5083 66.8797 28.318 67.0915C28.3532 66.9291 28.0712 66.9221 28.1135 66.8303L28.1417 67.4656C28.0782 67.5362 27.9936 67.3244 27.9301 67.4656C27.9795 67.515 27.9654 67.5856 27.9724 67.6562C27.9231 67.6562 27.7186 67.9597 27.5212 67.7973C27.4224 67.7479 27.5987 67.6562 27.4648 67.6562C27.3378 67.7691 27.3872 67.8467 27.2603 67.9597L27.2321 67.9385C27.1192 67.9879 27.0487 68.242 27.2391 68.2702C27.3026 68.2208 27.1122 68.1714 27.2532 68.1503C27.2885 68.3197 27.1615 68.482 27.0346 68.5949C27.0487 68.5244 26.9994 68.4749 26.9712 68.4044C26.9289 68.7079 26.7808 68.9196 26.6397 69.1596C26.7173 69.2584 26.5692 68.9267 26.6397 68.9479C26.2731 69.0396 26.2731 69.5831 25.8994 69.5761C25.9205 69.5267 26.0333 69.689 26.0051 69.6678C25.8712 69.7596 25.7654 69.6255 25.7231 69.7384C25.6455 69.6678 25.6455 69.8514 25.5821 69.9431C25.5891 70.0349 25.5257 69.9219 25.5891 69.8514C25.5327 70.0208 25.1801 70.536 24.8205 70.649C24.8699 70.6984 24.8276 70.9807 24.7571 71.0301L24.6724 70.889C24.5526 70.8607 24.4821 71.0725 24.3763 70.9807C24.3763 71.2419 24.7641 70.4231 24.6865 70.6913C24.5526 70.6278 24.609 71.0937 24.5032 70.896C24.3833 71.009 24.3833 71.2419 24.1718 71.2348C24.2212 71.2278 24.1224 70.9807 24.0308 71.0725C23.8757 71.2419 24.0308 71.1713 23.925 71.3337L23.8827 71.4607C23.9814 71.5878 23.7135 71.5807 23.8968 71.6583C23.791 71.5807 23.6994 71.9336 23.5442 71.7219L23.4314 71.5454C23.368 71.6231 23.4526 71.8136 23.4526 71.9336C23.4314 71.9266 23.3821 71.9125 23.368 71.8842C23.5583 72.1313 23.1705 72.0183 23.241 72.2795C23.0154 72.336 22.8391 72.6183 22.6346 72.5336C22.5782 72.7101 22.543 72.8936 22.3596 72.9571C22.3667 72.9077 22.4019 72.8724 22.3596 72.816C22.2115 72.823 22.2468 72.9007 22.1974 73.0065C22.1833 72.9571 21.9083 73.0207 21.7391 73.0136C21.6827 73.1901 21.8308 73.2818 21.8872 73.3665C21.5769 73.2253 21.6827 73.8112 21.3583 73.7194C21.3724 73.6489 21.4359 73.4512 21.2808 73.4795C20.9705 73.3383 21.2103 73.8465 20.9353 73.8818L21.1468 74.0371C20.9635 73.9877 20.9846 74.3759 20.8295 74.1641C20.8295 74.2841 20.5686 74.2771 20.7519 74.4535C20.3218 74.5453 20.1314 75.1594 19.659 74.9759C19.6449 75.0465 19.5109 75.1029 19.6167 75.1806C19.7789 75.2229 19.6449 75.0182 19.7365 75.0747C19.7013 75.11 19.7436 75.1735 19.7577 75.2017C19.6308 75.237 19.5462 75.2864 19.4968 75.0535C19.1936 75.11 19.5673 75.5547 19.25 75.7029C19.1936 75.6111 19.1513 75.6041 19.0878 75.6817L19.0596 75.9358C18.8692 76.0488 18.8128 75.837 18.693 75.71C18.6224 75.8088 18.5096 75.8935 18.559 76.0276L18.3333 75.9711C18.5167 76.0276 18.3333 76.1123 18.3192 76.1829L18.3333 76.1123C18.2699 76.0699 18.1994 76.1899 18.1571 76.2535C18.2417 76.324 18.3757 76.2676 18.4532 76.2464C18.4603 76.3452 18.3757 76.3876 18.3757 76.5146C18.284 76.3664 18.15 76.5499 18.0724 76.5923C17.9667 76.6346 18.0865 76.7899 18.0583 76.804C17.9949 76.7405 17.9173 76.9099 17.8962 76.7546C17.9032 76.7123 18.016 76.7687 18.009 76.6699C17.9103 76.6629 17.8186 76.5429 17.7833 76.7264C17.7551 76.8605 18.0301 76.9664 17.7974 77.0158C17.8115 76.9452 17.7763 76.8887 17.7622 76.8111L17.5577 76.8676L17.6564 76.9946C17.6071 76.9805 17.6141 76.9593 17.593 76.9523C17.6564 77.1146 17.4026 77.1852 17.4872 77.3546C17.4237 77.4322 17.2615 77.4111 17.1769 77.4534L17.184 77.4322C17.0359 77.4393 16.9654 77.5805 16.9583 77.7287L16.9372 77.7005C16.8808 77.7287 16.7891 77.8487 16.7891 77.9687C16.5917 77.9828 16.359 77.5522 16.359 77.8205C16.2391 77.9263 16.359 78.2016 16.4718 78.2369C16.1827 78.3428 16.1051 78.7522 15.7455 78.7451C15.7526 78.8228 15.8019 78.8298 15.7596 78.9145C15.4 79.1475 15.2096 79.6416 14.7513 79.6274C14.8007 79.5004 14.6526 79.5004 14.5962 79.4369C14.6103 79.6063 14.4058 79.4086 14.5398 79.6133C14.6385 79.7121 14.6808 79.7757 14.8077 79.7404C14.6667 79.9663 14.3776 80.2133 14.1872 80.2062C14.2859 80.2133 14.2718 80.2768 14.2577 80.3474C14.1237 80.1639 13.9615 80.2627 13.9051 80.4109L13.9827 80.5309L13.8205 80.4815C13.8064 80.5521 13.9615 80.7427 13.7712 80.7286C13.7289 80.6933 13.6865 80.658 13.6442 80.6439C13.609 80.8274 13.5808 81.1027 13.3833 81.1168L13.1507 81.0462C13.1154 81.1097 13.1083 81.2721 13.2353 81.2368C12.9532 81.3215 12.8122 81.4274 12.6289 81.3497C12.5583 81.9779 12.0577 82.4297 11.6276 82.7614L11.5712 82.6697C11.3949 82.6909 11.6346 82.8532 11.5077 82.8673C11.4795 82.7614 11.2821 82.7756 11.2891 82.6132C11.0635 82.6697 11.2045 82.9238 11.134 83.0508C11.2045 83.1638 11.1622 82.9167 11.2539 83.0579C11.268 83.1073 10.9648 83.1638 11.0776 83.3402C10.9859 83.312 10.9154 83.1708 10.8872 83.0932L10.859 83.2485C10.584 83.1708 10.8449 82.6909 10.5276 82.5779L10.4571 82.6767C10.2314 82.585 10.5346 82.2885 10.2596 82.4297C10.2314 82.592 10.3442 82.8885 10.4853 82.8814C10.3231 83.1002 10.7109 83.3332 10.4853 83.5026C10.3442 83.4602 10.6404 83.3332 10.4853 83.2414C10.2737 83.2061 10.3442 83.4885 10.2173 83.5238C10.3654 83.4955 10.4218 83.7285 10.3795 83.8132C10.2032 83.8343 10.3231 83.6014 10.1539 83.7214C10.2032 83.8343 10.1186 84.0249 10.3019 83.9826C10.4218 84.2367 10.0904 84.0673 10.1468 84.3002C9.97052 84.2014 10.0199 83.8343 9.78719 83.9049C9.93526 84.0179 9.73783 84.272 10.0058 84.399C9.90706 84.4202 9.80129 84.3143 9.78014 84.1873C9.61091 84.1873 9.76603 84.639 9.49809 84.392L9.58975 84.5614C9.51924 84.5402 9.44873 84.5473 9.33591 84.512C9.25129 84.5825 9.23014 84.9355 9.05385 84.7167C9.0468 84.759 8.84232 84.9214 9.0468 84.999C9.24424 84.9849 9.08911 84.7731 9.32885 84.9143C9.10321 84.8225 9.17373 85.0837 9.15257 85.1966L9.06796 85.1261C9.05385 85.1966 8.94809 85.2602 8.99744 85.366C8.99039 85.2884 8.91988 85.2531 8.87052 85.2602L8.93398 85.4225C8.82116 85.6272 8.70129 85.239 8.57437 85.4155L8.61668 85.2108C8.60962 85.2531 8.4545 85.1896 8.40514 85.2955C8.47565 85.4366 8.53206 85.6202 8.58847 85.7331C8.53911 85.8601 8.43334 85.6413 8.44744 85.8319V85.5919C8.43334 85.5425 8.2077 85.4719 8.08783 85.5849C8.04552 85.6907 8.06667 85.959 8.24296 85.9166C8.1795 85.9731 8.03847 85.9801 8.01026 85.8531C7.9045 86.0154 8.13719 85.959 8.07373 86.1354C7.96091 86.1001 7.71411 86.1284 7.52373 86.0931L7.48142 85.7966L7.3968 85.8672C7.3686 85.6202 7.24168 85.7966 7.16411 85.5849C7.08655 85.606 7.06539 85.726 7.04424 85.8107C7.43206 85.9237 7.16411 86.326 7.41796 86.5166C7.24873 86.7778 6.77629 86.0648 6.86091 86.6436C6.95257 86.6719 6.99488 86.9472 7.0795 86.7566C6.91732 86.8554 7.18527 87.0742 6.93847 87.1236C6.98078 86.9189 6.60001 86.9966 6.65642 86.7072C6.71283 86.7989 6.8045 86.6789 6.8186 86.6366C6.68462 86.5942 6.62821 86.3895 6.48014 86.5166C6.40962 86.6154 6.2968 86.7283 6.41668 86.8342C6.53655 86.9683 6.53655 86.7001 6.60001 86.8907C6.46603 87.0883 6.2545 86.9119 6.38847 87.2154C6.48719 87.1024 6.63527 87.2154 6.71283 87.3071L6.63526 87.4765L6.58591 87.3636C6.32501 87.4765 6.66347 87.5824 6.44488 87.7307L6.19809 87.6389C6.11347 87.4483 6.55065 87.4554 6.2968 87.2366C6.15578 87.3424 6.22629 87.5048 6.04296 87.5471C6.05001 87.5048 6.08527 87.4624 6.09232 87.4201C6.03591 87.4554 5.7045 87.166 5.69039 87.5189C5.66219 87.6742 5.73975 87.6318 5.81732 87.7236C5.63398 87.9354 5.64809 88.0836 5.52821 88.2177C5.40129 88.013 5.27437 88.4083 5.26027 88.0906C5.42244 88.1401 5.7186 87.8648 5.64103 87.6248C5.38014 87.4765 5.83142 87.5118 5.69039 87.2577C5.52116 87.3989 5.34488 87.1801 5.1968 87.0672C5.14039 87.0954 5.14744 87.1942 5.14039 87.2436C5.23206 87.3918 5.29552 87.3354 5.41539 87.4695C5.1968 87.5965 5.07693 87.8295 5.08398 88.0412C4.96411 88.0342 4.87244 87.8859 4.93591 87.8083C4.74552 88.0412 4.49168 88.2318 4.24488 88.373C4.56924 88.4647 4.0545 88.6271 4.30129 88.7259C4.45642 88.6765 4.68206 88.74 4.70321 88.8883C4.6186 88.9377 4.62565 88.7965 4.55514 88.7753C4.56219 88.973 4.25193 88.7118 4.32244 88.973C4.46347 88.7259 4.13911 88.6765 4.03334 88.4789C3.96988 88.6977 3.93462 88.3518 3.7936 88.4789C3.73014 88.6977 3.61027 88.9306 3.47629 89.1071C3.13783 89.1282 2.9545 89.5518 2.77821 89.7212C2.60898 89.7212 2.51027 89.4741 2.37629 89.5306C2.25642 89.6435 2.64424 89.6576 2.39039 89.7282L2.37629 89.6788C2.36219 89.7706 1.93206 89.8412 2.11539 90.1517L1.99552 89.8976C1.94616 89.9117 1.95321 89.9823 1.94616 90.0247C1.88975 89.9612 1.79809 89.9329 1.81219 89.8412C1.5795 89.7988 1.60065 90.067 1.48078 90.18L1.66411 90.2364C1.53719 90.5117 1.29744 90.5117 1.13527 90.7305L1.03655 90.6035L0.980137 90.7799C0.909624 90.6388 0.733342 90.66 0.754496 90.8152L0.810906 90.2576C0.958983 90.2506 0.839112 90.4835 0.99424 90.5541C1.12821 90.6176 1.28334 90.42 1.21988 90.2859C1.13527 90.3353 1.15642 90.3635 1.13527 90.4552C0.966035 90.3141 1.08591 90.2223 1.0436 90.067C1.01539 90.1094 0.916676 90.1023 0.951932 90.1588C0.951932 90.0176 1.01539 89.94 1.13527 89.827C1.10706 89.9612 1.26924 89.8906 1.27629 89.9612C1.16347 89.8059 1.24103 89.6647 1.42437 89.5729C1.67821 89.6435 1.61475 89.22 1.82629 89.1141C1.8827 89.3188 1.8968 89.5165 1.84039 89.6718C2.01668 89.6506 1.96027 89.5588 2.1295 89.5376C2.08719 89.3824 1.98142 89.1847 2.06603 88.9941L2.16475 89.093C2.24937 88.9235 2.10834 88.7683 2.29873 88.6553C2.63014 88.4647 2.91924 88.2106 3.14488 88.0412L3.2436 88.1401C3.16603 87.8083 3.56796 87.7095 3.63847 87.4624C4.00514 87.3283 4.14616 86.8413 4.44937 86.9048C4.85834 86.4037 5.21796 85.9519 5.75385 85.5566L5.80321 85.7896C5.79616 85.599 5.93719 85.8319 6.0077 85.7331C5.79616 85.6978 5.98655 85.4649 5.96539 85.3166C6.2968 85.2461 6.46603 84.8649 6.5718 84.5825L6.67052 84.6814C6.69168 84.3073 7.08655 84.272 7.3686 84.0884C7.43911 84.1096 7.56603 84.1731 7.63655 84.0955C7.62244 83.8061 7.70001 83.7567 7.80578 83.4744C7.95385 83.3473 8.2218 83.1849 8.42629 83.1285C8.7577 82.4085 9.44873 82.0838 9.88591 81.4415L10.034 81.5333C10.3513 80.785 11.2398 80.4462 11.5853 79.8957L11.7263 80.1498C11.9308 80.0863 12.0083 79.8039 11.8391 79.6769C12.0436 79.6133 12.1141 79.2533 12.3609 79.3522C12.5442 79.2604 12.4596 79.091 12.5583 78.9569C12.9321 78.7804 13.0237 78.6604 13.2776 78.371L13.193 78.4204C13.2 78.4981 13.2776 78.5898 13.3622 78.5404C13.4186 78.3851 13.7994 78.2581 13.475 78.0957C13.9051 77.9828 14.0744 77.3617 14.5468 77.3052C14.4622 77.2558 14.5257 77.1781 14.5115 77.1005C14.7724 76.8676 15.1814 76.7687 15.2872 76.4652C15.3577 76.4652 15.3224 76.6417 15.4423 76.557C15.4846 76.4723 15.3648 76.4652 15.4071 76.3523C15.7244 75.8441 16.4013 75.7311 16.7609 75.357C17.3391 74.6159 18.1289 74.0512 18.7776 73.4512L18.8128 73.5077C18.8622 73.1124 19.5109 73.2536 19.4333 72.8018C19.5321 72.8089 19.659 72.6465 19.7013 72.7877C19.7577 72.4913 20.3148 72.4842 20.4205 72.0819C20.3923 72.096 20.3853 72.1172 20.3782 72.1666C20.7378 72.0536 20.8295 71.7007 21.1962 71.5666C21.1891 71.616 21.1539 71.6725 21.1891 71.736C21.3795 71.743 21.2526 71.2984 21.5276 71.496C21.584 71.4395 21.4641 71.3337 21.4289 71.3689C22.1128 70.9454 22.6205 70.2255 23.1917 69.6255C23.7699 69.3855 23.5865 70.0208 23.7769 69.5267C23.8474 69.5478 23.7135 69.4137 23.7628 69.4631C23.8404 69.2726 24.2212 69.562 24.2 69.3431C24.0237 69.2232 24.1859 69.202 24.1083 69.1032C24.468 68.962 24.6442 69.0537 24.7571 68.7502L24.8135 68.842C24.8699 68.3902 25.2718 68.2632 25.2507 67.8114C26.6045 66.548 27.8173 65.2351 29.1571 64.021C30.5462 62.8987 31.766 61.6352 33.2539 60.5905C33.7615 60.527 33.7756 60.4988 34.0577 60.1035C34.0718 60.1529 34.0577 60.1741 34.1071 60.1882C33.9731 59.9976 34.3398 59.9553 34.2269 59.7576C34.7628 59.3482 35.1859 58.8965 35.7077 58.4448C35.6442 58.5365 35.7218 58.713 35.8135 58.6142L35.8205 58.4165L35.8769 58.4518C35.9192 58.3671 35.9192 58.2189 35.7994 58.2189C36.9769 56.9342 38.5635 56.1648 39.8115 55.0072C40.1782 54.8167 40.5519 54.372 40.8551 54.0473C42.0397 53.4332 43.0833 52.8544 43.9365 51.8238C43.9436 51.8309 44.2045 52.3956 43.8872 52.8614Z" fill="#31258D"/>











<path d="M76.1609 105.179C75.4558 104.728 75.2936 103.676 74.6731 103.09C74.6096 103.012 74.8635 103.005 74.7154 102.843C74.0596 102.307 73.5872 101.135 73.2981 100.182L73.3756 100.203C73.3192 100.02 73.0372 99.9278 72.9667 99.7443C73.0019 99.7231 73.0442 99.7725 73.0724 99.7019C72.9455 99.7161 72.8468 99.4267 72.734 99.3984C72.734 99.3067 72.8186 99.2714 72.8115 99.1584L72.6423 99.1302C72.2122 99.0243 72.2827 98.4667 71.9301 98.1844C71.9654 98.1844 72.0077 98.2126 72.0218 98.1632C71.5141 97.6691 71.1192 96.9209 70.675 96.2927C70.7314 96.2927 70.8231 96.2785 70.8442 96.208C70.7032 96.2433 70.5551 96.0597 70.4282 95.8974C70.5058 95.7421 70.1391 95.6644 70.0897 95.4174H70.125C69.9064 95.3398 70.0686 95.1492 69.8359 95.1139L69.8782 94.9586C69.6596 94.9939 69.843 94.6833 69.6808 94.6127L69.6455 94.641C69.5327 94.5492 69.5891 94.4363 69.4904 94.3374L69.5045 94.3163C69.3071 94.0833 69.3212 93.8786 69.1872 93.9633C69.2436 93.8081 69.3846 94.1822 69.4622 93.9492C68.8276 93.1799 68.341 92.2905 67.8404 91.4293C67.8404 91.3023 67.8192 91.2246 67.8615 91.1752C67.784 91.1046 67.65 90.8646 67.5301 90.8293C67.5513 90.8576 67.5654 90.7305 67.5513 90.6811C67.516 90.4976 67.2974 90.5964 67.2622 90.3917C67.3397 90.4411 67.3962 90.4341 67.4314 90.3847C67.241 90.3 67.1423 90.0953 67.0083 89.947C67.0506 89.9612 67.0859 89.9964 67.1282 89.9611C66.8955 89.8412 66.9519 89.6012 66.7827 89.4812L66.8955 89.4953C66.8391 89.1706 66.684 89.5165 66.6064 89.2482C66.6628 89.2906 66.684 89.2482 66.7192 89.2412C66.4513 89.1141 66.2962 88.733 66.1199 88.5494C66.141 88.5565 66.1551 88.5424 66.1551 88.5424C66 88.3165 65.9083 88.0483 65.6897 87.8295C65.6686 87.7165 65.9013 87.7448 65.7321 87.5189C65.5769 87.6248 65.4218 87.1377 65.3231 87.3918C65.2244 87.166 65.0904 86.7989 64.9564 86.686C65.0692 86.7425 65.0904 86.4672 65.2103 86.6366L65.2314 86.446C65.309 86.4248 65.2878 86.5942 65.3442 86.5025C65.2878 86.4178 65.0763 86.1989 65.0551 86.1072C64.8647 86.0013 64.5897 85.959 64.4205 85.7048C64.5545 85.7895 64.5545 85.5284 64.6321 85.599L64.1103 85.4084C64.0538 85.3237 64.2231 85.3166 64.1103 85.2108C64.075 85.239 64.0115 85.2037 63.9551 85.1825C63.9551 85.1402 63.7013 84.8437 63.8423 84.7096C63.8846 84.632 63.9622 84.8366 63.9551 84.7025C63.8564 84.5402 63.8 84.5684 63.7013 84.4061L63.7224 84.392C63.6801 84.272 63.4686 84.1167 63.4545 84.2861C63.4897 84.3637 63.5321 84.2014 63.5532 84.3425C63.4192 84.3214 63.2853 84.1449 63.1865 83.9896C63.243 84.032 63.2853 83.9967 63.3417 83.9967C63.0878 83.8484 62.9186 83.6437 62.7282 83.432C62.6506 83.4743 62.9186 83.4461 62.8974 83.5026C62.8199 83.1285 62.3756 82.945 62.3756 82.5991C62.4109 82.6344 62.284 82.6838 62.3051 82.6697C62.2276 82.5144 62.3404 82.4579 62.2417 82.3803C62.2981 82.3309 62.15 82.2673 62.0724 82.1826C61.9949 82.1544 62.0865 82.1403 62.1429 82.225C62.009 82.1191 61.5859 81.6109 61.4872 81.2368C61.4519 81.265 61.2192 81.1309 61.1769 81.0533L61.2897 81.025C61.3109 80.9192 61.1346 80.778 61.2122 80.7215C61.0006 80.6298 61.6705 81.2721 61.4519 81.1168C61.5013 81.0109 61.1205 80.905 61.2827 80.8768C61.191 80.7286 60.9936 80.6509 61.0077 80.4533C61.0147 80.5027 61.2122 80.4956 61.1346 80.3756C60.9936 80.1709 61.05 80.3404 60.916 80.1921L60.8103 80.1074C60.7115 80.1568 60.7115 79.9098 60.6481 80.051C60.7115 79.9804 60.4224 79.7686 60.5917 79.698L60.7327 79.6557C60.6692 79.571 60.5141 79.5851 60.4154 79.5427C60.4224 79.5216 60.4295 79.4863 60.4577 79.4792C60.2603 79.578 60.3449 79.2533 60.1333 79.2251C60.091 78.9922 59.8513 78.731 59.9218 78.5687C59.7808 78.4557 59.6327 78.3569 59.5692 78.1663C59.6045 78.1875 59.6397 78.2298 59.6891 78.2157C59.6821 78.0746 59.6186 78.0816 59.534 78.004C59.5763 78.011 59.5199 77.7287 59.5199 77.5663C59.3789 77.4534 59.3013 77.5663 59.2308 77.5875C59.3436 77.3405 58.8641 77.2417 58.9417 76.9734C58.9981 77.0087 59.1603 77.1358 59.1391 76.9805C59.2519 76.7334 58.843 76.7899 58.8077 76.5217L58.6808 76.6699C58.7231 76.5146 58.4058 76.4017 58.575 76.3311C58.4763 76.2887 58.4763 76.0417 58.3353 76.1546C58.2577 75.7241 57.75 75.3288 57.8981 74.9547C57.8417 74.9194 57.7923 74.7782 57.7289 74.8488C57.6936 74.9829 57.8558 74.9335 57.8205 74.997C57.7923 74.9547 57.7429 74.9688 57.7147 74.9759C57.6865 74.8417 57.6442 74.75 57.8346 74.7782C57.7853 74.4747 57.4256 74.6723 57.3058 74.3265C57.3763 74.3053 57.3904 74.2629 57.3269 74.1782L57.1154 74.0653C57.0237 73.8465 57.193 73.8677 57.2987 73.7971C57.2141 73.6983 57.1436 73.5641 57.0378 73.5641L57.0942 73.3524C57.0519 73.5077 56.9744 73.303 56.918 73.2677L56.9744 73.303C57.0096 73.2536 56.9038 73.1477 56.8545 73.0912C56.7981 73.1477 56.8404 73.2889 56.8686 73.3665C56.791 73.3383 56.7487 73.2465 56.65 73.2042C56.7699 73.1689 56.6218 72.9853 56.5865 72.8936C56.5513 72.7806 56.4244 72.8371 56.4173 72.8089C56.4737 72.7736 56.3327 72.6395 56.4526 72.6748C56.4878 72.6959 56.4455 72.7807 56.5231 72.8089C56.5231 72.7171 56.6288 72.6748 56.4808 72.576C56.3679 72.5054 56.2904 72.7242 56.241 72.4912C56.2974 72.5265 56.3468 72.5124 56.4032 72.5265L56.3538 72.3148L56.2551 72.3642C56.2622 72.3289 56.2833 72.336 56.2904 72.3218C56.1564 72.3289 56.1 72.0607 55.959 72.0889C55.8955 72.0042 55.9167 71.856 55.8744 71.7642L55.8955 71.7783C55.8885 71.6372 55.7686 71.5172 55.6558 71.4678L55.6769 71.4607C55.6487 71.3972 55.5571 71.2701 55.4583 71.2278C55.4442 71.0372 55.7897 70.9666 55.5782 70.8748C55.4865 70.7266 55.2679 70.7407 55.2397 70.8396C55.1481 70.536 54.8167 70.3172 54.8167 69.9855C54.7532 69.9713 54.7462 70.0066 54.6756 69.9431C54.4853 69.5267 54.0763 69.1737 54.0833 68.7502C54.1891 68.842 54.1821 68.7008 54.2385 68.6655C54.0974 68.6232 54.2596 68.5032 54.0974 68.5526C54.0128 68.6161 53.9705 68.6302 53.9987 68.7573C53.8154 68.5526 53.6109 68.1926 53.6109 68.0161C53.6109 68.1079 53.5545 68.0726 53.4981 68.0302C53.6462 67.9667 53.5686 67.7832 53.4417 67.6773L53.343 67.7056L53.3782 67.5714C53.3218 67.5362 53.1667 67.6209 53.1737 67.4444C53.2019 67.4162 53.2301 67.395 53.2442 67.3526C53.0962 67.2538 52.8705 67.1338 52.8564 66.9432L52.9128 66.7527C52.8635 66.6962 52.7295 66.6327 52.7577 66.7668C52.6872 66.4703 52.6026 66.308 52.659 66.1597C52.1442 65.8774 51.7705 65.2562 51.4955 64.741L51.566 64.7198C51.5449 64.5504 51.418 64.7127 51.4038 64.5927C51.4885 64.5998 51.4744 64.4163 51.6083 64.4798C51.566 64.2469 51.3545 64.2963 51.2487 64.1833C51.1571 64.2116 51.3615 64.2539 51.2417 64.2892C51.1994 64.2822 51.15 63.9857 51.009 64.0281C51.0301 63.9504 51.1429 63.9363 51.2135 63.9292L51.0865 63.8445C51.15 63.6116 51.5378 64.021 51.6295 63.7669L51.5449 63.6681C51.6154 63.4845 51.8622 63.8728 51.7494 63.5692C51.6154 63.4845 51.3756 63.4916 51.3827 63.6257C51.2064 63.3998 51.016 63.6822 50.875 63.414C50.9103 63.301 51.016 63.6187 51.0936 63.5057C51.1218 63.3222 50.8891 63.2869 50.8609 63.1528C50.8821 63.301 50.6987 63.2728 50.6282 63.2093C50.6071 63.0399 50.7974 63.2304 50.6987 63.0257C50.6071 63.0399 50.4519 62.8916 50.4872 63.0752C50.2827 63.1034 50.4167 62.8493 50.2263 62.821C50.3038 62.694 50.6071 62.8634 50.5436 62.6163C50.4519 62.7152 50.2404 62.4469 50.1417 62.6516C50.1276 62.5528 50.2122 62.4893 50.3109 62.5105C50.3109 62.3552 49.9442 62.3411 50.1417 62.1787L50.0077 62.2069C50.0218 62.1505 50.0218 62.0799 50.05 61.9811C49.9936 61.8752 49.7045 61.734 49.8808 61.6493C49.8455 61.6281 49.7115 61.3882 49.6481 61.5434C49.6622 61.734 49.8314 61.6634 49.7186 61.8399C49.7891 61.6564 49.5776 61.6352 49.4859 61.5787L49.5423 61.5293C49.4859 61.494 49.4365 61.367 49.3449 61.3811C49.4083 61.3952 49.4365 61.3529 49.4295 61.3035L49.2955 61.3105C49.1263 61.1341 49.4436 61.1552 49.3026 60.9717L49.4718 61.0776C49.4365 61.0564 49.4929 60.9294 49.4013 60.8517C49.2885 60.8658 49.1333 60.8658 49.0487 60.8729C48.9429 60.7811 49.1263 60.7599 48.9641 60.7035L49.1615 60.7811C49.2038 60.7882 49.2603 60.5905 49.1686 60.4423C49.084 60.3647 48.8583 60.2941 48.9006 60.4776C48.8583 60.4 48.8513 60.2659 48.95 60.287C48.816 60.1317 48.8654 60.3647 48.7173 60.2517C48.7455 60.1529 48.7244 59.9129 48.7455 59.7506L48.9923 59.8141L48.9359 59.7082C49.1404 59.7717 48.9923 59.5882 49.1686 59.5882C49.1474 59.5035 49.0558 59.4471 48.9782 59.3976C48.8865 59.7223 48.5622 59.3341 48.4 59.5035C48.1885 59.2494 48.7596 59.0588 48.2942 58.9388C48.2731 59.0165 48.0474 58.96 48.2026 59.1082C48.125 58.9247 47.9417 59.1012 47.8994 58.8471C48.0686 58.953 47.9981 58.5718 48.2378 58.7271C48.1673 58.7483 48.259 58.8753 48.3013 58.9035C48.3295 58.7906 48.4987 58.8047 48.4 58.6283C48.3154 58.5294 48.2308 58.3812 48.1391 58.4589C48.0333 58.5294 48.2449 58.6212 48.0968 58.6142C47.9346 58.4165 48.0756 58.2895 47.8288 58.3106C47.9205 58.4377 47.8288 58.5365 47.7513 58.5789L47.6103 58.4447L47.7019 58.4306C47.6032 58.1412 47.5256 58.4306 47.3987 58.1695L47.4763 57.9718C47.6314 57.9577 47.6314 58.3671 47.8077 58.2048C47.7231 58.0353 47.5891 58.0424 47.5538 57.8589C47.5891 57.8801 47.6244 57.9295 47.6596 57.9506C47.6314 57.8871 47.8641 57.6754 47.575 57.5342C47.4481 57.4495 47.4833 57.5413 47.4058 57.5836C47.2295 57.3366 47.1096 57.3083 47.0038 57.146C47.1731 57.0966 46.8487 56.8425 47.1026 56.9413C47.0673 57.0754 47.2929 57.4424 47.4833 57.4565C47.6032 57.2589 47.575 57.6754 47.7865 57.626C47.6667 57.4142 47.85 57.3295 47.9417 57.2307C47.9135 57.1671 47.8359 57.1389 47.8006 57.1177C47.6808 57.153 47.7231 57.2307 47.6173 57.2942C47.5115 57.0472 47.3212 56.8566 47.1449 56.786C47.1519 56.6801 47.2718 56.6378 47.3353 56.7295C47.1449 56.4754 46.9897 56.1719 46.8699 55.8896C46.7923 56.1578 46.6583 55.6213 46.5808 55.819C46.6231 55.9813 46.5737 56.1719 46.4468 56.1437C46.4045 56.0519 46.5244 56.1013 46.5385 56.0448C46.3763 55.9884 46.5878 55.7837 46.3763 55.7625C46.5808 55.9813 46.616 55.6919 46.7782 55.6566C46.5949 55.5225 46.8769 55.6072 46.7712 55.4307C46.5878 55.2966 46.4045 55.1061 46.2564 54.9225C46.2353 54.5978 45.8897 54.2802 45.7487 54.0614C45.7487 53.9061 45.9462 53.892 45.8968 53.7508C45.8051 53.6026 45.7981 53.9555 45.7346 53.6943L45.7769 53.7014C45.6994 53.652 45.643 53.2355 45.3891 53.292L45.5936 53.2638C45.5865 53.2144 45.5231 53.2002 45.4878 53.172C45.5372 53.1367 45.5583 53.0591 45.6359 53.1085C45.6712 52.9038 45.4526 52.8332 45.3609 52.685L45.3186 52.8403C45.0929 52.6285 45.0929 52.4026 44.9096 52.1768L45.0083 52.1273L44.8673 52.0144C44.9801 51.9932 44.959 51.8238 44.8391 51.7956L45.2974 52.0426C45.3045 52.1838 45.1141 51.9932 45.0577 52.1132C45.0083 52.2191 45.1635 52.4309 45.2833 52.4167C45.241 52.325 45.2199 52.332 45.1423 52.2826C45.2622 52.1768 45.3327 52.3109 45.4596 52.325C45.4244 52.2826 45.4314 52.1909 45.3821 52.205C45.5019 52.2544 45.5654 52.3391 45.65 52.4873C45.5372 52.4167 45.6006 52.5932 45.5372 52.572C45.6641 52.5156 45.784 52.6356 45.8545 52.8403C45.7981 53.052 46.1436 53.1367 46.2282 53.3767C46.059 53.3555 45.8968 53.3061 45.7769 53.2002C45.7981 53.3697 45.8686 53.3485 45.8827 53.5179C46.0096 53.532 46.1718 53.4967 46.3269 53.6449L46.2423 53.7085C46.3763 53.8426 46.5103 53.7649 46.6019 53.9837C46.7641 54.3578 46.9686 54.7178 47.1096 54.9861L47.025 55.0496C47.3 55.0849 47.3776 55.5013 47.5821 55.6496C47.6949 56.0378 48.0897 56.3342 48.0404 56.5954C48.4564 57.153 48.8231 57.6401 49.1474 58.2753L48.9571 58.2471C49.1122 58.3036 48.9288 58.36 49.0064 58.4589C49.0346 58.2753 49.225 58.5294 49.3519 58.5647C49.4154 58.8965 49.7256 59.1859 49.9583 59.3835L49.8737 59.4471C50.184 59.5953 50.2051 59.9764 50.3603 60.3011C50.3462 60.3576 50.2968 60.4635 50.3603 60.5482C50.6 60.6329 50.6423 60.7247 50.8679 60.9223C50.9737 61.0988 51.1077 61.4093 51.1571 61.6281C51.7494 62.1858 52.0173 62.9481 52.5462 63.5763L52.4756 63.6892C53.0891 64.2398 53.3712 65.1857 53.8224 65.7009L53.6109 65.7503C53.6603 65.9621 53.9 66.1386 53.9917 66.0186C54.041 66.2303 54.3372 66.4209 54.2596 66.6185C54.3372 66.8232 54.4712 66.8021 54.584 66.9362C54.7321 67.3456 54.8308 67.4797 55.0635 67.8044L55.0705 67.6914C55.0071 67.6773 54.9295 67.7126 54.9718 67.8114C55.0987 67.9103 55.2045 68.3197 55.3385 68.0655C55.4372 68.5102 55.9449 68.8843 55.9942 69.3431C56.0365 69.2796 56.1 69.3643 56.1564 69.3784C56.3468 69.7031 56.4314 70.1196 56.6853 70.3243C56.6853 70.3949 56.5372 70.296 56.6077 70.4372C56.6782 70.5007 56.6853 70.3949 56.7699 70.4725C57.1859 70.9454 57.2846 71.616 57.5949 72.0819C58.2083 72.8795 58.6737 73.8041 59.1673 74.6229L59.1179 74.637C59.4423 74.8206 59.3295 75.3782 59.6962 75.4629C59.6962 75.5547 59.8231 75.7241 59.7103 75.7241C59.95 75.8794 59.9571 76.4017 60.2885 76.6346C60.2744 76.6064 60.2603 76.5923 60.218 76.5711C60.3096 76.9452 60.6058 77.1569 60.7186 77.5452C60.6833 77.524 60.634 77.4675 60.5846 77.4816C60.5776 77.6581 60.9442 77.6863 60.7821 77.8769C60.8244 77.9475 60.916 77.8699 60.8808 77.8275C61.2333 78.6181 61.8256 79.331 62.3192 80.0792C62.5167 80.7003 61.9949 80.3121 62.4038 80.658C62.3827 80.7145 62.4955 80.6368 62.4603 80.6721C62.6154 80.8062 62.3827 81.0674 62.559 81.1239C62.6577 81.0039 62.6718 81.1591 62.7494 81.1239C62.8622 81.5121 62.7917 81.6391 63.0385 81.8509L62.9609 81.8721C63.3276 82.0768 63.4404 82.5003 63.8071 82.6344C64.8506 84.3355 65.9295 85.9237 66.9308 87.5895C67.8545 89.2765 68.8981 90.8505 69.7654 92.601C69.8218 93.0951 69.843 93.1234 70.1673 93.5187C70.1321 93.5187 70.1039 93.4904 70.0968 93.5398C70.2519 93.4763 70.2872 93.8363 70.4494 93.801C70.7878 94.4433 71.1545 94.9939 71.5353 95.6362C71.4577 95.5445 71.3167 95.5586 71.3942 95.6786L71.5564 95.7492L71.5282 95.7915C71.5987 95.8621 71.7186 95.9115 71.7186 95.7986C72.7763 97.3373 73.418 99.0949 74.3699 100.655C74.5321 101.064 74.8917 101.565 75.1596 101.961C75.6744 103.281 76.1538 104.459 77 105.61C77 105.589 76.5346 105.638 76.1609 105.179Z" fill="#31258D"/>











<path d="M3.0391 231.894C3.20128 230.596 4.22372 229.247 4.55513 227.899C4.60449 227.744 4.73141 228.019 4.83013 227.673C5.09808 226.339 6.11346 224.497 6.97372 223.114L6.98782 223.226C7.15 222.965 7.12885 222.542 7.28397 222.252C7.31923 222.267 7.29102 222.372 7.36859 222.323C7.29102 222.203 7.55897 221.758 7.53782 221.596C7.62949 221.497 7.7141 221.547 7.82692 221.412L7.77756 221.187C7.7 220.58 8.31346 220.043 8.44743 219.33C8.46154 219.373 8.45449 219.45 8.50385 219.408C8.7859 218.293 9.39936 217.001 9.85064 215.815C9.87179 215.879 9.93526 215.956 10.0128 215.914C9.90705 215.801 10.034 215.427 10.1468 215.102C10.3442 215.024 10.2596 214.516 10.4994 214.177L10.5135 214.22C10.4923 213.888 10.7744 213.853 10.7038 213.563L10.8872 213.436C10.7532 213.232 11.1551 213.09 11.1622 212.822L11.1199 212.815C11.1692 212.582 11.3103 212.519 11.3667 212.307L11.3949 212.3C11.55 211.82 11.7686 211.601 11.6205 211.545C11.8109 211.439 11.4795 212.01 11.7615 211.834C12.2833 210.26 12.9955 208.728 13.6724 207.211C13.8064 207.062 13.8769 206.964 13.9474 206.949C13.9827 206.787 14.1731 206.371 14.159 206.194C14.1378 206.244 14.2788 206.131 14.3212 206.053C14.4974 205.799 14.2929 205.679 14.4974 205.411C14.4833 205.552 14.5115 205.608 14.5821 205.594C14.5821 205.284 14.7513 204.952 14.85 204.627C14.8571 204.684 14.8359 204.768 14.8853 204.775C14.9064 204.387 15.1814 204.183 15.2308 203.851L15.266 203.999C15.5763 203.576 15.1532 203.78 15.3929 203.399C15.3788 203.512 15.4212 203.491 15.4494 203.519C15.4635 203.074 15.7878 202.481 15.9077 202.079C15.9077 202.107 15.9359 202.114 15.9359 202.114C16.0981 201.691 16.3378 201.281 16.4718 200.801C16.5846 200.653 16.6551 200.95 16.8173 200.498C16.641 200.441 17.0782 199.729 16.768 199.898C16.9583 199.538 17.2897 198.973 17.3391 198.705C17.3321 198.903 17.6282 198.613 17.5013 198.931L17.7058 198.74C17.7622 198.804 17.5718 198.973 17.6987 198.938C17.7622 198.783 17.8962 198.296 17.9878 198.169C18.009 197.837 17.9385 197.484 18.1218 197.011C18.0936 197.258 18.3615 196.969 18.3263 197.131L18.291 196.333C18.3545 196.178 18.4391 196.362 18.4955 196.115C18.4462 196.108 18.4603 195.995 18.4532 195.91C18.4955 195.86 18.7 195.246 18.8974 195.253C18.9962 195.211 18.8199 195.522 18.9538 195.373C19.0808 195.084 19.0314 195.049 19.1513 194.759L19.1724 194.766C19.2782 194.59 19.3487 194.181 19.1654 194.343C19.1019 194.47 19.2853 194.336 19.1513 194.512C19.116 194.336 19.2359 193.99 19.3628 193.701C19.3487 193.814 19.3981 193.821 19.4263 193.877C19.4686 193.432 19.6096 193.009 19.7436 192.55C19.666 192.508 19.8141 192.776 19.7436 192.818C20.0962 192.317 20.0962 191.611 20.4558 191.223C20.4346 191.308 20.3218 191.216 20.35 191.216C20.4769 190.955 20.5897 191.018 20.625 190.828C20.7026 190.842 20.7026 190.602 20.759 190.411C20.7519 190.298 20.8154 190.383 20.7519 190.538C20.8013 190.263 21.1397 189.225 21.4923 188.696C21.4429 188.689 21.4853 188.273 21.5487 188.138L21.6333 188.237C21.7462 188.146 21.8237 187.793 21.9224 187.807C21.9224 187.468 21.5487 188.936 21.6192 188.513C21.7532 188.456 21.6897 187.906 21.7955 188.054C21.9083 187.786 21.9083 187.482 22.1128 187.27C22.0635 187.334 22.1622 187.553 22.2468 187.334C22.3949 186.953 22.2468 187.207 22.3455 186.882L22.3878 186.67C22.2891 186.614 22.55 186.339 22.3737 186.43C22.4795 186.423 22.5641 185.859 22.7192 185.971L22.8321 186.084C22.8955 185.915 22.8109 185.753 22.8109 185.604C22.8321 185.59 22.8814 185.555 22.8955 185.576C22.7051 185.456 23.0859 185.195 23.0154 184.934C23.241 184.623 23.4103 184.073 23.6077 183.967C23.6641 183.677 23.6994 183.402 23.8756 183.127C23.8686 183.197 23.8404 183.282 23.8756 183.317C24.0167 183.155 23.9885 183.085 24.0308 182.901C24.0449 182.95 24.3199 182.576 24.4821 182.4C24.5385 182.11 24.3904 182.153 24.334 182.096C24.6372 181.948 24.5314 181.306 24.8487 181.087C24.8346 181.193 24.7782 181.51 24.9263 181.32C25.2295 181.172 24.9897 180.776 25.2577 180.431L25.0462 180.452C25.2224 180.325 25.2013 179.845 25.3564 179.958C25.3564 179.802 25.6103 179.527 25.434 179.499C25.85 178.927 26.0333 177.925 26.4987 177.671C26.5128 177.572 26.6397 177.353 26.534 177.367C26.3788 177.48 26.5058 177.607 26.4212 177.635C26.4494 177.551 26.4141 177.515 26.4 177.494C26.5269 177.318 26.6045 177.162 26.6538 177.409C26.95 177.021 26.5763 176.838 26.8865 176.308C26.9429 176.365 26.9853 176.33 27.0487 176.167L27.0699 175.807C27.2532 175.461 27.3167 175.673 27.4295 175.715C27.493 175.518 27.6058 175.285 27.5564 175.158L27.8032 174.988C27.6269 175.108 27.8032 174.798 27.8173 174.699L27.8032 174.805C27.8667 174.791 27.9372 174.558 27.9724 174.438C27.8878 174.431 27.7609 174.65 27.6833 174.763C27.6763 174.643 27.7538 174.494 27.7538 174.339C27.8455 174.431 27.9724 174.064 28.05 173.915C28.1487 173.753 28.0359 173.675 28.0641 173.626C28.1276 173.647 28.1981 173.344 28.2192 173.52C28.2122 173.591 28.0994 173.633 28.1064 173.753C28.1981 173.654 28.2968 173.718 28.3321 173.443C28.3603 173.238 28.0923 173.393 28.3109 173.083C28.2968 173.188 28.3391 173.224 28.3462 173.308L28.5436 173.012L28.4449 172.956C28.4872 172.927 28.4872 172.956 28.5083 172.941C28.4449 172.8 28.6917 172.44 28.6071 172.313C28.6705 172.144 28.8256 172.003 28.9103 171.854L28.9032 171.89C29.0442 171.727 29.1218 171.459 29.1218 171.269L29.143 171.29C29.1994 171.191 29.291 170.937 29.284 170.781C29.4744 170.556 29.7071 170.866 29.7071 170.52C29.8199 170.252 29.7071 170.026 29.5942 170.104C29.8763 169.659 29.9468 169.045 30.2994 168.678C30.2853 168.593 30.2429 168.622 30.2853 168.473C30.6378 167.796 30.8212 166.949 31.2654 166.483C31.216 166.702 31.3641 166.539 31.4205 166.56C31.4064 166.356 31.6038 166.405 31.4769 166.271C31.3782 166.25 31.3429 166.208 31.216 166.391C31.35 165.953 31.6321 165.325 31.8224 165.128C31.7308 165.226 31.7378 165.121 31.7519 165.022C31.8859 165.121 32.041 164.817 32.0974 164.563L32.0199 164.492L32.1821 164.379C32.1962 164.281 32.041 164.196 32.2244 164.005C32.2667 164.012 32.3019 164.012 32.3513 163.977C32.3865 163.702 32.4147 163.314 32.6051 163.088L32.8308 162.932C32.866 162.812 32.8731 162.594 32.7462 162.77C33.0212 162.361 33.1622 162.078 33.3314 161.987C33.3949 161.097 33.8814 159.982 34.2974 159.107L34.3538 159.163C34.5231 158.951 34.2904 158.987 34.4103 158.838C34.4385 158.944 34.6288 158.718 34.6218 158.937C34.8474 158.627 34.6994 158.443 34.7699 158.21C34.6994 158.14 34.7487 158.415 34.6571 158.323C34.643 158.274 34.9391 157.878 34.8263 157.766C34.9179 157.702 34.9814 157.815 35.0167 157.886L35.0449 157.646C35.3128 157.462 35.066 158.351 35.3763 158.168L35.4397 157.963C35.6583 157.843 35.3692 158.542 35.6301 158.083C35.6583 157.843 35.5455 157.582 35.4045 157.737C35.5596 157.286 35.1788 157.391 35.3974 156.933C35.5314 156.841 35.2494 157.314 35.3974 157.279C35.6019 157.102 35.5385 156.806 35.6583 156.629C35.5103 156.827 35.4609 156.58 35.4962 156.431C35.6654 156.22 35.5526 156.643 35.7147 156.311C35.6654 156.22 35.743 155.888 35.5737 156.128C35.4538 155.93 35.7782 155.796 35.7288 155.556C35.8981 155.5 35.8558 156.029 36.0814 155.683C35.9404 155.69 36.1237 155.154 35.8628 155.274C35.9615 155.147 36.0603 155.168 36.0885 155.309C36.2506 155.133 36.0955 154.709 36.3635 154.744L36.2718 154.617C36.3423 154.568 36.4128 154.49 36.5256 154.413C36.6103 154.229 36.6244 153.749 36.8006 153.848C36.8077 153.777 37.0051 153.368 36.8077 153.474C36.6173 153.7 36.7654 153.813 36.5327 153.883C36.7513 153.763 36.6808 153.502 36.7019 153.326L36.7865 153.333C36.8006 153.234 36.9064 153.029 36.8571 152.945C36.8641 153.029 36.9276 153.015 36.9769 152.952L36.9135 152.81C37.0192 152.422 37.1391 152.81 37.266 152.443L37.2308 152.747C37.2378 152.683 37.3929 152.606 37.4353 152.422C37.3647 152.309 37.3013 152.14 37.2519 152.048C37.3013 151.829 37.4 152.006 37.3859 151.766V152.076C37.4 152.133 37.6256 151.978 37.7385 151.709C37.7808 151.526 37.7596 151.194 37.5833 151.441C37.6397 151.307 37.7808 151.145 37.809 151.286C37.9077 150.968 37.6891 151.279 37.7385 150.989C37.8513 150.912 38.091 150.622 38.2744 150.46L38.3167 150.806L38.4013 150.622C38.4295 150.919 38.5564 150.545 38.634 150.742C38.7115 150.629 38.7327 150.46 38.7468 150.319C38.366 150.58 38.6269 149.775 38.3801 149.796C38.5494 149.274 39.0077 149.705 38.9231 149.048C38.8314 149.112 38.7891 148.794 38.7045 149.133C38.8667 148.836 38.5987 148.836 38.8385 148.505C38.8032 148.808 39.1699 148.307 39.1205 148.752C39.0641 148.695 38.9724 148.949 38.9654 149.013C39.0994 148.921 39.1558 149.133 39.2968 148.815C39.3603 148.618 39.4801 148.349 39.3532 148.342C39.2333 148.3 39.2333 148.646 39.1699 148.469C39.3038 148.067 39.5013 148.081 39.3744 147.834C39.2827 148.081 39.1346 148.088 39.0571 148.053L39.1346 147.749L39.184 147.841C39.4378 147.411 39.1064 147.644 39.3179 147.213L39.5577 147.072C39.6423 147.234 39.2192 147.686 39.466 147.7C39.6 147.418 39.5365 147.277 39.7128 147.029C39.7058 147.1 39.6705 147.185 39.6635 147.248C39.7128 147.149 40.0442 147.171 40.0583 146.691C40.0865 146.451 40.009 146.599 39.9314 146.564C40.1077 146.098 40.0936 145.921 40.2064 145.625C40.3333 145.752 40.4532 145.11 40.4673 145.505C40.3122 145.611 40.0231 146.281 40.1006 146.507C40.3615 146.422 39.9173 146.853 40.0583 147.037C40.2276 146.67 40.3968 146.768 40.5449 146.761C40.6013 146.662 40.5942 146.542 40.6013 146.472C40.5096 146.38 40.4532 146.514 40.3333 146.472C40.5449 146.077 40.6577 145.653 40.6506 145.378C40.7635 145.265 40.8622 145.357 40.7987 145.526C40.9821 145.025 41.2288 144.51 41.4686 144.065C41.1513 144.284 41.6519 143.528 41.4122 143.67C41.2641 143.903 41.0385 144.058 41.0173 143.881C41.0949 143.733 41.0949 143.924 41.1654 143.874C41.1513 143.634 41.4615 143.641 41.391 143.373C41.25 143.846 41.5744 143.557 41.6801 143.705C41.7436 143.345 41.7788 143.761 41.9199 143.444C41.9833 143.091 42.0962 142.667 42.2231 142.3C42.5545 141.912 42.7308 141.171 42.9 140.769C43.0622 140.592 43.1609 140.804 43.2949 140.592C43.4077 140.324 43.034 140.712 43.2808 140.352L43.2949 140.402C43.309 140.267 43.725 139.731 43.5417 139.512L43.6615 139.71C43.7109 139.646 43.6968 139.554 43.7109 139.491C43.7673 139.512 43.859 139.449 43.8449 139.59C44.0705 139.399 44.0494 139.075 44.1622 138.806L43.9859 138.933C44.1058 138.446 44.3455 138.185 44.5006 137.733L44.5994 137.79L44.6558 137.5C44.7263 137.606 44.8955 137.395 44.8744 137.225L44.825 138.009C44.684 138.171 44.7968 137.747 44.6417 137.825C44.5077 137.889 44.3596 138.305 44.4231 138.411C44.5006 138.263 44.4865 138.242 44.5006 138.107C44.6628 138.122 44.5571 138.355 44.5994 138.51C44.6276 138.425 44.7263 138.333 44.684 138.291C44.684 138.482 44.6205 138.644 44.5077 138.912C44.5359 138.707 44.3737 138.969 44.3667 138.884C44.4795 138.962 44.409 139.23 44.2256 139.54C43.9788 139.71 44.0423 140.197 43.8378 140.557C43.7814 140.345 43.7673 140.105 43.8167 139.851C43.6474 140.063 43.7038 140.119 43.5346 140.331C43.5769 140.486 43.6827 140.634 43.6051 140.973L43.5064 140.952C43.4288 141.256 43.5628 141.319 43.3795 141.665C43.0622 142.258 42.7801 142.893 42.5615 143.359L42.4628 143.338C42.5474 143.684 42.1455 144.241 42.0821 144.63C41.7295 145.187 41.5955 145.971 41.2994 146.204C40.8974 147.291 40.559 148.244 40.0372 149.324L39.9808 149.076C39.9949 149.316 39.8468 149.168 39.7833 149.373C39.9878 149.204 39.8045 149.705 39.8256 149.874C39.5013 150.312 39.3391 150.989 39.2404 151.462L39.1417 151.441C39.1205 151.956 38.7397 152.408 38.4647 152.937C38.4013 152.98 38.2673 153.043 38.2038 153.206C38.225 153.566 38.1404 153.714 38.0417 154.194C37.9006 154.512 37.6327 155.006 37.4353 155.302C37.118 156.587 36.441 157.737 36.018 159.029L35.8699 159.071C35.5667 160.37 34.7064 161.747 34.368 162.827L34.2269 162.643C34.0295 162.939 33.9519 163.398 34.1212 163.37C33.9237 163.666 33.8532 164.21 33.6135 164.344C33.4301 164.655 33.5218 164.782 33.4231 165.071C33.0635 165.699 32.9647 165.946 32.725 166.582L32.8026 166.433C32.7885 166.349 32.7179 166.306 32.6333 166.455C32.584 166.709 32.2032 167.28 32.5276 167.153C32.1045 167.76 31.9423 168.742 31.484 169.306C31.5686 169.278 31.5051 169.447 31.5192 169.532C31.2654 170.111 30.8705 170.669 30.7647 171.177C30.6942 171.254 30.7295 170.986 30.6167 171.219C30.5744 171.367 30.6942 171.254 30.6519 171.445C30.3487 172.433 29.6859 173.294 29.3404 174.163C28.7833 175.737 28.0147 177.297 27.3872 178.758L27.3519 178.722C27.3026 179.287 26.6679 179.788 26.7526 180.289C26.6609 180.388 26.534 180.72 26.4917 180.6C26.4423 181.045 25.8923 181.638 25.8006 182.266C25.8288 182.216 25.8288 182.181 25.8359 182.118C25.4833 182.64 25.3987 183.197 25.0391 183.762C25.0462 183.692 25.0814 183.579 25.0462 183.536C24.8558 183.727 24.9897 184.164 24.7218 184.2C24.6654 184.334 24.7853 184.341 24.8205 184.256C24.1506 185.527 23.6712 186.988 23.1141 188.371C22.55 189.289 22.7263 188.273 22.5429 189.113C22.4724 189.155 22.6064 189.197 22.5571 189.183C22.4865 189.508 22.1128 189.543 22.134 189.797C22.3032 189.769 22.1481 189.967 22.2256 190.009C21.8731 190.567 21.7038 190.637 21.591 191.152L21.5346 191.089C21.4853 191.731 21.0974 192.324 21.1115 192.889C19.8 195.952 18.6224 198.931 17.325 201.917C15.9782 204.832 14.8006 207.754 13.3481 210.683C12.8545 211.298 12.8333 211.354 12.5654 212.159C12.5513 212.116 12.5654 212.06 12.516 212.102C12.65 212.208 12.2904 212.646 12.4032 212.787C11.8814 213.874 11.4724 214.912 10.9718 216.048C11.0353 215.864 10.9506 215.716 10.866 215.935L10.859 216.203L10.8026 216.224C10.7603 216.38 10.7603 216.57 10.8801 216.443C9.74487 219.351 8.19359 222.019 6.98782 224.829C6.6282 225.464 6.26859 226.431 5.97949 227.165C4.83013 229.212 3.81474 231.061 2.98974 233.292C2.99679 233.285 2.7359 232.833 3.0391 231.894Z" fill="#31258D"/>











<path d="M70.6045 236.602C69.9276 235.445 69.8923 233.701 69.3211 232.388C69.2647 232.233 69.5327 232.381 69.3987 232.028C68.7853 230.772 68.4397 228.633 68.2635 226.96L68.3481 227.045C68.3128 226.728 68.0308 226.396 67.9744 226.064C68.0096 226.05 68.0519 226.156 68.0872 226.064C67.9532 226.008 67.8897 225.485 67.7699 225.372C67.784 225.231 67.8756 225.224 67.8827 225.041L67.7064 224.885C67.2692 224.441 67.4173 223.615 67.0788 222.951C67.1141 222.979 67.1564 223.043 67.1705 222.979C66.6981 221.885 66.3878 220.452 66 219.196C66.0564 219.238 66.1551 219.26 66.1904 219.175C66.0353 219.147 65.9083 218.758 65.7955 218.427C65.9013 218.236 65.5205 217.876 65.4994 217.453L65.5417 217.481C65.3231 217.22 65.5205 217.022 65.2808 216.824L65.3442 216.613C65.1115 216.535 65.3442 216.161 65.1821 215.942L65.1397 215.963C65.034 215.744 65.1045 215.603 65.0199 215.391L65.041 215.363C64.8647 214.876 64.907 214.559 64.7519 214.608C64.8295 214.403 64.9282 215.081 65.041 214.756C64.4769 213.147 64.0891 211.446 63.6801 209.787C63.6942 209.582 63.6872 209.455 63.7365 209.399C63.666 209.243 63.5532 208.785 63.4404 208.651C63.4545 208.707 63.4968 208.524 63.4827 208.432C63.4686 208.114 63.2288 208.142 63.2218 207.797C63.2923 207.917 63.3558 207.952 63.4051 207.895C63.2147 207.641 63.1372 207.26 63.0173 206.935C63.0596 206.978 63.0949 207.055 63.1372 207.034C62.9115 206.702 63.0032 206.364 62.834 206.06L62.9538 206.159C62.9327 205.615 62.7282 206.053 62.6859 205.594C62.7423 205.693 62.7635 205.651 62.8058 205.658C62.5378 205.284 62.425 204.599 62.2699 204.197C62.291 204.218 62.3122 204.204 62.3122 204.204C62.1782 203.759 62.1147 203.272 61.9244 202.792C61.9173 202.601 62.157 202.799 62.009 202.326C61.8327 202.39 61.734 201.536 61.6 201.867C61.5295 201.451 61.4378 200.787 61.3109 200.533C61.4237 200.703 61.4801 200.279 61.5788 200.618L61.6212 200.336C61.7058 200.357 61.6635 200.604 61.734 200.498C61.6846 200.329 61.4942 199.849 61.4801 199.693C61.2897 199.404 61.0147 199.164 60.8667 198.663C60.9936 198.889 61.0288 198.479 61.0994 198.635L60.5776 198.006C60.5282 197.837 60.7115 197.936 60.6058 197.703C60.5635 197.724 60.5071 197.625 60.4506 197.562C60.4577 197.491 60.232 196.87 60.3942 196.75C60.4436 196.658 60.5 197.018 60.5141 196.813C60.4365 196.503 60.3731 196.503 60.2885 196.185L60.3096 196.171C60.2814 195.959 60.084 195.578 60.0417 195.832C60.0699 195.98 60.1333 195.755 60.1333 195.98C59.9923 195.86 59.8795 195.501 59.7949 195.19C59.8513 195.289 59.8936 195.268 59.957 195.296C59.7103 194.908 59.5622 194.47 59.3859 194.018C59.3013 194.032 59.5833 194.152 59.5551 194.237C59.5199 193.602 59.0827 193.03 59.132 192.487C59.1673 192.564 59.0263 192.557 59.0474 192.55C58.984 192.254 59.1109 192.239 59.0192 192.063C59.0897 192.028 58.9346 191.83 58.8711 191.639C58.7936 191.555 58.8923 191.583 58.9417 191.745C58.8147 191.491 58.434 190.432 58.3846 189.776C58.3423 189.797 58.1167 189.43 58.0885 189.289L58.2154 189.317C58.2506 189.169 58.0885 188.837 58.1731 188.788C57.9615 188.513 58.582 189.945 58.3705 189.557C58.434 189.43 58.0532 189.021 58.2224 189.07C58.1449 188.781 57.9545 188.534 57.9897 188.23C57.9897 188.315 58.2013 188.428 58.1378 188.195C58.0179 187.786 58.0532 188.089 57.9333 187.764L57.8346 187.567C57.7218 187.581 57.757 187.193 57.6724 187.376C57.75 187.306 57.4679 186.79 57.6583 186.79L57.8135 186.811C57.757 186.635 57.5949 186.557 57.4962 186.43C57.5032 186.402 57.5173 186.353 57.5455 186.353C57.3199 186.381 57.4609 185.922 57.2423 185.753C57.2282 185.357 57.0167 184.8 57.1083 184.595C56.9744 184.327 56.8263 184.08 56.7981 183.741C56.8333 183.805 56.8615 183.889 56.9109 183.896C56.925 183.677 56.8545 183.635 56.7699 183.459C56.8122 183.494 56.7981 183.014 56.8122 182.767C56.6782 182.499 56.5865 182.626 56.509 182.612C56.657 182.301 56.1705 181.842 56.2833 181.468C56.3397 181.56 56.4878 181.856 56.4878 181.609C56.6359 181.299 56.1987 181.122 56.1987 180.678L56.0506 180.826C56.1141 180.614 55.7968 180.233 55.9872 180.233C55.8885 180.106 55.9237 179.725 55.7615 179.809C55.7404 179.082 55.2609 178.151 55.4654 177.649C55.409 177.558 55.3808 177.304 55.3032 177.374C55.2468 177.565 55.4301 177.586 55.3808 177.664C55.3526 177.579 55.3032 177.572 55.275 177.565C55.2609 177.339 55.2327 177.169 55.4231 177.339C55.409 176.838 55.007 176.915 54.9295 176.294C55.007 176.301 55.0211 176.252 54.9647 176.075L54.7603 175.765C54.6897 175.362 54.866 175.504 54.9859 175.461C54.9154 175.257 54.859 174.995 54.7391 174.925L54.8308 174.635C54.7673 174.847 54.7179 174.48 54.6615 174.388L54.7179 174.48C54.7603 174.431 54.6686 174.191 54.6192 174.078C54.5487 174.127 54.584 174.381 54.591 174.523C54.5135 174.431 54.4853 174.261 54.3865 174.134C54.5135 174.155 54.3865 173.774 54.3583 173.598C54.3372 173.4 54.1961 173.407 54.1891 173.351C54.2526 173.33 54.1256 173.033 54.2455 173.16C54.2808 173.224 54.2244 173.323 54.3019 173.421C54.316 173.28 54.4288 173.273 54.2878 173.026C54.182 172.843 54.0692 173.132 54.0481 172.744C54.1045 172.836 54.1538 172.843 54.2173 172.906L54.1891 172.539L54.0763 172.553C54.0904 172.497 54.1115 172.532 54.1186 172.504C53.9776 172.426 53.9494 171.974 53.8013 171.932C53.7449 171.756 53.7872 171.544 53.7519 171.367L53.766 171.396C53.7801 171.177 53.6673 170.909 53.5545 170.753H53.5827C53.5615 170.64 53.484 170.379 53.3853 170.252C53.3994 169.949 53.766 170.054 53.5545 169.772C53.4769 169.483 53.2442 169.37 53.2019 169.504C53.1455 168.967 52.8282 168.417 52.8776 167.895C52.8141 167.831 52.8 167.887 52.7365 167.739C52.5885 166.963 52.2147 166.158 52.2711 165.502C52.3699 165.713 52.384 165.488 52.4404 165.473C52.2994 165.318 52.4897 165.226 52.3064 165.205C52.2147 165.248 52.1583 165.241 52.1724 165.466C52.0103 165.022 51.841 164.33 51.8692 164.055C51.8551 164.189 51.7987 164.104 51.7494 164.012C51.9115 164.005 51.8551 163.666 51.7353 163.426L51.6295 163.412L51.6859 163.222C51.6295 163.13 51.4603 163.165 51.4885 162.89C51.5237 162.869 51.559 162.848 51.5731 162.791C51.432 162.544 51.2064 162.212 51.2205 161.902L51.2981 161.634C51.2558 161.514 51.1218 161.33 51.1288 161.556C51.0936 161.048 51.0231 160.73 51.1077 160.547C50.6071 159.784 50.2968 158.57 50.0782 157.589L50.1558 157.603C50.1558 157.328 50.0006 157.497 50.0006 157.307C50.0923 157.377 50.0994 157.074 50.2333 157.257C50.2192 156.862 49.9936 156.806 49.9019 156.573C49.7961 156.559 50.0077 156.756 49.8808 156.735C49.8385 156.7 49.8244 156.199 49.6692 156.177C49.7045 156.071 49.8244 156.114 49.8949 156.156L49.7679 155.944C49.8667 155.627 50.2192 156.509 50.3532 156.163L50.2756 155.959C50.3744 155.719 50.5788 156.474 50.5013 155.93C50.3744 155.719 50.1205 155.57 50.1135 155.789C49.9583 155.323 49.7256 155.648 49.6058 155.133C49.6551 154.97 49.7256 155.542 49.8173 155.408C49.8737 155.14 49.634 154.935 49.6199 154.716C49.6269 154.97 49.4365 154.801 49.366 154.653C49.366 154.377 49.5423 154.787 49.4647 154.413C49.366 154.37 49.225 154.046 49.2391 154.356C49.0205 154.272 49.1968 153.961 48.9994 153.792C49.0981 153.636 49.3942 154.095 49.359 153.679C49.2462 153.777 49.0628 153.22 48.9288 153.481C48.9288 153.312 49.0205 153.269 49.1263 153.368C49.1474 153.121 48.7596 152.874 48.9923 152.733L48.8442 152.683C48.8654 152.599 48.8724 152.493 48.9147 152.359C48.8654 152.154 48.5833 151.752 48.7808 151.723C48.7455 151.667 48.6397 151.201 48.5481 151.413C48.534 151.716 48.7244 151.716 48.5833 151.921C48.682 151.681 48.4635 151.519 48.3718 151.363L48.4423 151.321C48.3859 151.229 48.3506 151.003 48.2519 150.961C48.3154 151.025 48.3577 150.975 48.3506 150.891L48.2096 150.813C48.0545 150.432 48.3859 150.672 48.259 150.291L48.4211 150.566C48.3859 150.509 48.4564 150.347 48.3788 150.171C48.259 150.121 48.0968 150.022 48.0051 149.98C47.9064 149.775 48.0968 149.853 47.9417 149.662L48.1391 149.916C48.1814 149.952 48.266 149.683 48.1885 149.394C48.1038 149.218 47.8853 148.964 47.8994 149.274C47.8641 149.126 47.8712 148.907 47.9769 149.006C47.857 148.681 47.8782 149.076 47.7442 148.808C47.7865 148.674 47.7936 148.286 47.8429 148.039L48.0897 148.293L48.0404 148.095C48.2449 148.321 48.1179 147.94 48.2942 148.046C48.2872 147.905 48.1955 147.749 48.125 147.629C47.991 148.081 47.6949 147.262 47.5115 147.432C47.3211 146.902 47.9487 146.966 47.4763 146.479C47.441 146.585 47.2154 146.359 47.3635 146.684C47.307 146.338 47.0885 146.507 47.0814 146.084C47.2436 146.359 47.2224 145.717 47.4551 146.105C47.3776 146.091 47.4622 146.359 47.4974 146.415C47.5468 146.253 47.7231 146.394 47.6314 146.048C47.5609 145.844 47.4833 145.554 47.3846 145.625C47.2647 145.667 47.4763 145.942 47.3212 145.837C47.1731 145.427 47.3423 145.307 47.0814 145.187C47.166 145.448 47.0532 145.547 46.9686 145.561L46.8417 145.265L46.9404 145.307C46.8769 144.799 46.757 145.194 46.6583 144.714L46.7641 144.446C46.9333 144.524 46.8769 145.159 47.0814 145.018C47.0109 144.7 46.8769 144.63 46.8628 144.319C46.8981 144.383 46.9263 144.467 46.9615 144.531C46.9404 144.418 47.2154 144.234 46.9263 143.832C46.7994 143.62 46.8276 143.79 46.7429 143.804C46.5949 143.31 46.4679 143.183 46.3763 142.865C46.5596 142.893 46.2494 142.293 46.5103 142.604C46.4538 142.794 46.6442 143.514 46.8417 143.656C46.9897 143.423 46.9122 144.058 47.1378 144.114C47.0461 143.712 47.2436 143.684 47.3494 143.585C47.3282 143.472 47.2506 143.373 47.2154 143.317C47.0885 143.296 47.1237 143.444 47.0038 143.486C46.9263 143.027 46.75 142.618 46.5737 142.399C46.5949 142.237 46.7288 142.251 46.7782 142.427C46.609 141.905 46.4891 141.326 46.3974 140.811C46.2846 141.185 46.2141 140.26 46.1083 140.522C46.1295 140.804 46.0519 141.072 45.925 140.945C45.8968 140.776 46.0096 140.931 46.0378 140.846C45.8756 140.656 46.1224 140.465 45.9038 140.296C46.0872 140.769 46.1647 140.331 46.334 140.387C46.1647 140.056 46.4468 140.373 46.3622 140.027C46.1929 139.696 46.0167 139.286 45.8897 138.905C45.9109 138.383 45.5865 137.67 45.4737 137.232C45.4949 136.985 45.7064 137.098 45.6711 136.844C45.5936 136.555 45.5372 137.105 45.509 136.653L45.5513 136.689C45.4808 136.569 45.4737 135.87 45.1987 135.806L45.4173 135.891C45.4173 135.806 45.3538 135.743 45.3186 135.679C45.375 135.658 45.4103 135.552 45.4808 135.672C45.5442 135.376 45.3256 135.122 45.2481 134.832L45.1846 135.044C44.9731 134.571 45.0013 134.211 44.8461 133.745L44.959 133.731L44.825 133.463C44.9449 133.505 44.9519 133.23 44.825 133.103L45.2692 133.781C45.2551 133.999 45.0859 133.59 45.0083 133.745C44.9449 133.879 45.0788 134.31 45.1987 134.359C45.1705 134.19 45.1423 134.183 45.0718 134.063C45.2058 133.971 45.2622 134.225 45.3961 134.331C45.3679 134.246 45.382 134.105 45.3327 134.098C45.4455 134.254 45.5019 134.43 45.5795 134.719C45.4737 134.536 45.516 134.846 45.4526 134.783C45.5936 134.776 45.6994 135.044 45.7487 135.411C45.657 135.708 46.0096 136.061 46.0731 136.484C45.8968 136.35 45.7346 136.159 45.6218 135.919C45.6218 136.195 45.6994 136.209 45.6923 136.484C45.8263 136.583 45.9955 136.639 46.1436 136.964L46.0519 137.006C46.1788 137.303 46.3269 137.268 46.3904 137.67C46.5103 138.355 46.6795 139.046 46.7923 139.562L46.7006 139.604C46.9827 139.837 47.0109 140.536 47.2013 140.896C47.2647 141.573 47.6455 142.293 47.5609 142.674C47.9205 143.811 48.2449 144.806 48.5058 146.006L48.3154 145.844C48.4705 146.034 48.266 146.006 48.3436 146.211C48.4 145.942 48.5622 146.465 48.6891 146.592C48.7103 147.149 48.9994 147.806 49.2179 148.258L49.1263 148.3C49.4295 148.731 49.4083 149.345 49.5212 149.945C49.5 150.022 49.4295 150.156 49.4859 150.326C49.7256 150.608 49.7538 150.778 49.9724 151.229C50.0571 151.575 50.1558 152.147 50.184 152.514C50.7269 153.756 50.9103 155.126 51.3827 156.439L51.291 156.566C51.8622 157.815 52.0314 159.481 52.4333 160.568L52.2077 160.511C52.2359 160.878 52.4545 161.295 52.5744 161.175C52.6026 161.542 52.8846 162.029 52.7788 162.29C52.8282 162.657 52.9763 162.707 53.082 163.003C53.1878 163.744 53.2654 164.005 53.4699 164.676L53.4417 164.506C53.3782 164.443 53.2936 164.457 53.3218 164.626C53.4417 164.866 53.4981 165.572 53.6744 165.262C53.7167 166.017 54.2032 166.92 54.1891 167.676C54.2385 167.598 54.2949 167.775 54.3583 167.838C54.5205 168.473 54.5487 169.172 54.7885 169.652C54.7814 169.758 54.6404 169.518 54.6968 169.779C54.7603 169.927 54.7814 169.765 54.866 169.942C55.2397 170.944 55.2538 172.059 55.5147 172.984C56.0506 174.614 56.4173 176.372 56.8263 177.96L56.7769 177.953C57.0872 178.44 56.8968 179.252 57.2776 179.612C57.2635 179.746 57.3763 180.099 57.2635 180.028C57.4962 180.423 57.4397 181.249 57.75 181.821C57.7429 181.765 57.7218 181.736 57.6865 181.673C57.7359 182.322 58.0109 182.83 58.0814 183.508C58.0462 183.445 57.9968 183.332 57.9474 183.325C57.9192 183.6 58.2929 183.875 58.1026 184.073C58.1378 184.214 58.2436 184.15 58.2154 184.059C58.4833 185.513 59.0051 187.009 59.4211 188.491C59.5481 189.593 59.0545 188.654 59.4282 189.451C59.4 189.529 59.5269 189.48 59.4846 189.501C59.6256 189.811 59.3577 190.072 59.5269 190.27C59.6468 190.143 59.6397 190.404 59.7314 190.39C59.8019 191.068 59.7103 191.23 59.9429 191.717L59.8583 191.696C60.2179 192.247 60.2744 192.981 60.641 193.432C61.5083 196.757 62.432 199.926 63.257 203.173C64.0045 206.399 64.8859 209.526 65.5628 212.822C65.5558 213.634 65.5769 213.69 65.859 214.509C65.8167 214.481 65.8026 214.432 65.7814 214.495C65.9506 214.495 65.9436 215.081 66.1128 215.123C66.3808 216.337 66.6981 217.438 67.0083 218.681C66.9449 218.49 66.7897 218.42 66.8532 218.653L67.0154 218.871L66.9801 218.921C67.0436 219.076 67.1635 219.231 67.1776 219.055C68.0872 222.139 68.5244 225.288 69.3141 228.337C69.4269 229.078 69.7442 230.094 69.9699 230.878C70.3365 233.271 70.682 235.417 71.4154 237.753C71.4295 237.767 70.9429 237.562 70.6045 236.602Z" fill="#31258D"/>










</g>

</g>

</svg>