<svg width="33" height="2" viewBox="0 0 33 2" fill="none" xmlns="http://www.w3.org/2000/svg">
<path d="M0.08 0.769601C-0.04 0.793892 0.133333 0.882961 0 0.818184C0.0133333 0.761504 0.04 0.721018 0.08 0.769601Z" fill="#31258D"/>
<path d="M31.6133 0.842463C31.24 1.19064 30.7333 0.842463 30.32 1.06109C30.2667 1.07728 30.3333 0.866754 30.2267 0.915337C29.8267 1.19064 29.1867 1.0287 28.7067 0.818171L28.7333 0.761491C28.64 0.721005 28.52 0.899143 28.4267 0.874852C28.4267 0.842463 28.4533 0.826269 28.44 0.777686C28.4133 0.882949 28.2667 0.826269 28.2133 0.90724C28.1733 0.866754 28.1733 0.777686 28.1333 0.729103L28.08 0.85056C27.92 1.14206 27.6933 0.826269 27.48 0.980115C27.4933 0.947726 27.5067 0.931532 27.4933 0.899143C27.1467 1.07728 26.72 1.04489 26.3333 1.10967C26.3467 1.06918 26.36 0.988212 26.3467 0.939629C26.3333 1.06918 26.2133 1.10157 26.1067 1.12586C26.0667 0.988212 25.9333 1.24732 25.8133 1.17445L25.8267 1.14206C25.7333 1.27971 25.6933 1.06109 25.6267 1.23113L25.5467 1.13396C25.5067 1.3202 25.4133 1.03679 25.3467 1.13396V1.17445C25.28 1.22303 25.24 1.12586 25.1733 1.15825V1.13396C25.0267 1.18254 24.9333 1.07728 24.9333 1.22303C24.88 1.10967 25.08 1.16635 25 0.996309C24.5067 1.15016 23.9867 1.11777 23.4933 1.11777C23.44 1.06109 23.4 1.0368 23.3867 0.988212C23.3333 1.0206 23.2 1.0125 23.1467 1.09348C23.16 1.09348 23.12 1.0206 23.0933 1.0125C23 0.955823 23 1.17445 22.8933 1.10967C22.9333 1.06918 22.9467 1.0206 22.9333 0.972018C22.8533 1.08538 22.7333 1.06918 22.6267 1.10157C22.64 1.07728 22.6667 1.06109 22.6667 1.0125C22.56 1.14206 22.4667 0.988212 22.3733 1.06918L22.4133 0.988212C22.2533 0.882949 22.3733 1.16635 22.2267 1.10157C22.2533 1.07728 22.2533 1.04489 22.2533 1.00441C22.1333 1.15825 21.92 1.10967 21.8 1.15825C21.8133 1.15016 21.8 1.12586 21.8 1.12586C21.6667 1.14206 21.52 1.09348 21.3733 1.16635C21.32 1.12586 21.3867 0.955823 21.2533 0.988212C21.2533 1.15825 21.0133 1.06109 21.0933 1.24732C20.9733 1.22303 20.7733 1.15825 20.6933 1.21493C20.7467 1.15016 20.6267 1.00441 20.7333 0.988212L20.6533 0.891046C20.6667 0.818172 20.7333 0.915337 20.7067 0.826269C20.6533 0.834366 20.5067 0.899143 20.4533 0.874852C20.36 0.980115 20.2667 1.17445 20.12 1.19874C20.1867 1.13396 20.08 1.0125 20.1333 0.980115L19.92 1.304C19.8667 1.3121 19.9067 1.16635 19.84 1.21493C19.84 1.26352 19.8133 1.28781 19.7867 1.3202C19.7733 1.304 19.5733 1.36068 19.5467 1.19874C19.52 1.13396 19.6267 1.16635 19.5733 1.10157C19.48 1.10157 19.48 1.15825 19.3733 1.16635V1.14206C19.3067 1.11777 19.1867 1.21493 19.2533 1.304C19.2933 1.3121 19.24 1.20684 19.3067 1.25542C19.2667 1.35258 19.1467 1.37688 19.0533 1.38497C19.08 1.36068 19.08 1.3121 19.0933 1.26352C18.96 1.39307 18.8267 1.43356 18.6933 1.49024C18.6933 1.57121 18.7467 1.34449 18.7733 1.38497C18.5867 1.27161 18.4 1.53882 18.24 1.37688C18.2667 1.36068 18.2533 1.49024 18.2533 1.46594C18.16 1.45785 18.1733 1.33639 18.1067 1.38497C18.1067 1.3202 18.04 1.40926 17.9733 1.42546C17.9467 1.47404 17.96 1.39307 18.0133 1.38497C17.9333 1.44165 17.6 1.54692 17.4133 1.44975C17.4133 1.49833 17.2933 1.61169 17.2533 1.61169L17.2667 1.50643C17.2267 1.44165 17.12 1.51453 17.12 1.42546C17.0267 1.55501 17.48 1.3202 17.3467 1.41736C17.32 1.32829 17.1733 1.5874 17.2 1.44165C17.1067 1.44165 17.0267 1.56311 16.9467 1.46594C16.9733 1.48214 17.0133 1.3202 16.9467 1.32829C16.8267 1.34449 16.9067 1.37688 16.8133 1.41736L16.7467 1.45785C16.7467 1.56311 16.64 1.44165 16.68 1.55501C16.6667 1.47404 16.4933 1.6036 16.5067 1.43356L16.52 1.304C16.4667 1.3121 16.4267 1.44165 16.3867 1.50643C16.3733 1.49024 16.36 1.46594 16.3733 1.44165C16.36 1.64408 16.24 1.42546 16.1867 1.57931C16.08 1.50643 15.8933 1.57121 15.84 1.44165C15.7467 1.50643 15.68 1.57931 15.5733 1.53072C15.5867 1.51453 15.6267 1.50643 15.6267 1.45785C15.56 1.40117 15.5467 1.44975 15.4933 1.48214C15.5067 1.44975 15.3733 1.36068 15.3067 1.28781C15.2267 1.35258 15.2533 1.45785 15.24 1.52262C15.16 1.3202 15 1.65218 14.8933 1.46594C14.92 1.44165 15.0133 1.36878 14.9467 1.3202C14.88 1.15016 14.8 1.49833 14.6667 1.40117L14.6933 1.57121C14.64 1.46594 14.5067 1.66837 14.52 1.49833C14.48 1.55501 14.3733 1.44165 14.3867 1.6036C14.1733 1.46594 13.88 1.68457 13.7467 1.39307C13.72 1.41736 13.64 1.39307 13.6533 1.47404C13.7067 1.56311 13.72 1.40926 13.7467 1.47404C13.72 1.48214 13.72 1.52262 13.7067 1.54692C13.64 1.50643 13.5867 1.49833 13.6533 1.36068C13.52 1.26352 13.52 1.63599 13.3333 1.57121C13.3467 1.50643 13.3333 1.47404 13.28 1.49024L13.1733 1.6036C13.0533 1.57931 13.1067 1.45785 13.0933 1.33639C13.04 1.36068 12.96 1.35258 12.9333 1.44165L12.8533 1.2959C12.9067 1.40117 12.8 1.36068 12.7733 1.39307L12.8 1.36068C12.7867 1.3121 12.72 1.34449 12.68 1.36068C12.68 1.43356 12.76 1.45785 12.8 1.48214C12.7733 1.53072 12.72 1.51453 12.68 1.57931C12.6933 1.46594 12.5733 1.49833 12.52 1.49024C12.4667 1.46594 12.4533 1.5874 12.44 1.57931C12.44 1.52262 12.3467 1.57121 12.3867 1.49024C12.4 1.47404 12.4267 1.54692 12.4667 1.49833C12.4267 1.45785 12.44 1.35258 12.36 1.42546C12.2933 1.48214 12.3733 1.64408 12.2533 1.57931C12.28 1.55501 12.2933 1.50643 12.3067 1.46594L12.2133 1.40926V1.51453C12.2 1.49024 12.2133 1.48214 12.2 1.46594C12.16 1.56311 12.0267 1.49024 12.0133 1.61169C11.96 1.62789 11.8933 1.53882 11.84 1.53072L11.8533 1.52262C11.7867 1.46594 11.7067 1.49833 11.6533 1.57121V1.54692C11.6267 1.53882 11.5467 1.55501 11.5067 1.61979C11.4133 1.53882 11.48 1.23113 11.3733 1.36068C11.28 1.36068 11.24 1.54692 11.2667 1.61169C11.12 1.53882 10.9467 1.70886 10.8 1.54692C10.7733 1.5955 10.7867 1.61979 10.7467 1.64408C10.52 1.6036 10.2533 1.76554 10.08 1.56311C10.1467 1.52262 10.08 1.45785 10.08 1.40117C10.0133 1.49024 10.0133 1.304 9.98667 1.46594C9.98667 1.55501 9.98667 1.6036 10.0533 1.64408C9.92 1.69267 9.70667 1.69267 9.62667 1.6036C9.66667 1.64408 9.64 1.67647 9.61333 1.70076C9.62667 1.55501 9.52 1.53072 9.44 1.57931L9.42667 1.67647L9.37333 1.57931C9.34667 1.61169 9.34667 1.76554 9.26667 1.68457C9.26667 1.65218 9.25333 1.61169 9.24 1.5874C9.17333 1.66028 9.05333 1.78173 8.97333 1.70886L8.90667 1.57931C8.86667 1.5955 8.8 1.66837 8.86667 1.70886C8.72 1.62789 8.62667 1.61979 8.57333 1.50643C8.32 1.78173 7.96 1.79793 7.66667 1.77364L7.68 1.70886C7.58667 1.64408 7.62667 1.82222 7.57333 1.78173C7.6 1.71696 7.50667 1.64408 7.57333 1.56311C7.46667 1.49024 7.42667 1.67647 7.36 1.70886C7.34667 1.79793 7.41333 1.65218 7.4 1.76554C7.38667 1.79793 7.25333 1.69267 7.22667 1.83032C7.2 1.77364 7.22667 1.67647 7.24 1.61979L7.17333 1.68457C7.08 1.53072 7.36 1.40926 7.26667 1.21493L7.21333 1.23922C7.14667 1.10157 7.38667 1.07728 7.22667 1.03679C7.16 1.10157 7.09333 1.2959 7.16 1.35258C7.01333 1.38497 7.08 1.66837 6.93333 1.66028C6.89333 1.5793 7.05333 1.64408 7.02667 1.53072C6.94667 1.41736 6.88 1.5874 6.81333 1.54692C6.88 1.5955 6.82667 1.73315 6.77333 1.75744C6.69333 1.70076 6.82667 1.63599 6.72 1.61979C6.69333 1.70076 6.6 1.75744 6.68 1.80603C6.64 1.98416 6.56 1.75744 6.50667 1.89509C6.46667 1.77364 6.62667 1.61169 6.49333 1.54692C6.50667 1.66837 6.34667 1.70886 6.4 1.887C6.36 1.85461 6.36 1.75744 6.38667 1.68457C6.32 1.61169 6.22667 1.90319 6.2 1.66837L6.17333 1.78983C6.16 1.74935 6.13333 1.71696 6.09333 1.65218C6.02667 1.65218 5.89333 1.81412 5.90667 1.63599C5.88 1.65218 5.74667 1.64408 5.8 1.77364C5.88 1.85461 5.89333 1.68457 5.94667 1.85461C5.88 1.70886 5.82667 1.8708 5.77333 1.91939L5.76 1.84651C5.73333 1.8708 5.66667 1.85461 5.64 1.93558C5.66667 1.89509 5.65333 1.84651 5.62667 1.83032L5.6 1.93558C5.48 1.99226 5.57333 1.74935 5.45333 1.78173L5.54667 1.70076C5.53333 1.71696 5.49333 1.61979 5.42667 1.65218C5.41333 1.74125 5.37333 1.86271 5.34667 1.93558C5.28 1.98416 5.32 1.83032 5.25333 1.92748L5.33333 1.80603C5.34667 1.77364 5.28 1.64408 5.18667 1.64408C5.13333 1.68457 5.05333 1.82222 5.13333 1.8789C5.09333 1.8789 5.02667 1.82222 5.06667 1.74935C4.97333 1.78173 5.08 1.85461 5 1.91939C4.96 1.85461 4.85333 1.75744 4.78667 1.66837L4.88 1.50643H4.81333C4.89333 1.37688 4.77333 1.40926 4.81333 1.26352C4.77333 1.23922 4.72 1.28781 4.68 1.32829C4.81333 1.53882 4.56 1.61979 4.58667 1.82222C4.42667 1.8789 4.48 1.33639 4.32 1.65218C4.34667 1.70076 4.26667 1.85461 4.36 1.79793C4.26667 1.77364 4.29333 2.00036 4.17333 1.91939C4.26667 1.83841 4.08 1.71696 4.2 1.5955C4.2 1.66028 4.28 1.64408 4.29333 1.62789C4.25333 1.54692 4.30667 1.42546 4.2 1.42546C4.13333 1.44165 4.05333 1.44975 4.06667 1.55501C4.06667 1.66837 4.16 1.53882 4.12 1.66028C4 1.69267 3.97333 1.51453 3.92 1.72505C4 1.70886 4.02667 1.83032 4.02667 1.90319L3.92 1.95177L3.93333 1.8708C3.8 1.82222 3.90667 2.01655 3.76 2.00036L3.69333 1.84651C3.72 1.71696 3.89333 1.90319 3.86667 1.69267C3.77333 1.68457 3.74667 1.78983 3.65333 1.73315C3.66667 1.71696 3.70667 1.70886 3.72 1.69267C3.69333 1.68457 3.65333 1.40117 3.52 1.56311C3.45333 1.62789 3.50667 1.64408 3.50667 1.72505C3.34667 1.74935 3.30667 1.83032 3.21333 1.83841C3.24 1.68457 3.04 1.82222 3.14667 1.66028C3.2 1.74935 3.41333 1.74125 3.46667 1.5955C3.41333 1.40926 3.58667 1.61979 3.61333 1.43356C3.49333 1.43356 3.50667 1.25542 3.48 1.13396C3.45333 1.12586 3.41333 1.17445 3.4 1.19064C3.38667 1.304 3.42667 1.304 3.42667 1.41736C3.29333 1.38497 3.16 1.44975 3.08 1.55501C3.04 1.50643 3.05333 1.39307 3.10667 1.38497C2.94667 1.41736 2.77333 1.40117 2.62667 1.36878C2.72 1.55501 2.45333 1.40926 2.52 1.56311C2.6 1.6036 2.66667 1.73315 2.62667 1.81412C2.57333 1.80603 2.62667 1.73315 2.61333 1.69267C2.54667 1.78983 2.50667 1.53072 2.45333 1.69267C2.6 1.63599 2.48 1.46594 2.50667 1.32829C2.4 1.40926 2.50667 1.22303 2.4 1.22303C2.29333 1.304 2.16 1.36878 2.04 1.39307C1.89333 1.25542 1.66667 1.39307 1.53333 1.39307C1.46667 1.32829 1.52 1.16635 1.44 1.14206C1.34667 1.14206 1.50667 1.3202 1.37333 1.23922L1.38667 1.20684C1.34667 1.24732 1.14667 1.09348 1.10667 1.32829L1.14667 1.15016C1.13333 1.14206 1.10667 1.18254 1.08 1.19874C1.08 1.14206 1.05333 1.09348 1.09333 1.05299C1.01333 0.931532 0.920001 1.06918 0.840001 1.07728L0.893334 1.18254C0.746667 1.26352 0.640001 1.15825 0.493334 1.19874V1.09348L0.413334 1.15016C0.440001 1.05299 0.360001 0.988212 0.306667 1.06918L0.533334 0.818171C0.600001 0.874852 0.466667 0.939629 0.506667 1.04489C0.546667 1.13396 0.680001 1.10967 0.693334 1.0125C0.653334 0.996309 0.640001 1.0206 0.600001 1.05299C0.586667 0.915337 0.666667 0.923435 0.706667 0.826269C0.680001 0.834366 0.640001 0.785783 0.640001 0.834366C0.693334 0.761491 0.746667 0.753394 0.840001 0.753394C0.773334 0.801977 0.866667 0.834366 0.840001 0.874852C0.853334 0.753394 0.933334 0.712908 1.04 0.745297C1.12 0.891046 1.24 0.656228 1.37333 0.696714C1.32 0.826269 1.25333 0.923435 1.17333 0.972018C1.25333 1.0368 1.26667 0.972018 1.34667 1.0287C1.38667 0.931532 1.41333 0.79388 1.52 0.729103V0.826269C1.61333 0.785783 1.61333 0.648131 1.73333 0.672422C1.93333 0.721005 2.14667 0.721005 2.29333 0.729103V0.818171C2.37333 0.615742 2.58667 0.745297 2.69333 0.656228C2.89333 0.745297 3.12 0.567159 3.22667 0.729103C3.57333 0.656228 3.88 0.591451 4.24 0.623839L4.18667 0.761491C4.25333 0.664325 4.22667 0.842463 4.29333 0.818171C4.22667 0.712908 4.38667 0.68052 4.42667 0.591451C4.58667 0.704811 4.8 0.583354 4.94667 0.494285V0.591451C5.09333 0.413313 5.26667 0.567159 5.44 0.591451C5.46667 0.631937 5.49333 0.721005 5.54667 0.704811C5.65333 0.559062 5.69333 0.567159 5.84 0.469993C5.94667 0.469993 6.12 0.510479 6.22667 0.567159C6.61333 0.356633 7.02667 0.494285 7.42667 0.36473L7.45333 0.47809C7.85333 0.243273 8.33333 0.453799 8.68 0.340439L8.64 0.518576C8.74667 0.575256 8.88 0.469993 8.85333 0.340439C8.96 0.397119 9.12 0.25137 9.18667 0.405216C9.29333 0.437605 9.32 0.316147 9.41333 0.291856C9.62667 0.36473 9.70667 0.348536 9.92 0.30805L9.86667 0.299953C9.84 0.340439 9.84 0.42141 9.89333 0.429507C9.97333 0.380924 10.1733 0.47809 10.0933 0.259467C10.32 0.389022 10.6133 0.154204 10.8267 0.324244C10.8 0.267564 10.8533 0.25137 10.88 0.210884C11.0667 0.210884 11.28 0.332341 11.4267 0.227078C11.4533 0.259467 11.3733 0.332341 11.4533 0.340439C11.4933 0.316147 11.4533 0.259467 11.5067 0.227078C11.8133 0.113718 12.1333 0.348536 12.4133 0.316147C12.92 0.19469 13.44 0.259467 13.92 0.235175V0.283758C14.08 0.113718 14.2933 0.461896 14.4267 0.202787C14.4667 0.243273 14.5733 0.227078 14.5467 0.30805C14.68 0.186592 14.9067 0.42141 15.0933 0.267564C15.08 0.259467 15.0667 0.275661 15.0533 0.291856C15.24 0.389022 15.4 0.25137 15.6 0.348536C15.5733 0.36473 15.5467 0.380924 15.5333 0.429507C15.6133 0.518576 15.72 0.243273 15.76 0.453799C15.8 0.453799 15.7867 0.348536 15.76 0.348536C16.2 0.429507 16.6533 0.291856 17.1067 0.243273C17.4267 0.372827 17.12 0.607645 17.3867 0.445702C17.4133 0.486188 17.4 0.36473 17.4 0.405216C17.4933 0.348536 17.56 0.648131 17.6267 0.534771C17.6 0.405216 17.6667 0.461896 17.68 0.380924C17.88 0.469993 17.92 0.583354 18.08 0.486188L18.0667 0.559062C18.2533 0.36473 18.4667 0.469993 18.6133 0.243273C19.6267 0.202787 20.5867 0.0732322 21.5733 0.0489407C22.5467 0.0894265 23.4933 -0.00773951 24.48 0.113718C24.7067 0.299953 24.7333 0.291856 24.9867 0.218981C24.9733 0.25137 24.96 0.25137 24.9733 0.283758C24.9867 0.129912 25.1467 0.267564 25.1733 0.121815C25.5333 0.146107 25.88 0.105621 26.2533 0.105621C26.2 0.121815 26.16 0.243273 26.24 0.235175L26.32 0.138009L26.3333 0.178495C26.3867 0.154204 26.44 0.0813293 26.3867 0.0327463C27.3333 -0.0968083 28.2533 0.202787 29.1867 0.170398C29.4 0.235175 29.72 0.178495 29.96 0.146107C30.6667 0.348536 31.3067 0.510479 32.0267 0.36473C32 0.36473 31.9067 0.753394 31.6133 0.842463Z" fill="#31258D"/>
<path d="M0.213333 0.753418C0.24 0.826292 0.32 0.866778 0.253333 0.972041C0.253333 0.899167 0.213333 0.818195 0.213333 0.753418Z" fill="#31258D"/>
<path d="M2.41333 1.52264C2.41333 1.49835 2.44 1.55503 2.45333 1.56313C2.42667 1.57122 2.4 1.636 2.37333 1.59551C2.4 1.59551 2.4 1.55503 2.41333 1.52264Z" fill="#31258D"/>
<path d="M2.97333 1.57123C2.96 1.63601 2.84 1.69269 2.77333 1.70078L2.97333 1.57123Z" fill="#31258D"/>
<path d="M3.49333 1.84653C3.54667 1.90321 3.53333 1.9356 3.46667 1.9356C3.46667 1.89511 3.48 1.87892 3.49333 1.84653Z" fill="#31258D"/>
<path d="M3.53333 1.69269C3.57333 1.69269 3.6 1.73317 3.61333 1.76556C3.61333 1.71698 3.52 1.80605 3.53333 1.69269Z" fill="#31258D"/>
<path d="M4.66667 1.88699C4.69333 1.87889 4.74667 1.82221 4.77333 1.90319C4.74667 1.8546 4.64 1.98416 4.66667 1.88699Z" fill="#31258D"/>
<path d="M5.2 1.78983C5.21333 1.79792 5.22667 1.80602 5.24 1.78983C5.26667 1.82221 5.24 1.8708 5.21333 1.87889L5.2 1.78983Z" fill="#31258D"/>
<path d="M14.7867 1.52263L14.7333 1.55502L14.7467 1.48215L14.7867 1.52263Z" fill="#31258D"/>
<path d="M19 1.51454C19.0533 1.47406 19.04 1.57932 19.0533 1.58742C19 1.59552 19.0667 1.50645 19 1.51454Z" fill="#31258D"/>
<path d="M21.2658 1.18254H21.2533V1.04489L21.2658 1.18254Z" fill="#31258D"/>
</svg>
