<svg width="56" height="56" viewBox="0 0 56 56" fill="none" xmlns="http://www.w3.org/2000/svg">
<g clip-path="url(#clip0_1230_2)">
<path d="M33.1333 46.0835H22.8667L24.6166 42.3501L26.1333 38.8501H29.8667L31.3834 42.3501L33.1333 46.0835Z" fill="#FF7058"/>
<path d="M39.6666 46.0833H16.3332C15.0499 46.0833 13.9999 47.1332 13.9999 48.4166V55.9999H41.8833V48.4166C42 47.1332 40.95 46.0833 39.6666 46.0833Z" fill="#FFD15C"/>
<path d="M31.3834 42.3501C30.4501 42.8168 29.5168 43.2834 28.5833 43.6334L28 43.7501L27.4167 43.5168C26.4833 43.1667 25.55 42.7001 24.6166 42.2334L26.1333 38.7334H29.75L31.3834 42.3501Z" fill="#F1543F"/>
<path d="M0 6.4165V11.1999C0 22.8665 7.23337 32.8999 17.3834 37.0999C20.65 38.5 24.2667 39.1999 28.0001 39.1999C31.7334 39.1999 35.3501 38.5 38.6168 37.0999C48.7667 32.9 56.0001 22.8665 56.0001 11.2V6.4165H0ZM51.3333 11.1999C51.3333 16.7998 49.35 21.9332 45.9667 26.0165C41.6501 31.1498 35.2333 34.5332 28.0001 34.5332C20.7668 34.5332 14.3501 31.2666 10.0334 26.0165C6.76677 22.0498 4.66679 16.7998 4.66679 11.1999V11.0832H51.2166V11.1999H51.3333Z" fill="#F8B64C"/>
<path d="M46.2001 0H9.79996C8.98332 0 8.39993 0.699957 8.39993 1.40003C8.39993 2.21666 8.98321 2.91673 9.79996 2.91673H46.2001C47.0167 2.91673 47.6001 2.21677 47.6001 1.5167C47.6 0.699957 47.0167 0 46.2001 0Z" fill="#F8B64C"/>
<path d="M46.2001 2.9165V15.5165C46.2001 27.1832 38.9667 37.7999 28.0001 41.9999C17.0334 37.6832 9.80008 27.1832 9.80008 15.3998V2.9165H46.2001Z" fill="#FFD15C"/>
<path d="M28.0001 8.16675L30.45 15.6334H38.2667L31.9667 20.3L34.3 27.7668L28.0001 23.1001L21.7 27.7668L24.0333 20.3L17.7333 15.6334H25.55L28.0001 8.16675Z" fill="white"/>
<path d="M46.0833 2.9165H9.79996V4.66645H46.0833V2.9165Z" fill="#FFC952"/>
</g>
<defs>
<clipPath id="clip0_1230_2">
<rect width="56" height="56" fill="white"/>
</clipPath>
</defs>
</svg>
