<svg width="20" height="20" viewBox="0 0 20 20" fill="none" xmlns="http://www.w3.org/2000/svg">
<path d="M16.25 18.7501C14.8715 18.7501 13.75 17.613 13.75 16.2157C13.75 14.9153 14.8699 13.6611 15.4719 12.9876C15.5449 12.9056 15.6082 12.8349 15.6547 12.7802C15.7278 12.6931 15.8191 12.623 15.9222 12.5749C16.0253 12.5269 16.1376 12.502 16.2514 12.502C16.3651 12.502 16.4775 12.5269 16.5805 12.5749C16.6836 12.623 16.7749 12.6931 16.848 12.7802C16.8922 12.8314 16.9508 12.8974 17.0184 12.9728C17.6238 13.6486 18.75 14.9068 18.75 16.2169C18.75 17.613 17.6285 18.7501 16.25 18.7501Z" fill="#E4E9E9"/>
<path d="M15.5559 10.8062L6.51915 1.84451C6.13762 1.46381 5.62064 1.25 5.08165 1.25C4.54267 1.25 4.02569 1.46381 3.64415 1.84451L3.46798 2.02068C3.07659 2.40568 2.85344 2.92991 2.84728 3.47889C2.84577 3.74691 2.89767 4.01256 2.99995 4.26031C3.10222 4.50806 3.25283 4.73295 3.44298 4.92186L5.06447 6.54295L1.75783 9.84373C1.59418 10.0078 1.46496 10.2028 1.37776 10.4175C1.29055 10.6321 1.24712 10.8621 1.25001 11.0937C1.25194 11.3197 1.29966 11.543 1.3903 11.7501C1.48093 11.9571 1.61261 12.1437 1.77736 12.2984L6.90392 17.2203C7.22517 17.5282 7.65332 17.6995 8.09831 17.6982C8.54329 17.6969 8.97043 17.5231 9.28986 17.2133L14.1379 12.5148C14.2256 12.4276 14.3377 12.3692 14.4594 12.3472C14.6135 12.3226 14.7694 12.3114 14.9254 12.3137H14.9371C15.1119 12.314 15.2829 12.2622 15.4281 12.165C15.5734 12.0678 15.6864 11.9295 15.7528 11.7678C15.8192 11.6061 15.8359 11.4282 15.8008 11.257C15.7658 11.0857 15.6805 10.9288 15.5559 10.8062ZM5.94884 5.65818L4.32658 4.03631C4.2537 3.96372 4.19588 3.87746 4.15643 3.78248C4.11697 3.68749 4.09666 3.58565 4.09666 3.48279C4.09666 3.37994 4.11697 3.2781 4.15643 3.18311C4.19588 3.08812 4.2537 3.00186 4.32658 2.92928L4.52814 2.72811C4.60094 2.65527 4.68739 2.59749 4.78253 2.55806C4.87767 2.51864 4.97965 2.49835 5.08263 2.49835C5.18562 2.49835 5.28759 2.51864 5.38273 2.55806C5.47788 2.59749 5.56432 2.65527 5.63712 2.72811L7.26564 4.34412L5.94884 5.65818Z" fill="#E4E9E9"/>
</svg>
