<svg width="7" height="10" viewBox="0 0 7 10" fill="none" xmlns="http://www.w3.org/2000/svg">
<path d="M1.39936 9.81445C1.06602 9.53995 0.850337 9.4027 0.752297 9.4027V9.25563C0.811127 9.25563 0.840535 9.22623 0.840535 9.16742L0.752297 9.04975H0.664066L0.546414 9.10862C0.467986 9.10862 0.399358 9.04975 0.340534 8.93215C0.340534 8.55955 1.2523 7.59879 3.07584 6.04976C3.35035 5.89289 3.4876 5.74584 3.4876 5.60858V5.52035C3.4876 5.30466 3.2327 4.94191 2.72289 4.43211C2.03662 3.51054 1.18368 2.50073 0.164062 1.40269V1.31445C0.320926 1.31445 0.850337 1.14779 1.7523 0.814453C2.10524 0.814453 2.76211 1.4321 3.72289 2.6674C5.36996 4.43211 6.19349 5.42231 6.19349 5.638L6.28173 5.75564V5.81447L6.25232 5.87329C5.9778 5.71643 5.77192 5.638 5.63467 5.638L5.10526 6.54976V6.638L5.98761 6.49094H6.01702V6.54976C5.2131 7.27526 4.16408 8.09882 2.86995 9.02035C2.28172 9.51055 1.79152 9.77523 1.39936 9.81445ZM1.86995 7.99097V7.87329C1.63465 7.87329 1.40916 8.09882 1.19348 8.5498V8.72627H1.28172C1.4974 8.72627 1.69348 8.48117 1.86995 7.99097ZM2.57583 8.10857V7.99097H2.42877C2.17388 8.01054 2.04642 8.07917 2.04642 8.19684V8.22625L2.13466 8.28505H2.28172C2.39936 8.28505 2.4974 8.22625 2.57583 8.10857ZM4.42878 7.54974H4.36996C4.07584 7.62819 3.92878 7.77527 3.92878 7.99097C4.12486 7.99097 4.29152 7.84389 4.42878 7.54974ZM3.42878 6.93211L3.39937 6.90271H3.34054C3.16407 6.92231 2.94838 7.10859 2.69349 7.46154V7.57914H2.84054C3.2327 7.28506 3.42878 7.06937 3.42878 6.93211ZM2.19348 2.54976L2.28172 2.46152C2.16407 2.18701 2.02681 2.00073 1.86995 1.90269L1.81113 1.9321V2.1674C1.92877 2.34387 2.05622 2.47132 2.19348 2.54976ZM1.9876 1.46152H2.04642V1.31445C1.9876 1.1772 1.88956 1.10857 1.7523 1.10857H1.69348V1.13799C1.69348 1.29485 1.79152 1.40269 1.9876 1.46152Z" fill="#B74642"/>
</svg>
