<svg width="7" height="9" viewBox="0 0 7 9" fill="none" xmlns="http://www.w3.org/2000/svg">
<path d="M5.38234 0C5.71568 0.274509 5.93136 0.411764 6.0294 0.411764V0.558823C5.97058 0.558823 5.94117 0.588234 5.94117 0.647058L6.0294 0.764707H6.11764L6.23529 0.705881C6.31372 0.705881 6.38234 0.764707 6.44117 0.882352C6.44117 1.2549 5.5294 2.21568 3.70587 3.7647C3.43137 3.92156 3.29411 4.06862 3.29411 4.20587V4.29411C3.29411 4.50979 3.54901 4.87254 4.05882 5.38234C4.74509 6.30391 5.59803 7.3137 6.61764 8.41177V8.49998C6.46078 8.49998 5.93137 8.66663 5.02941 9C4.67647 9 4.0196 8.38237 3.05882 7.14705C1.41176 5.38234 0.588235 4.39215 0.588235 4.17647L0.5 4.05882V3.99999L0.529412 3.94117C0.803921 4.09803 1.0098 4.17647 1.14706 4.17647L1.67647 3.2647V3.17647L0.794117 3.32353H0.764706V3.2647C1.56862 2.53921 2.61764 1.71568 3.91176 0.794115C4.49999 0.303921 4.99019 0.0392156 5.38234 0ZM4.91176 1.82353V1.94117C5.14705 1.94117 5.37254 1.71568 5.58822 1.2647V1.08823H5.49999C5.28431 1.08823 5.08823 1.33333 4.91176 1.82353ZM4.20588 1.70588V1.82353H4.35294C4.60784 1.80392 4.73529 1.73529 4.73529 1.61765V1.58823L4.64705 1.52941H4.49999C4.38235 1.52941 4.28431 1.58823 4.20588 1.70588ZM2.35294 2.2647H2.41176C2.70588 2.18627 2.85294 2.03921 2.85294 1.82353C2.65686 1.82353 2.49019 1.97059 2.35294 2.2647ZM3.35294 2.88235L3.38235 2.91176H3.44117C3.61764 2.89215 3.83333 2.70588 4.08823 2.35294V2.23529H3.94117C3.54901 2.52941 3.35294 2.74509 3.35294 2.88235ZM4.58823 7.26472L4.49999 7.35292C4.61764 7.62743 4.75489 7.81372 4.91176 7.91175L4.97058 7.88235V7.64707C4.85293 7.4706 4.72548 7.3431 4.58823 7.26472ZM4.79411 8.3529H4.73529V8.49998C4.79411 8.63723 4.89215 8.70585 5.02941 8.70585H5.08823V8.67645C5.08823 8.51962 4.99019 8.41177 4.79411 8.3529Z" fill="#B74642"/>
</svg>
