<svg width="15" height="19" viewBox="0 0 15 19" fill="none" xmlns="http://www.w3.org/2000/svg">
<g clip-path="url(#clip0_32_76)">
<path d="M6.19219 2.71916L6.09254 2.49721C6.01282 2.31966 6.88302 1.49627 8.70314 0.0270495L8.68321 -0.01734C8.94774 -0.197191 9.84181 1.1649 11.3654 4.06893C13.4864 7.18485 14.7395 9.17191 15.1248 10.0301L15.0527 10.0792C14.8603 10.21 14.0804 9.13718 12.7131 6.86081C12.005 5.91302 11.6029 5.47183 11.5067 5.53723L11.4707 5.56175L11.67 6.00565C13.4061 9.38317 14.5869 10.8594 15.2121 10.4343L15.5159 10.6913C15.9676 11.6975 15.3398 12.781 13.6323 13.9418C13.1754 14.2525 12.3326 13.3191 11.1038 11.1416C11.0316 11.1907 10.9291 11.0672 10.7963 10.7713L10.542 9.78541L10.3427 9.34152L6.19219 2.71916ZM7.20404 3.19002L7.35969 3.43183L7.46791 3.35826L7.28854 2.95875L7.11674 2.78586L7.0446 2.83491L7.20404 3.19002ZM8.63343 5.11519L8.39427 4.58252C8.2614 4.28659 8.14022 4.15653 8.03074 4.19234L7.99467 4.21686L8.03453 4.30564C8.36165 4.89439 8.56128 5.16425 8.63343 5.11519ZM10.0505 7.22259L10.1226 7.17353C9.97646 6.84801 9.82459 6.7195 9.66701 6.78801L9.76666 7.00996C9.85967 7.21711 9.95427 7.28799 10.0505 7.22259ZM9.17173 4.11188L8.73326 3.13531C8.25998 2.22104 7.91925 1.77674 7.71104 1.80241L7.6389 1.85146L7.6664 2.12246C8.52566 3.54684 9.02744 4.20998 9.17173 4.11188ZM11.2957 9.15708L11.44 9.05898L11.4201 9.01459C11.141 8.39314 10.8323 7.98505 10.4937 7.79033L10.4216 7.83938L10.4614 7.92816C10.6209 8.28327 10.899 8.69291 11.2957 9.15708ZM13.0695 13.1077L13.2935 13.1872L13.7625 12.8684L13.7947 12.7305L13.7549 12.6418C13.715 12.553 13.5321 12.6001 13.2062 12.783L13.098 12.8566L13.0296 13.019L13.0695 13.1077ZM12.4915 11.8204L12.6956 11.8555L12.7677 11.8065L12.6681 11.5845L12.52 11.5693L12.4118 11.6429L12.4915 11.8204ZM9.58648 4.93076L9.62634 5.01954L9.69848 4.97048L9.61876 4.79293L9.58648 4.93076ZM10.9278 4.77206L10.9638 4.74754L10.924 4.65876C9.66929 2.07403 8.98183 0.822546 8.86159 0.904297L8.78944 0.953347C8.74387 1.06158 8.71159 1.19941 8.69259 1.36684L8.71252 1.41122C9.17756 2.44698 9.91597 3.56726 10.9278 4.77206ZM14.1194 12.5098L14.2675 12.525L14.3396 12.476L14.2998 12.3872L14.1678 12.3031L14.0596 12.3766L14.1194 12.5098Z" fill="#F8F7F2"/>
<path d="M6.44364 0.155746L6.58343 -0.0305537C6.69526 -0.179593 7.60444 0.577332 9.31097 2.24022L9.33893 2.20296C9.56097 2.45525 8.79207 3.92851 7.03223 6.62273C5.29715 10.0814 4.15934 12.1709 3.61882 12.8912L3.55826 12.8224C3.39677 12.6389 3.97851 11.3902 5.30348 9.07617C5.81143 7.95067 6.02504 7.34205 5.94429 7.25031L5.91402 7.21591L5.63444 7.5885C3.57637 10.6802 2.80976 12.5242 3.3346 13.1205L3.23205 13.5562C2.59833 14.4007 1.56487 14.0088 0.131663 12.3804C-0.251872 11.9446 0.202525 10.6662 1.49485 8.54519C1.4343 8.47638 1.49721 8.31778 1.6836 8.06938L2.36387 7.46179L2.64345 7.0892L6.44364 0.155746ZM6.39922 1.48581L6.26175 1.74377L6.35259 1.84698L6.60421 1.51164L6.68344 1.25653L6.62288 1.18773L6.39922 1.48581ZM5.36467 3.76164L5.70016 3.31453C5.88655 3.06613 5.94869 2.88363 5.88658 2.76705L5.85631 2.73265L5.80039 2.80717C5.44935 3.37468 5.30411 3.69284 5.36467 3.76164ZM4.18568 6.08045L4.24624 6.14926C4.45127 5.87602 4.50254 5.65817 4.40006 5.49572L4.26027 5.68202C4.1298 5.8559 4.10494 5.98871 4.18568 6.08045ZM6.30807 4.07426L6.92314 3.25455C7.47921 2.4138 7.71455 1.87589 7.62916 1.64082L7.5686 1.57201L7.36825 1.6895C6.54035 3.14173 6.18695 3.93665 6.30807 4.07426ZM3.08593 8.14416L3.20705 8.28177L3.235 8.24451C3.62642 7.72287 3.84389 7.23369 3.88743 6.77697L3.82687 6.70816L3.77095 6.78268C3.54729 7.08076 3.31895 7.53458 3.08593 8.14416ZM0.597665 11.4603L0.606949 11.7469L1.00058 12.1942L1.11705 12.1885L1.17297 12.114C1.22888 12.0394 1.13495 11.8407 0.891172 11.5177L0.800334 11.4145L0.653581 11.3858L0.597665 11.4603ZM1.40845 10.3797L1.44569 10.6291L1.50625 10.698L1.64604 10.5117L1.61112 10.3339L1.52028 10.2307L1.40845 10.3797ZM5.80714 4.8166L5.75123 4.89112L5.81178 4.95993L5.92362 4.81089L5.80714 4.8166ZM6.35206 6.33309L6.38234 6.3675L6.43825 6.29298C8.03654 4.01342 8.78522 2.8163 8.68429 2.70162L8.62373 2.63281C8.52589 2.61368 8.40942 2.6194 8.27431 2.64995L8.24635 2.68721C7.59399 3.55661 6.96256 4.7719 6.35206 6.33309ZM1.38956 12.4981L1.42448 12.6758L1.48504 12.7446L1.54096 12.6701L1.56427 12.4895L1.47344 12.3863L1.38956 12.4981Z" fill="#F8F7F2"/>
</g>
<defs>
<clipPath id="clip0_32_76">
<rect width="15" height="19" fill="white"/>
</clipPath>
</defs>
</svg>
