<svg width="25" height="44" viewBox="0 0 25 44" fill="none" xmlns="http://www.w3.org/2000/svg">
<path fill-rule="evenodd" clip-rule="evenodd" d="M12.4994 10C5.59647 10 0 15.5968 0 22.5006C0 28.0234 3.58077 32.7087 8.5484 34.3606C9.17404 34.4763 9.4016 34.0913 9.4016 33.759C9.4016 33.4628 9.39071 32.6772 9.38526 31.633C5.90801 32.3891 5.17436 29.957 5.17436 29.957C4.60577 28.5131 3.78622 28.1292 3.78622 28.1292C2.65128 27.3542 3.87244 27.3692 3.87244 27.3692C5.12692 27.458 5.78718 28.657 5.78718 28.657C6.90192 30.5673 8.71314 30.0144 9.425 29.6965C9.53814 28.8872 9.86186 28.3375 10.2186 28.0244C7.44327 27.709 4.52532 26.6365 4.52532 21.8468C4.52532 20.4817 5.01218 19.3657 5.81154 18.4917C5.68365 18.1769 5.25385 16.9061 5.93429 15.1843C5.93429 15.1843 6.98365 14.8484 9.37212 16.4667C10.3686 16.1881 11.4381 16.049 12.5013 16.0449C13.5628 16.0494 14.6327 16.1881 15.6304 16.4667C18.0173 14.8484 19.0651 15.1843 19.0651 15.1843C19.7471 16.9061 19.3176 18.1769 19.1894 18.4917C19.9907 19.3657 20.474 20.4817 20.474 21.8468C20.474 26.6478 17.5519 27.7054 14.7673 28.0138C15.2154 28.4 15.6154 29.1644 15.6154 30.3308C15.6154 32.001 15.6003 33.3487 15.6003 33.7587C15.6003 34.0936 15.825 34.483 16.4596 34.359C21.4218 32.7035 25 28.0218 25 22.5006C25 15.5968 19.4035 10 12.4994 10Z" fill="#1E1E1E"/>
</svg>
