<svg width="113" height="42" viewBox="0 0 113 42" fill="none" xmlns="http://www.w3.org/2000/svg">
<g clip-path="url(#clip0_1_208)">
<path d="M58.0816 13.9113L63.4339 13.5636C63.556 14.4433 63.7799 15.0979 64.1462 15.5684C64.7363 16.3049 65.5504 16.6732 66.629 16.6732C67.4227 16.6732 68.0535 16.489 68.4809 16.1003C68.8879 15.7935 69.1321 15.3025 69.1321 14.791C69.1321 14.3 68.9083 13.8295 68.5216 13.5226C68.1146 13.1544 67.1581 12.7862 65.6521 12.4588C63.1897 11.9065 61.4191 11.17 60.3812 10.2289C59.3433 9.34925 58.7532 8.0604 58.7939 6.68972C58.7939 5.74866 59.0788 4.8076 59.6079 4.0302C60.2184 3.15051 61.0528 2.45494 62.05 2.06625C63.1286 1.59571 64.6346 1.35022 66.5272 1.35022C68.8472 1.35022 70.6178 1.77983 71.8388 2.65952C73.0599 3.51875 73.7925 4.90989 74.0164 6.81247L68.7251 7.11934C68.5827 6.30102 68.2978 5.70775 67.8297 5.31905C67.3616 4.93035 66.7511 4.74623 65.9574 4.74623C65.3062 4.74623 64.8177 4.88943 64.4921 5.15538C64.1869 5.40088 63.9834 5.76912 64.0037 6.17828C64.0037 6.48514 64.1665 6.77155 64.4107 6.95567C64.6753 7.20117 65.3062 7.42621 66.3034 7.63078C68.7658 8.16269 70.516 8.69459 71.5946 9.24696C72.6732 9.79932 73.4465 10.4744 73.9146 11.2723C74.403 12.0906 74.6473 13.0317 74.6269 13.9932C74.6269 15.1388 74.3013 16.2845 73.6501 17.246C72.9785 18.2484 72.0423 19.0258 70.9434 19.4963C69.7834 20.0078 68.3181 20.2737 66.5679 20.2737C63.4746 20.2737 61.3377 19.6805 60.137 18.4735C58.9363 17.2664 58.224 15.7526 58.0816 13.9113ZM1.28211 19.9669V1.67755H10.6639C12.3937 1.67755 13.7369 1.82075 14.6527 2.12762C15.5481 2.41403 16.3418 3.00731 16.8709 3.80516C17.4611 4.68485 17.746 5.70774 17.7257 6.77155C17.7867 8.57185 16.8709 10.2903 15.3039 11.1905C14.6934 11.5382 14.0218 11.7837 13.3299 11.9065C13.8386 12.0497 14.3474 12.2952 14.7951 12.5816C15.1411 12.868 15.426 13.1953 15.6906 13.5431C15.9958 13.8909 16.2604 14.2796 16.4843 14.6887L19.2113 19.9873H12.8211L9.80915 14.3614C9.42249 13.6454 9.09687 13.1749 8.79161 12.9498C8.38459 12.6634 7.89617 12.5202 7.40774 12.5202H6.91932V19.9464H1.28211V19.9669ZM6.91932 9.08329H9.30038C9.80915 9.04238 10.2976 8.96055 10.786 8.8378C11.1523 8.77643 11.4779 8.57185 11.7018 8.26498C12.2513 7.5285 12.1699 6.48514 11.4983 5.85095C11.132 5.54408 10.4197 5.38042 9.40213 5.38042H6.91932V9.08329ZM0 35.6376L5.3523 35.2898C5.4744 36.1695 5.69826 36.8242 6.06458 37.2947C6.63441 38.0312 7.4688 38.4199 8.54739 38.4199C9.34108 38.4199 9.97196 38.2357 10.3993 37.847C10.8063 37.5197 11.0506 37.0492 11.0506 36.5377C11.0506 36.0468 10.8267 35.5762 10.44 35.2694C10.033 34.9011 9.07652 34.5329 7.5502 34.2056C5.08773 33.6532 3.3172 32.9167 2.27931 31.9756C1.24141 31.096 0.65123 29.8071 0.691932 28.4364C0.691932 27.4954 0.976845 26.5543 1.50597 25.7769C2.1165 24.8972 2.95089 24.2017 3.94808 23.813C5.02668 23.3424 6.53265 23.0969 8.42529 23.0969C10.7453 23.0969 12.5158 23.5265 13.7369 24.4062C14.9579 25.2859 15.6702 26.6566 15.8941 28.5592L10.6028 28.866C10.4604 28.0477 10.1755 27.4545 9.7074 27.0658C9.25968 26.6771 8.6288 26.4929 7.83511 26.5134C7.18388 26.5134 6.69546 26.6566 6.36984 26.943C6.04423 27.1885 5.86107 27.5567 5.88142 27.9659C5.88142 28.2728 6.04423 28.5592 6.28844 28.7433C6.553 28.9888 7.18388 29.2138 8.18108 29.4184C10.6435 29.9503 12.3937 30.4822 13.4723 31.0346C14.5509 31.5869 15.3243 32.2621 15.7923 33.0599C16.2808 33.8782 16.525 34.8193 16.525 35.7603C16.525 36.906 16.179 38.0312 15.5481 38.9927C14.8765 39.9951 13.9404 40.7725 12.8414 41.2431C11.6814 41.7545 10.2162 42.0205 8.46599 42.0205C5.37265 42.0205 3.2358 41.4272 2.03509 40.2202C0.834389 38.9927 0.162808 37.4788 0 35.6376Z" fill="#1E1E1E"/>
<path d="M27.0668 34.2055L31.9917 35.699C31.7271 36.9469 31.1777 38.1335 30.4247 39.1768C29.7327 40.0974 28.8169 40.8134 27.7791 41.284C26.7208 41.7545 25.3776 42 23.7496 42C21.7755 42 20.1474 41.7136 18.906 41.1408C17.6443 40.5679 16.5657 39.545 15.6499 38.0925C14.7341 36.64 14.2864 34.7784 14.2864 32.5075C14.2864 29.4798 15.0801 27.1476 16.6878 25.5314C18.2955 23.9152 20.5545 23.0969 23.485 23.0969C25.7847 23.0969 27.5755 23.5675 28.8984 24.4881C30.2008 25.4291 31.1777 26.8612 31.8289 28.7842L26.8633 29.8889C26.7412 29.4593 26.558 29.0297 26.3138 28.6615C26.0085 28.2318 25.6219 27.9045 25.1538 27.659C24.6857 27.4135 24.1566 27.3112 23.6275 27.3112C22.3453 27.3112 21.3685 27.8227 20.6969 28.866C20.1881 29.623 19.9236 30.83 19.9236 32.4666C19.9236 34.492 20.2289 35.8831 20.8394 36.64C21.4499 37.397 22.3046 37.7652 23.4239 37.7652C24.5025 37.7652 25.3166 37.4583 25.8661 36.8651C26.4155 36.2309 26.8226 35.3512 27.0668 34.2055ZM38.5651 23.4038H44.1819V29.8071H50.3279V23.4038H55.9855V41.6931H50.3279V34.2874H44.1819V41.6931H38.5651V23.4038Z" fill="#1E1E1E"/>
<path d="M55.2122 32.5484C55.2122 29.5616 56.0465 27.2294 57.695 25.5723C59.3434 23.9152 61.6634 23.0764 64.6143 23.0764C67.6466 23.0764 69.9666 23.8947 71.615 25.5314C73.2634 27.168 74.0775 29.4593 74.0775 32.4052C74.0775 34.5533 73.7112 36.2922 72.9989 37.6629C72.307 39.0131 71.2284 40.1178 69.9055 40.8543C68.542 41.6112 66.8529 41.9999 64.8382 41.9999C62.7827 41.9999 61.0936 41.6726 59.7504 41.018C58.3666 40.3224 57.2269 39.2381 56.4739 37.9084C55.6395 36.4763 55.2122 34.6965 55.2122 32.5484ZM60.829 32.5689C60.829 34.4101 61.175 35.7398 61.8466 36.5581C62.5181 37.356 63.4543 37.7652 64.6346 37.7652C65.8354 37.7652 66.7715 37.3765 67.4431 36.5786C68.1147 35.7808 68.4403 34.3692 68.4403 32.3234C68.4403 30.6049 68.0943 29.3365 67.4024 28.5591C66.7104 27.7613 65.7743 27.3726 64.5939 27.3726C63.556 27.3317 62.5589 27.7817 61.8669 28.5796C61.175 29.3774 60.829 30.7072 60.829 32.5689ZM79.8368 32.5484C79.8368 29.5616 80.6712 27.2294 82.3196 25.5723C83.968 23.9152 86.288 23.0764 89.2389 23.0764C92.2712 23.0764 94.6116 23.8947 96.2397 25.5314C97.8677 27.168 98.7021 29.4593 98.7021 32.4052C98.7021 34.5533 98.3358 36.2922 97.6235 37.6629C96.9316 39.0131 95.853 40.1178 94.5302 40.8543C93.1667 41.6112 91.4775 41.9999 89.4628 41.9999C87.4073 41.9999 85.7182 41.6726 84.3751 41.018C82.9912 40.3224 81.8515 39.2381 81.0986 37.9084C80.2642 36.4763 79.8368 34.6965 79.8368 32.5484ZM85.4537 32.5689C85.4537 34.4101 85.7996 35.7398 86.4712 36.5581C87.1428 37.356 88.0789 37.7652 89.2593 37.7652C90.46 37.7652 91.3961 37.3765 92.0677 36.5786C92.7393 35.7808 93.0649 34.3692 93.0649 32.3234C93.0649 30.6049 92.7189 29.3365 92.027 28.5591C91.3351 27.7613 90.3989 27.3726 89.2186 27.3726C88.1807 27.3317 87.1631 27.7817 86.4916 28.5796C85.7996 29.3774 85.4537 30.7072 85.4537 32.5689Z" fill="#1E1E1E"/>
<path d="M98.1119 23.4038H103.729V37.1924H112.5V41.6931H98.0916V23.4038H98.1119Z" fill="#1E1E1E"/>
<path d="M91.9209 22.3483C97.5758 18.0644 99.3197 10.8025 95.8158 6.12847C92.3119 1.45439 84.8871 1.13807 79.2322 5.42194C73.5772 9.70582 71.8334 16.9677 75.3373 21.6418C78.8412 26.3158 86.2659 26.6322 91.9209 22.3483Z" fill="#B74642"/>
<mask id="mask0_1_208" style="mask-type:luminance" maskUnits="userSpaceOnUse" x="73" y="2" width="25" height="24">
<path d="M91.9209 22.3483C97.5758 18.0644 99.3197 10.8025 95.8158 6.12847C92.3119 1.45439 84.8871 1.13807 79.2322 5.42194C73.5772 9.70582 71.8334 16.9677 75.3373 21.6418C78.8412 26.3158 86.2659 26.6322 91.9209 22.3483Z" fill="white"/>
</mask>
<g mask="url(#mask0_1_208)">
<path d="M60.9155 11.5669L90.138 -10.5703L110.359 16.404L81.1366 38.5412L60.9155 11.5669Z" fill="#B74642"/>
<mask id="mask1_1_208" style="mask-type:luminance" maskUnits="userSpaceOnUse" x="60" y="-11" width="51" height="50">
<path d="M60.9155 11.5669L90.138 -10.5703L110.359 16.404L81.1366 38.5412L60.9155 11.5669Z" fill="white"/>
</mask>
<g mask="url(#mask1_1_208)">
<path d="M91.9209 22.3483C97.5758 18.0644 99.3197 10.8025 95.8158 6.12847C92.3119 1.45439 84.8871 1.13807 79.2322 5.42194C73.5772 9.70582 71.8334 16.9677 75.3373 21.6418C78.8412 26.3158 86.2659 26.6322 91.9209 22.3483Z" fill="#B74642"/>
<mask id="mask2_1_208" style="mask-type:luminance" maskUnits="userSpaceOnUse" x="73" y="2" width="25" height="24">
<path d="M91.9209 22.3483C97.5758 18.0644 99.3197 10.8025 95.8158 6.12847C92.3119 1.45439 84.8871 1.13807 79.2322 5.42194C73.5772 9.70582 71.8334 16.9677 75.3373 21.6418C78.8412 26.3158 86.2659 26.6322 91.9209 22.3483Z" fill="white"/>
</mask>
<g mask="url(#mask2_1_208)">
<path d="M69.053 13.368L89.5155 -2.13258L102.216 14.8103L81.7536 30.3109L69.053 13.368Z" fill="#B74642"/>
<mask id="mask3_1_208" style="mask-type:luminance" maskUnits="userSpaceOnUse" x="69" y="-3" width="34" height="34">
<path d="M69.053 13.368L89.5155 -2.13258L102.216 14.8103L81.7536 30.3109L69.053 13.368Z" fill="white"/>
</mask>
<g mask="url(#mask3_1_208)">
<path d="M91.9209 22.3483C97.5758 18.0644 99.3197 10.8025 95.8158 6.12847C92.3119 1.45439 84.8871 1.13807 79.2322 5.42194C73.5772 9.70582 71.8334 16.9677 75.3373 21.6418C78.8412 26.3158 86.2659 26.6322 91.9209 22.3483Z" fill="#B74642" stroke="#1E1E1E" stroke-width="4" stroke-miterlimit="10"/>
</g>
<mask id="mask4_1_208" style="mask-type:luminance" maskUnits="userSpaceOnUse" x="71" y="-2" width="29" height="32">
<path d="M71.9688 23.5562L79.0453 -1.21542L99.3175 4.61929L92.2409 29.3909L71.9688 23.5562Z" fill="white"/>
</mask>
<g mask="url(#mask4_1_208)">
<path d="M69.053 13.3798L89.5268 -2.13256L102.216 14.7986L81.7423 30.311L69.053 13.3798Z" stroke="#1E1E1E" stroke-width="4" stroke-miterlimit="10"/>
</g>
<path d="M91.9209 22.3483C97.5758 18.0644 99.3197 10.8025 95.8158 6.12847C92.3119 1.45439 84.8871 1.13807 79.2322 5.42194C73.5772 9.70582 71.8334 16.9677 75.3373 21.6418C78.8412 26.3158 86.2659 26.6322 91.9209 22.3483Z" stroke="#1E1E1E" stroke-width="4" stroke-miterlimit="10"/>
<path d="M69.053 13.368L89.5155 -2.13258L102.216 14.8103L81.7536 30.3109L69.053 13.368Z" fill="#B74642"/>
<mask id="mask5_1_208" style="mask-type:luminance" maskUnits="userSpaceOnUse" x="69" y="-3" width="34" height="34">
<path d="M69.053 13.368L89.5155 -2.13258L102.216 14.8103L81.7536 30.3109L69.053 13.368Z" fill="white"/>
</mask>
<g mask="url(#mask5_1_208)">
<path d="M91.9209 22.3483C97.5758 18.0644 99.3197 10.8025 95.8158 6.12847C92.3119 1.45439 84.8871 1.13807 79.2322 5.42194C73.5772 9.70582 71.8334 16.9677 75.3373 21.6418C78.8412 26.3158 86.2659 26.6322 91.9209 22.3483Z" fill="#B74642" stroke="#1E1E1E" stroke-width="4" stroke-miterlimit="10"/>
</g>
<mask id="mask6_1_208" style="mask-type:luminance" maskUnits="userSpaceOnUse" x="71" y="-2" width="29" height="32">
<path d="M71.9688 23.5562L79.0453 -1.21542L99.3175 4.61929L92.2409 29.3909L71.9688 23.5562Z" fill="white"/>
</mask>
<g mask="url(#mask6_1_208)">
<path d="M69.053 13.3798L89.5268 -2.13256L102.216 14.7986L81.7423 30.311L69.053 13.3798Z" stroke="#1E1E1E" stroke-width="4" stroke-miterlimit="10"/>
</g>
<path d="M60.9155 11.5669L90.138 -10.5703L110.359 16.404L81.1366 38.5412L60.9155 11.5669Z" stroke="#1E1E1E" stroke-width="4" stroke-miterlimit="10"/>
</g>
<path d="M91.9209 22.3483C97.5758 18.0644 99.3197 10.8025 95.8158 6.12847C92.3119 1.45439 84.8871 1.13807 79.2322 5.42194C73.5772 9.70582 71.8334 16.9677 75.3373 21.6418C78.8412 26.3158 86.2659 26.6322 91.9209 22.3483Z" stroke="#1E1E1E" stroke-width="4" stroke-miterlimit="10"/>
<path d="M79.8571 12.5406L81.8922 11.1085L84.3953 14.6887C84.8227 15.2615 85.1483 15.8752 85.3925 16.5503C85.535 17.0618 85.4943 17.6141 85.2908 18.1051C85.0262 18.7189 84.5988 19.2303 84.029 19.5985C83.3574 20.0691 82.7876 20.335 82.2992 20.4169C81.8311 20.4987 81.3427 20.4169 80.895 20.2123C80.4066 19.9668 79.9792 19.619 79.6536 19.1689L81.4037 17.5323C81.5462 17.7573 81.7294 17.9619 81.9329 18.1256C82.0753 18.2279 82.2381 18.2892 82.4213 18.2892C82.5638 18.2892 82.7062 18.2279 82.808 18.146C83.0115 18.0233 83.1539 17.7778 83.1336 17.5323C83.0725 17.1845 82.9301 16.8367 82.7062 16.5708L79.8571 12.5406ZM85.9624 14.8114L87.8143 13.3384C88.0178 13.5839 88.2824 13.7681 88.5673 13.8703C88.9743 13.9931 89.4017 13.9113 89.7476 13.6453C89.9918 13.4816 90.1954 13.2566 90.2768 12.9702C90.3989 12.602 90.1954 12.1928 89.829 12.07C89.768 12.0496 89.7069 12.0291 89.6459 12.0291C89.4017 12.0087 88.9743 12.111 88.3434 12.3769C87.3055 12.8065 86.4915 12.9702 85.881 12.9088C85.2908 12.8474 84.7413 12.5406 84.4157 12.0291C84.1715 11.6813 84.0494 11.2722 84.029 10.863C84.029 10.3925 84.1511 9.92197 84.4157 9.53327C84.8024 8.98091 85.2704 8.51038 85.8402 8.14214C86.695 7.54886 87.448 7.26245 88.0992 7.26245C88.7504 7.26245 89.361 7.56932 89.9308 8.20351L88.0992 9.65602C87.7329 9.18549 87.041 9.0832 86.5729 9.45144L86.5118 9.51282C86.3083 9.63556 86.1659 9.81968 86.0845 10.0447C86.0234 10.2084 86.0641 10.3925 86.1659 10.5357C86.2473 10.638 86.3694 10.7198 86.5118 10.7198C86.6746 10.7403 86.9596 10.6585 87.3666 10.4743C88.3841 10.0447 89.1575 9.79923 89.6866 9.7174C90.1343 9.63556 90.6024 9.67648 91.0297 9.8606C91.4164 10.0243 91.742 10.3107 91.9659 10.6585C92.2508 11.0676 92.4136 11.5586 92.434 12.07C92.4543 12.602 92.3119 13.1134 92.0269 13.5635C91.6606 14.1158 91.1925 14.5864 90.6431 14.9546C89.5238 15.732 88.608 16.0593 87.8753 15.9366C87.0817 15.8138 86.4304 15.4047 85.9624 14.8114Z" fill="#1E1E1E"/>
</g>
</g>
</g>
<defs>
<clipPath id="clip0_1_208">
<rect width="112.5" height="42" fill="white"/>
</clipPath>
</defs>
</svg>
