<svg width="54" height="54" viewBox="0 0 54 54" fill="none" xmlns="http://www.w3.org/2000/svg">
<rect width="54" height="54" rx="8" fill="#1E1E1E"/>
<path d="M38.2656 8.41406C39.1875 8.53906 39.6484 8.71094 39.6484 8.92969L40.7734 12.2812L41.5234 14.9531C41.8672 16.5469 42.3125 18.2656 42.8594 20.1094C42.8906 20.0938 42.9219 20.0859 42.9531 20.0859V20.3203H42.9297C42.9453 20.3672 42.9609 20.4219 42.9766 20.4844C43.0078 20.5469 43.0234 20.5938 43.0234 20.625L43.4688 21.5859L43.5859 22.1719L43.5391 22.4297C43.7109 22.5547 43.9062 22.625 44.125 22.6406H44.5938H44.6172C44.7891 22.6719 44.8906 22.7109 44.9219 22.7578L44.7812 23.0391L44.8047 23.4375C44.8047 23.6094 44.7266 23.7734 44.5703 23.9297H44.4766C44.3516 23.8047 44.25 23.7422 44.1719 23.7422H44.125C43.9688 23.7422 43.8828 23.7891 43.8672 23.8828C43.8672 23.9297 44.0078 23.9609 44.2891 23.9766V24.0469C44.2891 24.1094 44.1953 24.1484 44.0078 24.1641L43.7031 24.0703H43.4688L42.0156 24.2109C41.6875 24.2109 41.2812 24.0156 40.7969 23.625L40.9844 23.4375V23.3438L40.75 22.8516C40.75 22.6641 41.0391 22.5703 41.6172 22.5703L41.6406 22.5234V22.4297C41.6406 21.7266 41.3203 20.9375 40.6797 20.0625H40.6562C39.0312 20.1875 37.1328 20.3516 34.9609 20.5547H34.4453C34.3828 20.6172 34.1719 21.2422 33.8125 22.4297C33.875 22.4922 33.9609 22.5234 34.0703 22.5234H34.5391C35.0859 22.5234 35.5547 22.7422 35.9453 23.1797V23.2031C35.9453 23.3125 35.7422 23.5234 35.3359 23.8359C35.3359 24.0078 34.1484 24.0938 31.7734 24.0938C31.3828 24.0781 31.1875 24.0312 31.1875 23.9531L31.2812 23.6484V23.625C31.2812 23.5625 31.2188 23.4219 31.0938 23.2031C31.0938 23.1094 31.2344 22.9922 31.5156 22.8516L31.5391 22.7812V22.4297C31.5391 22.2891 31.6172 22.2188 31.7734 22.2188L31.8672 22.3125L31.7734 22.5938L31.7969 22.6172H31.8203C32.0078 22.3516 32.1016 22.1641 32.1016 22.0547V21.9609C32.1016 21.8672 32.0781 21.8203 32.0312 21.8203C32.1875 21.5391 32.3125 21.1641 32.4062 20.6953L33.625 17.3203L34.0703 16.2188C34.0703 16.0781 34.2109 15.8438 34.4922 15.5156V15.4688L34.4219 15.2344C34.5938 15.1094 34.6797 15.0078 34.6797 14.9297L34.6094 14.8594C34.6094 14.7031 34.7031 14.5391 34.8906 14.3672L34.8672 14.2031L35.9453 11.0391C36.2109 10.5703 36.4531 10.0078 36.6719 9.35156C36.7188 9.35156 36.8359 9.20312 37.0234 8.90625C37.6641 8.59375 38.0781 8.42969 38.2656 8.41406ZM34.8906 18.8438V18.9609L34.9609 19.0078C37.0078 18.6797 38.6172 18.5156 39.7891 18.5156H40.75L40.8203 18.4219V18.3984C40.7422 17.8359 40.6016 17.5547 40.3984 17.5547L38.9219 13.1016C38.75 12.4609 38.5781 11.9453 38.4062 11.5547C38.3281 11.3672 38.2344 11.2344 38.125 11.1562C38.125 11.3125 38.1172 11.4766 38.1016 11.6484C37.0078 13.8359 36.2188 15.3203 35.7344 16.1016C35.4844 16.5859 35.2031 17.5 34.8906 18.8438ZM43.7969 23.3438V23.3906H43.8203C44.1328 23.3906 44.2891 23.3438 44.2891 23.25L44.1719 23.1562C44.0469 23.1562 43.9219 23.2188 43.7969 23.3438ZM38.0312 10.7109H38.0547C38.1953 10.7109 38.2656 10.6484 38.2656 10.5234V10.4297H38.1953C38.0859 10.4922 38.0312 10.5859 38.0312 10.7109ZM38.7344 8.76562H38.6172V8.88281L38.6875 8.95312H38.875L38.9219 8.90625V8.88281C38.8906 8.80469 38.8281 8.76562 38.7344 8.76562ZM39.0156 18.8906L38.9688 18.9844L39.0156 19.0312H39.1328C39.2734 19.0312 39.3516 19 39.3672 18.9375V18.8906H39.0156ZM42.6953 20.8594H42.0156V20.9531L42.6953 20.9062V20.8594ZM33.6484 20.7422H33.6016L33.5781 20.8828L33.6016 21H33.6484L33.7188 20.9297V20.7656L33.6484 20.7422ZM41.8281 24.0703V24.1172H41.9219C42.0156 24.1172 42.0703 24.0859 42.0859 24.0234L42.0391 23.9531C41.9297 23.9531 41.8594 23.9922 41.8281 24.0703ZM32.7344 20.9062L32.5703 21.0469V21.1172C32.6953 21.1172 32.7656 21.0625 32.7812 20.9531L32.7344 20.9062ZM40.4688 18.1172L40.5625 18L40.5859 18.0234V18.2109L40.5156 18.2812L40.4688 18.1172ZM35.3594 15.2812L35.2891 14.8125L35.2656 14.9531V15.0234H35.2891C35.3359 15.2891 35.3594 15.3906 35.3594 15.3281V15.2812ZM43.1172 22.1953H43.0938V22.3594L43.1641 22.4297H43.1875V22.2656L43.1172 22.1953ZM32.5703 22.4297L32.4766 22.4531V22.5234L32.5469 22.5938H32.5703L32.6172 22.5234L32.5703 22.4297ZM38.125 9.5625H38.1016V9.60938L38.1484 9.67969H38.1953V9.60938L38.125 9.5625ZM37.2578 19.3594H37.1875V19.4297H37.2578V19.3594ZM35.125 15.5391H35.1016V15.6094H35.125V15.5391ZM35.7812 31.6094L35.4766 31.1875C35.9453 31.1406 36.2578 31.1172 36.4141 31.1172C38.2109 31.0234 39.2031 30.9453 39.3906 30.8828L40.7031 30.8359C40.9531 30.8516 41.0781 30.9219 41.0781 31.0469C41.0312 31.1094 41.0078 31.2109 41.0078 31.3516C41.1016 31.4609 41.1484 31.5312 41.1484 31.5625V32.2891L41.1719 32.3125C41.1719 32.6562 40.8281 33.2422 40.1406 34.0703C39.8594 34.4609 39.6094 34.9141 39.3906 35.4297C39.3281 35.4922 39.1328 35.8516 38.8047 36.5078C37.9297 37.8516 37.1406 39.2109 36.4375 40.5859C36.375 40.6172 36.1719 40.9297 35.8281 41.5234C35.4531 41.9766 34.9688 42.7344 34.375 43.7969V43.8203C34.4062 43.8984 34.5 43.9375 34.6562 43.9375H34.6797L36.9297 43.7969C37.6484 43.7969 38.5938 43.8672 39.7656 44.0078C39.9062 44.0078 40.0547 43.5312 40.2109 42.5781L40.3516 42.7422C40.4141 42.5859 40.5156 42.4688 40.6562 42.3906C41.5 42.5312 41.8984 42.5391 41.8516 42.4141C42.0078 42.4297 42.1406 43.5391 42.25 45.7422C42.0469 45.7266 40.3359 45.7578 37.1172 45.8359L33.7891 46.1172C33.6016 46.2109 33.3906 46.2578 33.1562 46.2578L32.6641 46.0703L32.1016 46.1406H32.0547C31.6328 46.1406 31.3906 46.0625 31.3281 45.9062L31.375 45.7891V45.5078C31.4062 44.9453 32.1328 43.7422 33.5547 41.8984C33.5703 41.8203 34.0703 41.0469 35.0547 39.5781C36.1797 37.6719 37.2812 35.9688 38.3594 34.4688C38.5 34.2656 38.8438 33.8516 39.3906 33.2266L39.4141 33.1094C39.3359 33.0625 39.1719 33.0391 38.9219 33.0391H38.875C38.1875 33.0391 37.0078 33.1719 35.3359 33.4375H35.2422L34.0234 33.3438L33.8359 33.7422L34 35.0781C34 35.25 33.4844 35.3828 32.4531 35.4766C32.25 35.0547 32.1484 34.6719 32.1484 34.3281V33.8125V33.4844L32.1953 31.9844L32.0547 31.6094C32.1016 31.6094 32.2109 31.4766 32.3828 31.2109C32.4609 31.1328 32.7422 31.2266 33.2266 31.4922C33.1016 31.3672 33.0391 31.2891 33.0391 31.2578V31.2109L33.0625 31.1875L33.4375 31.4688C34.0625 31.4062 34.6016 31.3359 35.0547 31.2578L34.8906 31.3047V31.3516H35.0078C35.5547 31.6328 35.8281 31.7266 35.8281 31.6328L35.7812 31.6094ZM36.2031 31.4688C36.2031 31.5312 36.9453 31.5781 38.4297 31.6094L38.9688 31.7031C39.1094 31.6406 39.25 31.6094 39.3906 31.6094H39.8125L40.4219 31.1641V31.1172C40.1406 31.2109 39.8516 31.2578 39.5547 31.2578C37.3203 31.3047 36.2031 31.375 36.2031 31.4688ZM38.2656 35.6641V35.7812C38.4062 35.7812 38.7812 35.3359 39.3906 34.4453L40.375 33.1562V33.1094H40.2812C40 33.1094 39.6484 33.3984 39.2266 33.9766C39.0547 34.3516 38.7344 34.9141 38.2656 35.6641ZM39.9297 31.9609L39.7422 32.0078L38.1953 31.9844C37.9609 32.1094 37.6875 32.2109 37.375 32.2891V32.3125L37.7031 32.3828H37.8672L39.0625 32.1719C39.4219 32.1562 39.7188 32.1016 39.9531 32.0078V31.9609H39.9297ZM33.4141 32.0781H33.3906L33.4141 32.5703H33.4609C33.5859 32.4453 33.6797 32.3828 33.7422 32.3828L34.3281 32.4062H34.7266V32.3359C34.7266 32.2422 34.2891 32.1562 33.4141 32.0781ZM35.9219 40.3516V40.375C36.0781 40.375 36.2578 40.0703 36.4609 39.4609C36.6484 39.2578 36.7422 39.1094 36.7422 39.0156V38.9688C36.5078 38.9688 36.2344 39.4297 35.9219 40.3516ZM41.5 45.4141C41.5469 45.5547 41.6328 45.625 41.7578 45.625C41.8359 45.625 41.875 45.6016 41.875 45.5547L41.8047 44.6875H41.7344C41.6406 44.6875 41.5625 44.9297 41.5 45.4141ZM35.8516 45.4609V45.5078L36.2031 45.5312H36.3672C36.9141 45.5312 37.3125 45.5078 37.5625 45.4609V45.3906L37.4219 45.3672H37.3984C36.6797 45.3672 36.1641 45.3984 35.8516 45.4609ZM34.4219 45.625V45.6953L34.4688 45.7422H34.5156C34.9219 45.7422 35.1641 45.6797 35.2422 45.5547C35.2422 45.5391 35.1094 45.5156 34.8438 45.4844C34.5625 45.5156 34.4219 45.5625 34.4219 45.625ZM33.7891 43.3516L33.7422 43.4688V43.5156C34.0859 43.1875 34.3594 42.8281 34.5625 42.4375V42.3672C34.3125 42.6016 34.0547 42.9297 33.7891 43.3516ZM38.6641 31.7266L37.5156 31.7734H37.4688V31.7969H39.1094L39.1562 31.7734L38.6641 31.7266ZM34.6562 32.9219V33.0391H34.6797L35.4766 32.9219V32.8984L35.4062 32.8281H35.0547C34.9141 32.8281 34.7812 32.8594 34.6562 32.9219ZM31.7734 45.6953L31.8438 45.7891H32.2188L32.3125 45.6953V45.6719L32.2188 45.5547H32.0547C31.8828 45.5547 31.7891 45.6016 31.7734 45.6953ZM34.4219 31.7969L34.3516 31.8672V31.9375L34.6562 31.9609C34.8438 31.9609 34.9375 31.9297 34.9375 31.8672V31.8438L34.7969 31.7969H34.4219ZM32.3828 34.7969L32.4297 34.8906H32.4766C32.5859 34.8281 32.6719 34.7188 32.7344 34.5625L32.6875 34.4922H32.5938C32.5156 34.5234 32.4453 34.625 32.3828 34.7969ZM34.2344 44.3594H34.8203L34.8906 44.2891L34.8203 44.2422H34.6797C34.3828 44.2422 34.2344 44.2812 34.2344 44.3594ZM40.3281 45.2031L40.1875 45.3203L40.2344 45.3906H40.375C40.4844 45.3906 40.5469 45.3594 40.5625 45.2969L40.4688 45.2031H40.3281ZM37.8438 44.0547L37.75 44.1484C37.75 44.1953 37.7812 44.2188 37.8438 44.2188C38.0312 44.1875 38.125 44.1484 38.125 44.1016L38.1016 44.0547H37.8438ZM40.4219 43.6797L40.3281 43.7969V43.8906L40.375 43.9375H40.3984C40.4766 43.9062 40.5156 43.8438 40.5156 43.75V43.6797H40.4219ZM34.0469 45.6953L33.9766 45.7891V45.8828H34.2109L34.2812 45.7891L34.2344 45.6953H34.0469ZM39.7422 44.7812H39.5547V44.8047C39.5547 44.8516 39.625 44.8906 39.7656 44.9219L39.8125 44.875V44.8516L39.7422 44.7812ZM36.5312 31.8906H36.4141V31.9375C36.4297 31.9844 36.4922 32.0078 36.6016 32.0078V31.9609L36.5312 31.8906ZM35.4766 31.1875H35.4531L35.0781 31.2578C35.2188 31.2109 35.3516 31.1875 35.4766 31.1875ZM32.4531 33.3906H32.3828V33.4609L32.4531 33.5078H32.5234V33.4609L32.4531 33.3906ZM38.6406 45.3203H38.5469V45.3906H38.6406V45.3203Z" fill="#B74642"/>
<path d="M12.8437 15.4688L12.9374 12.875L14.9999 12.7812C15.5208 12.7812 15.7812 12.9375 15.7812 13.25C15.6562 14.0417 15.5937 15.0938 15.5937 16.4062V21.3125L15.5624 26.0312L15.5937 27.2812L15.8749 35.75L12.6249 35.875C12.8124 34.125 12.9062 33.0417 12.9062 32.625C12.9895 32.0208 13.0937 29.7396 13.2187 25.7812C13.0937 24.5312 12.9687 21.0938 12.8437 15.4688ZM13.0937 13.25L13.0312 13.3438L13.2499 13.4062H13.5624L13.6874 13.3125V13.25H13.0937ZM14.0937 14.4688V14.5L14.1874 14.5938H14.2812C14.4895 14.4479 14.7291 14.3229 14.9999 14.2188C15.0833 14.0729 15.1249 13.9479 15.1249 13.8438L15.0624 13.7812H14.9999C14.7916 13.7812 14.6041 13.8958 14.4374 14.125C14.2083 14.1875 14.0937 14.3021 14.0937 14.4688ZM13.7499 16.5L13.6874 16.5938V16.7188L13.7499 16.8125H13.8124L13.8749 16.7188V16.5938L13.8124 16.5H13.7499ZM13.6874 18.25L13.6249 18.3438V18.4062H13.7499V18.25H13.6874ZM15.0624 20.4062H14.9999V20.4375L15.0937 20.5938H15.1249V20.5L15.0624 20.4062ZM15.1249 20.9688L15.0312 20.875L14.9687 21.5L14.9999 21.875H15.0312C15.0937 21.875 15.1249 21.7292 15.1249 21.4375V20.9688ZM13.4999 21.6875V21.8125L13.5624 21.875L13.6562 21.8125V21.6562L13.6249 21.5938C13.6249 21.5729 13.7083 21.5104 13.8749 21.4062V21.3125H13.7187C13.5729 21.3958 13.4999 21.5208 13.4999 21.6875ZM15.0937 22.0938H14.9999L14.9687 22.3438H15.0312L15.0937 22.2812V22.0938ZM13.9687 25.6562V25.75H13.9999C14.1458 25.75 14.2187 25.3229 14.2187 24.4688C14.1145 24.4688 14.0312 24.8646 13.9687 25.6562ZM14.6562 27.125L14.5937 27.1875L14.5312 29.1562V31.7812L14.5937 33L14.6562 33.0312H14.8749C14.9166 33.0312 14.9583 32.9375 14.9999 32.75C14.9374 29 14.8229 27.125 14.6562 27.125ZM13.3749 31.7812V31.9062C13.3958 32.0521 13.4374 32.125 13.4999 32.125L13.6562 31.9375V31.7188C13.6354 31.4688 13.5833 31.3438 13.4999 31.3438C13.4166 31.3438 13.3749 31.4896 13.3749 31.7812Z" fill="#B74642"/>
<path d="M15.8326 36.5149L15.9081 36.6516C15.9686 36.761 15.3088 37.2684 13.9286 38.1737L13.9437 38.2011C13.7431 38.3119 13.0652 37.4726 11.9099 35.6831C10.3017 33.7631 9.35145 32.5387 9.05927 32.0098L9.11398 31.9796C9.25986 31.899 9.8512 32.5601 10.888 33.9628C11.4249 34.5468 11.7298 34.8187 11.8028 34.7784L11.8301 34.7632L11.679 34.4897C10.3625 32.4085 9.46719 31.4988 8.99308 31.7608L8.76277 31.6024C8.42022 30.9824 8.89629 30.3148 10.191 29.5994C10.5375 29.408 11.1766 29.9832 12.1083 31.3249C12.163 31.2947 12.2407 31.3708 12.3415 31.5531L12.5343 32.1606L12.6854 32.4342L15.8326 36.5149ZM15.0653 36.2247L14.9473 36.0757L14.8652 36.121L15.0013 36.3672L15.1315 36.4738L15.1862 36.4435L15.0653 36.2247ZM13.9815 35.0384L14.1628 35.3667C14.2636 35.549 14.3555 35.6291 14.4385 35.6071L14.4658 35.592L14.4356 35.5373C14.1876 35.1745 14.0362 35.0082 13.9815 35.0384ZM12.907 33.7398L12.8523 33.7701C12.9631 33.9707 13.0783 34.0498 13.1978 34.0076L13.1222 33.8709C13.0517 33.7432 12.9799 33.6995 12.907 33.7398ZM13.5733 35.6567L13.9058 36.2584C14.2647 36.8218 14.523 37.0956 14.6809 37.0798L14.7356 37.0495L14.7147 36.8825C14.0632 36.0048 13.6827 35.5962 13.5733 35.6567ZM11.9628 32.5478L11.8534 32.6083L11.8685 32.6356C12.08 33.0185 12.3142 33.27 12.5709 33.39L12.6256 33.3598L12.5954 33.3051C12.4745 33.0862 12.2636 32.8338 11.9628 32.5478ZM10.6178 30.1134L10.4479 30.0644L10.0923 30.2609L10.0678 30.3458L10.0981 30.4005C10.1283 30.4552 10.267 30.4262 10.5141 30.3135L10.5962 30.2682L10.648 30.1681L10.6178 30.1134ZM11.056 30.9066L10.9013 30.885L10.8466 30.9153L10.9221 31.052L11.0344 31.0614L11.1165 31.016L11.056 30.9066ZM13.2588 35.1521L13.2286 35.0974L13.1739 35.1276L13.2343 35.237L13.2588 35.1521ZM12.2418 35.2499L12.2144 35.265L12.2446 35.3197C13.196 36.9124 13.7173 37.6835 13.8085 37.6332L13.8632 37.6029C13.8977 37.5363 13.9222 37.4513 13.9366 37.3482L13.9215 37.3208C13.5689 36.6826 13.009 35.9923 12.2418 35.2499ZM9.82166 30.4818L9.70938 30.4725L9.65467 30.5027L9.6849 30.5574L9.78494 30.6092L9.867 30.5639L9.82166 30.4818Z" fill="#B74642"/>
<path d="M15.6866 37.7247L15.5806 37.8395C15.4958 37.9313 14.8064 37.4649 13.5124 36.4402L13.4912 36.4632C13.3228 36.3077 13.9059 35.3999 15.2403 33.7397C16.556 31.6085 17.4187 30.321 17.8286 29.8771L17.8745 29.9195C17.9969 30.0326 17.5558 30.802 16.5512 32.2279C16.166 32.9215 16.004 33.2965 16.0652 33.353L16.0882 33.3742L16.3002 33.1446C17.8608 31.2396 18.442 30.1033 18.0441 29.7358L18.1218 29.4673C18.6024 28.9469 19.386 29.1884 20.4728 30.1919C20.7636 30.4604 20.419 31.2482 19.4391 32.5551C19.485 32.5975 19.4373 32.6953 19.296 32.8483L18.7801 33.2227L18.5681 33.4523L15.6866 37.7247ZM15.7203 36.9051L15.8245 36.7462L15.7556 36.6826L15.5648 36.8892L15.5048 37.0464L15.5507 37.0888L15.7203 36.9051ZM16.5048 35.5027L16.2504 35.7783C16.109 35.9313 16.0619 36.0438 16.109 36.1156L16.132 36.1368L16.1744 36.0909C16.4405 35.7412 16.5507 35.5451 16.5048 35.5027ZM17.3987 34.0739L17.3528 34.0315C17.1974 34.1999 17.1585 34.3341 17.2362 34.4342L17.3422 34.3194C17.4411 34.2123 17.46 34.1304 17.3987 34.0739ZM15.7894 35.3101L15.323 35.8152C14.9014 36.3333 14.7229 36.6647 14.7877 36.8096L14.8336 36.852L14.9855 36.7796C15.6133 35.8847 15.8812 35.3949 15.7894 35.3101ZM18.2326 32.8022L18.1408 32.7174L18.1196 32.7404C17.8228 33.0618 17.6579 33.3633 17.6249 33.6447L17.6708 33.6871L17.7132 33.6412C17.8828 33.4575 18.0559 33.1779 18.2326 32.8022ZM20.1194 30.7588L20.1124 30.5822L19.8139 30.3066L19.7256 30.3101L19.6832 30.356C19.6408 30.402 19.712 30.5244 19.8968 30.7235L19.9657 30.7871L20.077 30.8048L20.1194 30.7588ZM19.5046 31.4247L19.4764 31.271L19.4305 31.2286L19.3245 31.3434L19.3509 31.4529L19.4198 31.5165L19.5046 31.4247ZM16.1692 34.8527L16.2116 34.8068L16.1657 34.7644L16.0809 34.8562L16.1692 34.8527ZM15.756 33.9182L15.7331 33.897L15.6907 33.9429C14.4788 35.3476 13.9111 36.0853 13.9876 36.1559L14.0335 36.1983C14.1077 36.2101 14.196 36.2066 14.2985 36.1878L14.3197 36.1648C14.8143 35.6291 15.2931 34.8802 15.756 33.9182ZM19.5189 30.1193L19.4925 30.0098L19.4465 29.9674L19.4041 30.0133L19.3865 30.1246L19.4553 30.1882L19.5189 30.1193Z" fill="#B74642"/>
</svg>
