<svg width="54" height="54" viewBox="0 0 54 54" fill="none" xmlns="http://www.w3.org/2000/svg">
<rect width="54" height="54" rx="8" fill="#1E1E1E"/>
<path d="M38.2656 8.41406C39.1875 8.53906 39.6484 8.71094 39.6484 8.92969L40.7734 12.2812L41.5234 14.9531C41.8672 16.5469 42.3125 18.2656 42.8594 20.1094C42.8906 20.0938 42.9219 20.0859 42.9531 20.0859V20.3203H42.9297C42.9453 20.3672 42.9609 20.4219 42.9766 20.4844C43.0078 20.5469 43.0234 20.5938 43.0234 20.625L43.4688 21.5859L43.5859 22.1719L43.5391 22.4297C43.7109 22.5547 43.9062 22.625 44.125 22.6406H44.5938H44.6172C44.7891 22.6719 44.8906 22.7109 44.9219 22.7578L44.7812 23.0391L44.8047 23.4375C44.8047 23.6094 44.7266 23.7734 44.5703 23.9297H44.4766C44.3516 23.8047 44.25 23.7422 44.1719 23.7422H44.125C43.9688 23.7422 43.8828 23.7891 43.8672 23.8828C43.8672 23.9297 44.0078 23.9609 44.2891 23.9766V24.0469C44.2891 24.1094 44.1953 24.1484 44.0078 24.1641L43.7031 24.0703H43.4688L42.0156 24.2109C41.6875 24.2109 41.2812 24.0156 40.7969 23.625L40.9844 23.4375V23.3438L40.75 22.8516C40.75 22.6641 41.0391 22.5703 41.6172 22.5703L41.6406 22.5234V22.4297C41.6406 21.7266 41.3203 20.9375 40.6797 20.0625H40.6562C39.0312 20.1875 37.1328 20.3516 34.9609 20.5547H34.4453C34.3828 20.6172 34.1719 21.2422 33.8125 22.4297C33.875 22.4922 33.9609 22.5234 34.0703 22.5234H34.5391C35.0859 22.5234 35.5547 22.7422 35.9453 23.1797V23.2031C35.9453 23.3125 35.7422 23.5234 35.3359 23.8359C35.3359 24.0078 34.1484 24.0938 31.7734 24.0938C31.3828 24.0781 31.1875 24.0312 31.1875 23.9531L31.2812 23.6484V23.625C31.2812 23.5625 31.2188 23.4219 31.0938 23.2031C31.0938 23.1094 31.2344 22.9922 31.5156 22.8516L31.5391 22.7812V22.4297C31.5391 22.2891 31.6172 22.2188 31.7734 22.2188L31.8672 22.3125L31.7734 22.5938L31.7969 22.6172H31.8203C32.0078 22.3516 32.1016 22.1641 32.1016 22.0547V21.9609C32.1016 21.8672 32.0781 21.8203 32.0312 21.8203C32.1875 21.5391 32.3125 21.1641 32.4062 20.6953L33.625 17.3203L34.0703 16.2188C34.0703 16.0781 34.2109 15.8438 34.4922 15.5156V15.4688L34.4219 15.2344C34.5938 15.1094 34.6797 15.0078 34.6797 14.9297L34.6094 14.8594C34.6094 14.7031 34.7031 14.5391 34.8906 14.3672L34.8672 14.2031L35.9453 11.0391C36.2109 10.5703 36.4531 10.0078 36.6719 9.35156C36.7188 9.35156 36.8359 9.20312 37.0234 8.90625C37.6641 8.59375 38.0781 8.42969 38.2656 8.41406ZM34.8906 18.8438V18.9609L34.9609 19.0078C37.0078 18.6797 38.6172 18.5156 39.7891 18.5156H40.75L40.8203 18.4219V18.3984C40.7422 17.8359 40.6016 17.5547 40.3984 17.5547L38.9219 13.1016C38.75 12.4609 38.5781 11.9453 38.4062 11.5547C38.3281 11.3672 38.2344 11.2344 38.125 11.1562C38.125 11.3125 38.1172 11.4766 38.1016 11.6484C37.0078 13.8359 36.2188 15.3203 35.7344 16.1016C35.4844 16.5859 35.2031 17.5 34.8906 18.8438ZM43.7969 23.3438V23.3906H43.8203C44.1328 23.3906 44.2891 23.3438 44.2891 23.25L44.1719 23.1562C44.0469 23.1562 43.9219 23.2188 43.7969 23.3438ZM38.0312 10.7109H38.0547C38.1953 10.7109 38.2656 10.6484 38.2656 10.5234V10.4297H38.1953C38.0859 10.4922 38.0312 10.5859 38.0312 10.7109ZM38.7344 8.76562H38.6172V8.88281L38.6875 8.95312H38.875L38.9219 8.90625V8.88281C38.8906 8.80469 38.8281 8.76562 38.7344 8.76562ZM39.0156 18.8906L38.9688 18.9844L39.0156 19.0312H39.1328C39.2734 19.0312 39.3516 19 39.3672 18.9375V18.8906H39.0156ZM42.6953 20.8594H42.0156V20.9531L42.6953 20.9062V20.8594ZM33.6484 20.7422H33.6016L33.5781 20.8828L33.6016 21H33.6484L33.7188 20.9297V20.7656L33.6484 20.7422ZM41.8281 24.0703V24.1172H41.9219C42.0156 24.1172 42.0703 24.0859 42.0859 24.0234L42.0391 23.9531C41.9297 23.9531 41.8594 23.9922 41.8281 24.0703ZM32.7344 20.9062L32.5703 21.0469V21.1172C32.6953 21.1172 32.7656 21.0625 32.7812 20.9531L32.7344 20.9062ZM40.4688 18.1172L40.5625 18L40.5859 18.0234V18.2109L40.5156 18.2812L40.4688 18.1172ZM35.3594 15.2812L35.2891 14.8125L35.2656 14.9531V15.0234H35.2891C35.3359 15.2891 35.3594 15.3906 35.3594 15.3281V15.2812ZM43.1172 22.1953H43.0938V22.3594L43.1641 22.4297H43.1875V22.2656L43.1172 22.1953ZM32.5703 22.4297L32.4766 22.4531V22.5234L32.5469 22.5938H32.5703L32.6172 22.5234L32.5703 22.4297ZM38.125 9.5625H38.1016V9.60938L38.1484 9.67969H38.1953V9.60938L38.125 9.5625ZM37.2578 19.3594H37.1875V19.4297H37.2578V19.3594ZM35.125 15.5391H35.1016V15.6094H35.125V15.5391ZM35.7812 31.6094L35.4766 31.1875C35.9453 31.1406 36.2578 31.1172 36.4141 31.1172C38.2109 31.0234 39.2031 30.9453 39.3906 30.8828L40.7031 30.8359C40.9531 30.8516 41.0781 30.9219 41.0781 31.0469C41.0312 31.1094 41.0078 31.2109 41.0078 31.3516C41.1016 31.4609 41.1484 31.5312 41.1484 31.5625V32.2891L41.1719 32.3125C41.1719 32.6562 40.8281 33.2422 40.1406 34.0703C39.8594 34.4609 39.6094 34.9141 39.3906 35.4297C39.3281 35.4922 39.1328 35.8516 38.8047 36.5078C37.9297 37.8516 37.1406 39.2109 36.4375 40.5859C36.375 40.6172 36.1719 40.9297 35.8281 41.5234C35.4531 41.9766 34.9688 42.7344 34.375 43.7969V43.8203C34.4062 43.8984 34.5 43.9375 34.6562 43.9375H34.6797L36.9297 43.7969C37.6484 43.7969 38.5938 43.8672 39.7656 44.0078C39.9062 44.0078 40.0547 43.5312 40.2109 42.5781L40.3516 42.7422C40.4141 42.5859 40.5156 42.4688 40.6562 42.3906C41.5 42.5312 41.8984 42.5391 41.8516 42.4141C42.0078 42.4297 42.1406 43.5391 42.25 45.7422C42.0469 45.7266 40.3359 45.7578 37.1172 45.8359L33.7891 46.1172C33.6016 46.2109 33.3906 46.2578 33.1562 46.2578L32.6641 46.0703L32.1016 46.1406H32.0547C31.6328 46.1406 31.3906 46.0625 31.3281 45.9062L31.375 45.7891V45.5078C31.4062 44.9453 32.1328 43.7422 33.5547 41.8984C33.5703 41.8203 34.0703 41.0469 35.0547 39.5781C36.1797 37.6719 37.2812 35.9688 38.3594 34.4688C38.5 34.2656 38.8438 33.8516 39.3906 33.2266L39.4141 33.1094C39.3359 33.0625 39.1719 33.0391 38.9219 33.0391H38.875C38.1875 33.0391 37.0078 33.1719 35.3359 33.4375H35.2422L34.0234 33.3438L33.8359 33.7422L34 35.0781C34 35.25 33.4844 35.3828 32.4531 35.4766C32.25 35.0547 32.1484 34.6719 32.1484 34.3281V33.8125V33.4844L32.1953 31.9844L32.0547 31.6094C32.1016 31.6094 32.2109 31.4766 32.3828 31.2109C32.4609 31.1328 32.7422 31.2266 33.2266 31.4922C33.1016 31.3672 33.0391 31.2891 33.0391 31.2578V31.2109L33.0625 31.1875L33.4375 31.4688C34.0625 31.4062 34.6016 31.3359 35.0547 31.2578L34.8906 31.3047V31.3516H35.0078C35.5547 31.6328 35.8281 31.7266 35.8281 31.6328L35.7812 31.6094ZM36.2031 31.4688C36.2031 31.5312 36.9453 31.5781 38.4297 31.6094L38.9688 31.7031C39.1094 31.6406 39.25 31.6094 39.3906 31.6094H39.8125L40.4219 31.1641V31.1172C40.1406 31.2109 39.8516 31.2578 39.5547 31.2578C37.3203 31.3047 36.2031 31.375 36.2031 31.4688ZM38.2656 35.6641V35.7812C38.4062 35.7812 38.7812 35.3359 39.3906 34.4453L40.375 33.1562V33.1094H40.2812C40 33.1094 39.6484 33.3984 39.2266 33.9766C39.0547 34.3516 38.7344 34.9141 38.2656 35.6641ZM39.9297 31.9609L39.7422 32.0078L38.1953 31.9844C37.9609 32.1094 37.6875 32.2109 37.375 32.2891V32.3125L37.7031 32.3828H37.8672L39.0625 32.1719C39.4219 32.1562 39.7188 32.1016 39.9531 32.0078V31.9609H39.9297ZM33.4141 32.0781H33.3906L33.4141 32.5703H33.4609C33.5859 32.4453 33.6797 32.3828 33.7422 32.3828L34.3281 32.4062H34.7266V32.3359C34.7266 32.2422 34.2891 32.1562 33.4141 32.0781ZM35.9219 40.3516V40.375C36.0781 40.375 36.2578 40.0703 36.4609 39.4609C36.6484 39.2578 36.7422 39.1094 36.7422 39.0156V38.9688C36.5078 38.9688 36.2344 39.4297 35.9219 40.3516ZM41.5 45.4141C41.5469 45.5547 41.6328 45.625 41.7578 45.625C41.8359 45.625 41.875 45.6016 41.875 45.5547L41.8047 44.6875H41.7344C41.6406 44.6875 41.5625 44.9297 41.5 45.4141ZM35.8516 45.4609V45.5078L36.2031 45.5312H36.3672C36.9141 45.5312 37.3125 45.5078 37.5625 45.4609V45.3906L37.4219 45.3672H37.3984C36.6797 45.3672 36.1641 45.3984 35.8516 45.4609ZM34.4219 45.625V45.6953L34.4688 45.7422H34.5156C34.9219 45.7422 35.1641 45.6797 35.2422 45.5547C35.2422 45.5391 35.1094 45.5156 34.8438 45.4844C34.5625 45.5156 34.4219 45.5625 34.4219 45.625ZM33.7891 43.3516L33.7422 43.4688V43.5156C34.0859 43.1875 34.3594 42.8281 34.5625 42.4375V42.3672C34.3125 42.6016 34.0547 42.9297 33.7891 43.3516ZM38.6641 31.7266L37.5156 31.7734H37.4688V31.7969H39.1094L39.1562 31.7734L38.6641 31.7266ZM34.6562 32.9219V33.0391H34.6797L35.4766 32.9219V32.8984L35.4062 32.8281H35.0547C34.9141 32.8281 34.7812 32.8594 34.6562 32.9219ZM31.7734 45.6953L31.8438 45.7891H32.2188L32.3125 45.6953V45.6719L32.2188 45.5547H32.0547C31.8828 45.5547 31.7891 45.6016 31.7734 45.6953ZM34.4219 31.7969L34.3516 31.8672V31.9375L34.6562 31.9609C34.8438 31.9609 34.9375 31.9297 34.9375 31.8672V31.8438L34.7969 31.7969H34.4219ZM32.3828 34.7969L32.4297 34.8906H32.4766C32.5859 34.8281 32.6719 34.7188 32.7344 34.5625L32.6875 34.4922H32.5938C32.5156 34.5234 32.4453 34.625 32.3828 34.7969ZM34.2344 44.3594H34.8203L34.8906 44.2891L34.8203 44.2422H34.6797C34.3828 44.2422 34.2344 44.2812 34.2344 44.3594ZM40.3281 45.2031L40.1875 45.3203L40.2344 45.3906H40.375C40.4844 45.3906 40.5469 45.3594 40.5625 45.2969L40.4688 45.2031H40.3281ZM37.8438 44.0547L37.75 44.1484C37.75 44.1953 37.7812 44.2188 37.8438 44.2188C38.0312 44.1875 38.125 44.1484 38.125 44.1016L38.1016 44.0547H37.8438ZM40.4219 43.6797L40.3281 43.7969V43.8906L40.375 43.9375H40.3984C40.4766 43.9062 40.5156 43.8438 40.5156 43.75V43.6797H40.4219ZM34.0469 45.6953L33.9766 45.7891V45.8828H34.2109L34.2812 45.7891L34.2344 45.6953H34.0469ZM39.7422 44.7812H39.5547V44.8047C39.5547 44.8516 39.625 44.8906 39.7656 44.9219L39.8125 44.875V44.8516L39.7422 44.7812ZM36.5312 31.8906H36.4141V31.9375C36.4297 31.9844 36.4922 32.0078 36.6016 32.0078V31.9609L36.5312 31.8906ZM35.4766 31.1875H35.4531L35.0781 31.2578C35.2188 31.2109 35.3516 31.1875 35.4766 31.1875ZM32.4531 33.3906H32.3828V33.4609L32.4531 33.5078H32.5234V33.4609L32.4531 33.3906ZM38.6406 45.3203H38.5469V45.3906H38.6406V45.3203Z" fill="#F8F7F2"/>
<path d="M17.9043 39.5312L17.8105 42.125L15.748 42.2188C15.2272 42.2188 14.9668 42.0625 14.9668 41.75C15.0918 40.9583 15.1543 39.9062 15.1543 38.5938V33.6875L15.1855 28.9688L15.1543 27.7188L14.873 19.25L18.123 19.125C17.9355 20.875 17.8418 21.9583 17.8418 22.375C17.7585 22.9792 17.6543 25.2604 17.5293 29.2188C17.6543 30.4688 17.7793 33.9062 17.9043 39.5312ZM17.6543 41.75L17.7168 41.6562L17.498 41.5938H17.1855L17.0605 41.6875V41.75H17.6543ZM16.6543 40.5312V40.5L16.5605 40.4062H16.4668C16.2585 40.5521 16.0189 40.6771 15.748 40.7812C15.6647 40.9271 15.623 41.0521 15.623 41.1562L15.6855 41.2188H15.748C15.9564 41.2188 16.1439 41.1042 16.3105 40.875C16.5397 40.8125 16.6543 40.6979 16.6543 40.5312ZM16.998 38.5L17.0605 38.4062V38.2812L16.998 38.1875H16.9355L16.873 38.2812V38.4062L16.9355 38.5H16.998ZM17.0605 36.75L17.123 36.6562V36.5938H16.998V36.75H17.0605ZM15.6855 34.5938H15.748V34.5625L15.6543 34.4062H15.623V34.5L15.6855 34.5938ZM15.623 34.0312L15.7168 34.125L15.7793 33.5L15.748 33.125H15.7168C15.6543 33.125 15.623 33.2708 15.623 33.5625V34.0312ZM17.248 33.3125V33.1875L17.1855 33.125L17.0918 33.1875V33.3438L17.123 33.4062C17.123 33.4271 17.0397 33.4896 16.873 33.5938V33.6875H17.0293C17.1751 33.6042 17.248 33.4792 17.248 33.3125ZM15.6543 32.9062H15.748L15.7793 32.6562H15.7168L15.6543 32.7188V32.9062ZM16.7793 29.3438V29.25H16.748C16.6022 29.25 16.5293 29.6771 16.5293 30.5312C16.6335 30.5312 16.7168 30.1354 16.7793 29.3438ZM16.0918 27.875L16.1543 27.8125L16.2168 25.8438V23.2188L16.1543 22L16.0918 21.9688H15.873C15.8314 21.9688 15.7897 22.0625 15.748 22.25C15.8105 26 15.9251 27.875 16.0918 27.875ZM17.373 23.2188V23.0938C17.3522 22.9479 17.3105 22.875 17.248 22.875L17.0918 23.0625V23.2812C17.1126 23.5312 17.1647 23.6562 17.248 23.6562C17.3314 23.6562 17.373 23.5104 17.373 23.2188Z" fill="#F8F7F2"/>
<path d="M14.9154 18.4851L14.8398 18.3484C14.7794 18.239 15.4392 17.7316 16.8194 16.8263L16.8043 16.7989C17.0048 16.6881 17.6828 17.5274 18.8381 19.3169C20.4463 21.2369 21.3965 22.4613 21.6887 22.9902L21.634 23.0204C21.4881 23.101 20.8968 22.4399 19.86 21.0372C19.3231 20.4532 19.0182 20.1813 18.9452 20.2216L18.9179 20.2368L19.069 20.5103C20.3855 22.5915 21.2808 23.5012 21.7549 23.2392L21.9852 23.3976C22.3278 24.0176 21.8517 24.6852 20.557 25.4006C20.2105 25.592 19.5714 25.0168 18.6397 23.6751C18.585 23.7053 18.5073 23.6292 18.4065 23.4469L18.2137 22.8394L18.0626 22.5658L14.9154 18.4851ZM15.6827 18.7753L15.8007 18.9243L15.8827 18.879L15.7467 18.6328L15.6165 18.5262L15.5618 18.5565L15.6827 18.7753ZM16.7665 19.9616L16.5852 19.6333C16.4844 19.451 16.3925 19.3709 16.3095 19.3929L16.2822 19.408L16.3124 19.4627C16.5604 19.8255 16.7118 19.9918 16.7665 19.9616ZM17.841 21.2602L17.8957 21.2299C17.7849 21.0293 17.6697 20.9502 17.5502 20.9924L17.6258 21.1291C17.6963 21.2568 17.7681 21.3005 17.841 21.2602ZM17.1747 19.3433L16.8422 18.7416C16.4833 18.1782 16.225 17.9044 16.0671 17.9202L16.0124 17.9505L16.0332 18.1175C16.6848 18.9952 17.0653 19.4038 17.1747 19.3433ZM18.7852 22.4522L18.8946 22.3917L18.8795 22.3644C18.6679 21.9815 18.4338 21.73 18.1771 21.61L18.1224 21.6402L18.1526 21.6949C18.2735 21.9138 18.4844 22.1662 18.7852 22.4522ZM20.1302 24.8866L20.3001 24.9356L20.6557 24.7391L20.6801 24.6542L20.6499 24.5995C20.6197 24.5448 20.481 24.5738 20.2339 24.6865L20.1518 24.7318L20.1 24.8319L20.1302 24.8866ZM19.692 24.0934L19.8467 24.115L19.9014 24.0847L19.8259 23.948L19.7136 23.9386L19.6315 23.984L19.692 24.0934ZM17.4892 19.8479L17.5194 19.9026L17.5741 19.8724L17.5136 19.763L17.4892 19.8479ZM18.5062 19.7501L18.5336 19.735L18.5033 19.6803C17.552 18.0876 17.0307 17.3165 16.9395 17.3668L16.8848 17.3971C16.8503 17.4637 16.8258 17.5487 16.8114 17.6518L16.8265 17.6792C17.1791 18.3174 17.739 19.0077 18.5062 19.7501ZM20.9263 24.5182L21.0386 24.5275L21.0933 24.4973L21.0631 24.4426L20.963 24.3908L20.881 24.4361L20.9263 24.5182Z" fill="#F8F7F2"/>
<path d="M15.0614 17.2753L15.1674 17.1605C15.2522 17.0687 15.9416 17.5351 17.2356 18.5598L17.2568 18.5368C17.4251 18.6923 16.8421 19.6001 15.5077 21.2603C14.192 23.3915 13.3293 24.679 12.9194 25.1229L12.8735 25.0805C12.7511 24.9674 13.1922 24.198 14.1968 22.7721C14.582 22.0785 14.744 21.7035 14.6827 21.647L14.6598 21.6258L14.4478 21.8554C12.8872 23.7604 12.3059 24.8967 12.7039 25.2642L12.6261 25.5327C12.1456 26.0531 11.362 25.8116 10.2752 24.8081C9.98441 24.5396 10.329 23.7518 11.3089 22.4449C11.263 22.4025 11.3107 22.3047 11.452 22.1517L11.9678 21.7773L12.1798 21.5477L15.0614 17.2753ZM15.0277 18.0949L14.9235 18.2538L14.9923 18.3174L15.1831 18.1108L15.2432 17.9536L15.1973 17.9112L15.0277 18.0949ZM14.2432 19.4973L14.4976 19.2217C14.639 19.0687 14.6861 18.9562 14.639 18.8844L14.616 18.8632L14.5736 18.9091C14.3074 19.2588 14.1973 19.4549 14.2432 19.4973ZM13.3493 20.9261L13.3952 20.9685C13.5506 20.8001 13.5895 20.6659 13.5118 20.5658L13.4058 20.6806C13.3069 20.7877 13.288 20.8696 13.3493 20.9261ZM14.9586 19.6899L15.425 19.1848C15.8466 18.6667 16.0251 18.3353 15.9603 18.1904L15.9144 18.148L15.7625 18.2204C15.1347 19.1153 14.8667 19.6051 14.9586 19.6899ZM12.5153 22.1978L12.6072 22.2826L12.6284 22.2596C12.9252 21.9382 13.0901 21.6367 13.1231 21.3553L13.0772 21.3129L13.0348 21.3588C12.8652 21.5425 12.692 21.8221 12.5153 22.1978ZM10.6286 24.2412L10.6356 24.4178L10.9341 24.6934L11.0224 24.6899L11.0648 24.644C11.1072 24.598 11.036 24.4756 10.8511 24.2765L10.7823 24.2129L10.671 24.1952L10.6286 24.2412ZM11.2434 23.5753L11.2716 23.729L11.3175 23.7714L11.4235 23.6566L11.3971 23.5471L11.3282 23.4835L11.2434 23.5753ZM14.5787 20.1473L14.5363 20.1932L14.5823 20.2356L14.6671 20.1438L14.5787 20.1473ZM14.9919 21.0818L15.0149 21.103L15.0573 21.0571C16.2692 19.6524 16.8369 18.9147 16.7604 18.8441L16.7145 18.8017C16.6403 18.7899 16.552 18.7934 16.4495 18.8122L16.4283 18.8352C15.9337 19.3709 15.4549 20.1198 14.9919 21.0818ZM11.2291 24.8807L11.2555 24.9902L11.3015 25.0326L11.3439 24.9867L11.3615 24.8754L11.2927 24.8118L11.2291 24.8807Z" fill="#F8F7F2"/>
</svg>
