<svg width="42" height="42" viewBox="0 0 42 42" fill="none" xmlns="http://www.w3.org/2000/svg">
<g clip-path="url(#clip0_260_1039)">
<path d="M21 7.21875C22.0854 7.21875 22.9688 6.33544 22.9688 5.25C22.9688 4.16456 22.0854 3.28125 21 3.28125C19.9146 3.28125 19.0312 4.16456 19.0312 5.25C19.0312 6.33544 19.9146 7.21875 21 7.21875ZM21 4.59375C21.3616 4.59375 21.6562 4.88775 21.6562 5.25C21.6562 5.61225 21.3616 5.90625 21 5.90625C20.6384 5.90625 20.3438 5.61225 20.3438 5.25C20.3438 4.88775 20.6384 4.59375 21 4.59375Z" fill="#3EA6CD"/>
<path d="M24.2812 16.4062H22.9688V8.53125H17.7188V12.4688H19.0312V16.4062H17.7188V20.3438H24.2812V16.4062ZM22.9688 19.0312H19.0312V17.7188H20.3438V11.1562H19.0312V9.84375H21.6562V17.7188H22.9688V19.0312Z" fill="#3EA6CD"/>
<path d="M38.7188 9.84375V8.53125H31.6621C30.2577 3.97622 26.0098 0.65625 21 0.65625C15.9902 0.65625 11.7423 3.97622 10.3379 8.53125H3.28125V9.84375H0.65625V38.7188H17.785C18.0895 40.2143 19.4158 41.3438 21 41.3438C22.5842 41.3438 23.9105 40.2143 24.215 38.7188H41.3438V9.84375H38.7188ZM21 1.96875C26.4278 1.96875 30.8438 6.38466 30.8438 11.8125C30.8438 16.4876 27.5212 20.5459 22.9432 21.4627L22.6288 21.5257L21 24.7826L19.3718 21.5257L19.0575 21.4627C14.4788 20.5459 11.1562 16.4876 11.1562 11.8125C11.1562 6.38466 15.5722 1.96875 21 1.96875ZM24.2812 22.47C24.967 22.2593 25.6239 21.9877 26.2428 21.6562H34.7812V29.5312H24.2812V22.47ZM4.59375 9.84375H10.0282C9.91397 10.4843 9.84375 11.1398 9.84375 11.8125C9.84375 17.0021 13.4571 21.5217 18.482 22.6813L21 27.7174L22.9688 23.7792V30.8438H36.0938V20.3438H28.1669C30.62 18.2753 32.1562 15.1896 32.1562 11.8125C32.1562 11.1398 32.086 10.4843 31.9718 9.84375H37.4062V34.7812H21.6562V28.875H20.3438V34.7812H4.59375V9.84375ZM40.0312 37.4062H22.9688V38.0625C22.9688 39.1479 22.0854 40.0312 21 40.0312C19.9146 40.0312 19.0312 39.1479 19.0312 38.0625V37.4062H1.96875V11.1562H3.28125V36.0938H38.7188V11.1562H40.0312V37.4062Z" fill="#3EA6CD"/>
<path d="M19.0312 32.1562H5.90625V33.4688H19.0312V32.1562Z" fill="#3EA6CD"/>
<path d="M19.0312 29.5312H5.90625V30.8438H19.0312V29.5312Z" fill="#3EA6CD"/>
<path d="M19.0312 26.9062H5.90625V28.2188H19.0312V26.9062Z" fill="#3EA6CD"/>
<path d="M17.7188 24.2812H5.90625V25.5938H17.7188V24.2812Z" fill="#3EA6CD"/>
<path d="M36.0938 32.1562H22.9688V33.4688H36.0938V32.1562Z" fill="#3EA6CD"/>
</g>
<defs>
<clipPath id="clip0_260_1039">
<rect width="42" height="42" fill="white"/>
</clipPath>
</defs>
</svg>
