<svg width="120" height="120" viewBox="0 0 120 120" fill="none" xmlns="http://www.w3.org/2000/svg">
<rect width="120" height="120" fill="#B74642"/>
<g clip-path="url(#clip0_37_17)">
<path d="M53.7107 4C61.1696 10.6484 69.6953 16.0115 78.493 20.9727C84.5978 24.4157 90.8986 27.4353 97.5566 29.6646C101.064 30.8402 104.642 31.7143 108.338 32.0112C109.319 32.0904 110.315 32.098 111.297 32.0371C111.894 32.0005 112.117 32.1559 112.26 32.7482C113.061 36.0815 112.856 39.3829 112.023 42.669C111.787 43.5979 111.514 44.5222 111.186 45.4206C111.008 45.9079 111.111 46.1866 111.477 46.5277C114.471 49.3174 117.214 52.3233 119.313 55.8668C119.544 56.2566 119.76 56.6571 120.002 57.0865C118.658 57.9164 117.318 58.7098 116.011 59.5549C110.169 63.3329 104.833 67.758 99.6934 72.4268C88.4397 82.6476 78.2012 93.8399 68.3989 105.44C65.4567 108.923 62.6407 112.51 59.7 115.995C57.6468 118.426 53.469 118.874 51.235 116.052C48.0755 112.063 44.9783 108.024 41.8583 104.004C37.7717 98.7416 33.6912 93.4759 29.6046 88.2148C25.053 82.3552 20.4968 76.5002 15.9437 70.6421C13.5182 67.522 11.0897 64.4064 8.67633 61.2756C7.42559 59.6539 6.5335 57.8555 6.15053 55.8241C5.65965 53.2278 6.45447 50.9056 7.74321 48.7265C10.0973 44.7491 13.1292 41.3168 16.4543 38.1388C21.4786 33.3375 26.9527 29.0707 32.3401 24.6989C37.6501 20.3895 42.9631 16.074 47.6424 11.0595C49.7761 8.77386 51.732 6.31307 53.7107 4ZM48.0679 106.156C48.8794 105.449 49.5907 104.717 50.4083 104.135C58.8261 98.1386 66.9081 91.7202 74.6587 84.8815C82.8547 77.6499 90.6889 70.0574 97.5338 61.4964C101.307 56.7774 104.745 51.8421 107.111 46.2399C108.441 43.0908 109.327 39.8397 109.198 36.3709C109.177 35.7937 109.015 35.6232 108.415 35.576C106.906 35.4572 105.395 35.2867 103.908 35.0126C98.5399 34.0212 93.4427 32.165 88.4792 29.9463C77.1237 24.871 66.5525 18.4647 56.621 10.9834C55.8018 10.3667 54.9994 9.7271 54.1742 9.08754C53.8049 9.53676 53.4888 9.93115 53.1621 10.3164C48.5466 15.7451 43.2108 20.4093 37.7322 24.9227C32.7292 29.0433 27.6776 33.1061 22.7278 37.2891C18.6777 40.7122 14.9133 44.4308 11.8997 48.8438C10.9559 50.2265 10.0076 51.6183 9.68391 53.2918C9.26599 55.4511 10.149 57.2723 11.4012 58.9275C13.3723 61.533 15.3905 64.1034 17.3951 66.6829C25.9557 77.7016 34.521 88.7188 43.0832 99.736C44.7898 101.932 46.4935 104.129 48.0679 106.156Z" fill="#1E1E1E"/>
<path d="M55.8125 46.9144C50.0268 52.1055 44.302 57.2418 38.5118 62.4375C32.717 56.4332 26.9405 50.4488 21.0986 44.3973C22.1898 43.2004 23.2369 42.0096 24.3296 40.8599C27.7566 37.2601 31.41 33.9146 35.4297 30.9803C35.9829 30.5752 36.3218 30.5341 36.8902 31.0153C42.3142 35.6125 47.7715 40.1701 53.2198 44.7399C54.0678 45.4495 54.9158 46.1622 55.8125 46.9144Z" fill="#1E1E1E"/>
<path d="M56.6757 92.6734C54.3687 94.7413 52.1271 96.7514 49.852 98.7904C48.5983 97.2554 47.3658 95.7494 46.1363 94.2404C39.0178 85.4982 31.8994 76.756 24.7825 68.0138C20.9269 63.2796 17.0789 58.5392 13.2097 53.8156C12.9088 53.4486 12.8844 53.1273 13.0243 52.7162C13.696 50.7305 14.9239 49.1666 16.5759 47.9043C17.0409 47.5494 17.3236 47.5266 17.743 48.0154C20.6366 51.3731 23.5682 54.6973 26.483 58.0382C33.445 66.0145 40.4038 73.9937 47.3642 81.9699C50.3277 85.3672 53.2927 88.763 56.2562 92.1618C56.3884 92.3095 56.51 92.4679 56.6757 92.6734Z" fill="#1E1E1E"/>
<path d="M68.9762 81.638C66.6708 83.7059 64.4307 85.7144 62.1374 87.7701C55.5585 80.7167 49.0145 73.7013 42.4158 66.6266C44.399 64.845 46.3519 63.0907 48.3671 61.2802C55.2226 68.0519 62.066 74.8114 68.9762 81.638Z" fill="#1E1E1E"/>
<path d="M82.6281 69.3858C80.3181 71.4614 78.0826 73.4699 75.7938 75.5271C68.6313 69.0097 61.4886 62.5106 54.2957 55.9658C56.2819 54.1841 58.2318 52.4345 60.2469 50.6254C67.6754 56.852 75.11 63.0847 82.6281 69.3858Z" fill="#1E1E1E"/>
<path d="M70.6816 37.2784C73.4733 35.5501 76.183 33.8903 78.8684 32.1939C79.2969 31.9229 79.5994 31.8833 80.0143 32.1787C80.6495 32.631 81.3243 33.0254 82.0218 33.4715C80.1191 36.0739 78.2468 38.6337 76.2924 41.3077C78.3973 40.0971 80.3775 38.958 82.3592 37.819C83.3881 37.2267 84.4109 36.6236 85.4549 36.0587C85.6297 35.9643 85.9488 35.9597 86.116 36.0587C86.8759 36.5033 87.6069 37.0013 88.4427 37.5403C87.426 38.0748 86.4823 38.5804 85.5309 39.0722C82.0082 40.8904 78.4793 42.701 74.9611 44.5283C74.5766 44.7278 74.294 44.7476 73.9414 44.4537C73.3791 43.9862 72.7682 43.5796 72.1344 43.1136C74.1496 40.3864 76.145 37.6881 78.2863 34.7918C77.7043 35.1648 77.3061 35.4313 76.8988 35.6795C74.3532 37.2327 71.7986 38.7723 69.2621 40.3407C68.8837 40.5752 68.6178 40.6057 68.2667 40.3102C67.7849 39.9052 67.2591 39.5534 66.6892 39.1316C69.0022 35.4892 71.3001 31.8696 73.642 28.1784C74.4444 28.6855 75.2058 29.1652 76.0675 29.7088C74.2864 32.2137 72.522 34.6943 70.6816 37.2784Z" fill="#1E1E1E"/>
<path d="M89.7921 62.9552C89.1994 63.4943 88.663 63.9846 88.0855 64.51C72.1434 51.9944 56.2196 39.491 40.2031 26.916C40.615 26.5277 40.9888 26.176 41.4311 25.7603C57.5357 38.1464 73.6176 50.5143 89.7921 62.9552Z" fill="#1E1E1E"/>
<path d="M96.8544 48.084C95.9411 47.4809 95.0596 46.8977 94.1311 46.284C94.1979 46.1546 94.2496 46.0252 94.3241 45.911C94.7724 45.2227 94.704 44.5603 94.1934 43.9512C93.2937 42.8822 92.1524 42.2183 90.7573 42.0767C90.4001 42.0401 89.9944 42.1269 89.6631 42.2746C88.8014 42.6584 88.6114 43.3116 89.2071 44.0304C90.0627 45.0613 91.0202 46.0084 91.894 47.0241C92.4685 47.6911 93.0445 48.3763 93.4958 49.127C94.0748 50.091 93.9244 51.0777 93.2314 51.9579C92.2861 53.1578 91.0384 53.7304 89.5187 53.8994C86.0461 54.2862 82.154 51.3457 81.0765 49.2717C80.23 47.6408 80.5142 46.179 81.9777 44.8785C82.3774 45.1526 82.7923 45.4313 83.2011 45.7161C83.6115 46.0039 84.0172 46.2993 84.4215 46.5886C83.5598 48.0246 83.6054 48.7661 84.9124 49.7529C85.7801 50.4077 86.8227 50.8493 87.8302 51.2878C88.154 51.4295 88.6372 51.332 89.008 51.2147C90.0658 50.8782 90.3576 50.1123 89.6904 49.2291C88.9761 48.2834 88.1296 47.4383 87.353 46.5384C86.8576 45.9643 86.3485 45.3948 85.9123 44.7765C85.1297 43.6649 85.1737 42.6172 86.0643 41.5833C87.6372 39.7575 89.6828 39.3509 91.9229 39.8641C93.8302 40.3011 95.5049 41.2422 96.8666 42.6736C98.555 44.4506 98.5626 46.4181 96.8544 48.084Z" fill="#1E1E1E"/>
<path d="M65.5022 25.6095C64.8427 26.2079 64.212 26.779 63.5357 27.3942C65.1466 28.4814 66.6937 29.526 68.3198 30.6239C67.8168 31.0762 67.3639 31.5361 66.8487 31.9122C66.7089 32.0142 66.3351 31.9381 66.1527 31.8178C64.7211 30.8661 63.3108 29.8854 61.8564 28.8865C61.0737 29.593 60.2911 30.2981 59.4537 31.0549C61.2439 32.3371 62.981 33.5811 64.7849 34.8725C64.1755 35.4283 63.6223 35.9323 63.0311 36.4714C60.6467 34.7293 58.282 33.001 55.8489 31.2224C56.8169 30.3483 57.747 29.5047 58.6817 28.6657C60.7151 26.8399 62.7576 25.0217 64.7804 23.1837C65.0691 22.9203 65.2819 22.8548 65.6299 23.0787C67.8624 24.5116 70.1086 25.9262 72.3502 27.3454C72.414 27.385 72.4854 27.414 72.61 27.4764C71.9718 28.0535 71.4186 28.5545 70.8502 29.0677C69.0508 27.9028 67.294 26.7668 65.5022 25.6095Z" fill="#1E1E1E"/>
<path d="M57.9353 18.2409C57.0281 20.8159 56.1345 23.3543 55.2409 25.8927C55.2758 25.9171 55.3123 25.9415 55.3472 25.9658C57.3746 24.1507 59.4019 22.3371 61.4718 20.4839C62.063 20.8585 62.6511 21.23 63.2833 21.6321C61.1861 23.5172 59.1359 25.3613 57.0858 27.2038C56.2378 27.9652 55.3746 28.7098 54.5479 29.4925C54.2181 29.8047 53.981 29.8687 53.5828 29.5824C52.2014 28.5865 52.2014 28.6063 52.7956 26.9693C53.5448 24.9029 54.2743 22.8305 55.0083 20.758C55.0205 20.7245 54.9901 20.6742 54.9688 20.592C52.9248 22.4224 50.8944 24.2405 48.8321 26.0861C48.3078 25.707 47.82 25.3552 47.2546 24.9471C47.8549 24.3974 48.4203 23.869 48.9947 23.3528C51.1801 21.3915 53.3761 19.4423 55.5494 17.4673C55.9065 17.143 56.174 17.0516 56.5797 17.3607C56.9977 17.679 57.4612 17.9378 57.9353 18.2409Z" fill="#1E1E1E"/>
</g>
<defs>
<clipPath id="clip0_37_17">
<rect width="114" height="114" fill="white" transform="translate(6 4)"/>
</clipPath>
</defs>
</svg>
