<svg width="125" height="129" viewBox="0 0 125 129" fill="none" xmlns="http://www.w3.org/2000/svg">
<g clip-path="url(#clip0_1230_2)">
<path d="M73.9584 106.156H51.0417L54.9478 97.5562L58.3333 89.4937H66.6667L70.0522 97.5562L73.9584 106.156Z" fill="#FF7058"/>
<path d="M88.5416 106.156H36.4582C33.5935 106.156 31.2498 108.575 31.2498 111.531V129H93.4895V111.531C93.7499 108.575 91.4062 106.156 88.5416 106.156Z" fill="#FFD15C"/>
<path d="M70.0522 97.5564C67.9689 98.6315 65.8856 99.7063 63.8021 100.513L62.5001 100.781L61.1979 100.244C59.1146 99.4376 57.0314 98.3627 54.9478 97.2876L58.3333 89.2251H66.4063L70.0522 97.5564Z" fill="#F1543F"/>
<path d="M0 14.7812V25.8C0 52.6751 16.1459 75.7875 38.8021 85.4627C46.0938 88.6878 54.1667 90.3002 62.5001 90.3002C70.8335 90.3002 78.9065 88.6878 86.1981 85.4627C108.854 75.7878 125 52.6751 125 25.8003V14.7812H0ZM114.583 25.8C114.583 38.7 110.156 50.5251 102.604 59.9313C92.9689 71.7562 78.6458 79.5502 62.5001 79.5502C46.3545 79.5502 32.0314 72.0252 22.396 59.9313C15.1044 50.7937 10.4169 38.7 10.4169 25.8V25.5313H114.323V25.8H114.583Z" fill="#F8B64C"/>
<path d="M103.125 0H21.8749C20.0521 0 18.7498 1.6124 18.7498 3.22506C18.7498 5.10623 20.0518 6.71889 21.8749 6.71889H103.125C104.948 6.71889 106.25 5.10649 106.25 3.49383C106.25 1.6124 104.948 0 103.125 0Z" fill="#F8B64C"/>
<path d="M103.125 6.71875V35.7438C103.125 62.6188 86.9792 87.0751 62.5001 96.7501C38.0211 86.8064 21.8752 62.6188 21.8752 35.475V6.71875H103.125Z" fill="#FFD15C"/>
<path d="M62.5001 18.8125L67.9687 36.0124H85.4168L71.3542 46.7624L76.5625 63.9625L62.5001 53.2125L48.4375 63.9625L53.6458 46.7624L39.5832 36.0124H57.0313L62.5001 18.8125Z" fill="white"/>
<path d="M102.864 6.71875H21.8749V10.7499H102.864V6.71875Z" fill="#FFC952"/>
</g>
<defs>
<clipPath id="clip0_1230_2">
<rect width="125" height="129" fill="white"/>
</clipPath>
</defs>
</svg>
