<svg width="30" height="39" viewBox="0 0 30 39" fill="none" xmlns="http://www.w3.org/2000/svg">
<path d="M3.17039 2.20959C3.16225 1.47361 2.53725 0.883522 1.77481 0.891187C1.01199 0.899159 0.400572 1.50231 0.408757 2.23849L0.805334 37.6814C0.812269 38.3042 1.26066 38.8225 1.86034 38.9626C1.96961 38.9881 2.08379 39.001 2.20129 38.9998C2.96368 38.992 3.57534 38.3887 3.56711 37.6527L3.17039 2.20959Z" fill="#C6CBCB"/>
<path d="M29.9996 18.4329C29.8474 13.0059 29.6938 7.57898 29.5413 2.15194C29.5246 1.56444 29.4013 0.909644 28.3951 0.612036C20.4995 -1.82684 13.2859 4.66562 5.3901 2.22663C4.77482 2.00307 4.28731 2.22662 4.30393 2.81409C4.45652 8.24106 4.59729 13.6685 4.76209 19.0951C4.78853 19.966 5.293 20.4113 5.90845 20.635C13.804 23.074 21.0178 16.5816 28.9137 19.0206C29.5289 19.2439 30.0162 19.0204 29.9996 18.4329ZM27.3427 2.40152C27.3847 3.89878 27.4272 5.39608 27.4692 6.89334C25.7652 6.55221 24.1906 6.53294 22.4661 6.73555C22.4243 5.23831 22.3817 3.74091 22.3399 2.24377C24.0641 2.0413 25.6387 2.06029 27.3427 2.40152ZM6.83263 14.2876C6.78424 12.5864 6.73673 10.8849 6.68885 9.18369C8.47833 9.54905 10.1483 9.54562 11.9554 9.30159C11.9131 7.80424 11.8709 6.30693 11.829 4.80967C13.6157 4.49063 15.3452 4.01302 17.0838 3.5086C17.1258 5.00577 17.1683 6.50316 17.2104 8.00045C15.4717 8.50475 13.742 8.98262 11.9554 9.30159C12.0034 11.0028 12.0511 12.7042 12.099 14.4055C10.2918 14.6494 8.62203 14.6529 6.83263 14.2876ZM12.2274 18.9631C12.1845 17.444 12.1418 15.9248 12.099 14.4055C13.8731 14.0891 15.5902 13.6158 17.3164 13.1149C17.3592 14.6342 17.402 16.1535 17.4447 17.6728C15.7186 18.1738 14.0014 18.6467 12.2274 18.9631ZM17.3537 13.1042C17.3061 11.4029 17.2581 9.70175 17.2104 8.00045C18.9483 7.49795 20.6762 7.03193 22.4661 6.73555C22.5142 8.43683 22.562 10.1382 22.6098 11.8395C20.8201 12.1361 19.0918 12.6016 17.3537 13.1042ZM22.7688 16.393C22.7259 14.8738 22.6832 13.3545 22.6403 11.8351C24.3539 11.6365 25.9199 11.6579 27.6126 11.9973C27.6555 13.5167 27.6983 15.0359 27.7412 16.5551C26.0483 16.2158 24.4822 16.1942 22.7688 16.393Z" fill="#C6CBCB"/>
</svg>
