<svg xmlns="http://www.w3.org/2000/svg" version="1.1" xmlns:xlink="http://www.w3.org/1999/xlink" xmlns:svgjs="http://svgjs.com/svgjs" width="300" height="300"><svg width="300" height="300" viewBox="0 0 300 300" fill="none" xmlns="http://www.w3.org/2000/svg">
<g clip-path="url(#clip0_21439_4342)">
<rect width="300" height="300" fill="white"></rect>
<path d="M209.051 133.917C209.051 166.621 182.538 193.133 149.834 193.133C117.129 193.133 90.6172 166.621 90.6172 133.917C90.6172 101.212 117.129 74.7 149.834 74.7C182.538 74.7 209.051 101.212 209.051 133.917Z" fill="#B0907A"></path>
<path d="M292.197 125.474C292.843 125.418 293.366 125.673 293.766 126.238C294.215 126.8 294.486 127.602 294.577 128.645C294.733 130.434 294.446 132.01 293.714 133.376C292.51 135.634 290.818 137.459 288.637 138.851C286.506 140.239 283.875 141.07 280.746 141.343C275.977 141.761 272.152 140.669 269.271 138.067C266.386 135.416 264.731 131.657 264.305 126.788C264.005 123.361 264.447 120.118 265.631 117.061C266.811 113.955 268.592 111.421 270.973 109.461C273.404 107.496 276.235 106.373 279.464 106.09C282.345 105.838 284.731 106.505 286.622 108.092C288.508 109.629 289.58 111.863 289.836 114.794C290.136 118.221 289.153 121.286 286.886 123.987C284.665 126.634 280.661 128.937 274.876 130.894C276.268 133.075 278.38 134.042 281.212 133.794C283.248 133.616 284.871 132.998 286.08 131.941C287.339 130.88 288.74 129.156 290.283 126.768C290.814 125.971 291.452 125.54 292.197 125.474ZM278.836 113.503C276.998 113.664 275.526 114.869 274.421 117.118C273.366 119.363 272.972 122.001 273.237 125.031L273.25 125.18C276.12 124.228 278.338 122.983 279.906 121.444C281.473 119.905 282.176 118.217 282.016 116.379C281.933 115.435 281.595 114.714 281 114.215C280.451 113.662 279.73 113.425 278.836 113.503Z" fill="#403F3D"></path>
<path d="M253.609 143.717C248.74 144.143 244.82 143.11 241.849 140.617C238.923 138.069 237.262 134.535 236.867 130.015C236.515 125.991 237.001 122.394 238.326 119.225C239.65 116.056 241.508 113.541 243.898 111.68C246.288 109.819 248.874 108.766 251.656 108.523C254.388 108.284 256.571 108.919 258.205 110.428C259.884 111.883 260.834 113.877 261.056 116.41C261.238 118.497 260.921 120.302 260.103 121.825C259.335 123.344 258.205 124.168 256.715 124.299C255.771 124.381 254.982 124.225 254.346 123.83C253.761 123.431 253.433 122.834 253.364 122.039C253.333 121.691 253.348 121.29 253.409 120.834C253.469 120.378 253.515 120.049 253.547 119.846C253.731 119.079 253.794 118.372 253.737 117.727C253.681 117.081 253.464 116.599 253.085 116.282C252.757 115.96 252.295 115.825 251.698 115.878C250.556 115.978 249.533 116.593 248.631 117.723C247.725 118.803 247.049 120.239 246.605 122.03C246.161 123.821 246.031 125.759 246.213 127.846C246.717 133.608 249.478 136.27 254.495 135.831C256.532 135.653 258.659 134.791 260.877 133.245C263.139 131.646 265.294 129.38 267.34 126.448C267.875 125.7 268.516 125.294 269.261 125.229C269.906 125.172 270.429 125.427 270.829 125.992C271.279 126.554 271.549 127.356 271.64 128.399C271.806 130.287 271.468 131.868 270.629 133.143C268.546 136.229 265.935 138.71 262.795 140.586C259.701 142.409 256.639 143.452 253.609 143.717Z" fill="#403F3D"></path>
<path d="M210.759 147.466C208.871 147.632 207.443 146.755 206.474 144.838C205.555 142.916 204.905 139.769 204.522 135.398C203.957 128.94 204.339 122.724 205.669 116.751C205.99 115.271 206.619 114.165 207.556 113.432C208.539 112.646 209.949 112.172 211.787 112.011C212.78 111.924 213.487 111.987 213.906 112.201C214.325 112.415 214.565 112.869 214.626 113.565C214.695 114.36 214.479 116.181 213.977 119.028C213.655 121.058 213.409 122.832 213.242 124.348C213.074 125.864 212.986 127.724 212.979 129.927C214.244 125.512 215.778 121.874 217.58 119.013C219.382 116.152 221.202 114.066 223.04 112.754C224.927 111.437 226.69 110.707 228.329 110.564C231.558 110.281 233.314 111.755 233.596 114.984C233.653 115.629 233.566 117.214 233.337 119.737C233.113 121.759 233.023 123.018 233.066 123.515C233.218 125.253 233.915 126.068 235.157 125.96C236.548 125.838 238.241 124.589 240.236 122.212C240.825 121.509 241.467 121.128 242.163 121.067C242.809 121.01 243.331 121.265 243.731 121.831C244.177 122.342 244.44 123.07 244.523 124.014C244.684 125.852 244.313 127.336 243.411 128.466C242.146 130.029 240.615 131.414 238.819 132.622C237.068 133.777 235.149 134.445 233.063 134.628C230.43 134.858 228.359 134.363 226.851 133.144C225.392 131.92 224.563 130.165 224.363 127.88C224.298 127.135 224.307 126.383 224.391 125.625C224.403 124.623 224.394 123.948 224.364 123.6C224.294 122.805 223.986 122.432 223.44 122.48C222.695 122.545 221.775 123.476 220.681 125.274C219.632 127.018 218.631 129.308 217.678 132.144C216.725 134.981 216.008 137.947 215.528 141.042C215.186 143.425 214.679 145.071 214.008 145.981C213.382 146.836 212.299 147.332 210.759 147.466Z" fill="#403F3D"></path>
<path d="M178.65 150.276C176.414 150.471 174.487 149.614 172.868 147.703C171.295 145.738 170.373 143.216 170.104 140.136C169.778 136.41 169.728 132.986 169.956 129.862C170.179 126.689 170.709 123.314 171.548 119.737C171.914 118.203 172.516 117.074 173.354 116.35C174.192 115.626 175.579 115.179 177.516 115.01C178.609 114.914 179.37 115.023 179.798 115.336C180.275 115.644 180.544 116.146 180.605 116.842C180.64 117.239 180.484 118.604 180.137 120.937C179.802 122.819 179.55 124.518 179.382 126.034C178.845 131.337 178.652 134.858 178.804 136.597C178.896 137.64 179.085 138.374 179.373 138.799C179.656 139.175 180.071 139.339 180.617 139.291C181.362 139.226 182.216 138.401 183.178 136.815C184.191 135.224 185.185 132.86 186.162 129.721C187.188 126.578 188.104 122.743 188.91 118.218C189.177 116.692 189.68 115.572 190.418 114.857C191.206 114.137 192.42 113.706 194.059 113.562C195.201 113.462 196.009 113.542 196.482 113.801C196.951 114.01 197.218 114.487 197.284 115.232C197.392 116.474 197.069 119.931 196.314 125.604C195.479 132.084 195.127 136.07 195.257 137.56C195.34 138.504 195.604 139.232 196.049 139.743C196.49 140.205 197.033 140.408 197.679 140.351C198.673 140.265 199.788 139.566 201.025 138.257C202.307 136.893 203.971 134.745 206.017 131.813C206.553 131.065 207.193 130.659 207.938 130.594C208.584 130.537 209.107 130.792 209.507 131.358C209.956 131.919 210.227 132.721 210.318 133.764C210.492 135.752 210.155 137.333 209.306 138.508C207.401 141.328 205.28 143.691 202.944 145.597C200.657 147.499 197.949 148.587 194.819 148.861C192.435 149.07 190.591 148.305 189.288 146.567C188.034 144.824 187.262 142.289 186.97 138.961C186.421 142.413 185.383 145.131 183.855 147.117C182.322 149.053 180.587 150.106 178.65 150.276Z" fill="#403F3D"></path>
<path d="M173.396 127.308C174.042 127.252 174.567 127.531 174.971 128.147C175.375 128.762 175.621 129.566 175.708 130.56C175.916 132.945 175.32 134.423 173.919 134.996C171.029 136.3 167.803 137.183 164.239 137.645C163.66 141.901 162.091 145.417 159.53 148.194C156.966 150.921 153.92 152.439 150.393 152.748C147.412 153.008 144.791 152.512 142.529 151.258C140.316 150 138.559 148.227 137.258 145.938C135.956 143.649 135.184 141.113 134.94 138.331C134.61 134.556 135.037 131.14 136.221 128.083C137.401 124.976 139.186 122.492 141.576 120.631C143.962 118.721 146.695 117.631 149.775 117.361C153.55 117.031 156.696 118.082 159.211 120.515C161.772 122.894 163.418 125.979 164.151 129.769C166.472 129.416 169.211 128.676 172.366 127.549C172.755 127.415 173.098 127.334 173.396 127.308ZM150.298 144.797C151.888 144.658 153.197 143.892 154.227 142.501C155.306 141.105 155.938 139.173 156.122 136.704C154.491 135.795 153.179 134.533 152.187 132.918C151.244 131.299 150.691 129.545 150.525 127.657C150.456 126.863 150.461 126.061 150.54 125.253L150.168 125.286C148.181 125.46 146.601 126.574 145.43 128.629C144.303 130.63 143.892 133.369 144.196 136.846C144.435 139.578 145.139 141.619 146.309 142.968C147.528 144.313 148.857 144.923 150.298 144.797Z" fill="#403F3D"></path>
<path d="M119.632 157.091C117.049 157.317 115.009 156.895 113.514 155.824C112.069 154.749 111.281 153.467 111.15 151.976C111.037 150.685 111.411 149.526 112.273 148.499C113.134 147.473 114.484 146.879 116.322 146.718C116.967 146.662 117.719 146.671 118.577 146.746C119.479 146.767 120.157 146.783 120.608 146.794C120.445 145.507 120.041 144.316 119.394 143.221C118.798 142.122 118.056 141.085 117.17 140.112C116.28 139.088 115.452 138.21 114.687 137.476C113.403 140.541 112.076 143.11 110.706 145.182C109.385 147.25 107.907 149.232 106.27 151.127C105.454 152.099 104.55 152.629 103.556 152.716C102.761 152.785 102.092 152.569 101.547 152.066C100.998 151.513 100.687 150.814 100.613 149.97C100.526 148.976 100.793 148.027 101.415 147.121L102.279 145.844C104.716 142.227 106.534 139.265 107.734 136.958C108.452 135.443 109.278 133.444 110.212 130.959C111.142 128.425 112.04 125.819 112.907 123.14C113.66 120.871 115.526 119.607 118.507 119.346C119.898 119.224 120.878 119.264 121.446 119.464C122.014 119.665 122.322 120.038 122.37 120.585C122.396 120.883 122.338 121.364 122.196 122.027C122.053 122.69 121.837 123.36 121.545 124.036C120.808 125.902 120.493 127.457 120.602 128.699C120.667 129.444 120.987 130.242 121.562 131.092C122.187 131.939 123.104 132.985 124.314 134.231C126.087 136.178 127.435 137.862 128.361 139.283C129.331 140.649 129.892 142.202 130.045 143.941C130.088 144.438 130.099 145.137 130.078 146.04C132.43 144.884 135.067 142.125 137.989 137.765C138.524 137.017 139.164 136.611 139.91 136.545C140.555 136.489 141.078 136.743 141.478 137.309C141.928 137.87 142.198 138.673 142.289 139.716C142.454 141.604 142.117 143.185 141.278 144.46C139.063 147.757 136.864 150.077 134.678 151.419C132.539 152.708 129.809 153.547 126.489 153.938C124.65 155.801 122.364 156.852 119.632 157.091Z" fill="#403F3D"></path>
<path d="M108.119 139.326C108.765 139.27 109.288 139.524 109.688 140.09C110.137 140.651 110.408 141.454 110.499 142.497C110.673 144.484 110.336 146.065 109.488 147.241C107.845 149.637 105.417 151.927 102.205 154.11C99.0413 156.289 95.5472 157.546 91.7221 157.88C86.506 158.337 82.3334 157.275 79.2045 154.695C76.0755 152.116 74.2958 148.367 73.8656 143.449C73.5657 140.021 74.0078 136.779 75.192 133.722C76.3719 130.616 78.1525 128.082 80.5339 126.122C82.965 124.157 85.7951 123.033 89.0241 122.751C91.9053 122.499 94.2914 123.166 96.1822 124.753C98.0686 126.29 99.1401 128.523 99.3965 131.454C99.6964 134.882 98.7131 137.947 96.4465 140.648C94.2253 143.295 90.2468 145.595 84.511 147.549C85.9528 149.725 88.4124 150.661 91.8898 150.357C94.1253 150.161 96.5914 149.17 99.2883 147.382C102.03 145.54 104.334 143.261 106.199 140.545C106.734 139.798 107.374 139.391 108.119 139.326ZM88.3962 130.164C86.5581 130.325 85.0868 131.53 83.982 133.779C82.927 136.024 82.5321 138.661 82.7972 141.692L82.8102 141.841C85.6803 140.889 87.899 139.643 89.4663 138.105C91.0336 136.566 91.7369 134.878 91.5761 133.04C91.4935 132.096 91.1551 131.375 90.5609 130.876C90.0119 130.323 89.2904 130.086 88.3962 130.164Z" fill="#403F3D"></path>
<path d="M80.301 141.76C80.9468 141.704 81.4696 141.958 81.8695 142.524C82.3191 143.085 82.5895 143.888 82.6808 144.931C82.8503 146.868 82.5131 148.449 81.6692 149.675C79.5368 152.764 77.323 155.211 75.0279 157.013C72.7285 158.766 69.9146 159.788 66.5863 160.08C63.3573 160.362 60.5241 159.734 58.0869 158.195C55.6993 156.652 53.3024 153.858 50.8962 149.814C48.9614 146.579 47.4525 144.209 46.3695 142.701C45.2822 141.145 44.2362 140.06 43.2315 139.447C42.2765 138.83 41.1218 138.505 39.7675 138.474C39.6601 139.534 39.3756 142.863 38.9142 148.46C38.7341 150.978 38.6183 152.515 38.5667 153.07C38.3351 156.144 37.5458 158.566 36.1989 160.335C34.8477 162.055 32.6569 163.048 29.6266 163.313C26.2983 163.604 23.2578 162.894 20.5051 161.183C17.7977 159.417 15.5964 156.857 13.9012 153.501C12.2017 150.096 11.1564 146.158 10.7652 141.687C10.035 133.341 10.8455 126.012 13.1965 119.699C15.5972 113.382 19.2665 108.406 24.2044 104.77C29.1877 101.08 35.107 98.9357 41.9624 98.3359C46.7314 97.9187 50.7934 98.2891 54.1485 99.4473C57.5035 100.605 60.0618 102.384 61.8235 104.783C63.6348 107.177 64.6795 109.964 64.9577 113.143C65.2011 115.925 64.7695 118.716 63.6629 121.516C62.6016 124.262 60.8437 126.768 58.389 129.035C55.9343 131.303 52.8627 133.098 49.1742 134.422C51.6152 134.859 53.5445 135.741 54.9621 137.069C56.3798 138.397 57.8561 140.395 59.3911 143.064C61.0428 145.923 62.6001 147.989 64.0631 149.263C65.5757 150.532 67.2262 151.088 69.0146 150.932C70.6043 150.793 72.0738 150.139 73.4232 148.969C74.7682 147.75 76.4206 145.754 78.3804 142.979C78.9156 142.232 79.5558 141.825 80.301 141.76ZM29.4779 139.299C27.7889 139.446 26.5867 139.151 25.8713 138.413C25.2057 137.67 24.8294 136.802 24.7425 135.809C24.6382 134.616 24.9282 133.64 25.6125 132.879C26.3464 132.114 27.2102 131.688 28.2037 131.601L30.0666 131.438C30.4355 126.5 30.8134 122.238 31.2003 118.65C31.5636 115.364 33.5088 113.567 37.0359 113.258C39.8675 113.011 41.3941 114.154 41.6157 116.687C41.6635 117.234 41.6756 117.658 41.652 117.96L40.4988 130.526C43.1683 130.142 45.546 129.283 47.6318 127.949C49.7673 126.611 51.3917 124.867 52.5051 122.717C53.6682 120.563 54.1368 118.195 53.9108 115.611C53.637 112.482 52.3538 110.116 50.0612 108.515C47.7686 106.913 44.5608 106.293 40.4376 106.654C35.5692 107.08 31.4035 108.67 27.9404 111.426C24.5226 114.128 22.0039 117.952 20.3844 122.9C18.7605 127.797 18.2463 133.649 18.8417 140.455C19.1199 143.634 19.6818 146.338 20.5276 148.566C21.3733 150.795 22.318 152.439 23.3619 153.499C24.4057 154.559 25.3499 155.052 26.1944 154.979C26.8402 154.922 27.3335 154.554 27.6744 153.873C28.065 153.188 28.3215 152.114 28.4438 150.652L29.4779 139.299Z" fill="#403F3D"></path>
<path d="M238.354 224.3V206.167H250.147V208.921H241.638V213.843H249.536V216.597H241.638V221.547H250.218V224.3H238.354Z" fill="#403F3D"></path>
<path d="M230.772 211.152C230.689 210.378 230.341 209.776 229.727 209.345C229.119 208.914 228.328 208.699 227.354 208.699C226.669 208.699 226.082 208.802 225.592 209.009C225.102 209.216 224.727 209.496 224.467 209.85C224.208 210.204 224.075 210.609 224.069 211.063C224.069 211.441 224.155 211.768 224.326 212.046C224.503 212.323 224.742 212.559 225.043 212.754C225.344 212.943 225.678 213.103 226.043 213.232C226.409 213.362 226.778 213.471 227.15 213.56L228.85 213.985C229.535 214.144 230.193 214.36 230.825 214.631C231.462 214.903 232.032 215.245 232.534 215.658C233.041 216.072 233.443 216.57 233.738 217.155C234.033 217.739 234.18 218.424 234.18 219.209C234.18 220.271 233.909 221.207 233.366 222.016C232.823 222.818 232.038 223.447 231.011 223.902C229.989 224.35 228.753 224.575 227.301 224.575C225.89 224.575 224.665 224.356 223.626 223.919C222.593 223.483 221.785 222.845 221.2 222.007C220.622 221.169 220.309 220.147 220.262 218.943H223.493C223.541 219.575 223.736 220.1 224.078 220.519C224.42 220.938 224.866 221.251 225.415 221.458C225.97 221.664 226.589 221.768 227.274 221.768C227.988 221.768 228.614 221.662 229.151 221.449C229.694 221.231 230.119 220.93 230.426 220.546C230.733 220.156 230.89 219.702 230.896 219.182C230.89 218.71 230.751 218.321 230.479 218.014C230.208 217.701 229.827 217.441 229.337 217.234C228.853 217.022 228.287 216.833 227.637 216.668L225.574 216.137C224.081 215.753 222.9 215.171 222.033 214.392C221.171 213.607 220.74 212.565 220.74 211.267C220.74 210.198 221.029 209.263 221.608 208.46C222.192 207.657 222.986 207.034 223.989 206.592C224.993 206.143 226.129 205.919 227.398 205.919C228.685 205.919 229.812 206.143 230.78 206.592C231.754 207.034 232.519 207.651 233.074 208.442C233.629 209.227 233.915 210.13 233.933 211.152H230.772Z" fill="#403F3D"></path>
<path d="M212.817 206.167H216.102V218.014C216.102 219.312 215.795 220.455 215.182 221.44C214.574 222.426 213.718 223.196 212.614 223.751C211.51 224.3 210.22 224.575 208.745 224.575C207.263 224.575 205.97 224.3 204.866 223.751C203.763 223.196 202.907 222.426 202.299 221.44C201.691 220.455 201.387 219.312 201.387 218.014V206.167H204.672V217.739C204.672 218.495 204.837 219.168 205.167 219.758C205.504 220.348 205.976 220.812 206.584 221.148C207.192 221.479 207.912 221.644 208.745 221.644C209.577 221.644 210.297 221.479 210.905 221.148C211.519 220.812 211.991 220.348 212.322 219.758C212.652 219.168 212.817 218.495 212.817 217.739V206.167Z" fill="#403F3D"></path>
<path d="M197.031 215.233C197.031 217.187 196.665 218.861 195.933 220.254C195.207 221.641 194.215 222.703 192.958 223.441C191.706 224.179 190.287 224.548 188.699 224.548C187.111 224.548 185.689 224.179 184.431 223.441C183.18 222.697 182.188 221.632 181.456 220.245C180.73 218.852 180.367 217.181 180.367 215.233C180.367 213.28 180.73 211.609 181.456 210.222C182.188 208.829 183.18 207.763 184.431 207.026C185.689 206.288 187.111 205.919 188.699 205.919C190.287 205.919 191.706 206.288 192.958 207.026C194.215 207.763 195.207 208.829 195.933 210.222C196.665 211.609 197.031 213.28 197.031 215.233ZM193.728 215.233C193.728 213.858 193.513 212.698 193.082 211.754C192.657 210.803 192.066 210.086 191.311 209.602C190.555 209.112 189.685 208.867 188.699 208.867C187.713 208.867 186.843 209.112 186.087 209.602C185.331 210.086 184.738 210.803 184.307 211.754C183.882 212.698 183.67 213.858 183.67 215.233C183.67 216.609 183.882 217.772 184.307 218.722C184.738 219.666 185.331 220.384 186.087 220.874C186.843 221.358 187.713 221.6 188.699 221.6C189.685 221.6 190.555 221.358 191.311 220.874C192.066 220.384 192.657 219.666 193.082 218.722C193.513 217.772 193.728 216.609 193.728 215.233Z" fill="#403F3D"></path>
<path d="M161.027 224.3V206.167H164.312V213.843H172.715V206.167H176.009V224.3H172.715V216.597H164.312V224.3H161.027Z" fill="#403F3D"></path>
<path d="M137.209 224.3V206.167H149.003V208.921H140.494V213.843H148.392V216.597H140.494V221.547H149.074V224.3H137.209Z" fill="#403F3D"></path>
<path d="M120.816 224.3V206.167H132.61V208.921H124.101V213.843H131.999V216.597H124.101V221.547H132.681V224.3H120.816Z" fill="#403F3D"></path>
<path d="M104.959 224.3V206.167H116.576V208.921H108.244V213.843H115.779V216.597H108.244V224.3H104.959Z" fill="#403F3D"></path>
<path d="M89.1016 224.3V206.167H100.718V208.921H92.3865V213.843H99.9214V216.597H92.3865V224.3H89.1016Z" fill="#403F3D"></path>
<path d="M84.7514 215.233C84.7514 217.187 84.3855 218.861 83.6535 220.254C82.9275 221.641 81.9358 222.703 80.6785 223.441C79.4271 224.179 78.0075 224.548 76.4197 224.548C74.8318 224.548 73.4092 224.179 72.152 223.441C70.9006 222.697 69.9089 221.632 69.177 220.245C68.4509 218.852 68.0879 217.181 68.0879 215.233C68.0879 213.28 68.4509 211.609 69.177 210.222C69.9089 208.829 70.9006 207.763 72.152 207.026C73.4092 206.288 74.8318 205.919 76.4197 205.919C78.0075 205.919 79.4271 206.288 80.6785 207.026C81.9358 207.763 82.9275 208.829 83.6535 210.222C84.3855 211.609 84.7514 213.28 84.7514 215.233ZM81.4488 215.233C81.4488 213.858 81.2334 212.698 80.8025 211.754C80.3775 210.803 79.7872 210.086 79.0316 209.602C78.2761 209.112 77.4054 208.867 76.4197 208.867C75.4339 208.867 74.5632 209.112 73.8077 209.602C73.0521 210.086 72.4589 210.803 72.028 211.754C71.603 212.698 71.3905 213.858 71.3905 215.233C71.3905 216.609 71.603 217.772 72.028 218.722C72.4589 219.666 73.0521 220.384 73.8077 220.874C74.5632 221.358 75.4339 221.6 76.4197 221.6C77.4054 221.6 78.2761 221.358 79.0316 220.874C79.7872 220.384 80.3775 219.666 80.8025 218.722C81.2334 217.772 81.4488 216.609 81.4488 215.233Z" fill="#403F3D"></path>
<path d="M64.2923 212.285H60.9809C60.8864 211.742 60.7123 211.261 60.4585 210.842C60.2046 210.417 59.8888 210.057 59.5111 209.762C59.1333 209.466 58.7024 209.245 58.2184 209.097C57.7402 208.944 57.2237 208.867 56.6689 208.867C55.6831 208.867 54.8095 209.115 54.048 209.611C53.2866 210.101 52.6904 210.821 52.2595 211.771C51.8286 212.716 51.6132 213.87 51.6132 215.233C51.6132 216.621 51.8286 217.789 52.2595 218.74C52.6963 219.684 53.2925 220.398 54.048 220.882C54.8095 221.36 55.6802 221.6 56.66 221.6C57.2031 221.6 57.7107 221.529 58.1829 221.387C58.6611 221.239 59.089 221.024 59.4668 220.741C59.8505 220.457 60.1722 220.109 60.4319 219.696C60.6975 219.283 60.8805 218.81 60.9809 218.279L64.2923 218.297C64.1684 219.159 63.8998 219.967 63.4866 220.723C63.0793 221.479 62.5451 222.146 61.884 222.724C61.2229 223.297 60.4496 223.745 59.5642 224.07C58.6788 224.389 57.696 224.548 56.6158 224.548C55.022 224.548 53.5994 224.179 52.348 223.441C51.0967 222.703 50.1109 221.638 49.3908 220.245C48.6706 218.852 48.3105 217.181 48.3105 215.233C48.3105 213.28 48.6736 211.609 49.3996 210.222C50.1257 208.829 51.1144 207.763 52.3658 207.026C53.6171 206.288 55.0338 205.919 56.6158 205.919C57.6251 205.919 58.5637 206.06 59.4314 206.344C60.2991 206.627 61.0724 207.043 61.7512 207.592C62.43 208.135 62.9878 208.802 63.4246 209.593C63.8673 210.378 64.1566 211.276 64.2923 212.285Z" fill="#403F3D"></path>
</g>
<defs>
<clipPath id="SvgjsClipPath1000">
<rect width="300" height="300" fill="white"></rect>
</clipPath>
</defs>
</svg><style>@media (prefers-color-scheme: light) { :root { filter: none; } }
</style></svg>