<svg xmlns="http://www.w3.org/2000/svg" version="1.1" xmlns:xlink="http://www.w3.org/1999/xlink" xmlns:svgjs="http://svgjs.com/svgjs" width="120" height="120"><svg width="120" height="120" viewBox="0 0 120 120" fill="none" xmlns="http://www.w3.org/2000/svg">
<rect width="120" height="120" fill="white"></rect>
<path d="M44.38 10.88C46.2867 10.88 47.6733 11.0967 48.54 11.53C49.4933 11.8767 50.23 12.5267 50.75 13.48C51.6167 15.3 52.7 17.64 54 20.5L58.81 30.9L64.92 44.29C66.0467 46.7167 67.52 49.9233 69.34 53.91C71.16 57.8967 72.46 60.67 73.24 62.23C74.7133 65.2633 75.6667 67.1267 76.1 67.82L79.74 74.97L83.77 82.9L83.51 75.36L82.99 62.62V58.72C82.99 53.9533 83.0767 49.1433 83.25 44.29C83.25 40.65 83.2067 37.7033 83.12 35.45L82.99 25.57L83.51 13.09C83.51 11.79 84.16 11.14 85.46 11.14C85.8933 11.14 86.76 11.27 88.06 11.53C88.84 11.7033 89.6633 11.79 90.53 11.79C91.3967 11.79 92.09 11.79 92.61 11.79C93.3033 11.79 93.7367 11.8767 93.91 12.05C94.17 12.2233 94.3 12.5267 94.3 12.96C94.3 13.3067 94.2567 13.6967 94.17 14.13C94.0833 14.5633 94.04 15.04 94.04 15.56L93.91 26.74L93.65 53L93.52 56.77C93.52 59.7167 93.5633 62.4033 93.65 64.83C93.7367 67.2567 93.8233 69.25 93.91 70.81C94.17 74.5367 94.3 77.6567 94.3 80.17C94.3 79.8233 94.43 84.98 94.69 95.64L94.95 102.92V103.18C94.95 104.913 94.1267 105.693 92.48 105.52C92.22 105.433 91.7 105.39 90.92 105.39L87.15 105.52H86.37C85.7633 105.52 85.2867 105.39 84.94 105.13C84.68 104.87 84.2033 104.133 83.51 102.92C83.25 102.313 82.9033 101.447 82.47 100.32C82.0367 99.1933 81.5167 97.9367 80.91 96.55C77.1833 87.19 74.4967 80.82 72.85 77.44C70.9433 73.8 66.1333 63.3567 58.42 46.11C56.6867 42.5567 54.7367 38.7867 52.57 34.8L48.8 28.04L49.19 40.39L49.32 48.06C49.4933 53.78 49.58 57.55 49.58 59.37C49.58 66.4767 49.71 73.6267 49.97 80.82L50.1 90.96C50.1 92.78 50.1867 95.4233 50.36 98.89L50.62 103.44V103.7C50.62 104.567 50.4033 105.13 49.97 105.39C49.5367 105.65 48.93 105.78 48.15 105.78L45.29 105.91C43.47 106.17 41.52 106.3 39.44 106.3C37.0133 106.3 35.02 106.343 33.46 106.43L26.83 106.56C25.53 106.56 24.6633 106.3 24.23 105.78C23.7967 105.347 23.5367 104.827 23.45 104.22C23.3633 103.613 23.2767 103.18 23.19 102.92C22.8433 101.36 22.67 99.4533 22.67 97.2C22.67 95.12 22.7133 93.3433 22.8 91.87C22.8 87.3633 22.8867 82.12 23.06 76.14C23.2333 70.0733 23.45 65.74 23.71 63.14L24.36 53.91C25.4 39.5233 25.92 31.42 25.92 29.6C25.92 22.7533 26.05 17.64 26.31 14.26C26.4833 11.92 27.6967 10.75 29.95 10.75C30.6433 10.75 31.2933 10.7933 31.9 10.88C32.5067 10.9667 32.9833 11.01 33.33 11.01L44.38 10.88Z" fill="black"></path>
</svg><style>@media (prefers-color-scheme: light) { :root { filter: none; } }
</style></svg>