<svg width="382" height="55" viewBox="0 0 382 55" fill="none" xmlns="http://www.w3.org/2000/svg">
<path d="M12.272 0.871997C13.328 0.871997 14.096 0.991997 14.576 1.232C15.104 1.424 15.512 1.784 15.8 2.312C16.28 3.32 16.88 4.616 17.6 6.2L20.264 11.96L23.648 19.376C24.272 20.72 25.088 22.496 26.096 24.704C27.104 26.912 27.824 28.448 28.256 29.312C29.072 30.992 29.6 32.024 29.84 32.408L31.856 36.368L34.088 40.76L33.944 36.584L33.656 29.528V27.368C33.656 24.728 33.704 22.064 33.8 19.376C33.8 17.36 33.776 15.728 33.728 14.48L33.656 9.008L33.944 2.096C33.944 1.376 34.304 1.016 35.024 1.016C35.264 1.016 35.744 1.088 36.464 1.232C36.896 1.328 37.352 1.376 37.832 1.376C38.312 1.376 38.696 1.376 38.984 1.376C39.368 1.376 39.608 1.424 39.704 1.52C39.848 1.616 39.92 1.784 39.92 2.024C39.92 2.216 39.896 2.432 39.848 2.672C39.8 2.912 39.776 3.176 39.776 3.464L39.704 9.656L39.56 24.2L39.488 26.288C39.488 27.92 39.512 29.408 39.56 30.752C39.608 32.096 39.656 33.2 39.704 34.064C39.848 36.128 39.92 37.856 39.92 39.248C39.92 39.056 39.992 41.912 40.136 47.816L40.28 51.848V51.992C40.28 52.952 39.824 53.384 38.912 53.288C38.768 53.24 38.48 53.216 38.048 53.216L35.96 53.288H35.528C35.192 53.288 34.928 53.216 34.736 53.072C34.592 52.928 34.328 52.52 33.944 51.848C33.8 51.512 33.608 51.032 33.368 50.408C33.128 49.784 32.84 49.088 32.504 48.32C30.44 43.136 28.952 39.608 28.04 37.736C26.984 35.72 24.32 29.936 20.048 20.384C19.088 18.416 18.008 16.328 16.808 14.12L14.72 10.376L14.936 17.216L15.008 21.464C15.104 24.632 15.152 26.72 15.152 27.728C15.152 31.664 15.224 35.624 15.368 39.608L15.44 45.224C15.44 46.232 15.488 47.696 15.584 49.616L15.728 52.136V52.28C15.728 52.76 15.608 53.072 15.368 53.216C15.128 53.36 14.792 53.432 14.36 53.432L12.776 53.504C11.768 53.648 10.688 53.72 9.536 53.72C8.192 53.72 7.088 53.744 6.224 53.792L2.552 53.864C1.832 53.864 1.352 53.72 1.112 53.432C0.872 53.192 0.728 52.904 0.68 52.568C0.632 52.232 0.584 51.992 0.536 51.848C0.344 50.984 0.248 49.928 0.248 48.68C0.248 47.528 0.272 46.544 0.32 45.728C0.32 43.232 0.368 40.328 0.464 37.016C0.56 33.656 0.68 31.256 0.824 29.816L1.184 24.704C1.76 16.736 2.048 12.248 2.048 11.24C2.048 7.448 2.12 4.616 2.264 2.744C2.36 1.448 3.032 0.799998 4.28 0.799998C4.664 0.799998 5.024 0.823998 5.36 0.871997C5.696 0.919997 5.96 0.943996 6.152 0.943996L12.272 0.871997ZM76.1203 2.744C79.0003 4.664 81.3043 7.256 83.0323 10.52C84.8083 13.784 86.0323 16.976 86.7043 20.096C87.4243 23.168 87.7843 25.592 87.7843 27.368C87.7843 30.344 87.3043 33.8 86.3443 37.736C85.4323 41.672 83.4403 45.344 80.3683 48.752C77.2963 52.112 72.8563 53.792 67.0483 53.792C59.0803 53.792 53.4163 49.16 50.0563 39.896C48.5683 35.72 47.7283 31.064 47.5363 25.928C47.5363 21.704 48.4243 17.696 50.2003 13.904C51.9763 10.064 54.3043 6.992 57.1843 4.688C60.1123 2.384 63.1123 1.232 66.1843 1.232C68.9683 1.232 71.0323 1.304 72.3763 1.448C73.7683 1.592 75.0163 2.024 76.1203 2.744ZM66.6883 49.76C71.7763 49.76 75.5683 47.648 78.0643 43.424C80.5603 39.152 81.8083 33.8 81.8083 27.368C81.8083 23.432 81.2083 19.808 80.0083 16.496C78.8563 13.136 77.2003 10.472 75.0403 8.504C72.9283 6.488 70.4803 5.48 67.6963 5.48C67.4563 5.48 66.8083 5.48 65.7523 5.48C64.7443 5.48 63.8563 5.648 63.0883 5.984C62.3203 6.32 61.6243 6.824 61.0003 7.496C59.4163 9.08 58.0723 10.544 56.9683 11.888C55.9123 13.184 54.8323 15.128 53.7283 17.72C52.6723 20.312 52.1443 23.312 52.1443 26.72C52.1443 30.752 52.6243 34.52 53.5843 38.024C54.5923 41.48 56.1763 44.312 58.3363 46.52C60.4963 48.68 63.2803 49.76 66.6883 49.76ZM115.337 8.144C115.337 5.168 115.361 3.32 115.409 2.6C115.409 1.688 115.721 1.136 116.345 0.943996C116.969 0.751996 117.881 0.655996 119.081 0.655996C120.137 0.655996 121.481 0.607996 123.113 0.511998C124.793 0.367997 126.089 0.223997 127.001 0.079999C127.673 0.0319967 128.153 0.151997 128.441 0.439999C128.729 0.679998 128.873 1.112 128.873 1.736C128.873 1.928 128.825 2.456 128.729 3.32C128.633 4.04 128.585 8.816 128.585 17.648V33.92C128.585 36.368 128.609 39.08 128.657 42.056C128.753 44.984 128.849 47.624 128.945 49.976C129.041 52.328 129.089 52.976 129.089 51.92C129.089 52.688 128.705 53.072 127.937 53.072C127.601 53.072 127.313 53.048 127.073 53C126.881 52.952 126.497 52.928 125.921 52.928C125.345 52.928 124.433 52.976 123.185 53.072C121.841 53.168 120.905 53.216 120.377 53.216C119.465 53.216 118.769 53.024 118.289 52.64C117.857 52.256 117.401 51.56 116.921 50.552L115.697 48.104C114.257 44.888 112.985 42.368 111.881 40.544C111.257 39.488 109.673 36.584 107.129 31.832L103.961 25.856V28.592V30.248C103.961 30.632 103.937 31.112 103.889 31.688C103.889 32.264 103.913 32.912 103.961 33.632C103.961 36.128 103.985 39.392 104.033 43.424C104.129 47.456 104.249 49.88 104.393 50.696C104.441 50.936 104.465 51.224 104.465 51.56C104.465 52.04 104.369 52.352 104.177 52.496C103.985 52.592 103.625 52.616 103.097 52.568C102.329 52.568 101.417 52.616 100.361 52.712C99.3526 52.808 98.3926 52.904 97.4806 53C96.7606 53.096 96.2806 52.976 96.0406 52.64C95.8486 52.304 95.7766 51.56 95.8246 50.408C95.8246 48.68 95.7526 45.632 95.6086 41.264C95.4166 36.704 95.2966 32.744 95.2486 29.384C95.2486 25.976 95.3206 22.52 95.4646 19.016C95.5606 14.6 95.6086 11.576 95.6086 9.944C95.6086 7.736 95.5366 6.128 95.3926 5.12C95.2966 4.256 95.2486 3.704 95.2486 3.464C95.2486 2.6 95.3926 2.024 95.6806 1.736C95.9686 1.4 96.3526 1.232 96.8326 1.232C97.0726 1.232 97.5526 1.256 98.2726 1.304C98.9926 1.304 100.025 1.136 101.369 0.799998C101.897 0.703997 102.425 0.655996 102.953 0.655996C103.241 0.655996 103.649 0.679997 104.177 0.727999C104.705 0.775999 105.401 0.799998 106.265 0.799998C107.369 0.799998 108.281 1.232 109.001 2.096C109.769 2.96 110.585 4.184 111.449 5.768L112.169 7.064C112.745 8.12 113.441 9.248 114.257 10.448L115.337 12.104V8.144ZM153.258 1.592C158.058 1.592 161.658 2.984 164.058 5.768C166.458 8.504 167.994 11.768 168.666 15.56C169.338 19.304 169.674 23.552 169.674 28.304C169.674 32.144 169.098 36.104 167.946 40.184C166.794 44.216 165.018 47.624 162.618 50.408C160.218 53.192 157.266 54.584 153.762 54.584C146.898 54.584 142.338 51.704 140.082 45.944C137.826 40.136 136.698 33.92 136.698 27.296C136.698 20.912 137.562 15.8 139.29 11.96C141.066 8.12 143.202 5.432 145.698 3.896C148.242 2.36 150.762 1.592 153.258 1.592ZM153.186 36.296C154.482 36.296 155.442 35.576 156.066 34.136C156.69 32.696 157.002 30.968 157.002 28.952C157.002 27.032 156.69 25.352 156.066 23.912C155.49 22.472 154.698 21.752 153.69 21.752C152.49 21.752 151.578 22.592 150.954 24.272C150.378 25.904 150.09 27.68 150.09 29.6C150.09 31.568 150.282 33.176 150.666 34.424C151.05 35.672 151.89 36.296 153.186 36.296ZM195.158 1.232C199.67 1.232 203.054 2.36 205.31 4.616C207.614 6.872 209.27 9.008 210.278 11.024C210.47 11.504 210.662 12.008 210.854 12.536C211.046 13.064 211.214 13.52 211.358 13.904C211.406 14 211.43 14.12 211.43 14.264C211.43 14.408 211.358 14.528 211.214 14.624C211.118 14.72 210.974 14.816 210.782 14.912C210.59 14.96 210.374 15.056 210.134 15.2L208.478 16.064C206.798 16.976 205.622 17.576 204.95 17.864C203.894 18.488 203.03 19.04 202.358 19.52L200.99 20.456C200.702 20.696 200.246 21.008 199.622 21.392C199.43 21.536 199.238 21.608 199.046 21.608C198.758 21.704 198.566 21.752 198.47 21.752C198.23 21.752 198.014 21.584 197.822 21.248C197.678 20.912 197.534 20.648 197.39 20.456C197.294 20.312 197.102 20.024 196.814 19.592C196.526 19.16 196.166 18.8 195.734 18.512C195.35 18.176 194.894 18.008 194.366 18.008C192.926 18.008 191.798 19.136 190.982 21.392C190.166 23.6 189.758 25.928 189.758 28.376C189.758 30.632 189.806 32.456 189.902 33.848C190.046 35.192 190.43 36.44 191.054 37.592C191.726 38.744 192.806 39.32 194.294 39.32C196.214 39.32 197.558 38.12 198.326 35.72C198.662 34.712 198.83 33.512 198.83 32.12L197.39 31.832C196.238 31.64 195.398 31.52 194.87 31.472C193.958 31.376 193.502 31.04 193.502 30.464C193.502 30.128 193.694 29.192 194.078 27.656C194.318 26.888 194.558 26.432 194.798 26.288C195.038 26.144 195.398 26.096 195.878 26.144C196.118 26.192 196.67 26.288 197.534 26.432C198.446 26.528 199.862 26.672 201.782 26.864L205.742 27.44C208.43 27.824 210.23 28.04 211.142 28.088C211.958 28.136 212.51 28.568 212.798 29.384C212.894 29.864 212.918 30.272 212.87 30.608C212.534 36.56 211.406 41.288 209.486 44.792C207.614 48.248 205.43 50.648 202.934 51.992C200.438 53.336 197.966 54.008 195.518 54.008C193.31 54.008 190.67 53.312 187.598 51.92C184.574 50.528 181.838 47.936 179.39 44.144C176.942 40.352 175.718 35.192 175.718 28.664C175.718 21.08 176.87 15.272 179.174 11.24C181.478 7.16 184.07 4.472 186.95 3.176C189.83 1.88 192.566 1.232 195.158 1.232ZM252.455 50.048C253.751 51.344 254.399 52.232 254.399 52.712C254.399 52.808 254.279 52.976 254.039 53.216C253.607 53.504 252.527 53.648 250.799 53.648C249.551 53.648 248.759 53.552 248.423 53.36C248.087 53.216 247.823 52.952 247.631 52.568C247.487 52.184 247.367 51.896 247.271 51.704C247.127 51.416 246.527 50.6 245.471 49.256C244.463 47.864 243.695 46.808 243.167 46.088C240.623 42.824 238.415 39.872 236.543 37.232C235.391 35.6 233.255 32.792 230.135 28.808L228.983 27.368L224.015 21.176L223.727 24.056C223.535 25.496 223.487 27.224 223.583 29.24C223.727 30.584 223.823 34.064 223.871 39.68C223.919 45.296 223.943 49.4 223.943 51.992C223.943 52.76 223.655 53.24 223.079 53.432C222.503 53.672 221.831 53.792 221.063 53.792C220.727 53.792 220.511 53.648 220.415 53.36C220.319 53.072 220.247 52.76 220.199 52.424C220.199 52.088 220.199 51.872 220.199 51.776C220.103 51.008 220.055 49.88 220.055 48.392C220.055 47.432 220.079 46.712 220.127 46.232C220.175 43.64 220.247 39.128 220.343 32.696C220.439 26.216 220.487 20.408 220.487 15.272C220.487 9.752 220.415 6.536 220.271 5.624C220.223 5.24 220.199 4.736 220.199 4.112C220.199 3.392 220.295 2.936 220.487 2.744C220.727 2.552 221.063 2.456 221.495 2.456C222.455 2.456 223.391 2.48 224.303 2.528L232.151 2.672C235.031 2.672 238.031 3.176 241.151 4.184C244.271 5.192 245.831 7.064 245.831 9.8C245.831 12.392 244.871 14.408 242.951 15.848C241.031 17.288 238.871 18.272 236.471 18.8C234.119 19.328 232.055 19.592 230.279 19.592C229.655 19.592 229.319 19.568 229.271 19.52C229.559 19.808 231.455 22.352 234.959 27.152C245.519 41.312 251.351 48.944 252.455 50.048ZM223.799 16.64C225.383 16.64 226.583 16.616 227.399 16.568C230.183 16.472 232.343 16.28 233.879 15.992C236.087 15.608 237.743 15.08 238.847 14.408C239.999 13.736 240.575 12.68 240.575 11.24C240.575 10.28 240.071 9.464 239.063 8.792C238.055 8.072 236.831 7.544 235.391 7.208C233.999 6.824 232.775 6.632 231.719 6.632C230.519 6.584 228.839 6.56 226.679 6.56H224.231L223.799 16.64ZM296.774 51.56C297.014 52.04 297.134 52.352 297.134 52.496C297.134 52.88 296.702 53.072 295.838 53.072H290.654C290.462 53.072 290.27 52.904 290.078 52.568C289.886 52.232 289.718 51.896 289.574 51.56C289.43 51.224 289.31 50.936 289.214 50.696C288.974 50.216 288.518 49.112 287.846 47.384C287.222 45.656 286.742 44.288 286.406 43.28C286.262 42.8 285.974 42.104 285.542 41.192C285.11 40.232 284.798 39.56 284.606 39.176C284.414 38.6 284.222 38.216 284.03 38.024C283.886 37.832 283.646 37.736 283.31 37.736C282.974 37.736 282.542 37.76 282.014 37.808C281.534 37.856 281.006 37.904 280.43 37.952C280.046 38.048 278.846 38.096 276.83 38.096C275.438 38.096 274.07 38.144 272.726 38.24C272.294 38.288 271.526 38.312 270.422 38.312L266.606 38.24C266.366 38.24 266.174 38.336 266.03 38.528C265.934 38.72 265.862 38.96 265.814 39.248C265.766 39.488 265.718 39.68 265.67 39.824L265.238 41.624C265.094 42.296 264.902 43.088 264.662 44C264.47 44.864 264.302 45.68 264.158 46.448L263.366 49.544L262.79 51.632C262.646 52.208 262.502 52.592 262.358 52.784C262.262 52.928 262.094 53 261.854 53H257.606C257.366 53 257.246 52.904 257.246 52.712C257.246 52.616 257.342 52.28 257.534 51.704C257.918 50.792 258.254 49.88 258.542 48.968C260.318 43.016 261.374 39.128 261.71 37.304C262.142 34.904 263.03 31.808 264.374 28.016C264.806 26.384 265.214 24.896 265.598 23.552C265.742 22.88 265.958 22.064 266.246 21.104C267.158 17.744 268.07 14.6 268.982 11.672L270.782 5.912C271.166 4.424 271.646 2.888 272.222 1.304C272.51 0.583997 272.846 0.415998 273.23 0.799998C273.518 0.991999 273.734 1.328 273.878 1.808C274.022 2.288 274.118 2.624 274.166 2.816C274.31 3.392 275.582 6.272 277.982 11.456C278.942 13.424 279.974 15.992 281.078 19.16C281.558 20.552 282.878 23.552 285.038 28.16C286.142 30.416 286.862 31.976 287.198 32.84C287.966 34.52 290.03 38.6 293.39 45.08L294.254 46.88C295.358 49.328 296.198 50.888 296.774 51.56ZM277.91 27.8C278.246 27.752 278.534 27.728 278.774 27.728C279.014 27.728 279.206 27.704 279.35 27.656C279.494 27.608 279.566 27.536 279.566 27.44C279.566 27.344 279.494 27.152 279.35 26.864C279.11 26.432 278.558 25.232 277.694 23.264C276.83 21.248 276.23 19.736 275.894 18.728C275.414 17.576 275.03 16.616 274.742 15.848C274.502 15.08 274.31 14.552 274.166 14.264C274.07 14.024 273.95 13.784 273.806 13.544C273.71 13.304 273.614 13.112 273.518 12.968C273.422 12.824 273.326 12.752 273.23 12.752C273.086 12.752 272.918 13.112 272.726 13.832C272.582 14.552 272.462 15.104 272.366 15.488C271.502 18.272 270.878 20.384 270.494 21.824C270.302 22.544 270.014 23.432 269.63 24.488C269.294 25.496 269.054 26.192 268.91 26.576C268.766 27.056 268.694 27.44 268.694 27.728C268.694 28.016 268.91 28.16 269.342 28.16C270.35 28.16 271.886 28.136 273.95 28.088C276.062 27.992 277.382 27.896 277.91 27.8ZM311.245 6.056C311.485 7.352 312.037 9.152 312.901 11.456C313.813 13.76 314.677 15.776 315.493 17.504C316.165 18.656 317.053 20.528 318.157 23.12C319.309 25.664 320.125 27.68 320.605 29.168C320.893 29.936 321.301 30.896 321.829 32.048L322.909 34.64L324.421 38.024C325.813 35.288 326.821 33.296 327.445 32.048L332.125 22.688L335.365 16.208C337.045 12.752 338.173 10.52 338.749 9.512C339.661 7.64 340.621 5.912 341.629 4.328C342.637 2.696 343.357 1.88 343.789 1.88C344.173 1.88 344.365 2.192 344.365 2.816C344.365 3.392 344.245 4.16 344.005 5.12L343.717 6.92C343.525 8.216 343.429 13.976 343.429 24.2C343.429 26.456 343.357 29.192 343.213 32.408C343.117 35.624 343.021 37.76 342.925 38.816C342.829 40.064 342.781 41.912 342.781 44.36L342.853 51.344V51.704C342.853 52.28 342.709 52.52 342.421 52.424H342.277C342.037 52.424 341.749 52.448 341.413 52.496C341.125 52.544 340.813 52.568 340.477 52.568C340.285 52.52 340.141 52.4 340.045 52.208C339.997 52.016 339.973 51.68 339.973 51.2V46.952C339.973 42.056 340.021 39.176 340.117 38.312C340.213 37.304 340.309 35.432 340.405 32.696C340.549 29.96 340.621 27.752 340.621 26.072C340.573 25.64 340.597 24.296 340.693 22.04L340.765 19.448L340.909 14.264C340.573 14.744 340.285 15.248 340.045 15.776C339.565 16.592 339.109 17.48 338.677 18.44L337.957 19.88C337.141 21.464 336.205 23.336 335.149 25.496C334.093 27.608 333.181 29.408 332.413 30.896C331.549 32.624 330.445 34.856 329.101 37.592C327.805 40.28 326.797 42.416 326.077 44C324.829 46.928 324.109 48.392 323.917 48.392C323.773 48.392 323.557 48.152 323.269 47.672C322.981 47.192 322.789 46.88 322.693 46.736C322.357 46.208 321.829 45.104 321.109 43.424C320.389 41.696 319.813 40.184 319.381 38.888C319.093 38.024 317.845 35.6 315.637 31.616C313.909 28.304 313.021 26.576 312.973 26.432C312.493 25.472 311.845 23.864 311.029 21.608C310.501 20.408 310.093 19.352 309.805 18.44L309.661 21.608L309.517 26.504L309.373 40.688L309.301 51.92C309.301 52.352 309.181 52.616 308.941 52.712C308.701 52.808 308.413 52.856 308.077 52.856C307.741 52.808 307.477 52.784 307.285 52.784L305.701 52.856C304.837 52.952 304.213 53 303.829 53C303.109 53 302.677 52.856 302.533 52.568C302.437 52.232 302.413 51.56 302.461 50.552C302.461 48.968 302.437 47.456 302.389 46.016L302.245 37.16C302.245 35.816 302.293 34.424 302.389 32.984C302.485 31.496 302.557 30.176 302.605 29.024C302.845 25.568 302.965 23.144 302.965 21.752L303.109 8.216L303.037 4.328C303.037 2.648 303.157 1.688 303.397 1.448C303.541 1.304 303.709 1.232 303.901 1.232C304.045 1.232 304.261 1.28 304.549 1.376C304.837 1.472 305.197 1.496 305.629 1.448C306.061 1.4 306.661 1.376 307.429 1.376C308.341 1.376 309.013 1.424 309.445 1.52C309.877 1.664 310.189 2.024 310.381 2.6C310.573 3.128 310.741 3.752 310.885 4.472C311.029 5.144 311.149 5.672 311.245 6.056ZM368.277 2.24C372.453 2.24 375.549 3.056 377.565 4.688C379.581 6.32 380.637 7.184 380.733 7.28C381.213 7.616 381.453 7.952 381.453 8.288C381.453 8.48 381.357 8.672 381.165 8.864C381.021 9.056 380.733 9.464 380.301 10.088C379.869 10.712 379.533 11.024 379.293 11.024C379.053 11.024 378.741 10.904 378.357 10.664L377.853 10.232C374.205 7.592 371.085 6.272 368.493 6.272C365.181 6.272 362.661 7.04 360.933 8.576C359.253 10.064 358.413 11.96 358.413 14.264C358.413 16.232 359.109 17.912 360.501 19.304C361.941 20.696 363.813 22.016 366.117 23.264C366.789 23.552 367.485 23.816 368.205 24.056C370.605 24.968 372.693 25.952 374.469 27.008C376.293 28.016 377.925 29.576 379.365 31.688C380.805 33.752 381.525 36.368 381.525 39.536C381.525 44.96 379.677 48.68 375.981 50.696C372.285 52.664 368.157 53.648 363.597 53.648C360.957 53.648 358.557 53.048 356.397 51.848C354.285 50.648 352.773 49.592 351.861 48.68C351.381 48.248 351.261 47.816 351.501 47.384C351.549 47.288 351.741 46.904 352.077 46.232C352.461 45.56 352.797 45.224 353.085 45.224H353.229C353.373 45.224 353.493 45.272 353.589 45.368C353.733 45.416 353.877 45.536 354.021 45.728C354.213 45.92 354.429 46.136 354.669 46.376C355.293 47 356.517 47.72 358.341 48.536C360.165 49.304 361.677 49.688 362.877 49.688C365.421 49.688 367.845 49.16 370.149 48.104C372.453 47 373.605 44.696 373.605 41.192C373.605 39.704 372.933 38.408 371.589 37.304C370.293 36.2 368.253 34.904 365.469 33.416L362.373 31.688C359.013 29.768 356.373 27.704 354.453 25.496C352.581 23.288 351.645 20.384 351.645 16.784C351.645 13.808 352.485 11.216 354.165 9.008C355.893 6.8 358.029 5.12 360.573 3.968C363.165 2.816 365.733 2.24 368.277 2.24Z" fill="black"/>
</svg>
