<svg width="96" height="96" viewBox="0 0 96 96" fill="none" xmlns="http://www.w3.org/2000/svg">
<g clip-path="url(#clip0_4_30)">
<path d="M92.1913 93.8035C90.2401 93.5486 89.6458 91.1971 87.9031 90.5072C87.7083 90.3888 88.428 90.0717 87.9978 89.8745C86.1519 89.3626 84.7058 87.0713 83.8442 85.1351L84.0631 85.0756C83.8945 84.7002 83.1016 84.7801 82.8924 84.4443C82.9734 84.3652 83.0911 84.4046 83.1741 84.2464C82.8336 84.4246 82.5511 83.8517 82.1942 83.8916C82.1798 83.6742 82.4027 83.4565 82.4086 83.2193L81.9504 83.3582C80.7581 83.5967 80.8927 82.1536 79.8906 81.8978C80.0102 81.8581 80.0893 81.858 80.1318 81.7394C78.6832 81.148 77.5301 79.8051 76.2495 78.8182C76.3894 78.7587 76.6306 78.6003 76.7136 78.4421C76.3508 78.7192 75.9227 78.443 75.5533 78.1864C75.7821 77.7315 74.748 77.9699 74.5832 77.4363L74.7029 77.3967C74.0884 77.4567 74.5198 76.8039 73.9014 77.022L73.9132 76.5476C73.3314 76.8843 73.7706 75.9152 73.3346 75.9552L73.2333 76.0542C72.9189 75.9754 73.0464 75.6195 72.7725 75.5012L72.8332 75.4418C72.2874 75.1262 72.2809 74.5925 71.9161 74.9487C72.0455 74.5137 72.4822 75.2446 72.6763 74.592C70.8643 73.5069 69.4412 71.8876 68.0141 70.4264C68.0017 70.1299 67.9468 69.9521 68.0298 69.7939C67.7944 69.7151 67.429 69.3004 67.0721 69.3403C67.1107 69.3798 67.1773 69.0832 67.1205 68.9845C66.9923 68.5695 66.4453 69.1038 66.2988 68.6296C66.5158 68.6491 66.676 68.5698 66.759 68.4116C66.2439 68.4517 65.9373 68.0567 65.5477 67.82C65.647 67.8001 65.7647 67.8395 65.8863 67.7207C65.2535 67.7214 65.3685 67.069 64.8959 66.9905L65.2143 66.9111C65.0148 66.1799 64.6528 67.2279 64.3906 66.6352C64.5286 66.6548 64.6096 66.5757 64.7109 66.4767C63.9788 66.4973 63.4833 65.7467 63.0146 65.51C63.0734 65.5298 63.0956 65.4309 63.0956 65.4309C62.6694 65.0756 62.3668 64.5224 61.7601 64.2661C61.7072 64.0092 62.3255 63.7911 61.8588 63.4754C61.4333 63.8909 60.9822 62.9426 60.7476 63.6347C60.4612 63.2199 60.0448 62.4693 59.6716 62.3708C59.9879 62.3705 60.0055 61.6589 60.3546 61.9352L60.3663 61.4608C60.5873 61.3222 60.537 61.7571 60.6827 61.4605C60.5082 61.3223 59.9218 61.0462 59.8283 60.8289C59.2949 60.8097 58.5387 61.0082 58.0536 60.6332C58.4086 60.6723 58.404 60.0595 58.6393 60.1383L57.2117 60.298C57.0372 60.1599 57.5176 59.9222 57.2032 59.8434C57.0816 59.9622 56.9437 59.9425 56.7855 59.9427C56.7874 59.8637 56.0671 59.4098 56.3952 58.9351C56.4801 58.6978 56.7076 59.0928 56.7155 58.7766C56.4455 58.5001 56.3037 58.6387 55.9748 58.3425L56.0356 58.2832C55.9036 58.0263 55.3133 57.9084 55.2833 58.3235C55.3787 58.4618 55.4878 58.0466 55.5591 58.3627C55.2003 58.4817 54.7924 58.1857 54.5021 57.929C54.64 57.9487 54.7616 57.8299 54.9218 57.7507C54.2119 57.6724 53.7249 57.3764 53.1974 57.1201C52.9947 57.3179 53.7163 56.9218 53.6922 57.0997C53.4359 56.2698 52.2273 56.37 52.1697 55.5003C52.2874 55.5397 51.9246 55.8169 51.9854 55.7575C51.7357 55.4613 52.0782 55.2039 51.7637 55.1252C51.9258 54.9669 51.5101 54.9871 51.2767 54.8292C51.078 54.869 51.3192 54.7106 51.4938 54.8488C51.1205 54.7503 49.8929 54.0203 49.5961 53.23C49.4745 53.3487 48.8437 53.2703 48.728 53.1519L49.03 52.9341C49.0764 52.6573 48.5855 52.5195 48.8084 52.3018C48.2142 52.342 50.1131 53.1108 49.4843 52.9534C49.63 52.6567 48.5574 52.8556 48.9992 52.5783C48.7293 52.3019 48.1939 52.3618 48.2057 51.8874C48.2423 52.006 48.7632 51.7286 48.5501 51.551C48.1625 51.2351 48.3128 51.5512 47.9415 51.3737L47.6474 51.2752C47.384 51.5325 47.3794 50.9197 47.2114 51.3153C47.3754 51.0779 46.5499 50.8811 47.0139 50.505L47.3767 50.2279C47.2022 50.0897 46.7623 50.2879 46.4845 50.3277C46.4864 50.2487 46.5086 50.1498 46.608 50.1299C46.0629 50.5852 46.2628 49.6954 45.7236 49.9135C45.5974 49.4194 44.8953 49.0249 45.0652 48.5503C44.6332 48.4322 44.258 48.4128 44.071 47.9782C44.1501 47.9781 44.286 48.0768 44.4076 47.958C44.3566 47.622 44.1965 47.7013 43.9611 47.6225C44.0808 47.5828 43.918 46.9702 43.9075 46.5947C43.514 46.516 43.3277 46.8523 43.127 46.9711C43.4022 46.2394 42.1086 46.5769 42.2661 45.8058C42.404 45.8254 42.8563 45.9238 42.7851 45.6076C43.0177 44.9946 41.9151 45.6085 41.7725 44.9762L41.4241 45.4707C41.5333 45.0555 40.641 45.1553 41.1051 44.7792C40.8476 44.7993 40.8227 44.2063 40.456 44.6416C40.1834 43.6733 38.7878 43.3388 39.1315 42.2315C38.9936 42.2119 38.823 41.9156 38.6589 42.153C38.5903 42.5286 39.0139 42.1921 38.9289 42.4294C38.8315 42.3702 38.7302 42.4692 38.6308 42.489C38.5393 42.1926 38.4053 42.0149 38.9426 41.8759C38.8001 41.2435 37.868 42.1538 37.4901 41.4427C37.6908 41.3238 37.7333 41.2052 37.5385 41.0868L36.9463 41.0479C36.6599 40.6331 37.1181 40.4943 37.3835 40.1579C37.1684 40.0593 36.9573 39.8026 36.6573 39.9413L36.7906 39.3482C36.6814 39.7634 36.4742 39.3485 36.316 39.3487L36.4742 39.3485C36.5572 39.1903 36.2833 39.072 36.1271 38.9931C35.9447 39.1712 36.1154 39.4675 36.1703 39.6453C35.9716 39.6851 35.8578 39.4876 35.58 39.5274C35.9023 39.2898 35.4741 39.0136 35.3401 38.8358C35.2466 38.6185 34.9041 38.8758 34.8858 38.8166C35.0276 38.678 34.6361 38.5203 34.9544 38.4409C35.0335 38.4408 34.9283 38.6979 35.1655 38.6977C35.1511 38.4802 35.4531 38.2625 35.0393 38.2036C34.7047 38.1447 34.5308 38.7774 34.3458 38.2637C34.4837 38.2833 34.6439 38.2041 34.7838 38.1446L34.6556 37.7297L34.3922 37.9869C34.4144 37.8881 34.4733 37.9078 34.4752 37.8287C34.1164 37.9477 33.913 37.3747 33.5705 37.632C33.3757 37.5136 33.4058 37.0985 33.2718 36.9207L33.3306 36.9404C33.2796 36.6045 32.9671 36.4467 32.6305 36.4668L32.6913 36.4075C32.6344 36.3087 32.3625 36.1113 32.0847 36.1512C32.0173 35.6768 32.9801 35.1223 32.3474 35.123C32.0774 34.8466 31.4956 35.1832 31.4107 35.4205C31.1688 34.808 30.2419 34.7102 30.2229 33.88C30.0242 33.9198 30.002 34.0187 29.8255 33.9595C29.2711 33.1893 28.0945 32.7952 28.0997 31.7871C28.3938 31.8856 28.3631 31.5299 28.5049 31.3913C28.0892 31.4116 28.5552 30.9564 28.0728 31.2732C27.8499 31.4909 27.7284 31.6096 27.8199 31.906C27.3126 31.6299 26.6955 30.998 26.687 30.5434C26.7014 30.7608 26.5432 30.761 26.4053 30.7414C26.8086 30.4246 26.5608 30.0494 26.2078 29.9311L25.9261 30.1291L26.015 29.7337C25.8568 29.7339 25.4718 30.1099 25.443 29.675C25.5241 29.5959 25.5868 29.4574 25.609 29.3586C25.2338 29.3392 24.5828 29.2806 24.5337 28.8656L24.6651 28.3515C24.5089 28.2726 24.1337 28.2533 24.2252 28.5497C24.0036 27.9174 23.7538 27.6212 23.8832 27.1861C22.4615 27.1086 21.3796 26.082 20.5919 25.1538L20.7926 25.035C20.6847 24.6002 20.3546 25.1541 20.3017 24.8972C20.5409 24.8178 20.4533 24.3633 20.8487 24.3629C20.7226 23.8688 20.1408 24.2055 19.8669 24.0872C19.6055 24.2654 20.163 24.1066 19.8408 24.3442C19.7212 24.3839 19.5989 23.7317 19.1773 23.9891C19.242 23.7716 19.5623 23.6131 19.7427 23.5141L19.3878 23.475C19.5028 22.8225 20.6166 23.355 20.8329 22.6036L20.6179 22.5051C20.7695 21.9712 21.5245 22.6227 21.163 22.0498C20.8081 22.0107 20.1289 22.2882 20.1799 22.6241C19.6746 22.2689 19.1583 23.159 18.7543 22.7048C18.8412 22.3884 19.1419 23.0206 19.3485 22.6646C19.4007 22.1506 18.7824 22.3687 18.6909 22.0723C18.7621 22.3885 18.2634 22.5669 18.0483 22.4683C17.9588 22.0929 18.5065 22.3295 18.2385 21.974C17.9588 22.0929 17.5469 21.955 17.6568 22.3106C17.0953 22.6275 17.4312 21.8365 16.9325 22.0149C17.1207 21.5996 17.9888 21.6777 17.7652 21.1245C17.4998 21.4609 16.9357 21.0859 16.6442 21.6792C16.6096 21.4816 16.8527 21.2441 17.1122 21.145C17.1017 20.7695 16.1023 21.2054 16.6128 20.5526L16.2317 20.7704C16.2944 20.632 16.2984 20.4738 16.3447 20.1971C16.1519 19.9996 15.361 20.0005 15.8453 19.6046C15.7276 19.5652 15.3622 19.1505 15.1923 19.6251C15.2211 20.0599 15.6852 19.6839 15.4139 20.2574C15.5858 19.7037 15.0263 19.9415 14.7504 19.9023L14.8942 19.6847C14.7563 19.6651 14.604 19.4281 14.3242 19.547C14.5027 19.527 14.5857 19.3688 14.5491 19.2502L14.2085 19.4285C13.7196 19.2116 14.5974 18.8944 14.1693 18.6181L14.6419 18.6967C14.5628 18.6968 14.6902 18.3408 14.4163 18.2225C14.1549 18.4007 13.7352 18.5791 13.4757 18.6782C13.1613 18.5995 13.662 18.342 13.226 18.382L13.7614 18.3221C13.881 18.2824 14.0123 17.7683 13.7423 17.4919C13.4868 17.4329 12.9109 17.5324 13.0005 17.9078C12.8848 17.7893 12.8337 17.4534 13.1318 17.3937C12.7808 17.1965 12.907 17.6905 12.5135 17.6119C12.5599 17.3351 12.4945 16.7817 12.5245 16.3665L13.1997 16.2472L13.0069 16.0498C13.5625 15.9701 13.1343 15.6938 13.6147 15.4561C13.5598 15.2782 13.284 15.239 13.0669 15.2195C12.9258 16.1289 11.9904 15.5765 11.561 16.1502C10.9563 15.8148 12.4682 14.6469 11.2151 14.9448C11.1707 15.1425 10.5543 15.2816 10.9661 15.4195C10.7569 15.0837 10.2667 15.7167 10.1222 15.1634C10.5948 15.242 10.3588 14.3923 11.0098 14.4509C10.8477 14.6092 11.1197 14.8065 11.1988 14.8064C11.2857 14.4901 11.7439 14.3512 11.4353 14.0353C11.202 13.8774 10.9503 13.6603 10.7255 13.957C10.4418 14.234 11.036 14.1939 10.6163 14.3722C10.1882 14.096 10.5568 13.5816 9.87569 13.9382C10.1476 14.1355 9.92084 14.5114 9.73848 14.6895L9.30836 14.4923L9.54955 14.3339C9.28543 13.8202 9.10769 14.6111 8.72396 14.1371L8.9161 13.5637C9.31743 13.326 9.35279 14.2945 9.80247 13.7011C9.55275 13.4048 9.21221 13.5831 9.08406 13.1681C9.16315 13.1681 9.29912 13.2667 9.37821 13.2667C9.32134 13.1679 9.9148 12.3568 9.12388 12.3577C8.76894 12.3185 8.88269 12.5161 8.68007 12.714C8.15646 12.2994 7.83813 12.3789 7.54789 12.1222C8.01 11.8252 7.08702 11.5692 7.80081 11.4894C7.7322 11.865 8.36956 12.4771 8.88855 12.2789C9.2003 11.6658 9.17488 12.6936 9.71805 12.3175C9.37093 11.9621 9.85526 11.5662 10.0821 11.1904C10.0252 11.0916 9.7879 11.0919 9.70881 11.092C9.38657 11.3295 9.50228 11.448 9.21861 11.725C8.91397 11.251 8.36619 11.0144 7.87137 11.0347C7.87724 10.7975 8.19947 10.5599 8.37401 10.6981C7.83014 10.3034 7.36927 9.75041 7.02606 9.23686C6.83002 9.96844 6.42336 8.82242 6.23123 9.39586C6.36133 9.73175 6.22998 10.2458 5.91165 10.3252C5.77764 10.1475 6.11427 10.1274 6.17702 9.98892C5.74103 10.0289 6.27371 9.27722 5.71419 9.51503C6.28028 9.81091 6.35866 9.03993 6.78026 8.7825C6.26909 8.66446 7.04366 8.52524 6.73511 8.20931C6.22394 8.09128 5.67616 7.85468 5.26826 7.55863C5.18846 6.78782 4.18834 6.45289 3.80265 6.05798C3.7719 5.70222 4.33142 5.4644 4.16079 5.16809C3.89081 4.89166 3.90787 5.8009 3.7248 5.2081L3.84442 5.16844C3.6274 5.14891 3.43385 4.18056 2.73055 4.63597L3.29202 4.31908C3.27371 4.2598 3.09526 4.27977 2.9776 4.24036C3.11944 4.10184 3.16387 3.90413 3.38089 3.92365C3.45341 3.38987 2.83897 3.44985 2.5873 3.2327L2.47817 3.64791C1.85129 3.41141 1.80615 2.83822 1.28058 2.50277L1.54399 2.24551L1.17074 2.14709C1.49102 1.98861 1.42171 1.59335 1.06481 1.63328L2.3486 1.69116C2.39961 2.02714 1.85183 1.79054 1.70413 2.16627C1.59695 2.50242 2.04343 2.83796 2.32514 2.63999C2.24996 2.48194 2.1506 2.50181 1.95385 2.4625C2.25973 2.08659 2.47088 2.34333 2.82973 2.22433C2.73233 2.16514 2.7382 1.92793 2.61663 2.04667C2.95326 2.02653 3.1278 2.1647 3.39778 2.44114C3.08336 2.36242 3.2723 2.71801 3.09385 2.73797C3.43635 2.48063 3.76907 2.61863 3.99657 3.01371C3.86327 3.60686 4.79798 3.38839 5.08236 3.88225C4.60389 4.04091 4.1679 4.08092 3.81492 3.96271C3.88424 4.35796 4.0849 4.23914 4.17448 4.61461C4.53333 4.49562 4.95492 4.23819 5.42557 4.3958L5.18242 4.63327C5.55371 4.81076 5.89817 4.47435 6.1845 4.88913C6.64146 5.60023 7.25855 6.23208 7.66255 6.68626L7.43967 6.90394C8.17763 6.64616 8.47053 7.59464 9.00196 7.69289C9.35761 8.50293 10.459 8.73891 10.3624 9.45062C11.5475 10.2993 12.5967 11.0493 13.557 12.1947L13.0582 12.3731C13.4942 12.3331 12.9713 12.6895 13.225 12.8276C13.2955 12.3728 13.8394 12.7676 14.178 12.6684C14.3571 13.4193 15.2782 13.7543 15.9253 13.971L15.6822 14.2085C16.5522 14.2076 16.6686 15.0969 17.1092 15.6697C17.085 15.8476 16.9393 16.1443 17.1341 16.2626C17.8073 16.2224 17.9028 16.3606 18.5702 16.5576C18.8787 16.8735 19.2788 17.4858 19.4455 17.9403C21.0908 18.571 21.942 20.1316 23.4233 20.9997L23.2167 21.3557C24.9614 21.9666 25.8231 23.9028 27.1095 24.6525L26.548 24.9693C26.7148 25.4238 27.3638 25.5614 27.6109 25.1658C27.7776 25.6203 28.6052 25.738 28.413 26.3114C28.6405 26.7065 29.0216 26.4887 29.3524 26.7057C29.7871 27.5157 30.059 27.713 30.7774 28.246L30.6434 28.0682C30.465 28.0882 30.2624 28.2861 30.3964 28.4638C30.7494 28.582 31.0847 29.4118 31.4004 28.6406C31.7319 29.6286 33.168 29.9235 33.3596 30.9709C33.4243 30.7534 33.6191 30.8718 33.7975 30.8518C34.3375 31.4047 34.6507 32.3334 35.3383 32.5105C35.3344 32.6687 34.9206 32.6098 35.1318 32.8665C35.3083 32.9257 35.3344 32.6687 35.5697 32.7475C36.7405 33.3787 37.0785 34.9004 37.9695 35.6505C39.7391 36.8543 41.0811 38.5528 42.5304 39.9151L42.4088 40.0338C43.2971 40.0921 43.043 41.5749 44.0771 41.3366C44.0914 41.554 44.4405 41.8303 44.1608 41.9492C44.8504 42.0473 44.9184 43.2925 45.8434 43.4694C45.8251 43.4101 45.746 43.4102 45.6669 43.4103C45.9637 44.2007 46.771 44.3381 47.1064 45.168C46.9887 45.1286 46.8711 45.0891 46.7109 45.1684C46.7194 45.623 47.7169 45.2661 47.3058 45.8991C47.4215 46.0176 47.6463 45.7208 47.5692 45.6418C48.6393 47.1429 50.2951 48.1492 51.728 49.3732C52.3295 50.6376 50.8548 50.3031 52.0314 50.6972C52.0073 50.8751 52.2726 50.5388 52.1713 50.6377C52.5831 50.7756 52.0263 51.7053 52.5028 51.6257C52.7498 51.2301 52.8008 51.5661 53.042 51.4077C53.3977 52.2177 53.2297 52.6132 53.9357 52.8497L53.7148 52.9883C54.741 53.0662 55.0947 53.9553 56.0863 53.8356C59.1188 56.738 62.22 59.2647 65.1348 62.1276C67.849 65.1094 70.8305 67.6758 73.3807 70.8949C73.5703 72.0214 73.6677 72.0806 74.5829 72.6528C74.4633 72.6925 74.4247 72.653 74.3822 72.7716C74.8058 72.4351 74.9241 73.2454 75.366 72.9682C76.3466 74.0938 77.4507 75.0217 78.5306 76.1274C78.3358 76.009 77.9162 76.1874 78.1678 76.4045L78.6424 76.404L78.5796 76.5424C78.7947 76.641 79.1313 76.6209 79.0986 76.3442C82.1612 78.8314 84.0727 82.2885 86.8536 84.9737C87.3086 85.7638 88.3761 86.5731 89.1514 87.2048C90.6889 89.7925 92.135 92.0838 94.5824 93.8601C94.5053 93.7812 93.2627 94.4546 92.1913 93.8035Z" fill="#0C0C0C"/>
<path d="M93.5566 2.30147C93.3068 4.25331 90.9568 4.85365 90.2713 6.59811C90.1534 6.79322 89.8345 6.07437 89.6384 6.505C89.1313 8.35227 86.8436 9.80417 84.9097 10.6708L84.8496 10.452C84.4746 10.6216 84.5566 11.4143 84.2213 11.6243C84.142 11.5435 84.1811 11.4257 84.0226 11.3431C84.2018 11.6832 83.6296 11.9671 83.6704 12.3239C83.453 12.3388 83.2348 12.1165 82.9976 12.1112L83.1376 12.5691C83.3792 13.7607 81.9357 13.6299 81.6824 14.6326C81.6425 14.5131 81.6422 14.434 81.5234 14.3918C80.9357 15.8419 79.5958 16.9985 78.6122 18.2816C78.5523 18.1418 78.3933 17.901 78.2349 17.8184C78.513 18.1805 78.2378 18.6094 77.9822 18.9794C77.5267 18.7518 77.7677 19.7852 77.2346 19.9514L77.1946 19.8318C77.2562 20.4461 76.6023 20.0164 76.822 20.6342L76.3475 20.6237C76.6857 21.2046 75.7155 20.7678 75.7567 21.2037L75.8559 21.3048C75.778 21.6194 75.4217 21.4929 75.3041 21.7671L75.2446 21.7064C74.9303 22.2531 74.3966 22.261 74.7538 22.6248C74.3184 22.4965 75.0482 22.058 74.3952 21.8655C73.3147 23.6803 71.699 25.1076 70.2415 26.5384C69.945 26.5516 69.7673 26.6069 69.6089 26.5243C69.5307 26.7599 69.1169 27.1263 69.1578 27.4831C69.1972 27.4445 68.9004 27.3786 68.8018 27.4357C68.3872 27.5649 68.9229 28.1106 68.449 28.2583C68.468 28.0412 68.3883 27.8813 68.2299 27.7987C68.2713 28.3137 67.8771 28.6213 67.6413 29.0115C67.6212 28.9122 67.6603 28.7944 67.5413 28.6731C67.5436 29.3059 66.8909 29.1925 66.8135 29.6653L66.7333 29.3472C66.0027 29.5485 67.0516 29.9079 66.4596 30.1715C66.4788 30.0336 66.3995 29.9527 66.3003 29.8517C66.3227 30.5837 65.5734 31.0812 65.3379 31.5504C65.3575 31.4916 65.2586 31.4696 65.2586 31.4696C64.9043 31.8967 64.352 32.2008 64.0972 32.8081C63.8404 32.8617 63.6207 32.2439 63.3062 32.7115C63.7228 33.1359 62.7757 33.5894 63.4684 33.8223C63.0543 34.1097 62.3047 34.528 62.2073 34.9015C62.2061 34.5851 61.4944 34.5693 61.7699 34.2196L61.2955 34.2091C61.1563 33.9885 61.5913 34.0377 61.2943 33.8927C61.1566 34.0676 60.882 34.6546 60.6649 34.7487C60.6471 35.2821 60.8475 36.0379 60.4737 36.5239C60.512 36.1688 59.8992 36.175 59.9774 35.9395L60.1408 37.3667C60.003 37.5415 59.7641 37.0617 59.6862 37.3763C59.8052 37.4976 59.7859 37.6356 59.7865 37.7938C59.7075 37.792 59.2555 38.5135 58.7799 38.1866C58.5424 38.1023 58.9369 37.8738 58.6206 37.8668C58.3448 38.1375 58.4837 38.2789 58.1884 38.6085L58.1289 38.5479C57.8724 38.6806 57.756 39.2712 58.1712 39.3001C58.3092 39.2043 57.8937 39.0963 58.2097 39.0242C58.3296 39.3827 58.0346 39.7914 57.7787 40.0823C57.798 39.9443 57.6789 39.823 57.5993 39.6631C57.5228 40.3732 57.2281 40.8609 56.973 41.3891C57.1714 41.5912 56.7735 40.8706 56.9515 40.8943C56.1222 41.1528 56.2255 42.3611 55.3559 42.4209C55.395 42.3031 55.6731 42.6652 55.6136 42.6046C55.318 42.855 55.0598 42.5132 54.9819 42.8278C54.8231 42.6661 54.8444 43.0818 54.6871 43.3156C54.7274 43.5142 54.5684 43.2734 54.7061 43.0985C54.6086 43.472 53.8818 44.7015 53.0922 45.0003C53.2112 45.1216 53.1345 45.7526 53.0163 45.8686L52.7978 45.5672C52.5209 45.5215 52.3843 46.0127 52.1661 45.7904C52.2078 46.3845 52.9717 44.4836 52.8159 45.1128C52.5188 44.9678 52.7204 46.04 52.4421 45.5988C52.1663 45.8695 52.2276 46.4047 51.7532 46.3942C51.8716 46.3573 51.593 45.837 51.4159 46.0506C51.101 46.439 51.4167 46.2879 51.2402 46.6596L51.1424 46.954C51.4004 47.2167 50.7876 47.2229 51.1836 47.3899C50.9458 47.2264 50.7511 48.0525 50.3739 47.5894L50.0958 47.2274C49.9581 47.4023 50.1574 47.8416 50.1979 48.1193C50.1188 48.1176 50.0199 48.0956 49.9998 47.9963C50.4564 48.5403 49.5662 48.3426 49.7856 48.8813C49.2919 49.0087 48.8991 49.7118 48.4241 49.5431C48.3071 49.9755 48.2887 50.3507 47.8545 50.5388C47.8542 50.4597 47.9526 50.3235 47.8335 50.2022C47.4977 50.2541 47.5773 50.414 47.4991 50.6496C47.4591 50.5301 46.847 50.6944 46.4714 50.7059C46.3938 51.0996 46.7305 51.285 46.8499 51.4853C46.1175 51.2121 46.4583 52.5048 45.6868 52.3493C45.706 52.2113 45.8032 51.7587 45.4872 51.8308C44.8736 51.5997 45.4904 52.7008 44.8584 52.845L45.3538 53.1921C44.9383 53.084 45.0404 53.976 44.6632 53.5129C44.6839 53.7703 44.091 53.7967 44.5272 54.1623C43.5596 54.4374 43.2287 55.8339 42.1205 55.4929C42.1012 55.6309 41.8054 55.8023 42.0432 55.9657C42.419 56.0334 42.0814 55.6107 42.3189 55.6951C42.26 55.7926 42.3592 55.8937 42.3793 55.993C42.0831 56.0853 41.9057 56.2197 41.7654 55.6828C41.1334 55.8269 42.0461 56.7567 41.3358 57.1364C41.2165 56.936 41.0978 56.8938 40.9799 57.0889L40.9425 57.6812C40.5285 57.9686 40.3884 57.5108 40.0514 57.2463C39.9534 57.4616 39.6972 57.6734 39.8366 57.9731L39.2432 57.8413C39.6587 57.9493 39.2443 58.1576 39.2449 58.3158L39.2443 58.1576C39.0859 58.075 38.9683 58.3492 38.8898 58.5057C39.0684 58.6876 39.3642 58.5162 39.5419 58.4608C39.5822 58.6594 39.3849 58.7737 39.4255 59.0514C39.1871 58.7297 38.9119 59.1586 38.7345 59.2931C38.5174 59.3871 38.7757 59.729 38.7164 59.7474C38.5775 59.6059 38.4208 59.9979 38.3406 59.6798C38.3403 59.6007 38.5977 59.7052 38.5968 59.468C38.3794 59.4829 38.1609 59.1815 38.1031 59.5954C38.045 59.9302 38.6782 60.1025 38.1649 60.2888C38.1842 60.1508 38.1045 59.9909 38.0447 59.8512L37.6301 59.9804L37.888 60.2431C37.7891 60.2211 37.8087 60.1623 37.7296 60.1605C37.8495 60.5191 37.277 60.7238 37.5352 61.0657C37.4174 61.2608 37.0021 61.2318 36.8247 61.3663L36.8443 61.3074C36.5084 61.3593 36.3515 61.6721 36.3725 62.0087L36.3129 61.9481C36.2143 62.0052 36.0176 62.2776 36.0582 62.5553C35.584 62.6239 35.027 61.6625 35.0294 62.2953C34.7536 62.566 35.0918 63.1468 35.3293 63.2312C34.7174 63.4746 34.622 64.4018 33.7918 64.4229C33.8321 64.6215 33.931 64.6435 33.8724 64.8201C33.1035 65.3765 32.7125 66.5541 31.7044 66.5515C31.8021 66.2571 31.4464 66.2887 31.3075 66.1473C31.3288 66.5629 30.8725 66.0981 31.1905 66.5796C31.4088 66.802 31.5278 66.9232 31.824 66.8309C31.5491 67.3389 30.9188 67.9576 30.4642 67.9673C30.6816 67.9524 30.6822 68.1105 30.6629 68.2485C30.3452 67.846 29.9705 68.0948 29.8532 68.4481L30.0519 68.7293L29.6563 68.6414C29.6568 68.7996 30.0338 69.1836 29.599 69.2135C29.5197 69.1327 29.3811 69.0703 29.2822 69.0483C29.2638 69.4236 29.2069 70.0747 28.7919 70.1249L28.2775 69.9948C28.199 70.1513 28.1806 70.5265 28.4768 70.4342C27.8451 70.6575 27.5495 70.9079 27.1142 70.7797C27.0403 72.2016 26.0164 73.2861 25.0903 74.0762L24.9709 73.8758C24.5365 73.9848 25.0911 74.3134 24.8344 74.3671C24.7544 74.128 24.3001 74.2168 24.2987 73.8214C23.8049 73.9488 24.1431 74.5297 24.0255 74.8039C24.2044 75.0649 24.0442 74.5077 24.2826 74.8293C24.3225 74.9489 23.6707 75.0728 23.9292 75.4937C23.7115 75.4296 23.5522 75.1097 23.4527 74.9296L23.4145 75.2846C22.7618 75.1713 23.2914 74.0561 22.5395 73.8417L22.4414 74.057C21.9072 73.9067 22.5567 73.15 21.9848 73.513C21.9466 73.8681 22.2258 74.5465 22.5616 74.4946C22.2077 75.0008 23.0991 75.5149 22.6459 75.92C22.3293 75.8339 22.9608 75.5316 22.6042 75.326C22.0901 75.275 22.3098 75.8928 22.0136 75.9851C22.3296 75.913 22.5094 76.4113 22.4113 76.6266C22.0361 76.7171 22.2713 76.1687 21.9164 76.4377C22.0361 76.7171 21.8992 77.1293 22.2546 77.0186C22.5729 77.5792 21.781 77.2453 21.9608 77.7436C21.545 77.5564 21.6209 76.6882 21.0682 76.9132C21.4052 77.1777 21.0317 77.7428 21.6258 78.0327C21.4282 78.0679 21.1902 77.8254 21.0904 77.5661C20.7148 77.5776 21.1534 78.5759 20.4992 78.0671L20.718 78.4476C20.5794 78.3852 20.4213 78.3817 20.1444 78.336C19.9474 78.5293 19.9503 79.3203 19.5532 78.8369C19.5141 78.9547 19.1004 79.3212 19.5754 79.4899C20.0101 79.46 19.6329 78.9969 20.2071 79.2666C19.653 79.0962 19.8922 79.6551 19.8537 79.931L19.6358 79.7878C19.6165 79.9258 19.3799 80.0787 19.4995 80.3582C19.4791 80.1798 19.3206 80.0972 19.2022 80.1341L19.3813 80.4742C19.1657 80.9637 18.8462 80.0866 18.571 80.5155L18.6484 80.0427C18.6486 80.1218 18.2924 79.9953 18.1748 80.2695C18.3536 80.5305 18.5331 80.9496 18.6329 81.2089C18.5549 81.5235 18.2961 81.0235 18.3373 81.4594L18.276 80.9242C18.236 80.8047 17.7216 80.6746 17.4459 80.9453C17.3875 81.201 17.4885 81.7767 17.8637 81.6861C17.7455 81.8021 17.4097 81.854 17.3493 81.5561C17.1529 81.9076 17.6466 81.7802 17.569 82.1739C17.2921 82.1282 16.7389 82.195 16.3236 82.166L16.2026 81.4911L16.0056 81.6845C15.9245 81.1291 15.6494 81.5579 15.4104 81.0781C15.2327 81.1335 15.1942 81.4094 15.1752 81.6265C16.085 81.7653 15.5349 82.7021 16.1097 83.1301C15.7759 83.7356 14.6042 82.2268 14.9052 83.479C15.1031 83.523 15.2437 84.139 15.3806 83.7268C15.0453 83.9369 15.6796 84.4255 15.1267 84.5714C15.204 84.0986 14.3549 84.3368 14.4118 83.6856C14.5706 83.8473 14.7672 83.5748 14.7669 83.4957C14.4504 83.4096 14.3103 82.9518 13.9952 83.2611C13.8379 83.4949 13.6214 83.7471 13.9187 83.9712C14.1965 84.2542 14.1548 83.6601 14.3342 84.0793C14.059 84.5082 13.5438 84.1408 13.9021 84.821C14.0987 84.5486 14.4751 84.7744 14.6537 84.9563L14.4576 85.3869L14.2986 85.1462C13.7856 85.4116 14.5769 85.5873 14.1039 85.9722L13.53 85.7816C13.2913 85.3809 14.2598 85.343 13.6651 84.8949C13.3695 85.1453 13.5487 85.4854 13.1341 85.6146C13.1338 85.5355 13.2321 85.3993 13.2318 85.3202C13.1332 85.3773 12.3206 84.786 12.3235 85.5769C12.2852 85.9319 12.4825 85.8177 12.6809 86.0198C12.2677 86.5444 12.3479 86.8626 12.092 87.1535C11.7939 86.6921 11.5403 87.6157 11.4586 86.9022C11.8344 86.9698 12.4448 86.3309 12.2453 85.8124C11.6314 85.5022 12.6593 85.525 12.2818 84.9828C11.9272 85.3308 11.5301 84.8475 11.1537 84.6217C11.0551 84.6788 11.056 84.9161 11.0563 84.9952C11.2947 85.3168 11.4128 85.2008 11.6906 85.4838C11.2173 85.7896 10.9821 86.338 11.0037 86.8328C10.7665 86.8275 10.5281 86.5059 10.6658 86.331C10.2725 86.8759 9.72071 87.3381 9.20804 87.6827C9.94012 87.8768 8.79514 88.2864 9.36908 88.4771C9.70463 88.3461 10.219 88.4762 10.2993 88.7943C10.1219 88.9288 10.1009 88.5922 9.96227 88.5298C10.0034 88.9657 9.25032 88.4349 9.48957 88.9938C9.78399 88.427 9.01281 88.3506 8.75431 87.9296C8.63758 88.4411 8.49638 87.6669 8.18124 87.9762C8.06451 88.4877 7.82932 89.0361 7.53431 89.4448C6.76371 89.5265 6.43133 90.5275 6.03741 90.9142C5.68173 90.9458 5.44248 90.3869 5.14661 90.5583C4.87087 90.829 5.78006 90.8096 5.18774 90.9942L5.14777 90.8747C5.12879 91.0918 4.16094 91.2878 4.61814 91.9899L4.29983 91.4293C4.24059 91.4477 4.26101 91.6261 4.22191 91.7439C4.08302 91.6024 3.8852 91.5585 3.90417 91.3414C3.37021 91.2703 3.43175 91.8845 3.21524 92.1368L3.63074 92.2448C3.39583 92.8723 2.82277 92.9189 2.48866 93.4453L2.23073 93.1826L2.13326 93.5561C1.97396 93.2362 1.57888 93.3065 1.61972 93.6633L1.67433 92.3794C2.01017 92.3275 1.77498 92.8759 2.15108 93.0227C2.4875 93.129 2.8219 92.6816 2.62321 92.4004C2.46535 92.476 2.48548 92.5753 2.44666 92.7722C2.06998 92.4673 2.32617 92.2555 2.20626 91.8969C2.14732 91.9945 1.9101 91.9892 2.02914 92.1105C2.00815 91.7739 2.14587 91.599 2.42162 91.3283C2.3437 91.6429 2.69881 91.4531 2.71923 91.6315C2.46101 91.2896 2.59816 90.9566 2.99266 90.7281C3.58614 90.8598 3.36529 89.9257 3.85841 89.64C4.0183 90.1181 4.05942 90.554 3.94212 90.9073C4.33719 90.837 4.21786 90.6366 4.5931 90.5461C4.47318 90.1875 4.21468 89.7666 4.37109 89.2955L4.60918 89.5381C4.78572 89.1663 4.44843 88.8227 4.86248 88.5353C5.5724 88.0766 6.20267 87.4579 6.65583 87.0527L6.87407 87.275C6.61441 86.5377 7.56213 86.2424 7.65902 85.7107C8.46815 85.353 8.70132 84.251 9.41327 84.3458C10.2589 83.1585 11.0062 82.1074 12.1491 81.1442L12.3289 81.6425C12.2877 81.2066 12.6454 81.7286 12.7829 81.4746C12.328 81.4052 12.7213 80.8603 12.6213 80.522C13.3717 80.3409 13.7044 79.419 13.9195 78.7713L14.1575 79.0139C14.1544 78.1439 15.0434 78.0252 15.6151 77.5831C15.793 77.6068 16.0901 77.7518 16.208 77.5567C16.166 76.8836 16.304 76.7878 16.4992 76.1199C16.8143 75.8105 17.4256 75.4089 17.8797 75.241C18.5062 73.5941 20.0646 72.7389 20.9289 71.2554L21.2855 71.4611C21.8919 69.7148 23.8258 68.8482 24.5723 67.5599L24.8906 68.1205C25.3446 67.9527 25.4806 67.3032 25.0844 67.0572C25.5384 66.8893 25.6539 66.0615 26.2279 66.2521C26.6224 66.0236 26.4036 65.6431 26.6198 65.3118C27.4286 64.875 27.6253 64.6025 28.1564 63.8828L27.9789 64.0172C27.9994 64.1956 28.1978 64.3977 28.3752 64.2633C28.4925 63.91 29.3215 63.5725 28.5494 63.2588C29.5365 62.9248 29.8278 61.4879 30.8747 61.2937C30.657 61.2295 30.7749 61.0344 30.7545 60.856C31.306 60.3147 32.2339 59.9991 32.4092 59.311C32.5674 59.3145 32.5096 59.7284 32.7658 59.5166C32.8245 59.34 32.5674 59.3145 32.6456 59.079C33.2738 57.9066 34.7946 57.5647 35.5425 56.6718C36.7418 54.8992 38.4368 53.5528 39.7954 52.1L39.9144 52.2213C39.9705 51.3328 41.4539 51.5832 41.2129 50.5497C41.4303 50.5348 41.7058 50.185 41.8254 50.4645C41.9217 49.7746 43.1667 49.7033 43.3413 48.778C43.282 48.7964 43.2823 48.8755 43.2826 48.9546C44.0722 48.6558 44.2076 47.8481 45.0366 47.5106C44.9975 47.6284 44.9583 47.7461 45.038 47.9061C45.4926 47.8964 45.1332 46.8998 45.7672 47.3093C45.8854 47.1933 45.588 46.9693 45.5093 47.0466C47.0076 45.9726 48.0096 44.3143 49.2299 42.8782C50.4928 42.2735 50.1621 43.7491 50.5532 42.5714C50.7312 42.5952 50.3942 42.3307 50.4934 42.4317C50.6302 42.0196 51.5613 42.574 51.4805 42.0977C51.0842 41.8517 51.4201 41.7998 51.2611 41.559C52.0702 41.2013 52.4661 41.3683 52.7008 40.6617L52.8399 40.8823C52.9153 39.8558 53.8035 39.4999 53.6812 38.5086C56.5758 35.4686 59.0946 32.361 61.9501 29.4389C64.9249 26.7171 67.4836 23.729 70.6963 21.1706C71.8223 20.9781 71.8812 20.8806 72.4511 19.9639C72.4911 20.0834 72.4517 20.1221 72.5704 20.1643C72.2328 19.7416 73.0428 19.6212 72.7645 19.18C73.8876 18.1966 74.8126 17.0901 75.9156 16.0074C75.7977 16.2025 75.9771 16.6216 76.1936 16.3694L76.1919 15.8949L76.3305 15.9573C76.4285 15.7419 76.4075 15.4054 76.1309 15.4388C78.6103 12.3698 82.0624 10.4495 84.7405 7.66178C85.5295 7.20475 86.3361 6.13521 86.9657 5.35831C89.5495 3.81411 91.8372 2.3622 93.6072 -0.0897549C93.5284 -0.012418 94.205 1.22842 93.5566 2.30147Z" fill="#0C0C0C"/>
<path d="M20.3077 0.80768C20.0811 0.862455 19.6772 0.511753 19.5255 0.279422L20.3077 0.80768Z" fill="#0C0C0C"/>
<path d="M20.4387 3.16281C20.3639 3.45043 20.2379 3.45316 20.111 3.2072C20.2369 3.1423 20.3126 3.16553 20.4387 3.16281Z" fill="#0C0C0C"/>
<path d="M20.9927 3.06295C21.0687 3.21052 20.9936 3.3738 20.9183 3.47491C21.0693 3.39703 20.6149 3.19547 20.9927 3.06295Z" fill="#0C0C0C"/>
<path d="M22.539 7.54512C22.6148 7.63027 22.8922 7.73566 22.6911 7.96358C22.7915 7.78758 22.1864 7.60276 22.539 7.54512Z" fill="#0C0C0C"/>
<path d="M23.8528 9.35141C23.8529 9.41358 23.8531 9.47575 23.9288 9.49898C23.8789 9.64929 23.6771 9.62878 23.6012 9.54338L23.8528 9.35141Z" fill="#0C0C0C"/>
<path d="M42.8727 44.1993L42.6705 44.0545L42.9224 43.9868L42.8727 44.1993Z" fill="#0C0C0C"/>
<path d="M50.8915 59.6896C51.1189 59.8215 50.7663 59.941 50.7664 60.0032C50.6398 59.8194 51.0435 59.9226 50.8915 59.6896Z" fill="#0C0C0C"/>
<path d="M56.223 67.4953L56.199 67.4489L56.627 67.2282L56.223 67.4953Z" fill="#0C0C0C"/>
</g>
<defs>
<clipPath id="clip0_4_30">
<rect width="96" height="96" fill="white"/>
</clipPath>
</defs>
</svg>
