<svg width="79" height="79" viewBox="0 0 79 79" fill="none" xmlns="http://www.w3.org/2000/svg">
<circle cx="40" cy="39" r="12.1714" stroke="#2E2E2E" stroke-width="4"/>
<path d="M40 53.1715C41.861 53.1715 43.7038 52.8049 45.4231 52.0927C47.1425 51.3806 48.7047 50.3367 50.0207 49.0208C51.3366 47.7048 52.3805 46.1426 53.0927 44.4232C53.8048 42.7039 54.1714 40.8611 54.1714 39C54.1714 37.139 53.8048 35.2962 53.0927 33.5769C52.3805 31.8575 51.3366 30.2953 50.0207 28.9793C48.7047 27.6634 47.1425 26.6195 45.4231 25.9073C43.7038 25.1952 41.861 24.8286 40 24.8286L40 39L40 53.1715Z" fill="#2E2E2E"/>
<path d="M40.8857 8L40.8857 19.5143" stroke="#2E2E2E" stroke-width="4" stroke-linecap="round"/>
<path d="M71 39.8857L59.4857 39.8857" stroke="#2E2E2E" stroke-width="4" stroke-linecap="round"/>
<path d="M20.5143 39.8857L9 39.8857" stroke="#2E2E2E" stroke-width="4" stroke-linecap="round"/>
<path d="M40.8857 58.4857L40.8857 70" stroke="#2E2E2E" stroke-width="4" stroke-linecap="round"/>
<path d="M56.0283 24.8518L64.6245 16.2556" stroke="#2E2E2E" stroke-width="4" stroke-linecap="round"/>
<path d="M54.9934 53.3856L63.5896 61.9818" stroke="#2E2E2E" stroke-width="4" stroke-linecap="round"/>
<path d="M15.9669 17.3071L24.5631 25.9033" stroke="#2E2E2E" stroke-width="4" stroke-linecap="round"/>
<path d="M15.5487 61.1844L24.1449 52.5882" stroke="#2E2E2E" stroke-width="4" stroke-linecap="round"/>
</svg>
