<svg width="178" height="48" viewBox="0 0 178 48" fill="none" xmlns="http://www.w3.org/2000/svg">
<rect x="0.5" y="0.5" width="177" height="47" rx="23.5" fill="url(#paint0_linear_9_196)"/>
<rect x="0.5" y="0.5" width="177" height="47" rx="23.5" stroke="black"/>
<path d="M25.4414 26.5664C25.4414 25.6055 25.5547 24.7305 25.7812 23.9414C26.0156 23.1445 26.3516 22.4609 26.7891 21.8906C27.2188 21.3203 27.7422 20.8789 28.3594 20.5664C28.9844 20.2461 29.6875 20.0859 30.4688 20.0859C31.1719 20.0859 31.7852 20.2109 32.3086 20.4609C32.8398 20.7031 33.3086 21.0508 33.7148 21.5039V15H36.5156V33H33.9727L33.8438 31.6758C33.4375 32.1758 32.9531 32.5625 32.3906 32.8359C31.8281 33.1016 31.1797 33.2344 30.4453 33.2344C29.6719 33.2344 28.9766 33.0742 28.3594 32.7539C27.7422 32.4258 27.2188 31.9727 26.7891 31.3945C26.3594 30.8242 26.0273 30.1484 25.793 29.3672C25.5586 28.5781 25.4414 27.7266 25.4414 26.8125V26.5664ZM28.2422 26.8125C28.2422 27.375 28.2969 27.9062 28.4062 28.4062C28.5156 28.9062 28.6875 29.3398 28.9219 29.707C29.1562 30.0898 29.457 30.3906 29.8242 30.6094C30.1914 30.8203 30.6328 30.9258 31.1484 30.9258C31.7812 30.9258 32.3047 30.7891 32.7188 30.5156C33.1328 30.2344 33.4648 29.8555 33.7148 29.3789V23.9297C33.4648 23.4609 33.1328 23.0898 32.7188 22.8164C32.3125 22.5352 31.7969 22.3945 31.1719 22.3945C30.6484 22.3945 30.1992 22.5039 29.8242 22.7227C29.457 22.9414 29.1602 23.2422 28.9336 23.625C28.6914 24.0078 28.5156 24.4531 28.4062 24.9609C28.2969 25.4609 28.2422 25.9961 28.2422 26.5664V26.8125ZM48.3281 33C48.2422 32.8438 48.1719 32.6562 48.1172 32.4375C48.0703 32.2109 48.0273 31.9766 47.9883 31.7344C47.793 31.9375 47.5703 32.1328 47.3203 32.3203C47.0781 32.5 46.8047 32.6562 46.5 32.7891C46.1953 32.9297 45.8672 33.0391 45.5156 33.1172C45.1641 33.1953 44.7852 33.2344 44.3789 33.2344C43.7227 33.2344 43.1211 33.1406 42.5742 32.9531C42.0352 32.7578 41.5742 32.4922 41.1914 32.1562C40.8008 31.8281 40.4961 31.4336 40.2773 30.9727C40.0664 30.5039 39.9609 30 39.9609 29.4609C39.9609 28.7656 40.0977 28.1523 40.3711 27.6211C40.6523 27.082 41.0586 26.6367 41.5898 26.2852C42.082 25.957 42.6875 25.707 43.4062 25.5352C44.1328 25.3633 44.9531 25.2773 45.8672 25.2773H47.9062V24.4219C47.9062 24.0938 47.8477 23.7969 47.7305 23.5312C47.6211 23.2656 47.4609 23.0352 47.25 22.8398C47.0234 22.6445 46.7461 22.4961 46.418 22.3945C46.0977 22.2852 45.7266 22.2305 45.3047 22.2305C44.9219 22.2305 44.5859 22.2773 44.2969 22.3711C44.0156 22.4648 43.7812 22.5938 43.5938 22.7578C43.4062 22.9062 43.2656 23.0898 43.1719 23.3086C43.0859 23.5195 43.043 23.7461 43.043 23.9883H40.2305C40.2383 23.4805 40.3594 22.9922 40.5938 22.5234C40.8281 22.0547 41.1719 21.6406 41.625 21.2812C42.0625 20.9141 42.6016 20.625 43.2422 20.4141C43.8906 20.1953 44.6289 20.0859 45.457 20.0859C46.1992 20.0859 46.8906 20.1797 47.5312 20.3672C48.1797 20.5469 48.7383 20.8164 49.207 21.1758C49.6758 21.5352 50.043 21.9922 50.3086 22.5469C50.5742 23.0938 50.707 23.7266 50.707 24.4453V30.082C50.707 30.6523 50.7461 31.168 50.8242 31.6289C50.9102 32.082 51.0312 32.4727 51.1875 32.8008V33H48.3281ZM44.918 30.9844C45.2852 30.9844 45.625 30.9375 45.9375 30.8438C46.2578 30.75 46.5469 30.6289 46.8047 30.4805C47.0625 30.332 47.2852 30.1641 47.4727 29.9766C47.6602 29.7891 47.8047 29.5938 47.9062 29.3906V27.0469H46.1016C45.4922 27.0469 44.9648 27.1055 44.5195 27.2227C44.0742 27.332 43.7188 27.4922 43.4531 27.7031C43.2188 27.8828 43.043 28.0977 42.9258 28.3477C42.8164 28.5977 42.7617 28.8789 42.7617 29.1914C42.7617 29.4492 42.8086 29.6914 42.9023 29.918C42.9961 30.1367 43.1328 30.3242 43.3125 30.4805C43.4922 30.6367 43.7148 30.7617 43.9805 30.8555C44.2461 30.9414 44.5586 30.9844 44.918 30.9844ZM56.2383 38.1211C55.9648 38.1211 55.7031 38.0977 55.4531 38.0508C55.2109 38.0117 54.9766 37.9648 54.75 37.9102L55.1367 35.7188C55.293 35.7266 55.4688 35.7344 55.6641 35.7422C55.8672 35.7578 56.0312 35.7656 56.1562 35.7656C56.4297 35.7656 56.6758 35.6836 56.8945 35.5195C57.1133 35.3633 57.3047 35.1836 57.4688 34.9805C57.625 34.7773 57.75 34.5977 57.8438 34.4414C57.9453 34.2852 58.0391 34.1211 58.125 33.9492L58.9219 32.4375L53.5195 20.3203H56.6016L59.7539 28.0664L60.1875 29.4609L60.7148 28.1016L63.7734 20.3203H66.8789L60.4453 34.9219C60.2969 35.25 60.1094 35.5977 59.8828 35.9648C59.6641 36.3398 59.3867 36.6836 59.0508 36.9961C58.7148 37.3164 58.3164 37.582 57.8555 37.793C57.3945 38.0117 56.8555 38.1211 56.2383 38.1211Z" fill="black"/>
<path d="M83.4727 33V20.3203H86.0039L86.1797 22.125C86.3516 21.8828 86.5391 21.6602 86.7422 21.457C86.9531 21.2461 87.1758 21.0586 87.4102 20.8945C87.7852 20.6367 88.1953 20.4375 88.6406 20.2969C89.0859 20.1562 89.5547 20.0859 90.0469 20.0859C90.6953 20.0859 91.2891 20.1797 91.8281 20.3672C92.3672 20.5547 92.8281 20.8516 93.2109 21.2578C93.5938 21.6641 93.8906 22.1836 94.1016 22.8164C94.3125 23.4414 94.418 24.1992 94.418 25.0898V33H91.6172V25.1367C91.6172 24.6133 91.5586 24.1758 91.4414 23.8242C91.3242 23.4727 91.1523 23.1914 90.9258 22.9805C90.6992 22.7695 90.4258 22.6211 90.1055 22.5352C89.7852 22.4414 89.418 22.3945 89.0039 22.3945C88.6602 22.3945 88.3398 22.4414 88.043 22.5352C87.7461 22.6211 87.4766 22.7461 87.2344 22.9102C87.0469 23.0352 86.8711 23.1875 86.707 23.3672C86.543 23.5469 86.3984 23.7422 86.2734 23.9531V33H83.4727ZM98.5312 20.3203H105.258V30.6797H108.984V33H98.5312V30.6797H102.434V22.6523H98.5312V20.3203ZM102.176 17.0391C102.176 16.8125 102.215 16.6055 102.293 16.418C102.371 16.2227 102.484 16.0547 102.633 15.9141C102.773 15.7812 102.941 15.6797 103.137 15.6094C103.34 15.5312 103.566 15.4922 103.816 15.4922C104.238 15.4922 104.578 15.6016 104.836 15.8203C105.102 16.0312 105.254 16.3047 105.293 16.6406C105.348 16.9844 105.289 17.2852 105.117 17.543C104.945 17.793 104.695 17.9609 104.367 18.0469C104.203 18.1953 104.008 18.293 103.781 18.3398C103.555 18.3867 103.305 18.3672 103.031 18.2812C102.75 18.1953 102.535 18.043 102.387 17.8242C102.246 17.5977 102.176 17.3359 102.176 17.0391ZM111.938 26.5664C111.938 25.6055 112.055 24.7305 112.289 23.9414C112.523 23.1445 112.863 22.4609 113.309 21.8906C113.754 21.3203 114.289 20.8789 114.914 20.5664C115.547 20.2461 116.258 20.0859 117.047 20.0859C117.516 20.0859 117.941 20.1367 118.324 20.2383C118.707 20.332 119.055 20.4727 119.367 20.6602C119.57 20.7773 119.762 20.918 119.941 21.082C120.121 21.2383 120.289 21.4102 120.445 21.5977L120.562 20.3203H123.105V32.6484C123.105 33.5 122.965 34.2539 122.684 34.9102C122.41 35.5742 122.023 36.1367 121.523 36.5977C121.016 37.0508 120.406 37.3945 119.695 37.6289C118.992 37.8711 118.215 37.9922 117.363 37.9922C117.004 37.9922 116.609 37.9531 116.18 37.875C115.75 37.7969 115.32 37.6758 114.891 37.5117C114.461 37.3477 114.051 37.1328 113.66 36.8672C113.27 36.6016 112.934 36.2812 112.652 35.9062L113.977 34.207C114.203 34.4805 114.445 34.7148 114.703 34.9102C114.969 35.1133 115.238 35.2773 115.512 35.4023C115.785 35.5273 116.062 35.6172 116.344 35.6719C116.625 35.7344 116.91 35.7656 117.199 35.7656C117.699 35.7656 118.141 35.6953 118.523 35.5547C118.914 35.4141 119.246 35.2109 119.52 34.9453C119.77 34.6875 119.961 34.3711 120.094 33.9961C120.234 33.6211 120.305 33.1953 120.305 32.7188V31.8398C120.141 32.0117 119.969 32.1719 119.789 32.3203C119.617 32.4688 119.43 32.5977 119.227 32.707C118.922 32.8789 118.586 33.0078 118.219 33.0938C117.852 33.1875 117.453 33.2344 117.023 33.2344C116.242 33.2344 115.539 33.0742 114.914 32.7539C114.289 32.4258 113.754 31.9727 113.309 31.3945C112.871 30.8242 112.531 30.1484 112.289 29.3672C112.055 28.5781 111.938 27.7266 111.938 26.8125V26.5664ZM114.75 26.8125C114.75 27.375 114.805 27.9062 114.914 28.4062C115.031 28.9062 115.215 29.3398 115.465 29.707C115.707 30.0898 116.016 30.3906 116.391 30.6094C116.766 30.8203 117.211 30.9258 117.727 30.9258C118.047 30.9258 118.336 30.8906 118.594 30.8203C118.859 30.75 119.098 30.6523 119.309 30.5273C119.52 30.3945 119.707 30.2344 119.871 30.0469C120.035 29.8594 120.18 29.6523 120.305 29.4258V23.8711C120.18 23.6367 120.027 23.4258 119.848 23.2383C119.676 23.0508 119.477 22.8906 119.25 22.7578C119.047 22.6484 118.82 22.5625 118.57 22.5C118.32 22.4297 118.047 22.3945 117.75 22.3945C117.227 22.3945 116.777 22.5039 116.402 22.7227C116.027 22.9414 115.719 23.2422 115.477 23.625C115.227 24.0078 115.043 24.4531 114.926 24.9609C114.809 25.4609 114.75 25.9961 114.75 26.5664V26.8125ZM129.516 22.125C129.68 21.875 129.863 21.6445 130.066 21.4336C130.27 21.2227 130.484 21.0391 130.711 20.8828C131.062 20.625 131.449 20.4297 131.871 20.2969C132.301 20.1562 132.754 20.0859 133.23 20.0859C133.895 20.0859 134.5 20.1836 135.047 20.3789C135.602 20.5742 136.074 20.8789 136.465 21.293C136.855 21.707 137.156 22.2383 137.367 22.8867C137.586 23.5273 137.695 24.2969 137.695 25.1953V33H134.895V25.1719C134.895 24.7031 134.836 24.293 134.719 23.9414C134.609 23.5898 134.445 23.3047 134.227 23.0859C134 22.8516 133.723 22.6797 133.395 22.5703C133.074 22.4531 132.703 22.3945 132.281 22.3945C131.953 22.3945 131.641 22.4336 131.344 22.5117C131.055 22.5898 130.789 22.7031 130.547 22.8516C130.344 22.9688 130.152 23.1094 129.973 23.2734C129.801 23.4375 129.648 23.6211 129.516 23.8242V33H126.715V15H129.516V22.125ZM146.754 17.2266V20.3203H151.523V22.418H146.754V28.4766C146.754 28.9453 146.809 29.3398 146.918 29.6602C147.035 29.9727 147.195 30.2188 147.398 30.3984C147.602 30.5859 147.844 30.7188 148.125 30.7969C148.406 30.875 148.715 30.9141 149.051 30.9141C149.293 30.9141 149.543 30.9023 149.801 30.8789C150.059 30.8555 150.309 30.8242 150.551 30.7852C150.785 30.7539 151.004 30.7188 151.207 30.6797C151.418 30.6328 151.594 30.5938 151.734 30.5625L152.039 32.4961C151.836 32.6211 151.59 32.7305 151.301 32.8242C151.02 32.9102 150.715 32.9844 150.387 33.0469C150.059 33.1094 149.715 33.1562 149.355 33.1875C149.004 33.2266 148.652 33.2461 148.301 33.2461C147.66 33.2461 147.07 33.1602 146.531 32.9883C146 32.8086 145.543 32.5312 145.16 32.1562C144.777 31.7891 144.477 31.3164 144.258 30.7383C144.047 30.1602 143.941 29.4648 143.941 28.6523V22.418H140.871V20.3203H143.941V17.2266H146.754Z" fill="white"/>
<defs>
<linearGradient id="paint0_linear_9_196" x1="5.57086e-06" y1="-5.00001" x2="145" y2="55" gradientUnits="userSpaceOnUse">
<stop offset="0.5099" stop-color="white"/>
<stop offset="0.51"/>
</linearGradient>
</defs>
</svg>
