<svg width="33" height="33" viewBox="0 0 33 33" fill="none" xmlns="http://www.w3.org/2000/svg">
<g clip-path="url(#clip0_1265_61)">
<circle cx="16.5" cy="16.5" r="15.6111" fill="#FEFEFE" stroke="#8AAA1F" stroke-width="1.77778"/>
<path fill-rule="evenodd" clip-rule="evenodd" d="M9 12.8906C9 8.61905 12.4628 5.15625 16.7344 5.15625C21.006 5.15625 24.4688 8.61905 24.4688 12.8906C24.4688 17.1622 21.006 20.625 16.7344 20.625C12.4628 20.625 9 17.1622 9 12.8906Z" fill="#8AAA21"/>
<path fill-rule="evenodd" clip-rule="evenodd" d="M8.93515 23.1538C10.8006 22.2713 13.2483 22 16.2901 22C19.3346 22 21.784 22.2718 23.6502 23.1563C25.683 24.1198 26.9185 25.7608 27.566 28.0779C27.8696 29.164 22.478 33.3438 21.4467 33.3438L10.103 32.3125C9.07044 32.3125 4.71075 29.1623 5.01519 28.0743C5.66364 25.7569 6.90103 24.1163 8.93515 23.1538Z" fill="#8AAA21"/>
</g>
<defs>
<clipPath id="clip0_1265_61">
<rect width="33" height="33" rx="16.5" fill="white"/>
</clipPath>
</defs>
</svg>
