<svg width="14" height="14" viewBox="0 0 14 14" fill="none" xmlns="http://www.w3.org/2000/svg">
<path fill-rule="evenodd" clip-rule="evenodd" d="M1.00911 10.6524L0.0352513 13.2493C-0.00214432 13.3493 -0.00998299 13.4579 0.0126717 13.5622C0.0353263 13.6664 0.0875167 13.762 0.16301 13.8374C0.238503 13.9128 0.334108 13.9649 0.438406 13.9875C0.542705 14.01 0.65129 14.002 0.751192 13.9645L3.3474 12.9907C3.64456 12.8794 3.91445 12.7058 4.13894 12.4815L11.6593 4.96119C11.6593 4.96119 11.3969 4.17484 10.6113 3.38849C9.8257 2.60288 9.03861 2.34052 9.03861 2.34052L1.51827 9.86086C1.29401 10.0854 1.1204 10.3552 1.00911 10.6524ZM10.0873 1.29181L11.1123 0.266814C11.2961 0.0830113 11.5414 -0.0340887 11.7979 0.00889733C12.1588 0.0681885 12.711 0.247544 13.2312 0.768565C13.7523 1.28959 13.9316 1.84099 13.9909 2.20193C14.0339 2.45836 13.9168 2.70368 13.733 2.88748L12.7072 3.91248C12.7072 3.91248 12.4456 3.12687 11.6593 2.34126C10.8737 1.55417 10.0873 1.29181 10.0873 1.29181Z" fill="#DF7B22"/>
</svg>
