<svg width="120" height="120" viewBox="0 0 120 120" fill="none" xmlns="http://www.w3.org/2000/svg">
<g clip-path="url(#clip0_1291_3)">
<mask id="path-1-inside-1_1291_3" fill="white">
<path d="M0 8C0 3.58172 3.58172 0 8 0H112C116.418 0 120 3.58172 120 8V112C120 116.418 116.418 120 112 120H8C3.58172 120 0 116.418 0 112V8Z"/>
</mask>
<path d="M0 8C0 3.58172 3.58172 0 8 0H112C116.418 0 120 3.58172 120 8V112C120 116.418 116.418 120 112 120H8C3.58172 120 0 116.418 0 112V8Z" fill="white"/>
<path d="M201.911 195.809C201.196 191.191 202.984 187.099 204.305 182.824C208.336 169.677 213.544 156.947 215.977 143.379C216.236 141.748 215.993 140.095 216.01 138.412C216.061 138.17 216.095 138.008 216.146 137.766C216.243 136.101 216.26 134.418 216.34 132.833C216.251 132.055 216.144 131.359 216.136 130.598C215.617 129.056 215.196 127.45 214.677 125.907C214.681 125.486 214.783 125.002 214.787 124.581C213.558 121.203 214.348 121.454 210.655 121.773C209.796 121.845 208.874 121.82 208.015 121.892C194.473 122.921 180.926 122.769 167.515 120.369C164.429 119.805 161.296 119.061 158.47 118.466C157.892 121.211 157.383 123.633 156.856 126.136C156.754 126.621 156.733 127.122 156.631 127.606C156.24 129.463 155.786 131.222 155.395 133.079C152.618 143.876 148.824 154.291 144.385 164.57C141.436 171.369 140.409 178.656 138.979 185.858C138.112 189.975 137.085 194.059 136.057 198.142C134.761 199.893 133.928 202.247 131.637 203.114L131.459 203.161C127.527 204.61 124.101 202.456 120.467 201.691C120.063 201.606 119.825 201.135 119.455 200.888C118.49 200.264 117.589 199.737 116.607 199.193C110.45 193.177 109.28 185.512 109.86 177.54C110.407 169.73 112.407 162.226 114.973 154.841C118.121 145.893 119.832 136.557 120.314 127.048C120.305 126.287 120.28 125.607 120.271 124.847C120.292 124.345 120.215 123.908 120.237 123.406C119.926 120.475 119.712 117.479 119.402 114.547C119.278 113.931 119.219 113.413 119.095 112.797C118.563 109.312 116.59 107.464 113.05 107.057C106.729 106.233 100.361 105.23 94.0573 104.326C84.812 102.971 75.6305 101.714 66.3682 100.44C65.9643 100.355 65.4797 100.253 65.0589 100.248C64.4128 100.112 63.7497 100.057 63.1036 99.9214C60.4852 99.5391 57.9475 99.1739 55.346 98.7109C50.8315 96.9181 46.3978 95.1423 41.8663 93.4302C40.1019 91.7944 38.3545 90.0779 36.5094 88.4252C33.631 84.8689 30.574 81.3594 27.8273 77.5779C26.3902 75.5894 25.6203 73.2355 24.5741 70.992C24.1994 67.9625 23.4039 64.9287 23.5307 61.9203C23.7882 53.8811 26.2901 46.3983 30.3394 39.5783C36.3305 29.5416 45.3404 23.5965 56.6634 21.0888C64.2546 19.4822 71.8589 19.8174 79.489 20.8324C87.5228 21.9324 95.1234 24.2901 102.091 28.4537C106.742 31.2026 111.146 34.3211 115.567 37.3589C121.451 41.4631 127.802 42.5462 134.385 39.7159C141.78 36.6348 149.112 33.456 156.205 29.8056C167.545 24.0134 178.884 18.2211 191.299 14.9315C202.983 11.9097 214.723 11.4287 226.243 15.2012C233.729 17.7034 240.947 21.0766 247.719 25.3678C256.422 30.908 263.93 37.7145 270.163 45.7703C277.786 55.6361 283.149 66.6281 284.367 79.2775C284.955 85.3026 283.473 91.1452 282.331 96.975C281.77 99.6392 280.985 102.172 280.343 104.819C280.042 105.851 279.804 106.982 279.502 108.014C279.235 108.885 278.903 109.659 278.636 110.53C278.483 111.256 278.249 111.966 278.097 112.693C277.863 113.402 277.629 114.112 277.315 114.804C276.996 115.918 276.695 116.95 276.295 118.047C276.13 118.433 275.947 118.901 275.781 119.287C275.531 120.078 275.182 120.932 274.932 121.722C274.864 122.045 274.732 122.27 274.664 122.593C274.431 123.303 274.197 124.012 273.883 124.705C273.785 124.769 273.67 124.913 273.636 125.075C273.437 125.623 273.301 126.269 273.101 126.817C272.884 127.446 272.765 128.011 272.549 128.64C272.417 128.865 272.285 129.09 272.154 129.315C271.988 129.702 271.742 130.072 271.559 130.539C270.926 132.345 270.212 134.134 269.579 135.94C267.812 139.53 266.206 143.155 264.277 146.712C260.929 153.005 257.581 159.298 253.944 165.361C247.919 175.56 240.848 185.116 232.638 193.674C230.266 196.126 227.606 198.349 225.043 200.507C224.325 201.115 223.433 201.349 222.587 201.761C222.489 201.825 222.294 201.952 222.196 202.016C222 202.143 221.724 202.254 221.529 202.381C221.431 202.445 221.252 202.492 221.155 202.556C220.959 202.683 220.844 202.828 220.632 203.036C220.292 203.049 219.952 203.061 219.612 203.074C217.924 203.478 216.318 203.899 214.63 204.302C214.112 204.362 213.657 204.519 213.138 204.579C212.96 204.626 212.701 204.655 212.522 204.702C211.472 204.481 210.422 204.26 209.292 204.022C208.841 203.759 208.373 203.576 207.923 203.313C206.958 202.688 205.929 201.966 204.883 201.325C204.386 200.883 203.905 200.36 203.489 199.935C203.063 198.75 202.447 197.271 201.911 195.809ZM37.4172 80.1012C37.5447 80.2966 37.6893 80.4114 37.8168 80.6068C41.1463 86.0284 45.8695 89.6355 51.5403 92.3461C51.6849 92.4608 51.7656 92.4778 51.9272 92.5117C56.8202 95.3116 62.1507 96.433 67.651 96.747C68.0548 96.832 68.4756 96.8362 68.9602 96.9381C70.3034 96.9678 71.6466 96.9975 72.9898 97.0271C73.4106 97.0313 73.8144 97.1163 74.2352 97.1205C77.0703 96.8739 79.9352 96.8864 82.6937 96.2021C85.1759 95.6284 87.4709 94.3407 89.8595 93.41C91.9591 92.2499 94.3477 91.3192 96.1921 89.7682C100.336 86.5089 103.935 82.6292 106.008 77.5854C109.017 76.1108 111.103 71.407 110.044 68.8236C109.602 67.7189 109.598 66.5376 109.431 65.3224C109.697 54.8399 105.393 46.4313 97.5922 39.816C91.2831 34.5264 82.8798 34.7819 76.5476 40.0256C73.7895 42.3118 72.0126 41.938 70.1841 38.6026C68.6576 35.8366 66.5743 33.7122 63.7389 32.3569C53.5576 27.4329 43.8032 30.102 37.7015 39.8625C35.9084 42.7732 34.6935 46.1428 33.1895 49.283C33.0279 49.249 32.7687 49.2788 32.7687 49.2788C31.9572 51.1314 31.1628 52.9033 28.5655 52.0197C28.4847 52.0027 28.3869 52.0664 28.37 52.1472C27.9495 53.7448 26.598 54.5565 25.7439 55.81C24.7921 57.1273 24.6267 59.1159 24.6739 60.8962C24.6656 61.7376 25.8389 62.5745 26.5277 63.3096C27.5354 64.5333 30.073 64.8985 31.6668 64.1378C32.522 67.69 33.4749 71.1784 34.3301 74.7306C34.6788 75.4784 35.0275 76.2262 35.3762 76.974C35.5038 77.1695 35.5506 77.3479 35.6781 77.5434C35.997 78.032 36.3159 78.5206 36.6178 79.09C36.7454 79.2854 36.8899 79.4001 36.9367 79.5786C37.2428 79.7273 37.3704 79.9227 37.4172 80.1012ZM278.849 75.8404C269.784 121.735 250.058 162.183 220.89 198.2C221.179 198.43 221.468 198.659 221.757 198.889C222.378 198.345 222.917 197.784 223.521 197.321C226.152 194.839 228.99 192.57 231.476 189.973C235.305 185.805 239.232 181.573 242.563 176.962C246.897 170.792 250.734 164.18 254.699 157.764C255.833 155.979 256.887 154.178 257.779 152.342C259.695 148.445 261.45 144.515 263.187 140.665C264.611 137.508 266.34 134.5 267.538 131.211C270.066 124.408 272.593 117.605 274.798 110.734C276.484 105.525 278.026 100.2 279.164 94.7912C279.996 90.8353 280.182 86.7434 280.449 82.6685C280.55 80.5822 281.043 78.241 278.849 75.8404ZM211.874 119.585C210.9 116.598 210.164 114.082 209.233 111.694C209.029 111.061 208.097 110.275 207.579 110.335C202.848 110.773 198.1 111.291 193.399 111.989C187.58 112.788 181.838 112.423 176.171 110.893C169.859 109.228 163.462 107.967 157.536 104.865C156.617 104.419 155.436 104.424 153.982 104.118C155.22 108.256 156.236 111.842 157.27 115.348C157.428 115.802 157.81 116.389 158.133 116.457C164.369 117.684 170.652 119.09 176.99 119.833C182.001 120.466 187.183 120.292 192.249 120.262C198.855 120.134 205.413 119.827 211.874 119.585ZM154.998 124.143C153.821 126.931 152.644 129.718 151.404 132.408C147.861 140.431 144.398 148.47 140.694 156.459C138.378 161.451 136.403 166.431 135.524 171.811C134.459 178.078 133.329 184.248 132.021 190.464C131.461 193.129 130.641 195.823 128.244 197.595C127.331 198.33 126.353 198.967 125.376 199.605C126.766 201.415 129.125 201.827 130.438 199.995C132.244 197.424 134.02 194.594 134.81 191.641C136.641 184.945 137.294 177.832 139.349 171.267C142.14 162.411 145.785 153.905 149.35 145.381C152.217 138.565 153.954 131.511 154.998 124.143ZM80.9221 100.213C80.9349 100.553 80.9308 100.974 80.8628 101.297C92.8832 100.285 104.373 103.798 116.093 105.42C116.717 102.854 115.573 100.674 113.082 100.487C106.468 99.8548 99.837 99.3028 93.121 99.1546C89.0745 99.1463 84.9558 99.8817 80.9221 100.213ZM227.227 177.698C232.893 174.422 235.263 168.766 237.842 163.323C237.617 163.191 237.472 163.076 237.247 162.945C233.928 167.895 230.529 172.829 227.227 177.698ZM236.526 170.381C241.838 166.777 245.093 161.729 246.58 155.466C243.261 160.416 239.925 165.447 236.526 170.381ZM248.34 139.481C245.774 145.264 243.323 150.903 240.773 156.605C244.938 152.844 248.932 143.483 248.34 139.481ZM222.619 191.988C222.844 192.12 223.15 192.269 223.375 192.4C227.561 188.138 231.135 183.579 232.426 177.443C229.141 182.232 225.92 187.118 222.619 191.988ZM151.287 124.543C148.836 130.182 146.465 135.837 143.815 142.024C149.156 137.078 150.545 130.879 151.287 124.543ZM150.25 105.019C149.771 110.904 149.322 117.048 148.856 123.273C151.58 119.546 152.333 107.143 150.25 105.019ZM145.75 129.617C145.605 129.502 145.363 129.451 145.219 129.336C143.116 134.121 140.932 138.889 138.829 143.673C138.812 143.754 139.246 144.098 139.437 144.391C143.219 140.044 144.727 134.882 145.75 129.617ZM124.402 198.22C128.227 196.073 132.662 186.215 131.722 183.067C129.343 187.962 126.964 192.857 124.402 198.22ZM252.995 141.809C255.736 141.205 260.885 129.558 260.111 126.023C257.762 131.177 255.395 136.412 252.995 141.809ZM257.618 114.623C255.332 119.875 253.046 125.127 250.778 130.298C254.348 127.761 258.112 118.689 257.618 114.623ZM200.68 107.45C200.65 107.191 200.684 107.029 200.654 106.77C194.924 106.745 189.275 106.737 183.545 106.712C189.237 108.921 194.937 108.687 200.68 107.45ZM159.095 101.062C164.324 104.27 172.868 106.152 176.621 104.749C170.644 103.492 165.152 102.337 159.095 101.062ZM190.702 103.159C185.109 102.488 179.612 101.754 174.018 101.083C179.417 103.483 184.892 104.719 190.702 103.159ZM135.543 160.096C138.535 158.702 142.834 147.888 142.174 144.208C140.084 149.333 137.879 154.602 135.543 160.096ZM134.188 166.134C132.583 171.361 131.058 176.604 129.452 181.831C129.694 181.882 129.856 181.915 130.081 182.047C133.141 177.127 134.342 171.815 134.188 166.134ZM167.884 96.1668C173.232 98.8093 178.741 99.884 184.598 98.5027C179.021 97.7509 173.461 96.9185 167.884 96.1668ZM267.033 98.7309C265.232 104.085 263.448 109.358 261.647 114.712C265.578 110.059 266.814 104.586 267.033 98.7309Z" fill="#BF7B49"/>
<path d="M34.4279 74.6669C33.5727 71.1147 32.6198 67.6263 31.7646 64.0741C37.4941 62.4973 43.2831 61.4389 49.3062 61.2728C52.2688 61.2216 55.2567 60.2484 58.2107 59.4366C61.0032 58.5909 61.755 56.2199 61.7331 53.5174C61.7241 51.155 59.8873 48.6609 57.4983 47.9897C55.3347 47.4502 53.0264 46.796 50.8714 47.0171C45.4096 47.7228 39.9436 48.8492 34.5456 49.6526C34.1885 49.7461 33.6741 49.385 33.2873 49.2193C34.7913 46.0791 35.9085 42.7733 37.7993 39.7988C43.884 30.119 53.5577 27.433 63.9174 32.3102C66.7529 33.6655 68.8362 35.7899 70.3627 38.5559C72.1912 41.8913 73.968 42.2651 76.7262 39.9789C83.0414 34.8159 91.3809 34.4627 97.7707 39.7693C105.589 46.3039 109.875 54.7932 109.627 65.195C109.402 65.0633 108.998 64.9783 108.87 64.7829C105.486 60.0241 100.529 57.1266 95.6529 54.246C92.4986 52.4022 89.1955 50.8642 85.4422 50.6648C82.6921 50.5077 80.7201 51.8633 79.4497 54.2939C78.3111 56.4992 78.3371 58.7809 80.1652 60.5144C82.2017 62.4604 84.4676 64.1174 86.8483 65.6299C91.2227 68.4892 95.729 71.1233 100.218 73.8382C102.165 75.0066 104.176 76.2726 106.123 77.441C104.05 82.4848 100.45 86.3644 96.3069 89.6237C94.3987 91.0771 92.0909 92.0248 89.9744 93.2656C89.1327 93.2572 88.2741 93.3295 87.4325 93.321C84.1766 93.5634 81.58 95.8836 78.2475 95.6884C77.5844 95.6332 76.9511 95.8372 76.305 95.7012C75.1105 95.3656 74.524 95.7481 74.35 96.9761C73.9292 96.9719 73.5254 96.8869 73.1046 96.8827C71.7614 96.853 70.4182 96.8234 69.075 96.7937C68.6712 96.7088 68.2504 96.7045 67.7658 96.6026C62.5033 95.1583 57.3045 93.8117 52.042 92.3673C51.8804 92.3333 51.7997 92.3164 51.6551 92.2016C51.1279 91.5006 50.6346 90.638 49.8949 90.1452C48.577 89.1935 46.9149 88.6752 45.6948 87.6598C43.8965 86.1855 42.3276 84.4222 40.644 82.8034C39.8107 81.9537 38.8627 81.2484 37.9316 80.4624C37.8041 80.2669 37.6595 80.1522 37.532 79.9568C37.4044 79.7613 37.2599 79.6466 37.2131 79.4681C37.0855 79.2727 36.941 79.158 36.8942 78.9795C36.5753 78.4909 36.2564 78.0023 35.9544 77.4329C35.8269 77.2375 35.7801 77.059 35.6525 76.8636C35.5971 75.9245 36.3704 74.654 34.4279 74.6669ZM67.1635 64.1865C65.2806 64.7178 63.3977 65.249 61.5148 65.7803C60.9963 65.8398 60.4309 65.7209 60.0569 65.8951C56.9289 67.9349 53.8817 69.9916 50.8345 72.0484C50.6092 71.9166 50.4179 71.6235 50.1756 71.5725C49.4657 71.3389 48.7218 71.2667 47.9949 71.1137C48.1991 71.7468 48.3055 72.4437 48.6074 73.013C48.9731 73.6801 49.4366 74.2835 49.9 74.8868C49.5909 79.9645 52.0145 83.678 55.8874 86.5161C61.801 90.8795 68.5765 91.5462 75.411 89.5274C79.6316 88.3076 83.5076 85.9194 83.7699 80.6633C84.6157 80.2511 85.5891 80.0343 86.2903 79.5074C86.779 79.1887 86.9319 78.4621 87.2123 77.9309C86.647 77.812 86.1156 77.5316 85.5162 77.5741C84.6576 77.6464 83.8289 77.9779 83.034 78.1479C82.0683 74.3195 79.3261 71.7193 76.6647 69.136C75.1894 67.7297 73.3699 66.7568 71.6822 65.5586C71.2316 65.2952 70.7002 65.0148 70.2665 64.6707C69.2804 64.5475 68.2304 64.3266 67.1635 64.1865Z" fill="#FBFBF8"/>
<path d="M33.2872 49.2196C33.674 49.3853 34.1884 49.7465 34.5454 49.653C39.9605 48.7688 45.4095 47.7232 50.8543 47.0982C53.0093 46.8771 55.3345 47.4506 57.4812 48.0708C59.8872 48.6613 61.707 51.2361 61.716 53.5986C61.7549 56.2202 60.986 58.672 58.1936 59.5177C55.3204 60.3465 52.2517 61.3027 49.2891 61.3539C43.266 61.52 37.477 62.5784 31.7475 64.1552C30.2345 64.9329 27.6161 64.5507 26.6084 63.327C25.9366 62.5112 24.7633 61.6742 24.7546 60.9136C24.7712 59.231 24.9535 57.1617 25.8246 55.8274C26.6617 54.6546 28.0302 53.7622 28.4507 52.1646C28.4676 52.0838 28.5654 52.0201 28.6462 52.0371C31.2435 52.9207 32.0549 51.0681 32.8494 49.2962C32.8663 49.2154 33.1086 49.2664 33.2872 49.2196ZM55.6119 52.1458C53.5505 52.7238 51.6804 53.595 49.8017 53.7056C47.9399 53.7354 45.9887 52.9877 43.9696 52.563C44.9648 55.0486 48.0214 56.9562 50.3719 56.6076C52.9986 56.1486 55.4465 54.1343 55.6119 52.1458Z" fill="#89857D"/>
<path d="M106.008 77.5854C104.061 76.417 102.05 75.1509 100.103 73.9826C95.6142 71.2677 91.1249 68.5529 86.7335 65.7743C84.3528 64.2617 82.1039 62.524 80.0504 60.6588C78.2223 58.9253 78.1963 56.6436 79.3349 54.4382C80.6053 52.0077 82.5603 50.7328 85.3274 50.8091C89.0807 51.0086 92.3838 52.5465 95.5381 54.3904C100.414 57.271 105.371 60.1685 108.756 64.9272C108.883 65.1227 109.287 65.2076 109.512 65.3393C109.695 66.4738 109.683 67.7358 110.125 68.8405C111.201 71.3432 109.017 76.1108 106.008 77.5854ZM84.2321 56.8174C85.1892 59.8852 86.4139 62.0818 89.1599 62.6595C91.8251 63.2202 94.1628 62.5317 96.6616 60.2753C94.073 60.1523 91.9818 60.4711 89.9966 59.8848C88.0752 59.3963 86.4215 58.0367 84.2321 56.8174Z" fill="#89857D"/>
<path d="M80.9222 100.213C84.9729 99.801 89.0915 99.0656 93.1211 99.1546C99.7563 99.2859 106.468 99.8548 113.082 100.487C115.654 100.691 116.717 102.854 116.093 105.42C104.373 103.798 92.9641 100.302 80.8629 101.297C80.8501 100.957 80.918 100.634 80.9222 100.213Z" fill="#9D5A2C"/>
<path d="M74.2523 97.0396C74.4093 95.8924 75.0935 95.4462 76.2072 95.7648C76.7726 95.8837 77.4866 95.6967 78.1497 95.7519C81.4822 95.9471 84.1596 93.644 87.3347 93.3846C88.1933 93.3123 89.0349 93.3207 89.8766 93.3292C87.4879 94.2599 85.1929 95.5475 82.7107 96.1213C79.9522 96.8056 77.0066 96.776 74.2523 97.0396Z" fill="#EEE5B9"/>
<path d="M37.8168 80.6067C38.7479 81.3927 39.6151 82.081 40.5292 82.9477C42.2128 84.5665 43.7816 86.3298 45.58 87.8041C46.8001 88.8195 48.4622 89.3378 49.7801 90.2895C50.5198 90.7824 50.9323 91.6279 51.5403 92.346C45.8524 89.7162 41.0655 86.0113 37.8168 80.6067Z" fill="#EEE5B9"/>
<path d="M51.9272 92.5117C57.1897 93.9561 62.3885 95.3027 67.651 96.747C62.0699 96.4159 56.7395 95.2945 51.9272 92.5117Z" fill="#EEE5B9"/>
<path d="M68.8795 96.9207C70.2227 96.9503 71.5658 96.98 72.909 97.0097C71.5828 96.8993 70.2227 96.9503 68.8795 96.9207Z" fill="#EEE5B9"/>
<path d="M66.3681 100.44C65.9643 100.355 65.4797 100.253 65.0589 100.248C65.4627 100.333 65.9643 100.355 66.3681 100.44Z" fill="#9D5A2C"/>
<path d="M71.7628 65.5758C73.4506 66.774 75.3508 67.7639 76.7453 69.1532C79.4068 71.7365 82.149 74.3367 83.1147 78.1651C71.5924 82.8228 59.2569 81.3237 50.7537 72.0316C53.8009 69.9748 56.9288 67.935 59.9761 65.8783C60.367 65.6233 60.9324 65.7423 61.434 65.7635C60.2149 69.5537 60.5085 70.9644 63.4885 72.4344C65.1634 73.2926 67.1995 73.6366 69.125 73.7045C70.889 73.7384 72.8357 73.3048 73.6641 71.3714C74.5096 69.3573 73.4891 67.7937 72.1116 66.3236C71.984 66.1282 71.8734 65.852 71.7628 65.5758Z" fill="#89857D"/>
<path d="M83.7529 80.7443C83.4736 86.0811 79.6146 88.3886 75.394 89.6084C68.5595 91.6271 61.7839 90.9605 55.8704 86.5971C52.0783 83.7759 49.5738 80.0454 49.883 74.9678C50.542 75.4436 51.2179 75.8387 51.7961 76.2976C56.294 79.773 61.2379 82.3306 67.0274 82.8741C72.736 83.4007 78.3465 82.389 83.7529 80.7443Z" fill="#89857D"/>
<path d="M83.7529 80.7438C78.3295 82.4692 72.7359 83.4002 67.0273 82.8737C61.3187 82.3472 56.3747 79.7895 51.796 76.2971C51.1371 75.8213 50.4611 75.4261 49.8829 74.9673C49.4195 74.3639 48.9561 73.7606 48.5904 73.0935C48.2884 72.5242 48.182 71.8273 47.9778 71.1942C48.7047 71.3471 49.4316 71.5001 50.1585 71.653C50.4008 71.704 50.5921 71.9971 50.8174 72.1288C59.2399 81.404 71.6562 82.9201 83.1785 78.2624C83.9903 78.0116 84.8021 77.7609 85.6607 77.6886C86.1792 77.629 86.7914 77.9264 87.3568 78.0454C87.0763 78.5765 86.8427 79.2861 86.4347 79.6218C85.572 80.1148 84.6794 80.3485 83.7529 80.7438Z" fill="#391105"/>
<path d="M71.7629 65.5759C71.8734 65.8521 71.984 66.1282 72.1116 66.3237C73.4891 67.7938 74.5096 69.3574 73.6642 71.3715C72.8357 73.3049 70.8721 73.8191 69.1251 73.7045C67.1995 73.6367 65.1804 73.2119 63.4885 72.4344C60.5893 70.9814 60.2957 69.5708 61.434 65.7635C63.3169 65.2323 65.1998 64.701 67.0827 64.1697C68.1326 64.3906 69.1995 64.5308 70.2495 64.7517C70.7809 65.0321 71.3123 65.3125 71.7629 65.5759ZM63.0153 66.2648C65.7957 68.2829 68.8221 68.3295 71.9206 67.6324C69.8883 65.2658 66.9468 64.8156 63.0153 66.2648Z" fill="#391105"/>
<path d="M70.3302 64.7684C69.2803 64.5475 68.2134 64.4073 67.1634 64.1864C68.2304 64.3266 69.2803 64.5475 70.3302 64.7684Z" fill="#89857D"/>
<path d="M55.6119 52.1454C55.4296 54.2147 52.9987 56.1482 50.372 56.6073C48.0215 56.9558 45.0456 55.0652 43.9697 52.5626C45.9888 52.9873 47.8592 53.7181 49.8017 53.7052C51.6805 53.5946 53.5505 52.7234 55.6119 52.1454Z" fill="#391105"/>
<path d="M84.2321 56.8174C86.5022 58.0537 88.1559 59.4133 89.9796 59.9656C91.9009 60.4541 94.0559 60.233 96.6446 60.356C94.2265 62.6294 91.8081 63.301 89.1428 62.7403C86.333 62.0648 85.2061 59.8044 84.2321 56.8174Z" fill="#391105"/>
<path d="M63.0153 66.2649C66.866 64.7987 69.8883 65.2659 71.9206 67.6325C68.8221 68.3296 65.7956 68.283 63.0153 66.2649Z" fill="#EEE5B9"/>
</g>
<path d="M0 0H120H0ZM120 112C120 120.837 112.837 128 104 128H16C7.16344 128 0 120.837 0 112C0 112 3.58172 112 8 112H112C116.418 112 120 112 120 112ZM0 120V0V120ZM120 0V120V0Z" fill="#8AAA1F" mask="url(#path-1-inside-1_1291_3)"/>
<defs>
<clipPath id="clip0_1291_3">
<path d="M0 8C0 3.58172 3.58172 0 8 0H112C116.418 0 120 3.58172 120 8V112C120 116.418 116.418 120 112 120H8C3.58172 120 0 116.418 0 112V8Z" fill="white"/>
</clipPath>
</defs>
</svg>
