<svg width="13" height="14" viewBox="0 0 13 14" fill="none" xmlns="http://www.w3.org/2000/svg">
<path fill-rule="evenodd" clip-rule="evenodd" d="M6.99704 0H5.92604C5.06262 0 4.72258 0.0614634 4.37446 0.18439C4.02554 0.308 3.73477 0.493756 3.49892 0.74439C3.26308 0.993658 3.10073 1.25385 2.86569 1.9559L2.72031 2.39024H0.807692C0.593479 2.39024 0.388039 2.4622 0.236568 2.59027C0.0850961 2.71834 0 2.89205 0 3.07317C0 3.25429 0.0850961 3.428 0.236568 3.55607C0.388039 3.68415 0.593479 3.7561 0.807692 3.7561H1.26242L1.83023 11.439C1.89646 12.3405 1.92958 12.7912 2.15896 13.1334C2.36057 13.4345 2.66562 13.6767 3.03369 13.8279C3.45127 14 3.98596 14 5.05454 14H7.86854C8.93711 14 9.47181 14 9.88938 13.8279C10.2575 13.6767 10.5625 13.4345 10.7641 13.1334C10.9935 12.7919 11.0266 12.3412 11.0928 11.4383L11.6607 3.7561H12.1154C12.3296 3.7561 12.535 3.68415 12.6865 3.55607C12.838 3.428 12.9231 3.25429 12.9231 3.07317C12.9231 2.89205 12.838 2.71834 12.6865 2.59027C12.535 2.4622 12.3296 2.39024 12.1154 2.39024H10.2036L10.0582 1.9559C9.82235 1.25385 9.66 0.993659 9.42415 0.743707C9.19361 0.497085 8.89218 0.304523 8.54861 0.18439C8.2005 0.0614634 7.85965 0 6.99704 0ZM8.52358 2.39024L8.50338 2.32878C8.33942 1.83912 8.26915 1.71073 8.16092 1.59532C8.09965 1.52811 8.01822 1.476 7.92508 1.44439C7.76354 1.38702 7.59877 1.36585 6.99704 1.36585H5.92604C5.32431 1.36585 5.15873 1.38702 4.998 1.44439C4.90486 1.476 4.82343 1.52811 4.76215 1.59532C4.65312 1.71073 4.58365 1.83912 4.41969 2.32878L4.39869 2.39024H8.52358ZM4.53115 4.78459C4.45159 4.78688 4.37334 4.80241 4.30087 4.83029C4.22841 4.85817 4.16316 4.89785 4.10885 4.94707C4.05454 4.99629 4.01224 5.05408 3.98436 5.11713C3.95648 5.18018 3.94358 5.24726 3.94638 5.31454L4.18627 11.116C4.19338 11.2509 4.2632 11.378 4.38054 11.4695C4.49788 11.5611 4.65325 11.6098 4.81284 11.6051C4.97244 11.6003 5.12335 11.5424 5.23275 11.4441C5.34214 11.3457 5.40118 11.2148 5.397 11.0798L5.15712 5.27902C5.15164 5.14328 5.08262 5.01493 4.96523 4.9222C4.84784 4.82948 4.6917 4.77998 4.53115 4.78459ZM7.76838 5.27902C7.77574 5.14434 7.8456 5.01754 7.96282 4.92613C8.08003 4.83472 8.23515 4.78608 8.39451 4.79075C8.55387 4.79543 8.70463 4.85304 8.81407 4.9511C8.92352 5.04916 8.98282 5.17975 8.97911 5.31454L8.73923 11.116C8.73212 11.2509 8.6623 11.378 8.54496 11.4695C8.42762 11.5611 8.27225 11.6098 8.11266 11.6051C7.95306 11.6003 7.80215 11.5424 7.69275 11.4441C7.58336 11.3457 7.52432 11.2148 7.5285 11.0798L7.76838 5.27902Z" fill="#AAB4B4"/>
</svg>
