<svg width="174" height="99" viewBox="0 0 174 99" fill="none" xmlns="http://www.w3.org/2000/svg">
<g filter="url(#filter0_ddd_19_1461)">
<path d="M155.016 21.6945C153.249 23.2681 152.367 25.4449 151.935 27.5654C151.411 30.1592 148.721 30.4941 145.657 27.3563L135.791 18.0147C134.47 16.7248 132.367 16.7076 131.026 17.9742C131.026 17.9742 122.523 26.0861 121.234 27.2331C119.946 28.3799 119.859 29.8422 121.293 30.4146C122.727 30.985 126.26 30.6186 128.484 32.7847C131.953 36.1623 131.614 42.0077 128.008 45.2181C124.401 48.4286 118.556 48.089 115.603 44.2524C113.708 41.7926 114.481 38.3258 114.081 36.8354C113.678 35.3448 112.216 35.2617 110.927 36.4088C109.639 37.5557 100.597 45.063 100.597 45.063C99.1841 46.2486 98.9577 48.3398 100.086 49.8004L108.031 60.8528C110.792 64.2596 110.149 66.8925 107.512 67.1133C105.355 67.2971 103.091 67.9209 101.323 69.4944C97.7874 72.6422 97.4727 78.0655 100.622 81.6026C103.77 85.1397 109.194 85.4547 112.73 82.3066C114.497 80.7331 115.379 78.5561 115.811 76.4357C116.335 73.8409 119.025 73.5071 122.09 76.6448L132.148 85.8148C133.468 87.1048 135.572 87.1219 136.913 85.8553C136.913 85.8553 145.416 77.7433 146.705 76.5965C147.993 75.4495 148.08 73.9874 146.646 73.415C145.212 72.8444 141.679 73.2108 139.454 71.0438C135.986 67.6673 136.325 61.8218 139.931 58.6113C143.537 55.401 149.383 55.7404 152.335 59.5761C154.23 62.0368 153.458 65.5034 153.858 66.9941C154.261 68.4846 155.723 68.5677 157.012 67.4207C158.3 66.2737 167.342 58.7665 167.342 58.7665C168.755 57.581 168.981 55.4898 167.853 54.0291L159.716 43.1484C156.954 39.7414 157.597 37.1077 160.235 36.8879C162.391 36.7039 164.655 36.0802 166.423 34.5067C169.96 31.3579 170.275 25.9345 167.126 22.3974C163.977 18.8603 158.553 18.5457 155.016 21.6945Z" fill="#3EA6CD"/>
</g>
<g filter="url(#filter1_ddd_19_1461)">
<path d="M77.599 37.7207C75.3653 38.5022 73.721 40.1791 72.5135 41.9751C71.0405 44.1735 68.4261 43.4584 66.7882 39.3898L61.2249 26.9941C60.4957 25.2985 58.5575 24.4813 56.835 25.1415C56.835 25.1415 45.8825 29.4022 44.2543 29.9718C42.6263 30.5414 41.9889 31.8603 43.0966 32.9358C44.2054 34.0097 47.6114 35.0167 48.8426 37.8668C50.7633 42.3112 48.2225 47.5866 43.6653 49.181C39.1079 50.7755 33.8327 48.2348 32.5636 43.5624C31.7494 40.5664 33.7846 37.6555 33.982 36.1248C34.1777 34.5932 32.8573 33.9593 31.229 34.5291C29.6009 35.0987 18.3812 38.5954 18.3812 38.5954C16.6228 39.1531 15.6168 41.0004 16.1038 42.7808L19.2385 56.0262C20.4942 60.2283 18.8959 62.4173 16.3736 61.6169C14.3099 60.9654 11.9787 60.6795 9.74493 61.461C5.27648 63.0244 2.91936 67.9188 4.48327 72.3887C6.04718 76.8587 10.9415 79.216 15.4103 77.6525C17.644 76.871 19.2885 75.194 20.4959 73.3982C21.9685 71.1985 24.5834 71.9149 26.2213 75.9834L32.0279 88.2938C32.7572 89.9894 34.6954 90.8066 36.4179 90.1465C36.4179 90.1465 47.3703 85.8856 48.9983 85.316C50.6265 84.7463 51.2637 83.4275 50.156 82.352C49.0474 81.2781 45.6414 80.271 44.4098 77.4198C42.4894 72.9766 45.0301 67.7013 49.5875 66.1068C54.1448 64.5123 59.4201 67.053 60.6888 71.7243C61.5034 74.7214 59.4682 77.6322 59.2707 79.163C59.0751 80.6945 60.3955 81.3284 62.0237 80.7588C63.6519 80.1891 74.8717 76.6925 74.8717 76.6925C76.63 76.1348 77.636 74.2875 77.1491 72.5071L73.771 59.3471C72.5152 55.1448 74.1132 52.9547 76.6359 53.7564C78.6995 54.4077 81.0308 54.6936 83.2643 53.9122C87.7343 52.3483 90.0915 47.4538 88.5276 42.9839C86.9637 38.5139 82.0689 36.1568 77.599 37.7207Z" fill="#3EA6CD"/>
</g>
<g filter="url(#filter2_ddd_19_1461)">
<rect x="39.4644" y="9" width="101.66" height="73.2957" rx="4" fill="#39AAD5"/>
<path d="M62.8254 37.9371V39.8654H53.3558V37.9371H62.8254ZM53.8348 21.9826V39.8654H51.4644V21.9826H53.8348ZM61.5726 29.6712V31.5995H53.3558V29.6712H61.5726ZM62.7025 21.9826V23.9232H53.3558V21.9826H62.7025Z" fill="white"/>
<path d="M67.6891 29.4133V39.8654H65.4169V26.5761H67.5663L67.6891 29.4133ZM67.1487 32.7172L66.203 32.6803C66.2112 31.7715 66.3463 30.9322 66.6083 30.1625C66.8703 29.3846 67.2388 28.7091 67.7137 28.1359C68.1886 27.5628 68.7536 27.1206 69.4086 26.8095C70.0718 26.4901 70.8047 26.3305 71.6071 26.3305C72.2622 26.3305 72.8517 26.4205 73.3758 26.6007C73.8998 26.7726 74.346 27.051 74.7145 27.4359C75.0912 27.8207 75.3777 28.3202 75.5743 28.9343C75.7708 29.5402 75.869 30.2812 75.869 31.1574V39.8654H73.5846V31.1328C73.5846 30.4368 73.4822 29.88 73.2775 29.4624C73.0728 29.0366 72.7739 28.7296 72.3809 28.5413C71.9879 28.3447 71.5048 28.2465 70.9316 28.2465C70.3666 28.2465 69.8508 28.3652 69.384 28.6027C68.9255 28.8401 68.5284 29.1676 68.1927 29.5852C67.8652 30.0028 67.6072 30.4818 67.4189 31.0223C67.2388 31.5545 67.1487 32.1195 67.1487 32.7172Z" fill="white"/>
<path d="M87.9301 26.5761H89.9935V39.5829C89.9935 40.7538 89.7561 41.7528 89.2812 42.5798C88.8063 43.4068 88.143 44.0332 87.2915 44.459C86.4481 44.8929 85.4737 45.1099 84.3683 45.1099C83.9098 45.1099 83.3693 45.0362 82.7471 44.8888C82.1329 44.7496 81.527 44.5081 80.9293 44.1642C80.3397 43.8285 79.8444 43.374 79.4431 42.8009L80.6345 41.4498C81.1913 42.1212 81.7727 42.588 82.3786 42.85C82.9927 43.112 83.5986 43.243 84.1963 43.243C84.9169 43.243 85.5392 43.1079 86.0632 42.8377C86.5873 42.5675 86.9926 42.1663 87.2792 41.6341C87.5739 41.11 87.7213 40.4632 87.7213 39.6935V29.4993L87.9301 26.5761ZM78.7799 33.3682V33.1102C78.7799 32.0949 78.8986 31.1737 79.1361 30.3467C79.3817 29.5115 79.7297 28.7951 80.1801 28.1974C80.6386 27.5996 81.1913 27.1411 81.8382 26.8218C82.485 26.4942 83.2138 26.3305 84.0244 26.3305C84.8596 26.3305 85.5883 26.4778 86.2106 26.7726C86.8411 27.0592 87.3733 27.4809 87.8073 28.0377C88.2495 28.5863 88.5975 29.2495 88.8513 30.0274C89.1051 30.8053 89.2812 31.6855 89.3794 32.6681V33.798C89.2894 34.7724 89.1133 35.6485 88.8513 36.4264C88.5975 37.2043 88.2495 37.8675 87.8073 38.4161C87.3733 38.9647 86.8411 39.3864 86.2106 39.6812C85.5801 39.9678 84.8432 40.1111 83.9998 40.1111C83.2056 40.1111 82.485 39.9432 81.8382 39.6075C81.1995 39.2718 80.6509 38.801 80.1924 38.195C79.7338 37.5891 79.3817 36.8768 79.1361 36.0579C78.8986 35.2309 78.7799 34.3343 78.7799 33.3682ZM81.0521 33.1102V33.3682C81.0521 34.0314 81.1176 34.6537 81.2486 35.235C81.3878 35.8164 81.5966 36.3282 81.875 36.7703C82.1616 37.2125 82.526 37.5605 82.9681 37.8143C83.4103 38.0599 83.9384 38.1828 84.5525 38.1828C85.3058 38.1828 85.9281 38.0231 86.4194 37.7038C86.9107 37.3844 87.2996 36.9627 87.5862 36.4387C87.881 35.9147 88.1103 35.3456 88.274 34.7315V31.7715C88.184 31.3211 88.0448 30.8872 87.8564 30.4696C87.6763 30.0438 87.4388 29.6671 87.1441 29.3396C86.8575 29.0039 86.5013 28.7378 86.0755 28.5413C85.6497 28.3447 85.1503 28.2465 84.5771 28.2465C83.9548 28.2465 83.4185 28.3775 82.9681 28.6395C82.526 28.8933 82.1616 29.2454 81.875 29.6958C81.5966 30.1379 81.3878 30.6538 81.2486 31.2433C81.1176 31.8247 81.0521 32.447 81.0521 33.1102Z" fill="white"/>
<path d="M95.9135 21V39.8654H93.6291V21H95.9135Z" fill="white"/>
<path d="M102.03 26.5761V39.8654H99.7456V26.5761H102.03ZM99.5736 23.0511C99.5736 22.6827 99.6842 22.3715 99.9053 22.1177C100.135 21.8638 100.47 21.7369 100.912 21.7369C101.346 21.7369 101.678 21.8638 101.907 22.1177C102.145 22.3715 102.263 22.6827 102.263 23.0511C102.263 23.4032 102.145 23.7062 101.907 23.96C101.678 24.2056 101.346 24.3285 100.912 24.3285C100.47 24.3285 100.135 24.2056 99.9053 23.96C99.6842 23.7062 99.5736 23.4032 99.5736 23.0511Z" fill="white"/>
<path d="M113.416 36.3404C113.416 36.0129 113.342 35.71 113.195 35.4316C113.055 35.145 112.765 34.887 112.323 34.6578C111.889 34.4203 111.234 34.2156 110.357 34.0437C109.62 33.8881 108.953 33.7039 108.355 33.491C107.766 33.2781 107.262 33.0202 106.845 32.7172C106.435 32.4142 106.12 32.0581 105.899 31.6486C105.678 31.2392 105.567 30.7602 105.567 30.2116C105.567 29.6876 105.682 29.1922 105.911 28.7255C106.149 28.2588 106.48 27.8453 106.906 27.485C107.34 27.1247 107.86 26.8422 108.466 26.6375C109.072 26.4328 109.747 26.3305 110.492 26.3305C111.557 26.3305 112.466 26.5188 113.219 26.8954C113.972 27.2721 114.55 27.7757 114.951 28.4062C115.352 29.0284 115.553 29.7203 115.553 30.4818H113.281C113.281 30.1134 113.17 29.7572 112.949 29.4133C112.736 29.0612 112.421 28.7705 112.003 28.5413C111.594 28.312 111.09 28.1974 110.492 28.1974C109.862 28.1974 109.35 28.2956 108.957 28.4921C108.572 28.6805 108.29 28.922 108.11 29.2168C107.938 29.5115 107.852 29.8227 107.852 30.1502C107.852 30.3959 107.893 30.6169 107.975 30.8135C108.065 31.0018 108.22 31.1778 108.441 31.3416C108.662 31.4972 108.974 31.6446 109.375 31.7838C109.776 31.9229 110.288 32.0621 110.91 32.2013C111.999 32.447 112.896 32.7418 113.6 33.0857C114.304 33.4296 114.828 33.8512 115.172 34.3507C115.516 34.8502 115.688 35.4561 115.688 36.1685C115.688 36.7498 115.565 37.2821 115.319 37.7652C115.082 38.2483 114.734 38.6659 114.275 39.018C113.825 39.3619 113.285 39.6321 112.654 39.8286C112.032 40.0169 111.332 40.1111 110.554 40.1111C109.383 40.1111 108.392 39.9023 107.582 39.4847C106.771 39.0671 106.157 38.5267 105.739 37.8634C105.322 37.2002 105.113 36.5001 105.113 35.7632H107.397C107.43 36.3855 107.61 36.8809 107.938 37.2493C108.265 37.6096 108.667 37.8675 109.141 38.0231C109.616 38.1705 110.087 38.2442 110.554 38.2442C111.176 38.2442 111.696 38.1623 112.114 37.9985C112.54 37.8348 112.863 37.6096 113.084 37.323C113.305 37.0364 113.416 36.7089 113.416 36.3404Z" fill="white"/>
<path d="M120.945 21V39.8654H118.672V21H120.945ZM120.404 32.7172L119.458 32.6803C119.467 31.7715 119.602 30.9322 119.864 30.1625C120.126 29.3846 120.494 28.7091 120.969 28.1359C121.444 27.5628 122.009 27.1206 122.664 26.8095C123.327 26.4901 124.06 26.3305 124.863 26.3305C125.518 26.3305 126.107 26.4205 126.631 26.6007C127.155 26.7726 127.602 27.051 127.97 27.4359C128.347 27.8207 128.633 28.3202 128.83 28.9343C129.026 29.5402 129.125 30.2812 129.125 31.1574V39.8654H126.84V31.1328C126.84 30.4368 126.738 29.88 126.533 29.4624C126.328 29.0366 126.029 28.7296 125.636 28.5413C125.243 28.3447 124.76 28.2465 124.187 28.2465C123.622 28.2465 123.106 28.3652 122.64 28.6027C122.181 28.8401 121.784 29.1676 121.448 29.5852C121.121 30.0028 120.863 30.4818 120.674 31.0223C120.494 31.5545 120.404 32.1195 120.404 32.7172Z" fill="white"/>
<path d="M58.0599 63.037H53.2821V61.1087H58.0599C58.9851 61.1087 59.7344 60.9613 60.3075 60.6665C60.8807 60.3717 61.2983 59.9623 61.5603 59.4383C61.8305 58.9143 61.9656 58.3165 61.9656 57.6451C61.9656 57.031 61.8305 56.4537 61.5603 55.9133C61.2983 55.3729 60.8807 54.9389 60.3075 54.6114C59.7344 54.2757 58.9851 54.1078 58.0599 54.1078H53.8348V70.0501H51.4644V52.1672H58.0599C59.4109 52.1672 60.5532 52.4006 61.4866 52.8673C62.4201 53.3341 63.1283 53.9809 63.6114 54.8079C64.0945 55.6267 64.3361 56.5643 64.3361 57.6205C64.3361 58.7669 64.0945 59.7454 63.6114 60.556C63.1283 61.3666 62.4201 61.9848 61.4866 62.4106C60.5532 62.8282 59.4109 63.037 58.0599 63.037Z" fill="white"/>
<path d="M75.1198 66.9796V56.7608H77.4043V70.0501H75.2304L75.1198 66.9796ZM75.5497 64.1792L76.4954 64.1547C76.4954 65.039 76.4013 65.8578 76.2129 66.6111C76.0328 67.3562 75.738 68.0031 75.3286 68.5517C74.9192 69.1003 74.3829 69.5301 73.7197 69.8413C73.0564 70.1443 72.2499 70.2957 71.3001 70.2957C70.6532 70.2957 70.0596 70.2016 69.5191 70.0133C68.9869 69.8249 68.5284 69.5342 68.1435 69.1412C67.7587 68.7482 67.4598 68.2364 67.2469 67.6059C67.0422 66.9755 66.9399 66.2181 66.9399 65.3337V56.7608H69.2121V65.3583C69.2121 65.956 69.2776 66.4514 69.4086 66.8444C69.5478 67.2293 69.732 67.5363 69.9613 67.7656C70.1988 67.9867 70.4608 68.1423 70.7474 68.2323C71.0421 68.3224 71.3451 68.3674 71.6562 68.3674C72.6224 68.3674 73.388 68.1832 73.953 67.8147C74.518 67.4381 74.9233 66.9345 75.1689 66.304C75.4228 65.6654 75.5497 64.9571 75.5497 64.1792Z" fill="white"/>
<path d="M90.7673 68.1832V70.0501H81.1012V68.1832H90.7673ZM90.4111 58.3697L81.6171 70.0501H80.2292V68.3797L88.9618 56.7608H90.4111V58.3697ZM89.404 56.7608V58.64H80.3275V56.7608H89.404Z" fill="white"/>
<path d="M103.246 68.1832V70.0501H93.5799V68.1832H103.246ZM102.89 58.3697L94.0958 70.0501H92.7079V68.3797L101.441 56.7608H102.89V58.3697ZM101.883 56.7608V58.64H92.8062V56.7608H101.883Z" fill="white"/>
<path d="M108.294 51.1847V70.0501H106.009V51.1847H108.294Z" fill="white"/>
<path d="M117.456 70.2957C116.531 70.2957 115.692 70.1402 114.939 69.829C114.194 69.5097 113.551 69.0634 113.01 68.4903C112.478 67.9171 112.069 67.2375 111.782 66.4514C111.496 65.6654 111.352 64.8056 111.352 63.8722V63.3563C111.352 62.2755 111.512 61.3134 111.831 60.47C112.151 59.6184 112.585 58.8979 113.133 58.3083C113.682 57.7188 114.304 57.2725 115 56.9696C115.696 56.6666 116.417 56.5151 117.162 56.5151C118.112 56.5151 118.93 56.6789 119.618 57.0064C120.314 57.334 120.883 57.7925 121.325 58.382C121.768 58.9634 122.095 59.6512 122.308 60.4454C122.521 61.2315 122.627 62.0912 122.627 63.0247V64.0441H112.703V62.1895H120.355V62.0176C120.322 61.428 120.199 60.8548 119.987 60.298C119.782 59.7413 119.454 59.2827 119.004 58.9224C118.554 58.5622 117.94 58.382 117.162 58.382C116.646 58.382 116.171 58.4926 115.737 58.7136C115.303 58.9265 114.93 59.2459 114.619 59.6717C114.308 60.0974 114.067 60.6174 113.895 61.2315C113.723 61.8456 113.637 62.5539 113.637 63.3563V63.8722C113.637 64.5026 113.723 65.0963 113.895 65.6531C114.075 66.2017 114.333 66.6848 114.668 67.1024C115.012 67.52 115.426 67.8475 115.909 68.0849C116.4 68.3224 116.957 68.4411 117.579 68.4411C118.382 68.4411 119.061 68.2774 119.618 67.9498C120.175 67.6223 120.662 67.1843 121.08 66.6357L122.455 67.7288C122.169 68.1627 121.804 68.5762 121.362 68.9693C120.92 69.3623 120.376 69.6816 119.729 69.9273C119.09 70.1729 118.333 70.2957 117.456 70.2957Z" fill="white"/>
</g>
<defs>
<filter id="filter0_ddd_19_1461" x="94.4512" y="16.0356" width="78.8452" height="78.7582" filterUnits="userSpaceOnUse" color-interpolation-filters="sRGB">
<feFlood flood-opacity="0" result="BackgroundImageFix"/>
<feColorMatrix in="SourceAlpha" type="matrix" values="0 0 0 0 0 0 0 0 0 0 0 0 0 0 0 0 0 0 127 0" result="hardAlpha"/>
<feOffset dy="1"/>
<feGaussianBlur stdDeviation="1"/>
<feComposite in2="hardAlpha" operator="out"/>
<feColorMatrix type="matrix" values="0 0 0 0 0 0 0 0 0 0 0 0 0 0 0 0 0 0 0.02 0"/>
<feBlend mode="normal" in2="BackgroundImageFix" result="effect1_dropShadow_19_1461"/>
<feColorMatrix in="SourceAlpha" type="matrix" values="0 0 0 0 0 0 0 0 0 0 0 0 0 0 0 0 0 0 127 0" result="hardAlpha"/>
<feOffset dy="4"/>
<feGaussianBlur stdDeviation="2"/>
<feComposite in2="hardAlpha" operator="out"/>
<feColorMatrix type="matrix" values="0 0 0 0 0 0 0 0 0 0 0 0 0 0 0 0 0 0 0.25 0"/>
<feBlend mode="normal" in2="effect1_dropShadow_19_1461" result="effect2_dropShadow_19_1461"/>
<feColorMatrix in="SourceAlpha" type="matrix" values="0 0 0 0 0 0 0 0 0 0 0 0 0 0 0 0 0 0 127 0" result="hardAlpha"/>
<feMorphology radius="4" operator="erode" in="SourceAlpha" result="effect3_dropShadow_19_1461"/>
<feOffset dy="2"/>
<feGaussianBlur stdDeviation="1"/>
<feComposite in2="hardAlpha" operator="out"/>
<feColorMatrix type="matrix" values="0 0 0 0 0 0 0 0 0 0 0 0 0 0 0 0 0 0 0.08 0"/>
<feBlend mode="normal" in2="effect2_dropShadow_19_1461" result="effect3_dropShadow_19_1461"/>
<feBlend mode="normal" in="SourceGraphic" in2="effect3_dropShadow_19_1461" result="shape"/>
</filter>
<filter id="filter1_ddd_19_1461" x="0" y="23.9131" width="93.0107" height="74.4618" filterUnits="userSpaceOnUse" color-interpolation-filters="sRGB">
<feFlood flood-opacity="0" result="BackgroundImageFix"/>
<feColorMatrix in="SourceAlpha" type="matrix" values="0 0 0 0 0 0 0 0 0 0 0 0 0 0 0 0 0 0 127 0" result="hardAlpha"/>
<feOffset dy="1"/>
<feGaussianBlur stdDeviation="1"/>
<feComposite in2="hardAlpha" operator="out"/>
<feColorMatrix type="matrix" values="0 0 0 0 0 0 0 0 0 0 0 0 0 0 0 0 0 0 0.02 0"/>
<feBlend mode="normal" in2="BackgroundImageFix" result="effect1_dropShadow_19_1461"/>
<feColorMatrix in="SourceAlpha" type="matrix" values="0 0 0 0 0 0 0 0 0 0 0 0 0 0 0 0 0 0 127 0" result="hardAlpha"/>
<feOffset dy="4"/>
<feGaussianBlur stdDeviation="2"/>
<feComposite in2="hardAlpha" operator="out"/>
<feColorMatrix type="matrix" values="0 0 0 0 0 0 0 0 0 0 0 0 0 0 0 0 0 0 0.25 0"/>
<feBlend mode="normal" in2="effect1_dropShadow_19_1461" result="effect2_dropShadow_19_1461"/>
<feColorMatrix in="SourceAlpha" type="matrix" values="0 0 0 0 0 0 0 0 0 0 0 0 0 0 0 0 0 0 127 0" result="hardAlpha"/>
<feMorphology radius="4" operator="erode" in="SourceAlpha" result="effect3_dropShadow_19_1461"/>
<feOffset dy="2"/>
<feGaussianBlur stdDeviation="1"/>
<feComposite in2="hardAlpha" operator="out"/>
<feColorMatrix type="matrix" values="0 0 0 0 0 0 0 0 0 0 0 0 0 0 0 0 0 0 0.08 0"/>
<feBlend mode="normal" in2="effect2_dropShadow_19_1461" result="effect3_dropShadow_19_1461"/>
<feBlend mode="normal" in="SourceGraphic" in2="effect3_dropShadow_19_1461" result="shape"/>
</filter>
<filter id="filter2_ddd_19_1461" x="28.3273" y="0.0903182" width="123.934" height="95.57" filterUnits="userSpaceOnUse" color-interpolation-filters="sRGB">
<feFlood flood-opacity="0" result="BackgroundImageFix"/>
<feColorMatrix in="SourceAlpha" type="matrix" values="0 0 0 0 0 0 0 0 0 0 0 0 0 0 0 0 0 0 127 0" result="hardAlpha"/>
<feMorphology radius="4.45484" operator="erode" in="SourceAlpha" result="effect1_dropShadow_19_1461"/>
<feOffset dy="6.68226"/>
<feGaussianBlur stdDeviation="1.11371"/>
<feComposite in2="hardAlpha" operator="out"/>
<feColorMatrix type="matrix" values="0 0 0 0 0 0 0 0 0 0 0 0 0 0 0 0 0 0 0.2 0"/>
<feBlend mode="normal" in2="BackgroundImageFix" result="effect1_dropShadow_19_1461"/>
<feColorMatrix in="SourceAlpha" type="matrix" values="0 0 0 0 0 0 0 0 0 0 0 0 0 0 0 0 0 0 127 0" result="hardAlpha"/>
<feOffset dy="4.45484"/>
<feGaussianBlur stdDeviation="2.22742"/>
<feComposite in2="hardAlpha" operator="out"/>
<feColorMatrix type="matrix" values="0 0 0 0 0 0 0 0 0 0 0 0 0 0 0 0 0 0 0.14 0"/>
<feBlend mode="normal" in2="effect1_dropShadow_19_1461" result="effect2_dropShadow_19_1461"/>
<feColorMatrix in="SourceAlpha" type="matrix" values="0 0 0 0 0 0 0 0 0 0 0 0 0 0 0 0 0 0 127 0" result="hardAlpha"/>
<feOffset dy="2.22742"/>
<feGaussianBlur stdDeviation="5.56855"/>
<feComposite in2="hardAlpha" operator="out"/>
<feColorMatrix type="matrix" values="0 0 0 0 0 0 0 0 0 0 0 0 0 0 0 0 0 0 0.12 0"/>
<feBlend mode="normal" in2="effect2_dropShadow_19_1461" result="effect3_dropShadow_19_1461"/>
<feBlend mode="normal" in="SourceGraphic" in2="effect3_dropShadow_19_1461" result="shape"/>
</filter>
</defs>
</svg>
