<svg width="20" height="51" viewBox="0 0 20 51" fill="none" xmlns="http://www.w3.org/2000/svg">
<g clip-path="url(#clip0_241_1040)">
<g filter="url(#filter0_ddd_241_1040)">
<path fill-rule="evenodd" clip-rule="evenodd" d="M-61.2298 18.1328C-59.7693 17.0122 -58 16.1214 -56.0059 16.1214C-52.0272 16.1214 -48.788 19.4163 -48.788 23.4966C-48.788 27.5769 -52.0272 30.8813 -56.0059 30.8813C-58 30.8813 -59.7693 29.981 -61.2298 28.8699C-63.0085 27.5098 -64.8808 28.8316 -65.0587 32.6054L-66.0323 44.2524C-66.1314 45.7722 -67.3471 46.9553 -68.8222 47.0013H-69V0.00136623C-68.9998 0.00135906 -68.9995 0.00135191 -68.9993 0.00134479H-68.8236C-67.3479 0.0466304 -66.1314 1.23043 -66.0323 2.75987L-65.0587 14.4069C-64.8902 18.1807 -63.0085 19.5025 -61.2298 18.1328ZM-68.8236 0.00134479H69.4232C69.4822 -0.000456196 69.5407 -0.000440014 69.5989 0.00134479H69.7969V0.0143455C71.1821 0.154106 72.2956 1.2994 72.3902 2.75987L73.3638 14.4069C73.5323 18.1807 75.414 19.5025 77.1928 18.1328C78.6532 17.0122 80.4225 16.1214 82.4166 16.1214C86.3953 16.1214 89.6345 19.4163 89.6345 23.4966C89.6345 27.5769 86.3953 30.8813 82.4166 30.8813C80.4225 30.8813 78.6532 29.981 77.1928 28.8699C75.414 27.5098 73.5417 28.8316 73.3638 32.6054L72.3902 44.2524C72.2956 45.7041 71.1821 46.8487 69.7969 46.9884V47.0013H69.6004C69.5415 47.0032 69.4822 47.0032 69.4225 47.0014L-68.8222 47.0013C-68.881 47.0032 -68.9403 47.0032 -69 47.0014V0.00136665C-69 0.00136651 -69 0.00136637 -69 0.00136623V0.00134479H-68.9993C-68.9404 -0.000456347 -68.8818 -0.000440163 -68.8236 0.00134479Z" fill="#CFCEDE"/>
</g>
</g>
<defs>
<filter id="filter0_ddd_241_1040" x="-71.9375" y="-0.734375" width="164.51" height="53.6121" filterUnits="userSpaceOnUse" color-interpolation-filters="sRGB">
<feFlood flood-opacity="0" result="BackgroundImageFix"/>
<feColorMatrix in="SourceAlpha" type="matrix" values="0 0 0 0 0 0 0 0 0 0 0 0 0 0 0 0 0 0 127 0" result="hardAlpha"/>
<feOffset dy="0.734375"/>
<feGaussianBlur stdDeviation="0.734375"/>
<feComposite in2="hardAlpha" operator="out"/>
<feColorMatrix type="matrix" values="0 0 0 0 0 0 0 0 0 0 0 0 0 0 0 0 0 0 0.02 0"/>
<feBlend mode="normal" in2="BackgroundImageFix" result="effect1_dropShadow_241_1040"/>
<feColorMatrix in="SourceAlpha" type="matrix" values="0 0 0 0 0 0 0 0 0 0 0 0 0 0 0 0 0 0 127 0" result="hardAlpha"/>
<feOffset dy="2.9375"/>
<feGaussianBlur stdDeviation="1.46875"/>
<feComposite in2="hardAlpha" operator="out"/>
<feColorMatrix type="matrix" values="0 0 0 0 0 0 0 0 0 0 0 0 0 0 0 0 0 0 0.25 0"/>
<feBlend mode="normal" in2="effect1_dropShadow_241_1040" result="effect2_dropShadow_241_1040"/>
<feColorMatrix in="SourceAlpha" type="matrix" values="0 0 0 0 0 0 0 0 0 0 0 0 0 0 0 0 0 0 127 0" result="hardAlpha"/>
<feMorphology radius="2.9375" operator="erode" in="SourceAlpha" result="effect3_dropShadow_241_1040"/>
<feOffset dy="1.46875"/>
<feGaussianBlur stdDeviation="0.734375"/>
<feComposite in2="hardAlpha" operator="out"/>
<feColorMatrix type="matrix" values="0 0 0 0 0 0 0 0 0 0 0 0 0 0 0 0 0 0 0.08 0"/>
<feBlend mode="normal" in2="effect2_dropShadow_241_1040" result="effect3_dropShadow_241_1040"/>
<feBlend mode="normal" in="SourceGraphic" in2="effect3_dropShadow_241_1040" result="shape"/>
</filter>
<clipPath id="clip0_241_1040">
<rect width="20" height="51" fill="white"/>
</clipPath>
</defs>
</svg>
